<?xml version="1.0" standalone="no"?>
<!DOCTYPE svg PUBLIC "-//W3C//DTD SVG 1.1//EN" "http://www.w3.org/Graphics/SVG/1.1/DTD/svg11.dtd" >
<svg xmlns="http://www.w3.org/2000/svg" xmlns:xlink="http://www.w3.org/1999/xlink" version="1.1">
<metadata>
Created by FontForge 20170731 at Sat Oct 23 12:07:33 2021
 By Aleksey,,,
Modern and elegant sans serif font.
</metadata>
<defs>
<font id="Hero-Bold" horiz-adv-x="0" >
  <font-face 
    font-family="Hero Bold"
    font-weight="700"
    font-stretch="normal"
    units-per-em="2048"
    panose-1="0 0 8 0 0 0 0 0 0 0"
    ascent="1536"
    descent="-512"
    x-height="1042"
    cap-height="1305"
    bbox="-865.696 -532 2237.54 1737"
    underline-thickness="102"
    underline-position="-307"
    unicode-range="U+0020-2122"
  />
<missing-glyph horiz-adv-x="409" 
 />
    <glyph glyph-name=".notdef" horiz-adv-x="409" 
 />
    <glyph glyph-name=".null" 
 />
    <glyph glyph-name="nonmarkingreturn" horiz-adv-x="682" 
 />
    <glyph glyph-name="space" unicode=" " horiz-adv-x="559" 
 />
    <glyph glyph-name="exclam" unicode="!" horiz-adv-x="374" 
d="M18 369v850q0 51 35.5 78.5t83.5 27.5q51 0 86 -27.5t35 -78.5v-850q0 -51 -36 -78t-85 -27q-50 0 -84.5 27t-34.5 78zM14 82v24q0 51 36 78t87 27q48 0 85.5 -28.5t37.5 -76.5v-24q0 -46 -38 -74t-85 -28q-53 0 -88 26.5t-35 75.5z" />
    <glyph glyph-name="quotedbl" unicode="&#x22;" horiz-adv-x="479" 
d="M229 1012q0 -50 -34 -77.5t-80 -27.5q-48 0 -81.5 27t-33.5 78v205q0 51 33.5 79.5t81.5 28.5q45 0 79.5 -28.5t34.5 -79.5v-205zM498 1012q0 -51 -34 -78t-81 -27t-80 27t-33 78v205q0 51 33.5 79.5t79.5 28.5t80.5 -28.5t34.5 -79.5v-205z" />
    <glyph glyph-name="numbersign" unicode="#" horiz-adv-x="1064" 
d="M139 389h-28q-45 0 -82 31t-37 76q0 42 37.5 74t81.5 32h61l21 103h-37q-56 0 -86.5 31t-30.5 73q0 41 29.5 73t83.5 36h75l52 292q8 48 35 71.5t85 23.5q61 0 90 -39t21 -88l-47 -260h158l51 294q7 45 39 69t73 24q52 0 86.5 -35.5t24.5 -91.5l-45 -260h31q52 0 83 -32
t31 -73t-30 -74t-84 -34h-64l-20 -103h39q47 0 82.5 -28.5t35.5 -77.5q0 -48 -32 -77.5t-86 -29.5h-74l-51 -291q-8 -47 -45 -72.5t-78 -25.5q-53 0 -84 31.5t-21 91.5l47 266h-159l-54 -297q-9 -45 -39.5 -68.5t-72.5 -23.5q-53 0 -90 35t-27 88zM401 596h170l25 115h-176z
" />
    <glyph glyph-name="dollar" unicode="$" horiz-adv-x="1390" 
d="M1233 403q0 -80 -29.5 -145t-77 -108.5t-112.5 -74.5t-131.5 -47t-139.5 -22v-90q0 -47 -33.5 -73.5t-78.5 -26.5q-47 0 -79 25.5t-32 74.5v90q-78 10 -148.5 31t-138 57t-117 93t-69.5 130q-16 57 23.5 92t97.5 35q41 0 72.5 -18.5t38.5 -54.5l-3 4q40 -127 244 -154
v346q-77 10 -138.5 23.5t-125 40t-105.5 63t-69 94t-27 130.5q0 69 27 128.5t72 101.5t105.5 74t125.5 50t135 26v37q0 50 34 78.5t81 28.5q44 0 76 -27.5t32 -79.5v-37q350 -31 439 -270q20 -56 -17.5 -93.5t-95.5 -37.5q-71 0 -104 59q-39 104 -222 127v-333
q63 -6 106.5 -11.5t99 -17.5t93 -27.5t76.5 -41.5t62 -59.5t38 -81.5t15 -108zM299 915q0 -67 56.5 -99.5t164.5 -45.5v313q-59 -10 -105 -28t-81 -54.5t-35 -85.5zM743 219q68 8 121 26t92 58.5t39 97.5q0 35 -19.5 60.5t-56.5 41.5t-78.5 25.5t-97.5 16.5v-326z" />
    <glyph glyph-name="percent" unicode="%" horiz-adv-x="1257" 
d="M246 25q-37 -45 -92 -45q-59 0 -90.5 55t2.5 110l839 1166q19 20 54 13t68.5 -25t51.5 -47t4 -54zM299 1325q128 0 216.5 -89.5t88.5 -219.5q0 -79 -36 -151t-107.5 -119.5t-161.5 -47.5q-131 0 -219 89.5t-88 228.5q0 123 87 216t220 93zM387 1020q-3 43 -28 76.5
t-60 33.5q-38 0 -64 -34t-26 -80t25.5 -84.5t64.5 -38.5q38 0 61.5 34.5t26.5 92.5zM844 604q128 0 217.5 -89t89.5 -220q0 -78 -36.5 -149.5t-108.5 -118.5t-162 -47q-130 0 -217.5 88.5t-87.5 226.5q0 124 86 216.5t219 92.5zM932 299q-2 43 -26.5 77t-61.5 34
t-63.5 -34.5t-26.5 -80.5t25.5 -83.5t64.5 -37.5t62.5 34t25.5 91z" />
    <glyph glyph-name="ampersand" unicode="&#x26;" horiz-adv-x="1261" 
d="M553 -20q-80 1 -152 12.5t-144.5 41t-124 75t-84 119t-32.5 167.5q0 88 43.5 160.5t118.5 110.5q-65 43 -100 115.5t-35 152.5q0 99 45 176.5t120 123t163.5 68.5t185.5 23q78 0 149.5 -11.5t138.5 -38t116 -66t78.5 -100.5t29.5 -136q0 -48 -34 -74.5t-81 -26.5
q-46 0 -79 26.5t-33 74.5q0 41 -24 71t-66 46.5t-90.5 24t-104.5 7.5q-116 0 -200.5 -50t-84.5 -140q0 -49 23 -85t64 -55t89 -27.5t107 -8.5h555q51 0 80 -31t29 -74q0 -40 -28.5 -69t-80.5 -29h-31v-160q0 -92 -29.5 -164t-78.5 -118t-118 -76t-142.5 -42.5t-157.5 -12.5z
M555 553q-52 0 -93 -3t-84 -13.5t-71.5 -27.5t-46.5 -47t-18 -71q0 -58 30 -101.5t78.5 -66.5t100 -34t104.5 -11t102.5 10.5t96 33.5t74.5 66.5t28 102.5v162h-301z" />
    <glyph glyph-name="quotesingle" unicode="'" horiz-adv-x="309" 
d="M248 1014q0 -48 -35 -75.5t-80 -27.5q-46 0 -79.5 27.5t-33.5 75.5v205q0 50 33.5 78t79.5 28q45 0 80 -28.5t35 -77.5v-205z" />
    <glyph glyph-name="parenleft" unicode="(" horiz-adv-x="540" 
d="M293 1311q38 35 92 35q46 0 79.5 -28.5t33.5 -68.5q0 -38 -45 -86q-103 -88 -157 -243.5t-54 -325.5q0 -174 53 -317t160 -232q39 -31 43.5 -79t-31.5 -87q-45 -35 -85.5 -32t-78.5 36q-148 129 -224.5 314.5t-76.5 394.5q0 201 77 394t214 325z" />
    <glyph glyph-name="parenright" unicode=")" horiz-adv-x="555" 
d="M180 1311q137 -132 214 -325t77 -394q0 -209 -76.5 -394.5t-224.5 -314.5q-38 -33 -78.5 -36t-85.5 32q-36 39 -31.5 87t43.5 79q107 89 160 232t53 317q0 170 -54 325.5t-157 243.5q-45 48 -45 86q0 40 33.5 68.5t79.5 28.5q54 0 92 -35z" />
    <glyph glyph-name="asterisk" unicode="*" horiz-adv-x="565" 
d="M532 950q0 -37 -22.5 -66.5t-59.5 -37t-85 19.5v-6q0 -47 -32 -73.5t-75 -26.5q-42 0 -71.5 28.5t-26.5 75.5q-68 -32 -119 -2t-51 86q0 55 65 88l21 11l-23 12q-65 33 -65 86q0 51 46 78.5t118 -2.5l8 -4v8q0 47 32.5 73.5t75.5 26.5q40 0 71 -25.5t32 -68.5
q55 30 106 0.5t51 -82.5q0 -51 -55 -86l-24 -16l28 -17q26 -13 40.5 -35.5t14.5 -44.5z" />
    <glyph glyph-name="plus" unicode="+" horiz-adv-x="1091" 
d="M625 705h239q55 0 86 -30t31 -71t-31 -72t-86 -34h-239v-252q0 -47 -34.5 -77t-84.5 -30q-55 0 -86 29.5t-31 77.5v252h-239q-49 0 -83 30.5t-34 73.5q0 49 32.5 76t84.5 27h239v253q0 44 31.5 74.5t85.5 30.5q49 0 84 -31t35 -74v-253z" />
    <glyph glyph-name="comma" unicode="," horiz-adv-x="284" 
d="M152 -129q-17 -31 -44.5 -47.5t-58.5 -16.5q-50 0 -82.5 47.5t-15.5 100.5l80 186q30 64 102 64q63 0 101.5 -46.5t5.5 -107.5z" />
    <glyph glyph-name="hyphen" unicode="-" horiz-adv-x="747" 
d="M145 506q-57 0 -87.5 30.5t-30.5 71.5q0 43 31.5 74t86.5 31h390q57 0 88.5 -31t31.5 -74q0 -42 -31 -72t-89 -30h-390z" />
    <glyph glyph-name="period" unicode="." horiz-adv-x="288" 
d="M147 219q60 0 96 -33.5t36 -87.5q0 -53 -36 -85.5t-96 -32.5q-58 0 -96.5 33t-38.5 85q0 53 38.5 87t96.5 34z" />
    <glyph glyph-name="slash" unicode="/" horiz-adv-x="751" 
d="M518 1319q14 28 42.5 43.5t60.5 15.5q58 0 96 -42.5t16 -100.5l-583 -1362q-31 -63 -105 -63q-62 0 -97.5 45.5t-6.5 103.5z" />
    <glyph glyph-name="zero" unicode="0" horiz-adv-x="1097" 
d="M18 831q0 119 42 215t112.5 155.5t157.5 91.5t182 32q96 0 184 -32t158.5 -91.5t113 -155.5t42.5 -215v-356q1 -119 -41.5 -215.5t-113.5 -156.5t-159 -91.5t-184 -31.5q-95 0 -182 31.5t-157.5 91.5t-112.5 156.5t-42 215.5v356zM778 831q0 146 -78 219.5t-190 73.5
q-109 0 -186 -73.5t-76 -219.5v-356q0 -142 77.5 -218.5t184.5 -76.5q53 0 99.5 17t85 51t61 92.5t22.5 134.5v356z" />
    <glyph glyph-name="one" unicode="1" horiz-adv-x="661" 
d="M350 1280q42 45 105 45q50 0 85 -28t35 -78v-1141q0 -48 -33 -73t-79 -25q-47 0 -81 25t-34 73v827l-88 -117q-35 -49 -94 -49q-57 0 -89 57.5t1 112.5z" />
    <glyph glyph-name="two" unicode="2" horiz-adv-x="1163" 
d="M438 201l144 6h346q57 0 90 -32t33 -73q0 -42 -31.5 -72t-89.5 -30h-760q-53 4 -86 37.5t-33 77.5q0 48 47 86l572 448q65 46 97.5 119.5t20.5 149.5q-12 99 -79 150.5t-164 51.5q-93 0 -160 -51t-86 -139q-6 -45 -38 -69.5t-75 -24.5q-50 0 -86 33.5t-30 88.5
q24 183 152.5 275t322.5 92q118 0 220 -44t171.5 -131.5t81.5 -203.5q31 -266 -203 -452z" />
    <glyph glyph-name="three" unicode="3" horiz-adv-x="1161" 
d="M154 485q41 0 74 -24.5t34 -63.5q6 -53 25.5 -92.5t45.5 -62.5t62.5 -37t70 -18.5t73.5 -4.5q111 0 180 76.5t69 196.5q0 101 -58 169t-146 68q-42 0 -74 -18q-47 -25 -87.5 -17.5t-67.5 40t-27 73.5q0 45 39 84l268 248h-447q-53 0 -81.5 29.5t-28.5 70.5
q0 42 28.5 72.5t81.5 30.5h684q52 0 89.5 -32.5t37.5 -76.5q0 -17 -14 -42t-35 -46q-95 -86 -274 -242q109 -10 189 -70.5t117.5 -148.5t37.5 -190q0 -212 -132.5 -344.5t-346.5 -132.5q-99 0 -181.5 20.5t-152 65t-114 121.5t-56.5 182q1 49 37.5 82.5t79.5 33.5z" />
    <glyph glyph-name="four" unicode="4" horiz-adv-x="1048" 
d="M838 1305q47 0 79.5 -29.5t32.5 -71.5v-1104q0 -48 -33.5 -74t-78.5 -26q-47 0 -81 25.5t-34 72.5v178h-592q-66 0 -103.5 29.5t-37.5 77.5q0 29 24 82l394 784q26 56 98 56q59 0 94 -45.5t2 -112.5l-332 -672h453v729q0 42 32.5 71.5t82.5 29.5z" />
    <glyph glyph-name="five" unicode="5" horiz-adv-x="1148" 
d="M250 393q18 -121 86 -168t182 -47q62 0 113.5 26t83 67.5t48.5 90.5t17 99q0 66 -28.5 122.5t-91.5 94t-150 37.5h-348q-50 0 -83.5 28t-33.5 72v373q0 56 36 86.5t97 30.5h627q57 0 88 -31t31 -74q0 -42 -31.5 -73t-87.5 -31h-531v-178h236q123 0 221 -38t159.5 -102.5
t93.5 -146t32 -172.5q0 -70 -21 -138.5t-63 -130t-100 -108.5t-139 -74.5t-173 -27.5q-194 0 -330 98t-170 278q-7 60 28.5 98t84.5 38q42 0 76 -25.5t41 -73.5z" />
    <glyph glyph-name="six" unicode="6" horiz-adv-x="1150" 
d="M561 1122q-115 0 -188.5 -77.5t-87.5 -204.5q120 90 284 90q215 0 348 -128t134 -337q0 -108 -42 -200.5t-112.5 -154t-163.5 -96t-196 -34.5q-133 0 -243.5 56t-175.5 157t-65 225v360q0 255 140 401t368 146q247 0 389 -145q16 -16 10 -42t-26.5 -49t-47.5 -42
t-54 -20.5t-46 15.5q-80 80 -225 80zM539 184q112 0 193 77.5t81 203.5q0 116 -70.5 187t-185.5 71q-130 0 -200 -86t-70 -219q0 -105 73.5 -169.5t178.5 -64.5z" />
    <glyph glyph-name="seven" unicode="7" horiz-adv-x="1058" 
d="M676 1092h-555q-54 0 -84.5 30.5t-30.5 73.5q0 44 30.5 76.5t84.5 32.5h719q65 0 102 -28t37 -75q0 -34 -25 -76l-606 -1073q-12 -23 -41 -38t-61 -15q-44 0 -80.5 33t-36.5 71q0 28 12 52z" />
    <glyph glyph-name="eight" unicode="8" horiz-adv-x="1273" 
d="M1124 946q0 -180 -149 -272q89 -41 139.5 -121.5t50.5 -179.5q0 -108 -49 -187.5t-132 -122.5t-177 -63t-201 -20q-83 0 -158 11t-149 39t-128 71t-87 113t-33 159q0 98 57 177.5t154 121.5q-80 45 -126 115t-46 159q0 92 44 166t118 120t165.5 70t190.5 23q98 0 189 -25
t164.5 -71t118 -119.5t44.5 -163.5zM319 950q0 -84 86 -132t203 -48q115 0 200 48.5t85 131.5q0 82 -85 129t-200 47q-75 0 -139.5 -19t-107 -60t-42.5 -97zM932 377q0 56 -47.5 99.5t-120.5 65.5t-156 23q-131 0 -228 -51.5t-97 -136.5q0 -54 31.5 -94t83 -60t104 -29.5
t106.5 -9.5q42 0 83 4.5t86 18t78 34t55 56t22 80.5z" />
    <glyph glyph-name="nine" unicode="9" horiz-adv-x="1144" 
d="M510 184q133 0 207.5 75t77.5 206q-121 -90 -279 -90q-220 0 -355 127t-136 336q-1 143 72 256.5t189 172t249 58.5q93 0 180 -31t155 -86.5t109 -139.5t41 -183v-410q0 -225 -142.5 -360t-369.5 -135q-278 0 -404 153q-19 25 -2.5 61t50.5 60.5t70.5 35t58.5 -15.5
q36 -45 98.5 -67.5t130.5 -22.5zM535 1122q-114 0 -197.5 -78.5t-83.5 -205.5q0 -117 71.5 -188.5t188.5 -71.5q120 0 196 65.5t76 157.5v82q0 107 -73.5 173t-177.5 66z" />
    <glyph glyph-name="colon" unicode=":" horiz-adv-x="323" 
d="M129 885q60 0 96.5 -33t36.5 -86q0 -54 -36.5 -87.5t-96.5 -33.5t-96.5 33.5t-36.5 87.5q0 53 36.5 86t96.5 33zM129 240q60 0 95.5 -33.5t35.5 -87.5q0 -53 -36 -86t-95 -33t-97 33.5t-38 85.5q0 54 38 87.5t97 33.5z" />
    <glyph glyph-name="semicolon" unicode=";" horiz-adv-x="317" 
d="M129 883q60 0 96.5 -33t36.5 -86q0 -54 -36.5 -87.5t-96.5 -33.5q-59 0 -96 33.5t-37 87.5q0 52 37 85.5t96 33.5zM152 -129q-18 -35 -50.5 -50t-63.5 -9t-58 24t-35 50t6 69l80 186q28 59 94 64t107 -41.5t8 -112.5z" />
    <glyph glyph-name="less" unicode="&#x3c;" horiz-adv-x="634" 
d="M242 637l276 -256q19 -19 15.5 -47t-24 -52t-48.5 -43.5t-56.5 -21.5t-48.5 14l-331 324q-26 20 -35.5 37.5t-9.5 44.5q0 46 47 90l333 317q18 21 37.5 29t51.5 8q46 0 78 -29.5t32 -70.5q0 -38 -37 -78z" />
    <glyph glyph-name="equal" unicode="=" horiz-adv-x="905" 
d="M143 662q-53 0 -81.5 30t-28.5 72q0 41 28.5 70.5t81.5 29.5h545q54 0 85.5 -31t31.5 -71q0 -41 -31.5 -70.5t-85.5 -29.5h-545zM688 598q55 0 85 -30t30 -70t-30 -71t-85 -34h-545q-52 0 -82 31t-30 72q0 39 29 69t81 33h547z" />
    <glyph glyph-name="greater" unicode="&#x3e;" horiz-adv-x="671" 
d="M59 903q-36 39 -36 78q0 41 33 70.5t79 29.5q60 0 86 -37l334 -319q47 -39 47 -88q0 -28 -9 -44t-36 -38l-332 -324q-19 -17 -49 -14t-56.5 21.5t-48 43.5t-24 52t15.5 47l275 256z" />
    <glyph glyph-name="question" unicode="?" horiz-adv-x="1234" 
d="M893 889q0 59 -34.5 106t-88.5 73.5t-112.5 40t-114.5 13.5q-67 0 -128.5 -13t-119.5 -50.5t-80 -95.5q-10 -30 -37 -47t-63 -17q-56 0 -95.5 37.5t-21.5 93.5q28 85 88.5 146t140 91.5t157 44t161.5 13.5q66 0 133 -11.5t133.5 -34.5t124 -60.5t101.5 -85t68.5 -112.5
t22.5 -140q-1 -48 -13 -89.5t-27.5 -71.5t-44.5 -59t-52 -47t-64 -39.5t-64.5 -32.5t-69.5 -30q-33 -13 -51 -21t-42.5 -21.5t-37 -26t-22 -29.5t-9.5 -37v-39q0 -46 -37 -73t-84 -27t-81 26.5t-34 73.5v41q0 39 9.5 73t23 59.5t39.5 50t46.5 40t56.5 34.5t59 29t63 27
q38 16 59 26t51.5 28.5t47 36.5t29.5 45.5t14 60.5zM641 80q0 -48 -37.5 -74t-87.5 -26q-52 0 -91.5 26.5t-39.5 73.5v12q0 49 38 77t91 28q54 0 90.5 -27t36.5 -78v-12z" />
    <glyph glyph-name="at" unicode="@" horiz-adv-x="1568" 
d="M1419 457v-174q0 -152 -62 -227.5t-173 -75.5q-90 0 -146 29.5t-98 101.5q-35 -43 -104 -74t-129 -31q-178 0 -297 128.5t-119 322.5q0 123 61.5 226t164 161.5t220.5 58.5q101 0 181 -33.5t128 -89.5t72.5 -123t24.5 -141v-215q0 -87 8 -122.5t35 -35.5q10 0 19.5 17.5
t15.5 54.5t6 86v156q0 144 -36.5 248.5t-104 165t-153.5 88.5t-196 28q-227 0 -378.5 -151.5t-151.5 -378.5q0 -247 133 -389t365 -142q91 0 186 39q49 20 84.5 -11.5t29.5 -81.5t-59 -75q-99 -47 -239 -47q-201 0 -359 90.5t-246 252.5t-88 368q0 144 57.5 275t154.5 225
t231 150t282 56q335 0 507.5 -180t172.5 -530zM930 588q-29 58 -80 89.5t-113 31.5q-99 0 -166 -72t-67 -182q0 -115 56 -184.5t147 -69.5q72 0 134 31t89 87v269z" />
    <glyph glyph-name="A" unicode="A" horiz-adv-x="1427" 
d="M670 1325q76 0 104 -57l580 -1137q37 -63 -2.5 -107t-104.5 -44q-31 0 -60.5 15.5t-43.5 43.5l-144 285h-659l-143 -285q-27 -59 -103 -59q-59 0 -99.5 44t-14.5 101l583 1143q14 32 39.5 44.5t67.5 12.5zM670 979l-230 -457h459z" />
    <glyph glyph-name="B" unicode="B" horiz-adv-x="1406" 
d="M698 1305q55 0 107 -5.5t111.5 -19t108.5 -40t90 -64.5t64 -97t23 -133q0 -69 -33 -137.5t-88 -99.5q104 -42 157.5 -123t53.5 -191q0 -92 -32.5 -162.5t-84.5 -113.5t-125.5 -70.5t-148.5 -38t-160 -10.5h-499q-49 0 -85 32.5t-36 76.5v1087q0 45 35.5 77t85.5 32h456z
M698 1102h-340v-318h347q113 0 187.5 40.5t74.5 121.5q0 47 -26.5 80t-71 48.5t-85.5 21.5t-86 6zM801 582h-443v-379h383q310 0 310 192q0 90 -70 138.5t-180 48.5z" />
    <glyph glyph-name="C" unicode="C" horiz-adv-x="1366" 
d="M717 1325q330 0 510 -203q52 -59 28.5 -117t-83 -64.5t-115.5 42.5q-71 77 -153 105t-189 28q-195 0 -313.5 -123.5t-118.5 -324.5q0 -217 121 -348.5t321 -131.5q94 0 190 48t156 120q53 63 120 58t87 -58t-21 -123q-83 -116 -232 -184.5t-304 -68.5q-303 0 -488.5 189
t-185.5 499q0 193 88.5 344t240.5 232t341 81z" />
    <glyph glyph-name="D" unicode="D" horiz-adv-x="1345" 
d="M604 1305q279 0 450 -180t171 -474q0 -293 -170.5 -472t-450.5 -179h-422q-55 0 -95 35.5t-40 85.5v1065q0 49 39.5 84t95.5 35h422zM604 203q172 0 278.5 123t106.5 325t-106.5 327.5t-278.5 125.5h-323v-901h323z" />
    <glyph glyph-name="E" unicode="E" horiz-adv-x="1308" 
d="M1067 205q51 0 82 -33t31 -74q0 -40 -29.5 -69t-83.5 -29h-813q-60 0 -97.5 35.5t-37.5 87.5v1061q0 51 37.5 86t97.5 35h813q52 0 80.5 -29t28.5 -70q0 -40 -29.5 -71t-79.5 -31h-715v-359h678q50 0 78.5 -30.5t28.5 -71.5q0 -40 -28 -69t-79 -29h-678v-340h715z" />
    <glyph glyph-name="F" unicode="F" horiz-adv-x="1263" 
d="M354 1106v-408h656q51 0 78.5 -30t27.5 -70t-27.5 -68t-78.5 -28h-656v-391q0 -51 -35 -81t-81 -30q-47 0 -83 29.5t-36 79.5v1075q0 49 39.5 85t93.5 36h795q52 0 80 -29.5t28 -71.5q0 -40 -28 -69t-80 -29h-693z" />
    <glyph glyph-name="G" unicode="G" horiz-adv-x="1443" 
d="M1257 315q0 -54 -30 -86q-95 -110 -241.5 -179.5t-289.5 -69.5q-199 0 -350 85.5t-231 241t-76 357.5q0 298 182.5 479.5t480.5 181.5q139 0 270.5 -50.5t219.5 -144.5q55 -58 33 -118.5t-83 -67.5t-124 47q-125 131 -316 131q-192 0 -310 -129t-118 -336
q3 -207 120 -339t304 -132q90 0 179 40.5t149 109.5v209h-299q-55 0 -84 29t-29 69q0 43 29.5 74t83.5 31h408q67 0 94.5 -29t27.5 -82v-322z" />
    <glyph glyph-name="H" unicode="H" horiz-adv-x="1398" 
d="M1079 1305q47 0 84 -29t37 -78v-1087q0 -52 -37 -81.5t-84 -29.5q-48 0 -82 29t-34 82v421h-613v-421q0 -53 -34 -82t-80 -29q-49 0 -85 30t-36 81v1087q0 50 33.5 78.5t80.5 28.5q48 0 84.5 -28.5t36.5 -78.5v-467h613v467q0 50 34.5 78.5t81.5 28.5z" />
    <glyph glyph-name="I" unicode="I" horiz-adv-x="450" 
d="M92 1194q0 54 34.5 82.5t84.5 28.5q49 0 85 -29t36 -82v-1090q0 -49 -36.5 -76.5t-84.5 -27.5q-50 0 -84.5 26.5t-34.5 77.5v1090z" />
    <glyph glyph-name="J" unicode="J" horiz-adv-x="1185" 
d="M772 1100h-321q-57 0 -90 30.5t-33 71.5t33 72t90 31h432q45 0 79 -29.5t39 -69.5v-739q1 -220 -148.5 -353.5t-395.5 -133.5q-137 0 -253 57.5t-184.5 159t-68.5 223.5q0 48 37 81.5t82 33.5q49 0 82.5 -27.5t37.5 -81.5q6 -109 79.5 -175.5t187.5 -66.5q141 0 228 78
t87 205v633z" />
    <glyph glyph-name="K" unicode="K" horiz-adv-x="1284" 
d="M1169 182q39 -48 39 -84q0 -42 -33.5 -70t-80.5 -28q-61 0 -97 39l-489 524l-154 -135v-322q0 -49 -36.5 -77.5t-84.5 -28.5t-82 28t-34 78v1094q0 51 34 78t82 27q49 0 85 -27t36 -78v-489l633 561q39 33 86 33q48 0 83.5 -33t35.5 -74q0 -42 -41 -80l-475 -411z" />
    <glyph glyph-name="L" unicode="L" horiz-adv-x="1179" 
d="M240 0q-64 0 -93.5 28t-29.5 83v1089q0 50 36 77.5t85 27.5q47 0 82.5 -28t35.5 -77v-995h672q56 0 89.5 -31.5t33.5 -71.5q0 -42 -33 -72t-90 -30h-788z" />
    <glyph glyph-name="M" unicode="M" horiz-adv-x="1642" 
d="M242 1305q64 0 104 -62l428 -670l426 672q40 60 109 60q47 0 80.5 -31t33.5 -84v-1084q0 -50 -36.5 -78t-83.5 -28q-48 0 -82.5 27.5t-34.5 78.5v691l-305 -478q-33 -59 -107 -59q-32 0 -62.5 18t-47.5 48l-302 469v-689q0 -51 -35.5 -78.5t-82.5 -27.5q-48 0 -83.5 27.5
t-35.5 78.5v1082q0 52 35 84.5t82 32.5z" />
    <glyph glyph-name="N" unicode="N" horiz-adv-x="1415" 
d="M987 1204q0 47 37.5 74t87.5 27t84.5 -26t34.5 -75v-1081q0 -58 -41 -90.5t-96 -32.5q-35 0 -69 16.5t-54 42.5l-627 807l8 -114v-643q0 -53 -36 -81t-85 -28q-51 0 -86.5 27.5t-35.5 81.5v1071q0 59 36 92t88 33q69 0 119 -62l643 -835l-8 137v659z" />
    <glyph glyph-name="O" unicode="O" horiz-adv-x="1525" 
d="M1382 651q0 -302 -183 -486.5t-482 -184.5q-301 0 -486.5 184.5t-185.5 486.5t185.5 488t486.5 186q299 0 482 -185.5t183 -488.5zM717 188q192 0 309 128t117 335q0 209 -117 337t-309 128q-193 0 -311.5 -128t-118.5 -337q0 -207 118.5 -335t311.5 -128z" />
    <glyph glyph-name="P" unicode="P" horiz-adv-x="1310" 
d="M354 362v-258q0 -50 -35.5 -77t-82.5 -27q-48 0 -82.5 27t-34.5 75v1096q0 47 34.5 77t84.5 30h417q252 0 395.5 -131.5t143.5 -350.5q0 -210 -145 -335.5t-400 -125.5h-295zM354 1102v-537h295q149 0 230.5 69.5t81.5 188.5q0 128 -80 203.5t-224 75.5h-303z" />
    <glyph glyph-name="Q" unicode="Q" horiz-adv-x="1542" 
d="M1309 190q37 -44 33.5 -87t-37.5 -73.5t-76 -29.5q-46 0 -80 37l-47 49q-157 -106 -385 -106q-301 0 -486.5 184.5t-185.5 486.5t185.5 488t486.5 186q299 0 482 -185.5t183 -488.5q0 -243 -120 -411zM717 188q129 0 229 62l-84 88q-35 41 -35 78q0 43 32.5 72.5
t78.5 29.5q52 0 94 -39l62 -63q49 107 49 235q0 209 -117 337t-309 128q-193 0 -311.5 -128t-118.5 -337q0 -207 118.5 -335t311.5 -128z" />
    <glyph glyph-name="R" unicode="R" horiz-adv-x="1345" 
d="M1182 201q58 -61 39 -125t-77 -73.5t-112 36.5l-366 391h-310v-324q0 -49 -35.5 -77.5t-82.5 -28.5q-49 0 -84 27.5t-35 76.5v1094q0 47 33 77t86 30h456q265 0 409 -125t144 -318q0 -148 -79 -254t-232 -149zM356 629h340q156 0 235.5 65.5t76.5 165.5q-2 104 -86 171
t-226 67h-340v-469z" />
    <glyph glyph-name="S" unicode="S" horiz-adv-x="1323" 
d="M14 309q-14 57 26 93t99 36q42 0 74 -21t39 -59q16 -47 56.5 -81t95.5 -51t108.5 -24t110.5 -7q61 0 119 8.5t117.5 29t95.5 62t36 98.5q0 27 -11.5 49t-28.5 37t-48 27t-57.5 19t-70.5 13t-73.5 8.5t-78.5 6.5q-73 6 -122 11.5t-117 18t-113.5 29t-95.5 44.5t-79.5 64
t-49 88.5t-19.5 117.5q0 81 35.5 149t93 113.5t133.5 77t155 45.5t158 14q87 0 169 -14t164.5 -44.5t148.5 -89.5t100 -139q16 -54 -22.5 -93.5t-94.5 -39.5q-35 0 -63.5 15.5t-40.5 42.5q-55 143 -359 143q-47 0 -99.5 -9t-107 -28t-90 -57t-35.5 -88q0 -32 12.5 -57
t40.5 -41.5t57 -28t78 -18.5t86.5 -11t98.5 -8q211 -20 282 -35q201 -41 269 -156q41 -71 41 -174q0 -94 -40 -168t-102 -119.5t-145.5 -75t-163.5 -41t-163 -11.5q-88 0 -177 16t-179.5 51.5t-159 103t-93.5 158.5z" />
    <glyph glyph-name="T" unicode="T" horiz-adv-x="1206" 
d="M1061 1305q55 0 88 -32t33 -75q0 -41 -33 -72.5t-88 -31.5h-381l2 -985q0 -51 -38 -80t-83 -29q-47 0 -83 28.5t-36 80.5v985h-379q-56 0 -85 31t-29 73q0 44 29 75.5t85 31.5h998z" />
    <glyph glyph-name="U" unicode="U" horiz-adv-x="1554" 
d="M1110 1196q0 52 35.5 80.5t85.5 28.5q49 0 84 -28t35 -79v-623q0 -267 -169.5 -431t-447.5 -164t-447 164t-169 431v627q0 48 35 75.5t84 27.5q50 0 86 -27t36 -78v-625q0 -170 103 -275t270 -105q170 0 274.5 105t104.5 275v621z" />
    <glyph glyph-name="V" unicode="V" horiz-adv-x="1400" 
d="M-8 1153q-26 61 14 106.5t100 45.5q76 0 107 -64l451 -864l442 860q36 68 104 68q63 0 103 -47.5t6 -114.5l-549 -1080q-37 -63 -106 -63q-78 0 -111 68z" />
    <glyph glyph-name="W" unicode="W" horiz-adv-x="2396" 
d="M645 383l373 739q13 33 41.5 50.5t64.5 17.5q35 0 66.5 -17t48.5 -47l373 -743l383 840q18 38 49 60t70 22q61 0 101 -48t9 -116l-498 -1073q-15 -33 -45 -50.5t-67 -17.5q-76 0 -107 63l-381 752l-376 -752q-13 -29 -46 -46t-71 -17q-81 0 -107 68l-489 1065
q-31 67 6 119.5t98 52.5q82 0 125 -93z" />
    <glyph glyph-name="X" unicode="X" horiz-adv-x="1314" 
d="M1204 178q33 -42 33 -78q0 -41 -33.5 -70.5t-79.5 -29.5q-64 0 -102 43l-406 451l-407 -451q-37 -43 -94 -43q-45 0 -79 30.5t-34 71.5q0 42 33 78l438 482l-426 475q-29 37 -21.5 74.5t41 65.5t72.5 28q56 0 88 -35l394 -436l395 432q33 39 88 39q40 0 73.5 -27.5
t39 -66t-26.5 -78.5l-424 -467z" />
    <glyph glyph-name="Y" unicode="Y" horiz-adv-x="1263" 
d="M215 1247l377 -514l377 508q48 64 110 64q39 0 70.5 -27.5t37 -67.5t-25.5 -86l-448 -600v-401q0 -54 -38 -88.5t-81 -34.5q-51 0 -85 33.5t-34 89.5v401l-459 606q-29 44 -23 83t38.5 65.5t74.5 26.5q67 0 109 -58z" />
    <glyph glyph-name="Z" unicode="Z" horiz-adv-x="1257" 
d="M350 211h729q56 0 87.5 -31.5t31.5 -73.5q0 -41 -31 -72t-88 -34h-950q-59 0 -93 28t-34 70q0 39 33 78l809 924h-688q-54 0 -83.5 30t-29.5 70q0 41 29.5 73t81.5 32h919q59 0 93 -28.5t34 -70.5q0 -35 -35 -82z" />
    <glyph glyph-name="bracketleft" unicode="[" horiz-adv-x="524" 
d="M307 1233v-1223h96q59 0 92 -30t33 -72q0 -43 -32.5 -74t-92.5 -31h-198q-54 0 -92.5 34t-38.5 81v1407q0 49 38.5 83t92.5 34h198q59 0 93 -31.5t34 -73.5t-32.5 -73t-94.5 -31h-96z" />
    <glyph glyph-name="backslash" unicode="\" horiz-adv-x="696" 
d="M727 -27q24 -60 -11.5 -106.5t-92.5 -46.5q-75 0 -111 65l-578 1385q-25 60 13 104.5t96 44.5q35 0 65 -17t44 -50z" />
    <glyph glyph-name="bracketright" unicode="]" horiz-adv-x="524" 
d="M92 1239q-52 0 -80 29t-28 71q0 41 28 72t80 31h201q51 0 90 -35t39 -82v-1407q0 -49 -38.5 -83t-90.5 -34h-201q-56 0 -86.5 30.5t-30.5 72.5t31 74t86 32h92v1229h-92z" />
    <glyph glyph-name="asciicircum" unicode="^" horiz-adv-x="743" 
d="M643 1096q46 -60 13.5 -109t-97.5 -49q-59 0 -92 39l-125 160l-123 -160q-37 -43 -92 -43q-65 0 -96 55t14 109q34 44 97 121t96 120q43 52 106 52q60 0 105 -48z" />
    <glyph glyph-name="underscore" unicode="_" horiz-adv-x="888" 
d="M61 -139q-53 0 -83.5 30.5t-30.5 71.5q0 43 30.5 74t83.5 31h666q51 0 81 -31t30 -74q0 -41 -29 -71.5t-82 -30.5h-666z" />
    <glyph glyph-name="grave" unicode="`" horiz-adv-x="614" 
d="M240 1409l213 -135q26 -17 37.5 -39t8 -42t-15 -38.5t-32 -28.5t-42.5 -12t-47 12l-215 113q-52 36 -48.5 84.5t51 80.5t90.5 5z" />
    <glyph glyph-name="a" unicode="a" horiz-adv-x="1261" 
d="M952 1042q52 0 84.5 -29.5t32.5 -76.5v-830q0 -47 -32.5 -76.5t-84.5 -29.5q-50 0 -79 23t-35 63q-67 -53 -152.5 -79.5t-167.5 -26.5q-221 0 -349 147.5t-128 396.5q0 239 139.5 389t364.5 150q70 0 149.5 -26t143.5 -76q17 81 114 81zM543 186q95 0 177 41.5t116 116.5
v354q-37 73 -114.5 115.5t-160.5 42.5q-128 0 -207.5 -93.5t-79.5 -240.5q0 -152 73.5 -244t195.5 -92z" />
    <glyph glyph-name="b" unicode="b" horiz-adv-x="1265" 
d="M631 1063q231 0 362 -145.5t131 -385.5q0 -157 -53 -281.5t-157 -197.5t-242 -73q-202 0 -340 126q0 -106 -111 -106q-56 0 -87.5 27.5t-31.5 76.5v1119q0 51 34 76.5t83 25.5q48 0 82.5 -26t34.5 -76l-2 -285q66 61 143.5 93t153.5 32zM623 188q121 0 194.5 94t73.5 248
q0 146 -79 235t-208 89q-86 0 -161 -46t-109 -128l-2 -307q27 -89 107.5 -137t183.5 -48z" />
    <glyph glyph-name="c" unicode="c" horiz-adv-x="1101" 
d="M809 762q-85 100 -236 100q-135 0 -217 -94t-82 -250q0 -152 85 -244t223 -92q145 0 237 92q56 57 116.5 45t72.5 -65t-31 -111q-148 -163 -397 -163q-244 0 -392.5 147t-148.5 389q0 249 146 398t388 149q120 0 215.5 -37.5t174.5 -128.5q28 -33 31.5 -69t-15.5 -60.5
t-46.5 -39t-62 -6.5t-61.5 40z" />
    <glyph glyph-name="d" unicode="d" horiz-adv-x="1263" 
d="M954 1325q48 0 83.5 -26t35.5 -76v-1119q0 -50 -31 -77t-88 -27q-107 0 -110 98q-64 -56 -145 -86t-158 -30q-228 0 -362 151.5t-134 398.5q0 233 140 382t364 149q70 0 148 -27.5t143 -79.5v267q0 51 33.5 76.5t80.5 25.5zM547 188q105 0 187 48t110 133l-2 315
q-34 81 -111.5 126.5t-165.5 45.5q-127 0 -206.5 -92.5t-79.5 -233.5q0 -152 73.5 -247t194.5 -95z" />
    <glyph glyph-name="e" unicode="e" horiz-adv-x="1267" 
d="M586 182q130 0 223 72q36 32 75 38t66.5 -11.5t44 -45t9 -65t-40.5 -68.5q-131 -126 -371 -122q-241 0 -391 144t-150 374q0 254 145.5 409.5t389.5 155.5q242 0 377 -145.5t137 -387.5q0 -61 -24.5 -91.5t-104.5 -30.5h-682q28 -101 109 -163.5t188 -62.5zM588 860
q-118 0 -198.5 -73.5t-102.5 -196.5h596q-11 127 -83.5 198.5t-211.5 71.5z" />
    <glyph glyph-name="f" unicode="f" horiz-adv-x="716" 
d="M471 1155q-40 0 -69 -26t-29 -74v-35h135q48 0 73 -28.5t25 -67.5q0 -40 -25 -68.5t-73 -28.5h-135v-725q0 -48 -35 -75t-82 -27q-48 0 -82.5 27t-34.5 75v725h-53q-48 0 -76 29t-28 68t27.5 67.5t76.5 28.5h53v35q0 136 96 217.5t228 81.5q136 0 221 -74
q30 -26 36 -60.5t-10 -61.5t-41.5 -45.5t-60.5 -16t-65 29.5q-29 29 -72 29z" />
    <glyph glyph-name="g" unicode="g" horiz-adv-x="1265" 
d="M956 1042q53 0 86 -33.5t33 -82.5v-863q0 -146 -70 -251t-185 -155t-261 -50q-125 0 -219.5 32t-175.5 107q-27 27 -35 57t0.5 55.5t28 45t45.5 28.5t56.5 3t57.5 -29q60 -53 113 -70.5t129 -17.5q120 0 203.5 62.5t83.5 182.5v19q-66 -50 -148 -76t-157 -26
q-223 0 -359.5 148.5t-136.5 395.5q0 239 139.5 389t364.5 150q173 0 297 -92q22 71 110 71zM547 186q99 0 182.5 43t114.5 121v342q-37 76 -115.5 120t-163.5 44q-128 0 -207 -93.5t-79 -240.5q0 -152 73.5 -244t194.5 -92z" />
    <glyph glyph-name="h" unicode="h" horiz-adv-x="1320" 
d="M678 1063q211 0 330.5 -135.5t119.5 -358.5v-463q0 -48 -30 -77t-86 -29q-52 0 -84.5 29.5t-32.5 76.5v467q0 132 -62.5 208.5t-187.5 76.5q-33 0 -72 -10.5t-81 -36t-76 -61.5t-56 -93t-22 -125v-426q0 -48 -30.5 -77t-84.5 -29q-55 0 -88 29t-33 77v1121
q0 45 36.5 71.5t82.5 26.5q47 0 82 -26.5t35 -71.5v-279q135 115 340 115z" />
    <glyph glyph-name="i" unicode="i" horiz-adv-x="413" 
d="M307 1196q0 -49 -36 -75.5t-83 -26.5q-50 0 -84 26t-34 76v27q0 50 34 76t84 26q47 0 83 -26.5t36 -75.5v-27zM72 942q0 46 35.5 73t80.5 27q46 0 81.5 -26.5t35.5 -71.5v-844q0 -48 -35 -74t-82 -26q-46 0 -81 26t-35 74v842z" />
    <glyph glyph-name="j" unicode="j" horiz-adv-x="428" 
d="M322 1196q0 -49 -36 -75.5t-83 -26.5q-50 0 -84.5 26t-34.5 76v27q0 50 34.5 76t84.5 26q47 0 83 -26.5t36 -75.5v-27zM90 -332q-67 -25 -114.5 7t-47.5 87q0 61 68 97q56 32 73 71t17 109v901q0 44 32 73t87 29q45 0 79.5 -30t34.5 -72v-834q0 -36 0.5 -70t-4.5 -68.5
t-12.5 -66t-24 -63t-39.5 -60t-59.5 -56.5t-83.5 -52z" />
    <glyph glyph-name="k" unicode="k" horiz-adv-x="1009" 
d="M918 176q33 -45 27.5 -84t-38 -65.5t-73.5 -26.5q-56 0 -95 45l-346 385l-59 -53v-273q0 -48 -36 -76t-83 -28t-81 27.5t-34 76.5v1117q0 40 24 67t58.5 33t69 0t58.5 -33t24 -67v-566l379 355q40 32 86 32q49 0 84 -31t35 -73q0 -39 -44 -80l-321 -285z" />
    <glyph glyph-name="l" unicode="l" horiz-adv-x="413" 
d="M305 102q0 -42 -34 -72t-83 -30q-51 0 -83.5 30t-32.5 72v1121q0 42 32.5 72t83.5 30q49 0 83 -30t34 -72v-1121z" />
    <glyph glyph-name="m" unicode="m" horiz-adv-x="2187" 
d="M1499 1063q210 0 330.5 -136.5t120.5 -359.5v-461q0 -48 -30.5 -77t-86.5 -29q-52 0 -84.5 29.5t-32.5 76.5v465q0 133 -62.5 210t-187.5 77q-50 0 -104 -24t-100.5 -67t-76.5 -111t-30 -148v-402q0 -48 -30.5 -77t-84.5 -29q-53 0 -85.5 29.5t-32.5 76.5v465
q0 133 -62.5 210t-187.5 77q-42 0 -92 -22t-98 -62.5t-80.5 -110.5t-32.5 -155v-406q0 -49 -35 -75.5t-82 -26.5q-48 0 -81.5 26t-33.5 76v836q0 43 34 73.5t81 30.5q51 0 84 -30t33 -74v-6q137 131 338 131q126 0 220.5 -51t151.5 -144q59 73 137.5 119t145.5 61t137 15z
" />
    <glyph glyph-name="n" unicode="n" horiz-adv-x="1320" 
d="M690 1063q211 0 331 -135.5t120 -358.5v-463q0 -48 -31 -77t-86 -29q-52 0 -84.5 29.5t-32.5 76.5v467q0 133 -63 209t-189 76q-33 0 -73.5 -13t-84.5 -41.5t-79.5 -68t-58.5 -99t-23 -128.5v-404q0 -50 -29 -77t-84 -27t-88 27.5t-33 76.5v834q0 48 34.5 76t82.5 28
q46 0 81.5 -27.5t35.5 -72.5v-14q145 135 354 135z" />
    <glyph glyph-name="o" unicode="o" horiz-adv-x="1214" 
d="M586 1063q245 0 394.5 -151t149.5 -396q-3 -241 -152.5 -388.5t-391.5 -147.5t-392 147.5t-153 388.5q0 245 150.5 396t394.5 151zM586 184q137 0 221 92t84 240q0 152 -84 247t-221 95t-221 -95t-84 -247q0 -148 84 -240t221 -92z" />
    <glyph glyph-name="p" unicode="p" horiz-adv-x="1269" 
d="M627 1063q226 0 364.5 -147t138.5 -384q0 -248 -136 -400t-359 -152q-71 0 -153 25t-148 69v-314q0 -48 -34.5 -76t-80.5 -28q-48 0 -82.5 28t-34.5 76v1178q0 49 31.5 76.5t87.5 27.5q94 0 109 -71q127 92 297 92zM629 186q121 0 194.5 95t73.5 249q0 146 -79 236
t-208 90q-84 0 -161.5 -43.5t-114.5 -118.5v-340q31 -77 114.5 -122.5t180.5 -45.5z" />
    <glyph glyph-name="q" unicode="q" horiz-adv-x="1271" 
d="M958 1042q57 0 88 -27t31 -77v-1178q0 -48 -35 -76t-81 -28t-80.5 28t-34.5 76v314q-66 -44 -148 -69t-153 -25q-223 0 -359.5 152t-136.5 400q0 237 139.5 384t364.5 147q170 0 297 -92q15 71 108 71zM551 186q97 0 180.5 45.5t114.5 122.5v340q-37 74 -115 118t-162 44
q-129 0 -207.5 -90t-78.5 -236q0 -154 73.5 -249t194.5 -95z" />
    <glyph glyph-name="r" unicode="r" horiz-adv-x="690" 
d="M553 1042q121 0 121 -100q0 -49 -32.5 -77.5t-88.5 -28.5q-124 0 -179 -88t-55 -254v-390q0 -45 -32.5 -74.5t-79.5 -29.5q-54 0 -86.5 29t-32.5 75v834q0 47 36.5 75.5t82.5 28.5t79 -28t33 -76v-12q86 116 234 116z" />
    <glyph glyph-name="s" unicode="s" horiz-adv-x="1095" 
d="M27 244q-14 54 24 90.5t92 36.5q38 0 67 -22t42 -64q18 -52 92 -78.5t166 -26.5q109 0 177.5 40t68.5 102q0 30 -19.5 50t-57 30t-77.5 15t-94 9h-6q-190 17 -270 42q-161 52 -191 191q-8 35 -8 76q0 148 127 238t334 90q371 0 458 -223q19 -59 -20 -98.5t-94 -39.5
q-74 0 -101 64q-43 94 -243 94q-103 0 -165.5 -35t-62.5 -92q0 -24 9.5 -40.5t23 -25.5t40 -14.5t48.5 -7t61 -4.5t66 -6q181 -21 244 -38q165 -43 211 -157q20 -51 20 -118q0 -153 -132 -247.5t-347 -94.5q-58 0 -111 5.5t-115.5 22.5t-111 44.5t-88.5 77t-57 114.5z" />
    <glyph glyph-name="t" unicode="t" horiz-adv-x="788" 
d="M563 195q69 34 119.5 5t50.5 -87q0 -63 -67 -99q-42 -23 -76 -28.5t-92 -5.5q-330 0 -330 385v483h-78q-54 0 -83.5 28.5t-29.5 67.5q0 40 30 69t83 29h78v177q0 50 34 78t81 28q46 0 81 -28t35 -78v-177h160q51 0 81 -29.5t30 -68.5t-30 -67.5t-81 -28.5h-160v-483
q0 -39 3.5 -67.5t13 -57.5t30.5 -44.5t52 -15.5q30 0 65 15z" />
    <glyph glyph-name="u" unicode="u" horiz-adv-x="1314" 
d="M1006 1042q53 0 85.5 -32t32.5 -82v-824q0 -48 -35.5 -76t-80.5 -28q-48 0 -82.5 28t-34.5 78v9q-140 -135 -342 -135q-212 0 -331.5 133.5t-119.5 363.5v451q0 49 31.5 81.5t85.5 32.5q52 0 84.5 -33t32.5 -81v-455q0 -138 62.5 -213.5t189.5 -75.5q42 0 92.5 22.5
t99.5 63.5t82 111.5t33 155.5v391q0 51 30 82.5t85 31.5z" />
    <glyph glyph-name="v" unicode="v" horiz-adv-x="1136" 
d="M2 889q-22 59 16 106t95 47q73 0 106 -71l313 -635l314 637q35 69 110 69q59 0 93 -44t4 -107l-418 -848q-14 -27 -43.5 -45t-63.5 -18q-66 0 -102 59z" />
    <glyph glyph-name="w" unicode="w" horiz-adv-x="1861" 
d="M47 889q-26 60 14.5 106.5t98.5 46.5q33 0 64 -21t42 -48l266 -608l256 526q13 33 42 51.5t65 18.5q77 0 109 -68l258 -533l264 609q31 73 110 73q58 0 93 -45.5t10 -105.5l-363 -852q-22 -59 -104 -59q-83 0 -111 57l-262 555l-268 -553q-27 -59 -111 -59q-78 0 -104 61
z" />
    <glyph glyph-name="x" unicode="x" horiz-adv-x="1064" 
d="M946 195q39 -47 38 -90.5t-32.5 -74t-74.5 -30.5q-48 0 -93 45l-292 317l-291 -313q-46 -49 -103 -49q-42 0 -72 27.5t-31 68.5t38 88l315 340l-307 332q-39 47 -38 88.5t32.5 69.5t75.5 28q58 0 108 -53l277 -297l280 301q46 49 103 49q43 0 74 -27.5t31.5 -68
t-40.5 -88.5l-307 -330z" />
    <glyph glyph-name="y" unicode="y" horiz-adv-x="1144" 
d="M954 1042q55 0 91.5 -47t15.5 -106l-598 -1174q-20 -39 -52 -61.5t-67 -22.5q-57 0 -91 51.5t-5 110.5l155 307l-403 781q-27 59 10.5 110t95.5 51q32 0 63 -20.5t46 -52.5l315 -617l316 619q14 33 43 52t65 19z" />
    <glyph glyph-name="z" unicode="z" horiz-adv-x="1083" 
d="M354 203l518 2q55 0 87 -31.5t32 -73.5q0 -41 -31 -70.5t-88 -29.5h-741q-57 0 -90 29.5t-33 70.5q0 43 39 82l584 654l-477 -2q-53 0 -84 30.5t-31 71.5q0 43 31 74.5t84 31.5h704q54 0 88.5 -32.5t34.5 -75.5q0 -38 -37 -78z" />
    <glyph glyph-name="braceleft" unicode="{" horiz-adv-x="534" 
d="M-6 602q0 38 25.5 69t72.5 34q21 4 25 8q16 18 16 129v288q0 60 5.5 103t22.5 86t47.5 69.5t83 43t126.5 16.5q52 0 83 -32t31 -73q0 -43 -29.5 -72.5t-84.5 -29.5q-30 0 -39.5 -24t-9.5 -89v-301q0 -57 -1.5 -84.5t-17 -70.5t-47.5 -70q24 -22 38.5 -48.5t20 -62
t6.5 -55t1 -61.5v-293q0 -64 9.5 -87.5t39.5 -23.5q55 0 84.5 -30t29.5 -72q0 -41 -31 -73t-83 -32q-74 0 -126.5 16.5t-83 43t-47.5 69.5t-22.5 86t-5.5 103v276q0 113 -16 129l-25 9q-45 4 -71.5 35.5t-26.5 70.5z" />
    <glyph glyph-name="bar" unicode="|" horiz-adv-x="315" 
d="M25 1307q0 46 35.5 76t82.5 30q56 0 87.5 -29t31.5 -77v-1387q0 -102 -119 -102q-49 0 -83.5 27t-34.5 75v1387z" />
    <glyph glyph-name="braceright" unicode="}" horiz-adv-x="552" 
d="M516 602q0 -41 -25.5 -72t-72.5 -34q-18 -4 -23 -9q-18 -16 -18 -129v-276q0 -60 -5.5 -103t-22.5 -86t-47.5 -69.5t-83 -43t-126.5 -16.5q-52 0 -82 31.5t-30 73.5t28.5 72t83.5 30q31 0 41 23.5t10 87.5v293q0 42 1 61.5t6.5 55t20 62t38.5 48.5q-32 27 -47.5 70
t-17 70.5t-1.5 84.5v301q0 65 -10 89t-41 24q-55 0 -83.5 29.5t-28.5 72.5q0 42 30 73.5t82 31.5q74 0 126.5 -16.5t83 -43t47.5 -69.5t22.5 -86t5.5 -103v-288q0 -111 18 -129l23 -8q44 -3 71 -34.5t27 -68.5z" />
    <glyph glyph-name="asciitilde" unicode="~" horiz-adv-x="1056" 
d="M-8 516q22 129 89.5 183.5t176.5 54.5q51 0 105 -13.5t89 -28.5t91 -42q93 -44 141 -58q37 -6 56 6t26 50q7 44 39 66t76 22q50 0 85 -33.5t27 -89.5q-17 -115 -87.5 -174.5t-178.5 -59.5q-44 0 -94 13.5t-82 27t-84 39.5q-140 70 -207 70q-39 0 -47 -66
q-6 -41 -38 -62.5t-71 -21.5q-51 0 -85.5 31.5t-26.5 85.5z" />
    <glyph glyph-name="exclamdown" unicode="&#xa1;" horiz-adv-x="307" 
d="M14 961q0 49 35 75.5t88 26.5q47 0 85 -28t38 -74v-25q0 -48 -37.5 -76.5t-85.5 -28.5q-51 0 -87 27t-36 78v25zM18 674q0 51 34.5 77.5t84.5 26.5q49 0 85 -27t36 -77v-850q0 -51 -35 -79t-86 -28q-48 0 -83.5 28t-35.5 79v850z" />
    <glyph glyph-name="cent" unicode="&#xa2;" horiz-adv-x="1044" 
d="M782 274q56 57 116.5 45t72.5 -65t-31 -111q-120 -128 -301 -157v-66q0 -50 -32.5 -76t-80.5 -26t-82 27t-34 75v72q-188 38 -298 178.5t-110 345.5q0 214 109.5 356t298.5 179v73q0 46 34.5 72.5t79.5 26.5q46 0 80.5 -26t34.5 -73v-67q169 -26 287 -160
q28 -33 31.5 -69t-15.5 -60.5t-46.5 -39t-62 -6.5t-61.5 40q-51 59 -133 86v-653q84 20 143 79zM238 518q0 -109 46 -189.5t126 -117.5v625q-81 -37 -126.5 -120t-45.5 -198z" />
    <glyph glyph-name="yen" unicode="&#xa5;" horiz-adv-x="1257" 
d="M1094 1325q64 0 98.5 -48.5t-4.5 -115.5l-373 -499h76q56 0 86.5 -30t30.5 -69q0 -41 -31.5 -69.5t-85.5 -28.5h-178v-47h180q54 0 83.5 -29t29.5 -70q0 -39 -29 -67.5t-84 -28.5h-180v-112q0 -53 -37 -82t-82 -29q-52 0 -85.5 28t-33.5 83v112h-190q-51 4 -80 34t-29 65
q0 39 31.5 67.5t85.5 28.5h182v47h-192q-51 4 -80 33t-29 67t31.5 67.5t85.5 29.5h82l-377 499q-42 65 -6 114.5t104 49.5q37 0 61 -10t40 -37l397 -545l403 545q18 29 40 38t59 9z" />
    <glyph glyph-name="dieresis" unicode="&#xa8;" horiz-adv-x="851" 
d="M236 1380q49 0 91 -34.5t42 -85.5q0 -60 -40.5 -91.5t-92.5 -31.5q-53 0 -93.5 35.5t-40.5 87.5t40.5 86t93.5 34zM614 1380q52 0 94 -34t42 -86q0 -60 -40.5 -91.5t-95.5 -31.5q-54 0 -94.5 35t-40.5 88q0 52 40.5 86t94.5 34z" />
    <glyph glyph-name="copyright" unicode="&#xa9;" horiz-adv-x="1021" 
d="M487 1124q135 0 249 -63.5t180.5 -174t66.5 -243.5q0 -132 -66.5 -242.5t-180.5 -174.5t-249 -64q-209 0 -355 140t-146 341q0 133 66.5 243.5t182 174t252.5 63.5zM487 940q-125 0 -215 -85.5t-90 -211.5q0 -134 89 -217.5t216 -83.5q126 0 215 80.5t89 220.5
q0 125 -91.5 211t-212.5 86zM487 709q-28 0 -38.5 -17t-10.5 -55q0 -28 13 -46t36 -18q22 0 57.5 30t61.5 30q49 0 78 -22.5t30 -55t-16 -68.5q-27 -48 -88.5 -75t-122.5 -27q-116 0 -185 75.5t-69 182.5q0 106 66 178t188 72q75 0 138 -44t63 -85q1 -52 -28.5 -78.5
t-71.5 -26.5q-28 0 -55 25t-46 25z" />
    <glyph glyph-name="guillemotleft" unicode="&#xab;" horiz-adv-x="866" 
d="M236 539l256 -246q36 -36 36 -74q0 -44 -31 -74t-85 -30q-51 0 -93 39l-311 301q-25 24 -35 42t-10 42q0 37 51 88l316 307q19 19 34 25t48 6q46 0 81 -31.5t35 -73.5q0 -40 -36 -76zM594 539l256 -246q37 -37 37 -74q0 -44 -31.5 -74t-85.5 -30q-50 0 -92 39l-311 301
q-25 24 -35 42t-10 42q0 37 51 88l315 307q19 19 34 25t48 6q46 0 81.5 -31.5t35.5 -73.5q0 -39 -37 -76z" />
    <glyph glyph-name="registered" unicode="&#xae;" horiz-adv-x="980" 
d="M461 1108q134 0 247 -63.5t177.5 -172.5t64.5 -237q0 -129 -64.5 -239t-177.5 -174t-247 -64q-201 0 -344.5 140.5t-143.5 336.5q0 128 65.5 237t178 172.5t244.5 63.5zM461 930q-116 0 -199.5 -87t-83.5 -208q0 -124 83.5 -210.5t199.5 -86.5q118 0 200 86t82 211
q0 122 -82 208.5t-200 86.5zM385 856q43 0 68 -25q41 27 92 27q40 0 69 -23t29 -63q0 -35 -27 -59.5t-71 -24.5q-29 0 -45.5 -22.5t-16.5 -57.5v-116q0 -38 -27 -62t-71 -24q-45 0 -70.5 23.5t-25.5 62.5v276q-3 40 23.5 64t72.5 24z" />
    <glyph glyph-name="macron" unicode="&#xaf;" horiz-adv-x="741" 
d="M547 1350q44 0 68.5 -29t24.5 -63.5t-24.5 -63.5t-68.5 -29h-350q-44 0 -69.5 29t-25.5 63.5t25.5 63.5t69.5 29h350z" />
    <glyph glyph-name="degree" unicode="&#xb0;" horiz-adv-x="413" 
d="M186 1350q91 0 154 -59t63 -142q0 -87 -63 -146t-154 -59t-154 59t-63 146q0 83 63 142t154 59zM188 1174q-7 0 -11.5 -7.5t-4.5 -15.5q0 -31 16 -31q6 0 11.5 8t5.5 21q0 10 -5.5 17.5t-11.5 7.5z" />
    <glyph glyph-name="plusminus" unicode="&#xb1;" horiz-adv-x="970" 
d="M571 739h203q51 0 81 -30.5t30 -71.5q0 -40 -30 -70t-81 -30h-203v-205q0 -51 -34 -78t-82 -27q-47 0 -83 27t-36 76v207h-205q-53 0 -82 30t-29 70q0 42 28.5 72t82.5 30h205v217q0 52 33.5 79.5t81.5 27.5t84 -28.5t36 -78.5v-217zM131 0q-54 0 -84.5 29.5t-30.5 70.5
q0 38 29.5 69.5t81.5 35.5h647q54 0 83.5 -30.5t29.5 -70.5t-29.5 -70.5t-83.5 -33.5h-643z" />
    <glyph glyph-name="acute" unicode="&#xb4;" horiz-adv-x="598" 
d="M358 1403q43 27 90.5 -5t51 -80.5t-48.5 -84.5l-215 -113q-28 -13 -56.5 -11t-48 20.5t-29 41.5t0.5 50t40 47z" />
    <glyph glyph-name="paragraph" unicode="&#xb6;" horiz-adv-x="985" 
d="M815 1092v-1184q0 -44 -31 -74.5t-86 -30.5q-54 0 -87 31t-33 74v1184h-146v-1184q0 -43 -32 -74t-85 -31q-52 0 -86 31t-34 74v760q-94 38 -150.5 121t-56.5 184q0 135 101.5 233.5t240.5 98.5h489q54 0 87.5 -30t33.5 -79q0 -50 -33 -77t-88 -27h-4z" />
    <glyph glyph-name="middot" unicode="&#xb7;" horiz-adv-x="249" 
d="M113 743q62 0 100.5 -36.5t38.5 -92.5q0 -57 -38 -91t-101 -34q-61 0 -101.5 34.5t-40.5 90.5q0 55 41 92t101 37z" />
    <glyph glyph-name="cedilla" unicode="&#xb8;" horiz-adv-x="622" 
d="M446 0l-36 -162q81 0 119 -51t38 -117q0 -96 -72 -149t-173 -53q-74 0 -128 15.5t-90 63.5q-19 25 -20 52t12.5 46.5t33 34t41.5 14t38 -12.5q21 -19 41 -28.5t32 -11t33 -1.5q40 0 56 37q15 34 -8 57q-21 21 -66 12q-29 -6 -56 16t-16 66l45 172h176z" />
    <glyph glyph-name="guillemotright" unicode="&#xbb;" horiz-adv-x="862" 
d="M256 539l-256 245q-37 37 -37 76q0 42 35.5 73.5t81.5 31.5q33 0 48 -6t34 -25l315 -307q51 -51 51 -88q0 -24 -10 -42t-35 -42l-311 -301q-42 -39 -92 -39q-54 0 -85.5 30t-31.5 74q0 37 37 74zM614 539l-256 245q-36 36 -36 76q0 42 35 73.5t81 31.5q33 0 48 -6t34 -25
l316 -307q51 -51 51 -88q0 -24 -10 -42t-35 -42l-312 -301q-42 -39 -92 -39q-54 0 -85 30t-31 74q0 38 36 74z" />
    <glyph glyph-name="questiondown" unicode="&#xbf;" horiz-adv-x="1234" 
d="M494 961q0 48 36.5 75t87.5 27t91.5 -27.5t40.5 -74.5v-9q0 -48 -39 -76t-90 -28q-54 0 -90.5 26.5t-36.5 77.5v9zM240 162q0 -59 33.5 -106t87 -74t112 -40.5t115.5 -13.5q48 0 95.5 8t94.5 25.5t83.5 50t53.5 76.5q10 30 37.5 47t63.5 17q56 0 95.5 -38.5t21.5 -93.5
q-28 -86 -88.5 -146.5t-140 -91t-157 -43.5t-161.5 -13q-79 0 -160 16t-158.5 51.5t-137 86t-95 125t-33.5 163.5q1 47 13 88.5t27.5 71.5t45 59t52 46.5t64 39t65 32t69.5 30.5q33 14 50.5 21.5t43 22t38 27t22.5 30.5t10 38v41q0 47 36 73.5t83 26.5t80.5 -26.5
t33.5 -73.5v-43q0 -39 -9.5 -73t-23 -59.5t-39 -50t-46.5 -40.5t-56.5 -35t-58 -29t-62.5 -27q-37 -16 -59 -26t-52 -28.5t-46 -36.5t-29 -45.5t-14 -59.5z" />
    <glyph glyph-name="Agrave" unicode="&#xc0;" horiz-adv-x="1427" 
d="M567 1683l246 -124q33 -16 47 -42.5t8 -50t-23 -44t-47 -25t-63 7.5l-243 100q-56 31 -57.5 80t42.5 85t90 13zM670 1325q76 0 104 -57l580 -1137q37 -63 -2.5 -107t-104.5 -44q-31 0 -60.5 15.5t-43.5 43.5l-144 285h-659l-143 -285q-27 -59 -103 -59q-59 0 -99.5 44
t-14.5 101l583 1143q14 32 39.5 44.5t67.5 12.5zM670 979l-230 -457h459z" />
    <glyph glyph-name="Aacute" unicode="&#xc1;" horiz-adv-x="1427" 
d="M823 1683q46 23 90 -13t43 -85t-57 -80l-244 -100q-33 -12 -62.5 -7.5t-46 25t-22.5 44t8 50t46 42.5zM670 1325q76 0 104 -57l580 -1137q37 -63 -2.5 -107t-104.5 -44q-31 0 -60.5 15.5t-43.5 43.5l-144 285h-659l-143 -285q-27 -59 -103 -59q-59 0 -99.5 44t-14.5 101
l583 1143q14 32 39.5 44.5t67.5 12.5zM670 979l-230 -457h459z" />
    <glyph glyph-name="Acircumflex" unicode="&#xc2;" horiz-adv-x="1427" 
d="M803 1397l-133 76l-131 -76q-28 -14 -57.5 -12t-49.5 21t-30 42.5t1 51.5t43 48l170 109q34 22 54.5 22t54.5 -22l170 -109q23 -14 35.5 -33t12.5 -37.5t-6.5 -36.5t-21.5 -31t-32 -20.5t-38.5 -6t-41.5 13.5zM670 1325q76 0 104 -57l580 -1137q37 -63 -2.5 -107
t-104.5 -44q-31 0 -60.5 15.5t-43.5 43.5l-144 285h-659l-143 -285q-27 -59 -103 -59q-59 0 -99.5 44t-14.5 101l583 1143q14 32 39.5 44.5t67.5 12.5zM670 979l-230 -457h459z" />
    <glyph glyph-name="Atilde" unicode="&#xc3;" horiz-adv-x="1427" 
d="M360 1565q42 65 100 87.5t114.5 9t115.5 -53.5q77 -52 105 -2q18 29 46 39.5t53.5 2.5t46.5 -26.5t24.5 -47.5t-11.5 -61q-36 -64 -91 -92.5t-115 -21t-117 46.5q-29 19 -45.5 27t-37 5t-40.5 -24q-27 -30 -65 -34.5t-64.5 14.5t-37 52.5t18.5 78.5zM670 1325
q76 0 104 -57l580 -1137q37 -63 -2.5 -107t-104.5 -44q-31 0 -60.5 15.5t-43.5 43.5l-144 285h-659l-143 -285q-27 -59 -103 -59q-59 0 -99.5 44t-14.5 101l583 1143q14 32 39.5 44.5t67.5 12.5zM670 979l-230 -457h459z" />
    <glyph glyph-name="Adieresis" unicode="&#xc4;" horiz-adv-x="1427" 
d="M477 1642q49 0 91 -34.5t42 -85.5q0 -60 -40.5 -91.5t-92.5 -31.5q-53 0 -93 35.5t-40 87.5t40 86t93 34zM856 1642q52 0 93.5 -34t41.5 -86q0 -60 -40 -91.5t-95 -31.5q-54 0 -94.5 35t-40.5 88q0 52 40.5 86t94.5 34zM670 1325q76 0 104 -57l580 -1137
q37 -63 -2.5 -107t-104.5 -44q-31 0 -60.5 15.5t-43.5 43.5l-144 285h-659l-143 -285q-27 -59 -103 -59q-59 0 -99.5 44t-14.5 101l583 1143q14 32 39.5 44.5t67.5 12.5zM670 979l-230 -457h459z" />
    <glyph glyph-name="Aring" unicode="&#xc5;" horiz-adv-x="1427" 
d="M1354 131q37 -63 -2.5 -107t-104.5 -44q-31 0 -60.5 15.5t-43.5 43.5l-144 285h-659l-143 -285q-27 -59 -103 -59q-59 0 -99.5 44t-14.5 101l567 1110q-90 57 -90 162q0 86 59.5 140t153.5 54t153.5 -54t59.5 -140q0 -109 -92 -162zM670 1468q-34 0 -54 -19.5t-20 -51.5
q0 -31 20.5 -50.5t53.5 -19.5t53 19.5t20 50.5q0 32 -19.5 51.5t-53.5 19.5zM440 522h459l-229 457z" />
    <glyph glyph-name="AE" unicode="&#xc6;" horiz-adv-x="2021" 
d="M1782 1305q54 0 82 -28.5t28 -70.5q0 -41 -30.5 -73.5t-81.5 -32.5h-658v-352h623q53 0 84 -31.5t31 -73.5q0 -40 -30 -70t-85 -30h-623v-334h658q51 0 80.5 -31.5t29.5 -73.5q0 -43 -29.5 -73.5t-80.5 -30.5h-756q-59 0 -97 35.5t-38 87.5v209h-457l-254 -307
q-34 -45 -94 -45q-63 0 -97.5 50t3.5 115l893 1112q29 48 100 48h799zM889 918l-305 -390h305v390z" />
    <glyph glyph-name="Ccedilla" unicode="&#xc7;" horiz-adv-x="1366" 
d="M1071 356q53 63 120 58t87 -58t-21 -123q-72 -102 -197.5 -168t-264.5 -81l-31 -146q81 0 119.5 -51t38.5 -117q0 -96 -72.5 -149t-173.5 -53q-74 0 -127.5 15.5t-89.5 63.5q-19 25 -20 52t12 46.5t32.5 34t41.5 14t38 -12.5q21 -19 41.5 -28.5t32 -11t33.5 -1.5
q40 0 56 37q14 35 -9 57q-22 21 -66 12q-29 -6 -55.5 15.5t-15.5 66.5l36 158q-259 32 -414 216.5t-155 465.5q0 193 88.5 344t240.5 232t341 81q330 0 510 -203q52 -59 28.5 -117t-83 -64.5t-115.5 42.5q-71 77 -153 105t-189 28q-195 0 -313.5 -123.5t-118.5 -324.5
q0 -217 121 -348.5t321 -131.5q94 0 190 48t156 120z" />
    <glyph glyph-name="Egrave" unicode="&#xc8;" horiz-adv-x="1308" 
d="M555 1683l246 -124q33 -16 47 -42.5t8 -50t-23 -44t-47 -25t-63 7.5l-244 100q-56 31 -57 80t43 85t90 13zM1067 205q51 0 82 -33t31 -74q0 -40 -29.5 -69t-83.5 -29h-813q-60 0 -97.5 35.5t-37.5 87.5v1061q0 51 37.5 86t97.5 35h813q52 0 80.5 -29t28.5 -70
q0 -40 -29.5 -71t-79.5 -31h-715v-359h678q50 0 78.5 -30.5t28.5 -71.5q0 -40 -28 -69t-79 -29h-678v-340h715z" />
    <glyph glyph-name="Eacute" unicode="&#xc9;" horiz-adv-x="1308" 
d="M811 1683q46 23 90 -13t43 -85t-57 -80l-244 -100q-33 -12 -62.5 -7.5t-46.5 25t-23 44t8 50t46 42.5zM1067 205q51 0 82 -33t31 -74q0 -40 -29.5 -69t-83.5 -29h-813q-60 0 -97.5 35.5t-37.5 87.5v1061q0 51 37.5 86t97.5 35h813q52 0 80.5 -29t28.5 -70
q0 -40 -29.5 -71t-79.5 -31h-715v-359h678q50 0 78.5 -30.5t28.5 -71.5q0 -40 -28 -69t-79 -29h-678v-340h715z" />
    <glyph glyph-name="Ecircumflex" unicode="&#xca;" horiz-adv-x="1308" 
d="M791 1397l-134 76l-131 -76q-28 -14 -57.5 -12t-49 21t-29.5 42.5t1 51.5t43 48l170 109q34 22 54.5 22t54.5 -22l170 -109q23 -14 35.5 -33t12.5 -37.5t-6.5 -36.5t-21.5 -31t-32 -20.5t-38.5 -6t-41.5 13.5zM1067 205q51 0 82 -33t31 -74q0 -40 -29.5 -69t-83.5 -29
h-813q-60 0 -97.5 35.5t-37.5 87.5v1061q0 51 37.5 86t97.5 35h813q52 0 80.5 -29t28.5 -70q0 -40 -29.5 -71t-79.5 -31h-715v-359h678q50 0 78.5 -30.5t28.5 -71.5q0 -40 -28 -69t-79 -29h-678v-340h715z" />
    <glyph glyph-name="Edieresis" unicode="&#xcb;" horiz-adv-x="1308" 
d="M465 1642q49 0 91 -34.5t42 -85.5q0 -60 -40.5 -91.5t-92.5 -31.5q-53 0 -93 35.5t-40 87.5t40 86t93 34zM844 1642q52 0 93.5 -34t41.5 -86q0 -60 -40 -91.5t-95 -31.5q-54 0 -94.5 35t-40.5 88q0 52 40.5 86t94.5 34zM1067 205q51 0 82 -33t31 -74q0 -40 -29.5 -69
t-83.5 -29h-813q-60 0 -97.5 35.5t-37.5 87.5v1061q0 51 37.5 86t97.5 35h813q52 0 80.5 -29t28.5 -70q0 -40 -29.5 -71t-79.5 -31h-715v-359h678q50 0 78.5 -30.5t28.5 -71.5q0 -40 -28 -69t-79 -29h-678v-340h715z" />
    <glyph glyph-name="Igrave" unicode="&#xcc;" horiz-adv-x="450" 
d="M109 1683l245 -124q33 -16 47 -42.5t8 -50t-23 -44t-47 -25t-63 7.5l-243 100q-56 31 -57 80t43 85t90 13zM92 1194q0 54 34.5 82.5t84.5 28.5q49 0 85 -29t36 -82v-1090q0 -49 -36.5 -76.5t-84.5 -27.5q-50 0 -84.5 26.5t-34.5 77.5v1090z" />
    <glyph glyph-name="Iacute" unicode="&#xcd;" horiz-adv-x="450" 
d="M365 1683q46 23 90 -13t42.5 -85t-57.5 -80l-243 -100q-33 -12 -62.5 -7.5t-46.5 25t-23 44t8 50t46 42.5zM92 1194q0 54 34.5 82.5t84.5 28.5q49 0 85 -29t36 -82v-1090q0 -49 -36.5 -76.5t-84.5 -27.5q-50 0 -84.5 26.5t-34.5 77.5v1090z" />
    <glyph glyph-name="Icircumflex" unicode="&#xce;" horiz-adv-x="450" 
d="M344 1397l-133 76l-131 -76q-28 -14 -57.5 -12t-49 21t-29.5 42.5t1 51.5t43 48l170 109q34 22 54 22t54 -22l170 -109q23 -14 35.5 -33t12.5 -37.5t-6.5 -36.5t-21.5 -31t-32 -20.5t-38.5 -6t-41.5 13.5zM92 1194q0 54 34.5 82.5t84.5 28.5q49 0 85 -29t36 -82v-1090
q0 -49 -36.5 -76.5t-84.5 -27.5q-50 0 -84.5 26.5t-34.5 77.5v1090z" />
    <glyph glyph-name="Idieresis" unicode="&#xcf;" horiz-adv-x="450" 
d="M18 1642q49 0 91.5 -34.5t42.5 -85.5q0 -60 -41 -91.5t-93 -31.5q-53 0 -93 35.5t-40 87.5t40 86t93 34zM397 1642q52 0 93.5 -34t41.5 -86q0 -60 -40 -91.5t-95 -31.5q-54 0 -94.5 35t-40.5 88q0 52 40.5 86t94.5 34zM92 1194q0 54 34.5 82.5t84.5 28.5q49 0 85 -29
t36 -82v-1090q0 -49 -36.5 -76.5t-84.5 -27.5q-50 0 -84.5 26.5t-34.5 77.5v1090z" />
    <glyph glyph-name="Eth" unicode="&#xd0;" horiz-adv-x="1345" 
d="M604 1305q279 0 450 -180t171 -474q0 -293 -170.5 -472t-450.5 -179h-422q-55 0 -95 35.5t-40 85.5v465h-61q-39 0 -61.5 25.5t-22.5 56.5t22.5 56.5t61.5 25.5h61v436q0 49 39.5 84t95.5 35h422zM604 203q172 0 278.5 123t106.5 325t-106.5 327.5t-278.5 125.5h-323
v-354h163q39 0 61 -25.5t22 -56.5t-22 -56.5t-61 -25.5h-163v-383h323z" />
    <glyph glyph-name="Ntilde" unicode="&#xd1;" horiz-adv-x="1415" 
d="M395 1565q42 65 100 87.5t114.5 9t115.5 -53.5q76 -52 104 -2q18 29 46.5 39.5t53.5 2.5t46.5 -26.5t25 -47.5t-11.5 -61q-36 -64 -91 -92.5t-115 -21t-117 46.5q-29 19 -45.5 27t-37 5t-40.5 -24q-27 -30 -65 -34.5t-64.5 14.5t-37 52.5t18.5 78.5zM987 1204
q0 47 37.5 74t87.5 27t84.5 -26t34.5 -75v-1081q0 -58 -41 -90.5t-96 -32.5q-35 0 -69 16.5t-54 42.5l-627 807l8 -114v-643q0 -53 -36 -81t-85 -28q-51 0 -86.5 27.5t-35.5 81.5v1071q0 59 36 92t88 33q69 0 119 -62l643 -835l-8 137v659z" />
    <glyph glyph-name="Ograve" unicode="&#xd2;" horiz-adv-x="1525" 
d="M614 1683l246 -124q33 -16 47 -42.5t8 -50t-23 -44t-47 -25t-63 7.5l-243 100q-56 31 -57.5 80t42.5 85t90 13zM1382 651q0 -302 -183 -486.5t-482 -184.5q-301 0 -486.5 184.5t-185.5 486.5t185.5 488t486.5 186q299 0 482 -185.5t183 -488.5zM717 188q192 0 309 128
t117 335q0 209 -117 337t-309 128q-193 0 -311.5 -128t-118.5 -337q0 -207 118.5 -335t311.5 -128z" />
    <glyph glyph-name="Oacute" unicode="&#xd3;" horiz-adv-x="1525" 
d="M870 1683q46 23 90 -13t43 -85t-57 -80l-244 -100q-33 -12 -62.5 -7.5t-46 25t-22.5 44t8 50t46 42.5zM1382 651q0 -302 -183 -486.5t-482 -184.5q-301 0 -486.5 184.5t-185.5 486.5t185.5 488t486.5 186q299 0 482 -185.5t183 -488.5zM717 188q192 0 309 128t117 335
q0 209 -117 337t-309 128q-193 0 -311.5 -128t-118.5 -337q0 -207 118.5 -335t311.5 -128z" />
    <glyph glyph-name="Ocircumflex" unicode="&#xd4;" horiz-adv-x="1525" 
d="M850 1397l-133 76l-131 -76q-28 -14 -57.5 -12t-49 21t-29.5 42.5t1 51.5t43 48l170 109q34 22 54 22t54 -22l170 -109q23 -14 35.5 -33t12.5 -37.5t-6.5 -36.5t-21.5 -31t-32 -20.5t-38.5 -6t-41.5 13.5zM1382 651q0 -302 -183 -486.5t-482 -184.5q-301 0 -486.5 184.5
t-185.5 486.5t185.5 488t486.5 186q299 0 482 -185.5t183 -488.5zM717 188q192 0 309 128t117 335q0 209 -117 337t-309 128q-193 0 -311.5 -128t-118.5 -337q0 -207 118.5 -335t311.5 -128z" />
    <glyph glyph-name="Otilde" unicode="&#xd5;" horiz-adv-x="1525" 
d="M408 1565q42 65 99.5 87.5t114 9t115.5 -53.5q77 -52 105 -2q18 29 46 39.5t53.5 2.5t46.5 -26.5t24.5 -47.5t-11.5 -61q-36 -64 -91 -92.5t-115 -21t-117 46.5q-29 19 -45.5 27t-37 5t-40.5 -24q-21 -24 -50.5 -32t-54.5 1t-43.5 28t-18.5 49t20 65zM1382 651
q0 -302 -183 -486.5t-482 -184.5q-301 0 -486.5 184.5t-185.5 486.5t185.5 488t486.5 186q299 0 482 -185.5t183 -488.5zM717 188q192 0 309 128t117 335q0 209 -117 337t-309 128q-193 0 -311.5 -128t-118.5 -337q0 -207 118.5 -335t311.5 -128z" />
    <glyph glyph-name="Odieresis" unicode="&#xd6;" horiz-adv-x="1525" 
d="M524 1642q49 0 91 -34.5t42 -85.5q0 -60 -40.5 -91.5t-92.5 -31.5q-53 0 -93 35.5t-40 87.5t40 86t93 34zM903 1642q52 0 93.5 -34t41.5 -86q0 -60 -40 -91.5t-95 -31.5q-54 0 -94.5 35t-40.5 88q0 52 40.5 86t94.5 34zM1382 651q0 -302 -183 -486.5t-482 -184.5
q-301 0 -486.5 184.5t-185.5 486.5t185.5 488t486.5 186q299 0 482 -185.5t183 -488.5zM717 188q192 0 309 128t117 335q0 209 -117 337t-309 128q-193 0 -311.5 -128t-118.5 -337q0 -207 118.5 -335t311.5 -128z" />
    <glyph glyph-name="Oslash" unicode="&#xd8;" horiz-adv-x="1525" 
d="M1137 1196q118 -90 181.5 -229.5t63.5 -315.5q0 -302 -183 -486.5t-482 -184.5q-151 0 -281 51l-74 -125q-16 -27 -41.5 -36.5t-48.5 -1.5t-41.5 25t-20.5 43.5t13 53.5l72 119q-120 89 -185 228t-65 314q0 302 185.5 488t486.5 186q154 0 276 -49l72 121q16 27 41 36.5
t48 1.5t42 -25t22 -43.5t-12 -53.5zM287 651q0 -237 119 -356l477 799q-77 22 -166 22q-193 0 -311.5 -128t-118.5 -337zM717 188q192 0 309 128t117 335q0 240 -119 359l-477 -797q77 -25 170 -25z" />
    <glyph glyph-name="Ugrave" unicode="&#xd9;" horiz-adv-x="1554" 
d="M633 1683l246 -124q33 -16 47 -42.5t8 -50t-23 -44t-47 -25t-63 7.5l-244 100q-56 31 -57 80t43 85t90 13zM1110 1196q0 52 35.5 80.5t85.5 28.5q49 0 84 -28t35 -79v-623q0 -267 -169.5 -431t-447.5 -164t-447 164t-169 431v627q0 48 35 75.5t84 27.5q50 0 86 -27
t36 -78v-625q0 -170 103 -275t270 -105q170 0 274.5 105t104.5 275v621z" />
    <glyph glyph-name="Uacute" unicode="&#xda;" horiz-adv-x="1554" 
d="M889 1683q46 23 90 -13t43 -85t-57 -80l-244 -100q-33 -12 -62.5 -7.5t-46.5 25t-23 44t8 50t46 42.5zM1110 1196q0 52 35.5 80.5t85.5 28.5q49 0 84 -28t35 -79v-623q0 -267 -169.5 -431t-447.5 -164t-447 164t-169 431v627q0 48 35 75.5t84 27.5q50 0 86 -27t36 -78
v-625q0 -170 103 -275t270 -105q170 0 274.5 105t104.5 275v621z" />
    <glyph glyph-name="Ucircumflex" unicode="&#xdb;" horiz-adv-x="1554" 
d="M868 1397l-133 76l-131 -76q-28 -14 -57.5 -12t-49 21t-29.5 42.5t1 51.5t43 48l170 109q34 22 54.5 22t54.5 -22l170 -109q32 -20 43 -48t1 -51.5t-30 -43t-49.5 -21.5t-57.5 13zM1110 1196q0 52 35.5 80.5t85.5 28.5q49 0 84 -28t35 -79v-623q0 -267 -169.5 -431
t-447.5 -164t-447 164t-169 431v627q0 48 35 75.5t84 27.5q50 0 86 -27t36 -78v-625q0 -170 103 -275t270 -105q170 0 274.5 105t104.5 275v621z" />
    <glyph glyph-name="Udieresis" unicode="&#xdc;" horiz-adv-x="1554" 
d="M543 1642q49 0 91 -34.5t42 -85.5q0 -60 -40.5 -91.5t-92.5 -31.5q-53 0 -93 35.5t-40 87.5t40 86t93 34zM922 1642q52 0 93.5 -34t41.5 -86q0 -60 -40 -91.5t-95 -31.5q-54 0 -95 35t-41 88q0 52 40.5 86t95.5 34zM1110 1196q0 52 35.5 80.5t85.5 28.5q49 0 84 -28
t35 -79v-623q0 -267 -169.5 -431t-447.5 -164t-447 164t-169 431v627q0 48 35 75.5t84 27.5q50 0 86 -27t36 -78v-625q0 -170 103 -275t270 -105q170 0 274.5 105t104.5 275v621z" />
    <glyph glyph-name="Yacute" unicode="&#xdd;" horiz-adv-x="1263" 
d="M786 1683q46 23 90 -13t43 -85t-57 -80l-244 -100q-33 -12 -62.5 -7.5t-46 25t-22.5 44t8 50t46 42.5zM215 1247l377 -514l377 508q48 64 110 64q39 0 70.5 -27.5t37 -67.5t-25.5 -86l-448 -600v-401q0 -54 -38 -88.5t-81 -34.5q-51 0 -85 33.5t-34 89.5v401l-459 606
q-29 44 -23 83t38.5 65.5t74.5 26.5q67 0 109 -58z" />
    <glyph glyph-name="Thorn" unicode="&#xde;" horiz-adv-x="1298" 
d="M119 1202q0 48 34.5 75.5t82.5 27.5q47 0 82.5 -27.5t35.5 -77.5v-76h295q132 0 239.5 -41.5t174 -111t102 -155.5t35.5 -179q0 -95 -34.5 -177t-101 -145t-173.5 -99t-242 -36h-295v-69q0 -53 -35.5 -82t-82.5 -29q-48 0 -82.5 29t-34.5 80v1093zM354 385h295
q81 0 143 21t98 57.5t54 80.5t17 93q-2 112 -87.5 197.5t-224.5 85.5h-295v-535z" />
    <glyph glyph-name="germandbls" unicode="&#xdf;" horiz-adv-x="1103" 
d="M387 0q-51 0 -80 29v-285q0 -48 -36 -74t-83 -26t-80.5 26t-33.5 74v1219q0 84 26 149t66.5 104.5t97.5 64.5t112 34.5t116 9.5q62 0 119 -10t114.5 -35.5t99.5 -65.5t68.5 -104.5t26.5 -146.5q0 -62 -36 -142.5t-87 -126.5q102 -41 155.5 -118.5t53.5 -184.5
q0 -89 -28.5 -158t-75.5 -112.5t-114.5 -71t-138.5 -38.5t-153 -11h-109zM307 741q29 29 76 29h53q103 0 176.5 55t73.5 138q0 45 -18 78.5t-48.5 51t-63 25.5t-67.5 8q-75 0 -128.5 -37.5t-53.5 -125.5v-222zM383 567q-47 0 -76 29v-426q26 29 80 29h109q276 0 276 192
q0 87 -68.5 131.5t-175.5 44.5h-145z" />
    <glyph glyph-name="agrave" unicode="&#xe0;" horiz-adv-x="1261" 
d="M526 1430l213 -136q31 -20 41.5 -47t1 -49.5t-29 -41t-48 -20.5t-55.5 11l-215 113q-53 36 -49.5 84.5t51 80.5t90.5 5zM952 1042q52 0 84.5 -29.5t32.5 -76.5v-830q0 -47 -32.5 -76.5t-84.5 -29.5q-50 0 -79 23t-35 63q-67 -53 -152.5 -79.5t-167.5 -26.5
q-221 0 -349 147.5t-128 396.5q0 239 139.5 389t364.5 150q70 0 149.5 -26t143.5 -76q17 81 114 81zM543 186q95 0 177 41.5t116 116.5v354q-37 73 -114.5 115.5t-160.5 42.5q-128 0 -207.5 -93.5t-79.5 -240.5q0 -152 73.5 -244t195.5 -92z" />
    <glyph glyph-name="aacute" unicode="&#xe1;" horiz-adv-x="1261" 
d="M655 1423q43 27 90.5 -5t51 -80.5t-48.5 -84.5l-216 -112q-28 -13 -56.5 -11t-48 20.5t-29 41t1 49.5t40.5 47zM952 1042q52 0 84.5 -29.5t32.5 -76.5v-830q0 -47 -32.5 -76.5t-84.5 -29.5q-50 0 -79 23t-35 63q-67 -53 -152.5 -79.5t-167.5 -26.5q-221 0 -349 147.5
t-128 396.5q0 239 139.5 389t364.5 150q70 0 149.5 -26t143.5 -76q17 81 114 81zM543 186q95 0 177 41.5t116 116.5v354q-37 73 -114.5 115.5t-160.5 42.5q-128 0 -207.5 -93.5t-79.5 -240.5q0 -152 73.5 -244t195.5 -92z" />
    <glyph glyph-name="acircumflex" unicode="&#xe2;" horiz-adv-x="1261" 
d="M725 1149l-133 76l-131 -76q-28 -14 -57.5 -12t-49 21t-29.5 42.5t1 51.5t43 48l170 109q34 22 54 22t54 -22l170 -109q23 -14 35.5 -33t12.5 -37.5t-6.5 -36.5t-21.5 -31t-32 -20.5t-38.5 -6t-41.5 13.5zM952 1042q52 0 84.5 -29.5t32.5 -76.5v-830q0 -47 -32.5 -76.5
t-84.5 -29.5q-50 0 -79 23t-35 63q-67 -53 -152.5 -79.5t-167.5 -26.5q-221 0 -349 147.5t-128 396.5q0 239 139.5 389t364.5 150q70 0 149.5 -26t143.5 -76q17 81 114 81zM543 186q95 0 177 41.5t116 116.5v354q-37 73 -114.5 115.5t-160.5 42.5q-128 0 -207.5 -93.5
t-79.5 -240.5q0 -152 73.5 -244t195.5 -92z" />
    <glyph glyph-name="atilde" unicode="&#xe3;" horiz-adv-x="1261" 
d="M283 1315q42 65 99.5 87.5t114 9t115.5 -53.5q77 -52 105 -2q18 29 46.5 39.5t53.5 2.5t46.5 -26t25 -47t-11.5 -61q-36 -64 -91.5 -93t-115.5 -21.5t-117 46.5q-29 19 -45.5 27t-37 5t-40.5 -24q-21 -24 -50.5 -32t-54.5 1t-43.5 28t-18.5 49t20 65zM952 1042
q52 0 84.5 -29.5t32.5 -76.5v-830q0 -47 -32.5 -76.5t-84.5 -29.5q-50 0 -79 23t-35 63q-67 -53 -152.5 -79.5t-167.5 -26.5q-221 0 -349 147.5t-128 396.5q0 239 139.5 389t364.5 150q70 0 149.5 -26t143.5 -76q17 81 114 81zM543 186q95 0 177 41.5t116 116.5v354
q-37 73 -114.5 115.5t-160.5 42.5q-128 0 -207.5 -93.5t-79.5 -240.5q0 -152 73.5 -244t195.5 -92z" />
    <glyph glyph-name="adieresis" unicode="&#xe4;" horiz-adv-x="1261" 
d="M406 1401q49 0 91 -35t42 -86q0 -60 -40.5 -91.5t-92.5 -31.5q-53 0 -93.5 35.5t-40.5 87.5t40.5 86.5t93.5 34.5zM784 1401q52 0 94 -34.5t42 -86.5q0 -60 -40.5 -91.5t-95.5 -31.5q-54 0 -94.5 35t-40.5 88q0 52 40.5 86.5t94.5 34.5zM952 1042q52 0 84.5 -29.5
t32.5 -76.5v-830q0 -47 -32.5 -76.5t-84.5 -29.5q-50 0 -79 23t-35 63q-67 -53 -152.5 -79.5t-167.5 -26.5q-221 0 -349 147.5t-128 396.5q0 239 139.5 389t364.5 150q70 0 149.5 -26t143.5 -76q17 81 114 81zM543 186q95 0 177 41.5t116 116.5v354q-37 73 -114.5 115.5
t-160.5 42.5q-128 0 -207.5 -93.5t-79.5 -240.5q0 -152 73.5 -244t195.5 -92z" />
    <glyph glyph-name="aring" unicode="&#xe5;" horiz-adv-x="1261" 
d="M592 1518q94 0 153.5 -54.5t59.5 -140.5q0 -85 -59.5 -139t-153.5 -54t-153.5 54t-59.5 139q0 86 59.5 140.5t153.5 54.5zM592 1395q-34 0 -54 -20t-20 -52q0 -31 20.5 -50.5t53.5 -19.5t53.5 19.5t20.5 50.5q0 32 -20 52t-54 20zM952 1042q52 0 84.5 -29.5t32.5 -76.5
v-830q0 -47 -32.5 -76.5t-84.5 -29.5q-50 0 -79 23t-35 63q-67 -53 -152.5 -79.5t-167.5 -26.5q-221 0 -349 147.5t-128 396.5q0 239 139.5 389t364.5 150q70 0 149.5 -26t143.5 -76q17 81 114 81zM543 186q95 0 177 41.5t116 116.5v354q-37 73 -114.5 115.5t-160.5 42.5
q-128 0 -207.5 -93.5t-79.5 -240.5q0 -152 73.5 -244t195.5 -92z" />
    <glyph glyph-name="ae" unicode="&#xe6;" horiz-adv-x="2136" 
d="M618 1063q86 0 161 -38.5t95 -92.5q0 110 109 110q47 0 82 -27.5t35 -86.5q87 135 313 135q81 0 158 -20t146.5 -63.5t121.5 -105t83.5 -151t33.5 -195.5q0 -133 -141 -133h-699q35 -92 117 -150t180 -59q114 -3 221 76q39 25 80 25q47 0 82 -28.5t35 -70.5
q0 -41 -43 -84q-132 -124 -371 -124q-204 0 -315 120q0 -48 -35.5 -74t-81.5 -26q-44 0 -77.5 27t-33.5 75q-19 -36 -52.5 -61.5t-73.5 -38t-74 -17.5t-66 -5q-118 0 -198 34q-166 69 -250 208.5t-84 322.5q0 123 45 223t121.5 163.5t173 97.5t202.5 34zM1417 858
q-122 0 -202 -70t-107 -190h606q-22 133 -103.5 196.5t-193.5 63.5zM600 186q113 0 195 69t82 191v148q0 112 -78 187t-189 75q-140 0 -220.5 -92.5t-80.5 -222.5q0 -151 82 -253t209 -102z" />
    <glyph glyph-name="ccedilla" unicode="&#xe7;" horiz-adv-x="1101" 
d="M819 274q56 57 116.5 45t72.5 -65t-31 -111q-127 -141 -334 -161l-33 -144q81 0 119.5 -51t38.5 -117q0 -96 -72.5 -149t-173.5 -53q-74 0 -127.5 15.5t-89.5 63.5q-19 25 -20 52t12.5 46.5t33 34t41.5 14t38 -12.5q21 -19 41 -28.5t32 -11t33 -1.5q40 0 56 37
q15 34 -8 57q-21 21 -66 12q-29 -6 -56 16t-16 66l43 160q-199 34 -314.5 175t-115.5 353q0 249 146 398t388 149q120 0 215.5 -37.5t174.5 -128.5q28 -33 31.5 -69t-15.5 -60.5t-46.5 -39t-62 -6.5t-61.5 40q-85 100 -236 100q-135 0 -217 -94t-82 -250q0 -152 85 -244
t223 -92q145 0 237 92z" />
    <glyph glyph-name="egrave" unicode="&#xe8;" horiz-adv-x="1267" 
d="M502 1430l213 -136q31 -20 41.5 -47t1 -49.5t-29 -41t-48 -20.5t-55.5 11l-215 113q-53 36 -49.5 84.5t51 80.5t90.5 5zM586 182q130 0 223 72q36 32 75 38t66.5 -11.5t44 -45t9 -65t-40.5 -68.5q-131 -126 -371 -122q-241 0 -391 144t-150 374q0 254 145.5 409.5
t389.5 155.5q242 0 377 -145.5t137 -387.5q0 -61 -24.5 -91.5t-104.5 -30.5h-682q28 -101 109 -163.5t188 -62.5zM588 860q-118 0 -198.5 -73.5t-102.5 -196.5h596q-11 127 -83.5 198.5t-211.5 71.5z" />
    <glyph glyph-name="eacute" unicode="&#xe9;" horiz-adv-x="1267" 
d="M631 1423q43 27 90.5 -5t51 -80.5t-49.5 -84.5l-215 -112q-28 -13 -56.5 -11t-48 20.5t-29 41t1 49.5t40.5 47zM586 182q130 0 223 72q36 32 75 38t66.5 -11.5t44 -45t9 -65t-40.5 -68.5q-131 -126 -371 -122q-241 0 -391 144t-150 374q0 254 145.5 409.5t389.5 155.5
q242 0 377 -145.5t137 -387.5q0 -61 -24.5 -91.5t-104.5 -30.5h-682q28 -101 109 -163.5t188 -62.5zM588 860q-118 0 -198.5 -73.5t-102.5 -196.5h596q-11 127 -83.5 198.5t-211.5 71.5z" />
    <glyph glyph-name="ecircumflex" unicode="&#xea;" horiz-adv-x="1267" 
d="M700 1149l-133 76l-131 -76q-28 -14 -57.5 -12t-49 21t-29.5 42.5t1 51.5t43 48l170 109q34 22 54.5 22t54.5 -22l170 -109q32 -20 43 -48t1 -51.5t-30 -43t-49.5 -21.5t-57.5 13zM586 182q130 0 223 72q36 32 75 38t66.5 -11.5t44 -45t9 -65t-40.5 -68.5
q-131 -126 -371 -122q-241 0 -391 144t-150 374q0 254 145.5 409.5t389.5 155.5q242 0 377 -145.5t137 -387.5q0 -61 -24.5 -91.5t-104.5 -30.5h-682q28 -101 109 -163.5t188 -62.5zM588 860q-118 0 -198.5 -73.5t-102.5 -196.5h596q-11 127 -83.5 198.5t-211.5 71.5z" />
    <glyph glyph-name="edieresis" unicode="&#xeb;" horiz-adv-x="1267" 
d="M381 1401q49 0 91 -35t42 -86q0 -60 -40.5 -91.5t-92.5 -31.5q-53 0 -93 35.5t-40 87.5t40 86.5t93 34.5zM760 1401q52 0 93.5 -34.5t41.5 -86.5q0 -60 -40 -91.5t-95 -31.5q-54 0 -94.5 35t-40.5 88q0 52 40.5 86.5t94.5 34.5zM586 182q130 0 223 72q36 32 75 38
t66.5 -11.5t44 -45t9 -65t-40.5 -68.5q-131 -126 -371 -122q-241 0 -391 144t-150 374q0 254 145.5 409.5t389.5 155.5q242 0 377 -145.5t137 -387.5q0 -61 -24.5 -91.5t-104.5 -30.5h-682q28 -101 109 -163.5t188 -62.5zM588 860q-118 0 -198.5 -73.5t-102.5 -196.5h596
q-11 127 -83.5 198.5t-211.5 71.5z" />
    <glyph glyph-name="igrave" unicode="&#xec;" horiz-adv-x="411" 
d="M123 1409l213 -135q31 -20 41.5 -47t1 -50t-29 -41.5t-48 -20.5t-55.5 11l-215 113q-53 36 -49.5 84.5t51 80.5t90.5 5zM72 942q0 46 35.5 73t80.5 27q46 0 81.5 -26.5t35.5 -71.5v-844q0 -48 -35 -74t-82 -26q-46 0 -81 26t-35 74v842z" />
    <glyph glyph-name="iacute" unicode="&#xed;" horiz-adv-x="411" 
d="M252 1403q43 27 90.5 -5t51 -80.5t-49.5 -84.5l-215 -113q-28 -13 -56.5 -11t-48 20.5t-29 41.5t1 50t40.5 47zM72 942q0 46 35.5 73t80.5 27q46 0 81.5 -26.5t35.5 -71.5v-844q0 -48 -35 -74t-82 -26q-46 0 -81 26t-35 74v842z" />
    <glyph glyph-name="icircumflex" unicode="&#xee;" horiz-adv-x="411" 
d="M322 1128l-134 76l-131 -76q-28 -14 -57.5 -12t-49 21.5t-29.5 43t1 51.5t43 48l170 109q34 22 54.5 22t54.5 -22l170 -109q27 -17 39 -39.5t8.5 -43.5t-15 -40.5t-32.5 -30t-44 -12t-48 13.5zM72 942q0 46 35.5 73t80.5 27q46 0 81.5 -26.5t35.5 -71.5v-844
q0 -48 -35 -74t-82 -26q-46 0 -81 26t-35 74v842z" />
    <glyph glyph-name="idieresis" unicode="&#xef;" horiz-adv-x="411" 
d="M2 1380q49 0 91 -34.5t42 -85.5q0 -60 -40.5 -91.5t-92.5 -31.5q-53 0 -93 35.5t-40 87.5t40 86t93 34zM381 1380q52 0 93.5 -34t41.5 -86q0 -60 -40 -91.5t-95 -31.5q-54 0 -94.5 35t-40.5 88q0 52 40.5 86t94.5 34zM72 942q0 46 35.5 73t80.5 27q46 0 81.5 -26.5
t35.5 -71.5v-844q0 -48 -35 -74t-82 -26q-46 0 -81 26t-35 74v842z" />
    <glyph glyph-name="eth" unicode="&#xf0;" horiz-adv-x="1187" 
d="M766 1270q125 -57 200.5 -164t75.5 -250v-438q0 -96 -40.5 -180t-107 -139.5t-150 -87t-169.5 -31.5q-252 0 -406 161q-124 129 -142 313q-18 183 77 328q108 167 322 206q58 11 123 11q214 0 299 -163q0 206 -199 264q-105 27 -215.5 9t-187.5 -67q-34 -22 -68 -25.5
t-58 8t-39 33.5t-16 48.5t16 56.5t52 54q87 60 188 84t185 24q56 0 100 -8l35 102q16 50 64.5 56t81.5 -28.5t14 -82.5zM811 420v153q0 51 -26 95t-64 70t-77 40.5t-69 14.5q-79 0 -141 -26.5t-98 -69t-54 -97.5t-15 -112.5t25 -112.5t59.5 -97.5t96 -69t127.5 -26.5
q95 0 162.5 67t73.5 171z" />
    <glyph glyph-name="ntilde" unicode="&#xf1;" horiz-adv-x="1320" 
d="M303 1315q42 65 100 87.5t114.5 9t115.5 -53.5q76 -52 104 -2q18 29 46.5 39.5t53.5 2.5t46.5 -26t25 -47t-11.5 -61q-36 -64 -91.5 -93t-115.5 -21.5t-117 46.5q-29 20 -45.5 27.5t-36.5 4.5t-40 -24q-27 -30 -65 -34.5t-64.5 14.5t-37 52.5t18.5 78.5zM690 1063
q211 0 331 -135.5t120 -358.5v-463q0 -48 -31 -77t-86 -29q-52 0 -84.5 29.5t-32.5 76.5v467q0 133 -63 209t-189 76q-33 0 -73.5 -13t-84.5 -41.5t-79.5 -68t-58.5 -99t-23 -128.5v-404q0 -50 -29 -77t-84 -27t-88 27.5t-33 76.5v834q0 48 34.5 76t82.5 28q46 0 81.5 -27.5
t35.5 -72.5v-14q145 135 354 135z" />
    <glyph glyph-name="ograve" unicode="&#xf2;" horiz-adv-x="1214" 
d="M520 1430l213 -136q31 -20 41.5 -47t1 -49.5t-29 -41t-48 -20.5t-55.5 11l-215 113q-53 36 -49.5 84.5t51 80.5t90.5 5zM586 1063q245 0 394.5 -151t149.5 -396q-3 -241 -152.5 -388.5t-391.5 -147.5t-392 147.5t-153 388.5q0 245 150.5 396t394.5 151zM586 184
q137 0 221 92t84 240q0 152 -84 247t-221 95t-221 -95t-84 -247q0 -148 84 -240t221 -92z" />
    <glyph glyph-name="oacute" unicode="&#xf3;" horiz-adv-x="1214" 
d="M649 1423q43 27 90.5 -5t51 -80.5t-49.5 -84.5l-215 -112q-28 -13 -56.5 -11t-48 20.5t-29 41t1 49.5t40.5 47zM586 1063q245 0 394.5 -151t149.5 -396q-3 -241 -152.5 -388.5t-391.5 -147.5t-392 147.5t-153 388.5q0 245 150.5 396t394.5 151zM586 184q137 0 221 92
t84 240q0 152 -84 247t-221 95t-221 -95t-84 -247q0 -148 84 -240t221 -92z" />
    <glyph glyph-name="ocircumflex" unicode="&#xf4;" horiz-adv-x="1214" 
d="M719 1149l-133 76l-131 -76q-28 -14 -57.5 -12t-49.5 21t-30 42.5t1 51.5t43 48l170 109q34 22 54.5 22t54.5 -22l170 -109q23 -14 35.5 -33t12.5 -37.5t-6.5 -36.5t-21.5 -31t-32 -20.5t-38.5 -6t-41.5 13.5zM586 1063q245 0 394.5 -151t149.5 -396
q-3 -241 -152.5 -388.5t-391.5 -147.5t-392 147.5t-153 388.5q0 245 150.5 396t394.5 151zM586 184q137 0 221 92t84 240q0 152 -84 247t-221 95t-221 -95t-84 -247q0 -148 84 -240t221 -92z" />
    <glyph glyph-name="otilde" unicode="&#xf5;" horiz-adv-x="1214" 
d="M276 1315q42 65 100 87.5t114.5 9t115.5 -53.5q77 -52 105 -2q18 29 46 39.5t53.5 2.5t46.5 -26t24.5 -47t-11.5 -61q-36 -64 -91 -93t-115 -21.5t-117 46.5q-29 19 -45.5 27t-37 5t-40.5 -24q-27 -30 -65 -34.5t-64.5 14.5t-37 52.5t18.5 78.5zM586 1063
q245 0 394.5 -151t149.5 -396q-3 -241 -152.5 -388.5t-391.5 -147.5t-392 147.5t-153 388.5q0 245 150.5 396t394.5 151zM586 184q137 0 221 92t84 240q0 152 -84 247t-221 95t-221 -95t-84 -247q0 -148 84 -240t221 -92z" />
    <glyph glyph-name="odieresis" unicode="&#xf6;" horiz-adv-x="1214" 
d="M399 1401q49 0 91 -35t42 -86q0 -60 -40.5 -91.5t-92.5 -31.5q-53 0 -93 35.5t-40 87.5t40 86.5t93 34.5zM778 1401q52 0 93.5 -34.5t41.5 -86.5q0 -60 -40 -91.5t-95 -31.5q-54 0 -94.5 35t-40.5 88q0 52 40.5 86.5t94.5 34.5zM586 1063q245 0 394.5 -151t149.5 -396
q-3 -241 -152.5 -388.5t-391.5 -147.5t-392 147.5t-153 388.5q0 245 150.5 396t394.5 151zM586 184q137 0 221 92t84 240q0 152 -84 247t-221 95t-221 -95t-84 -247q0 -148 84 -240t221 -92z" />
    <glyph glyph-name="divide" unicode="&#xf7;" horiz-adv-x="1001" 
d="M440 987q58 0 96.5 -34.5t38.5 -88.5q0 -52 -38.5 -85.5t-96.5 -33.5q-59 0 -95 33t-36 86q0 55 36 89t95 34zM121 518q-53 0 -84 29.5t-31 68.5t31 69t84 30h655q56 0 88.5 -30t32.5 -71q0 -39 -31.5 -67.5t-89.5 -28.5h-655zM440 485q58 0 96.5 -33.5t38.5 -86.5
t-38.5 -87t-96.5 -34q-60 0 -95.5 33.5t-35.5 87.5t35.5 87t95.5 33z" />
    <glyph glyph-name="oslash" unicode="&#xf8;" horiz-adv-x="1214" 
d="M938 950q92 -73 142 -184.5t50 -249.5q-3 -241 -152.5 -387.5t-391.5 -146.5q-109 0 -207 32l-57 -94q-16 -27 -42 -36.5t-48.5 -1.5t-41 25t-21 43.5t12.5 53.5l54 88q-92 71 -143 180t-52 244q0 245 150.5 396t394.5 151q113 0 209 -35l55 94q16 27 41 36.5t48 1.5
t42 -25t22 -43.5t-12 -53.5zM281 516q0 -153 67 -235l338 565q-47 12 -100 12q-137 0 -221 -95t-84 -247zM586 186q138 0 221.5 91t83.5 239q0 158 -68 244l-336 -563q53 -11 99 -11z" />
    <glyph glyph-name="ugrave" unicode="&#xf9;" horiz-adv-x="1314" 
d="M547 1409l213 -135q31 -20 41.5 -47t1 -50t-29 -41.5t-48 -20.5t-55.5 11l-215 113q-53 36 -49.5 84.5t51 80.5t90.5 5zM1006 1042q53 0 85.5 -32t32.5 -82v-824q0 -48 -35.5 -76t-80.5 -28q-48 0 -82.5 28t-34.5 78v9q-140 -135 -342 -135q-212 0 -331.5 133.5
t-119.5 363.5v451q0 49 31.5 81.5t85.5 32.5q52 0 84.5 -33t32.5 -81v-455q0 -138 62.5 -213.5t189.5 -75.5q42 0 92.5 22.5t99.5 63.5t82 111.5t33 155.5v391q0 51 30 82.5t85 31.5z" />
    <glyph glyph-name="uacute" unicode="&#xfa;" horiz-adv-x="1314" 
d="M676 1403q43 27 90.5 -5t51 -80.5t-49.5 -84.5l-215 -113q-28 -13 -56.5 -11t-48 20.5t-29 41.5t1 50t40.5 47zM1006 1042q53 0 85.5 -32t32.5 -82v-824q0 -48 -35.5 -76t-80.5 -28q-48 0 -82.5 28t-34.5 78v9q-140 -135 -342 -135q-212 0 -331.5 133.5t-119.5 363.5v451
q0 49 31.5 81.5t85.5 32.5q52 0 84.5 -33t32.5 -81v-455q0 -138 62.5 -213.5t189.5 -75.5q42 0 92.5 22.5t99.5 63.5t82 111.5t33 155.5v391q0 51 30 82.5t85 31.5z" />
    <glyph glyph-name="ucircumflex" unicode="&#xfb;" horiz-adv-x="1314" 
d="M745 1128l-133 76l-131 -76q-28 -14 -57.5 -12t-49 21.5t-29.5 43t1 51.5t43 48l170 109q34 22 54.5 22t54.5 -22l170 -109q27 -17 39 -39.5t8.5 -43.5t-15.5 -40.5t-33 -30t-44 -12t-48 13.5zM1006 1042q53 0 85.5 -32t32.5 -82v-824q0 -48 -35.5 -76t-80.5 -28
q-48 0 -82.5 28t-34.5 78v9q-140 -135 -342 -135q-212 0 -331.5 133.5t-119.5 363.5v451q0 49 31.5 81.5t85.5 32.5q52 0 84.5 -33t32.5 -81v-455q0 -138 62.5 -213.5t189.5 -75.5q42 0 92.5 22.5t99.5 63.5t82 111.5t33 155.5v391q0 51 30 82.5t85 31.5z" />
    <glyph glyph-name="udieresis" unicode="&#xfc;" horiz-adv-x="1314" 
d="M426 1380q49 0 91 -34.5t42 -85.5q0 -60 -40.5 -91.5t-92.5 -31.5q-53 0 -93 35.5t-40 87.5t40 86t93 34zM805 1380q52 0 93.5 -34t41.5 -86q0 -60 -40 -91.5t-95 -31.5q-54 0 -94.5 35t-40.5 88q0 52 40.5 86t94.5 34zM1006 1042q53 0 85.5 -32t32.5 -82v-824
q0 -48 -35.5 -76t-80.5 -28q-48 0 -82.5 28t-34.5 78v9q-140 -135 -342 -135q-212 0 -331.5 133.5t-119.5 363.5v451q0 49 31.5 81.5t85.5 32.5q52 0 84.5 -33t32.5 -81v-455q0 -138 62.5 -213.5t189.5 -75.5q42 0 92.5 22.5t99.5 63.5t82 111.5t33 155.5v391q0 51 30 82.5
t85 31.5z" />
    <glyph glyph-name="yacute" unicode="&#xfd;" horiz-adv-x="1144" 
d="M594 1403q43 27 90.5 -5t51 -80.5t-49.5 -84.5l-215 -113q-28 -13 -56.5 -11t-48 20.5t-29 41.5t1 50t40.5 47zM954 1042q55 0 91.5 -47t15.5 -106l-598 -1174q-20 -39 -52 -61.5t-67 -22.5q-57 0 -91 51.5t-5 110.5l155 307l-403 781q-27 59 10.5 110t95.5 51
q32 0 63 -20.5t46 -52.5l315 -617l316 619q14 33 43 52t65 19z" />
    <glyph glyph-name="thorn" unicode="&#xfe;" horiz-adv-x="1247" 
d="M586 1055q136 0 219 -39l2 2q147 -57 232.5 -186t90.5 -287q5 -181 -81 -322t-252 -209l2 2q-95 -39 -203 -39q-151 0 -260 82v-303q0 -49 -31.5 -75.5t-85.5 -26.5q-51 0 -84 27t-33 75v1555q0 46 32 75t87 29q54 0 84.5 -28.5t30.5 -75.5v-340q106 81 250 84zM336 444
q7 -115 83.5 -186.5t184.5 -73.5q99 6 168 64q128 105 125 291q-3 68 -25 129v-2q-36 84 -113 132t-165 50q-103 -4 -173.5 -79t-84.5 -181v-144z" />
    <glyph glyph-name="ydieresis" unicode="&#xff;" horiz-adv-x="1144" 
d="M344 1380q49 0 91 -34.5t42 -85.5q0 -60 -40.5 -91.5t-92.5 -31.5q-53 0 -93 35.5t-40 87.5t40 86t93 34zM723 1380q52 0 93.5 -34t41.5 -86q0 -60 -40 -91.5t-95 -31.5q-54 0 -94.5 35t-40.5 88q0 52 40.5 86t94.5 34zM954 1042q55 0 91.5 -47t15.5 -106l-598 -1174
q-20 -39 -52 -61.5t-67 -22.5q-57 0 -91 51.5t-5 110.5l155 307l-403 781q-27 59 10.5 110t95.5 51q32 0 63 -20.5t46 -52.5l315 -617l316 619q14 33 43 52t65 19z" />
    <glyph glyph-name="Amacron" unicode="&#x100;" horiz-adv-x="1427" 
d="M844 1612q44 0 68.5 -29t24.5 -63.5t-24.5 -63.5t-68.5 -29h-350q-44 0 -69.5 29t-25.5 63.5t25.5 63.5t69.5 29h350zM670 1325q76 0 104 -57l580 -1137q37 -63 -2.5 -107t-104.5 -44q-31 0 -60.5 15.5t-43.5 43.5l-144 285h-659l-143 -285q-27 -59 -103 -59
q-59 0 -99.5 44t-14.5 101l583 1143q14 32 39.5 44.5t67.5 12.5zM670 979l-230 -457h459z" />
    <glyph glyph-name="amacron" unicode="&#x101;" horiz-adv-x="1261" 
d="M766 1370q44 0 68.5 -29t24.5 -63t-24.5 -63t-68.5 -29h-350q-44 0 -69.5 29t-25.5 63t25.5 63t69.5 29h350zM952 1042q52 0 84.5 -29.5t32.5 -76.5v-830q0 -47 -32.5 -76.5t-84.5 -29.5q-50 0 -79 23t-35 63q-67 -53 -152.5 -79.5t-167.5 -26.5q-221 0 -349 147.5
t-128 396.5q0 239 139.5 389t364.5 150q70 0 149.5 -26t143.5 -76q17 81 114 81zM543 186q95 0 177 41.5t116 116.5v354q-37 73 -114.5 115.5t-160.5 42.5q-128 0 -207.5 -93.5t-79.5 -240.5q0 -152 73.5 -244t195.5 -92z" />
    <glyph glyph-name="Abreve" unicode="&#x102;" horiz-adv-x="1427" 
d="M745 1608q6 52 57 67t96.5 -11t37.5 -73q-19 -92 -89.5 -147t-176.5 -55q-108 0 -180.5 55.5t-86.5 146.5q-8 47 38 73t97 11t56 -67q3 -31 39.5 -42t72.5 2t39 40zM670 1325q76 0 104 -57l580 -1137q37 -63 -2.5 -107t-104.5 -44q-31 0 -60.5 15.5t-43.5 43.5l-144 285
h-659l-143 -285q-27 -59 -103 -59q-59 0 -99.5 44t-14.5 101l583 1143q14 32 39.5 44.5t67.5 12.5zM670 979l-230 -457h459z" />
    <glyph glyph-name="abreve" unicode="&#x103;" horiz-adv-x="1261" 
d="M684 1346q6 50 50.5 64.5t84 -10.5t31.5 -71q-17 -89 -86 -140.5t-172 -51.5q-105 0 -174.5 52t-83.5 140q-8 46 31.5 71t84 10.5t50.5 -64.5q2 -19 26 -38.5t66 -19.5t66 19.5t26 38.5zM952 1042q52 0 84.5 -29.5t32.5 -76.5v-830q0 -47 -32.5 -76.5t-84.5 -29.5
q-50 0 -79 23t-35 63q-67 -53 -152.5 -79.5t-167.5 -26.5q-221 0 -349 147.5t-128 396.5q0 239 139.5 389t364.5 150q70 0 149.5 -26t143.5 -76q17 81 114 81zM543 186q95 0 177 41.5t116 116.5v354q-37 73 -114.5 115.5t-160.5 42.5q-128 0 -207.5 -93.5t-79.5 -240.5
q0 -152 73.5 -244t195.5 -92z" />
    <glyph glyph-name="Aogonek" unicode="&#x104;" horiz-adv-x="1427" 
d="M1272 -311q42 26 80 3t38 -66.5t-44 -86.5q-43 -35 -92.5 -46.5t-93 -1.5t-78.5 39.5t-53 71.5t-12 101.5t40 122.5l102 190q-9 9 -16 23l-144 285h-659l-143 -285q-27 -59 -103 -59q-59 0 -99.5 44t-14.5 101l583 1143q14 32 39.5 44.5t67.5 12.5q76 0 104 -57
l580 -1137q38 -66 -6 -113q-3 -9 -9 -18l-131 -227q-19 -36 -13.5 -63.5t27.5 -32t50 11.5zM440 522h459l-229 457z" />
    <glyph glyph-name="aogonek" unicode="&#x105;" horiz-adv-x="1261" 
d="M963 -311q42 26 79.5 3t37.5 -66.5t-44 -86.5q-43 -35 -92.5 -46.5t-92.5 -1.5t-78 39.5t-53 71.5t-12 101.5t40 122.5l112 209q-15 18 -22 51q-67 -53 -152.5 -79.5t-167.5 -26.5q-221 0 -349 147.5t-128 396.5q0 239 139.5 389t364.5 150q70 0 149.5 -26t143.5 -76
q17 81 114 81q52 0 84.5 -29.5t32.5 -76.5v-830q0 -44 -29 -73q0 -13 -10 -33l-131 -227q-19 -36 -13.5 -63.5t27.5 -32t50 11.5zM836 344v354q-37 73 -114.5 115.5t-160.5 42.5q-128 0 -207.5 -93.5t-79.5 -240.5q0 -152 73.5 -244t195.5 -92q95 0 177 41.5t116 116.5z" />
    <glyph glyph-name="Cacute" unicode="&#x106;" horiz-adv-x="1366" 
d="M870 1683q46 23 90 -13t43 -85t-57 -80l-244 -100q-33 -12 -62.5 -7.5t-46 25t-22.5 44t8 50t46 42.5zM717 1325q330 0 510 -203q52 -59 28.5 -117t-83 -64.5t-115.5 42.5q-71 77 -153 105t-189 28q-195 0 -313.5 -123.5t-118.5 -324.5q0 -217 121 -348.5t321 -131.5
q94 0 190 48t156 120q53 63 120 58t87 -58t-21 -123q-83 -116 -232 -184.5t-304 -68.5q-303 0 -488.5 189t-185.5 499q0 193 88.5 344t240.5 232t341 81z" />
    <glyph glyph-name="cacute" unicode="&#x107;" horiz-adv-x="1101" 
d="M637 1423q43 27 90.5 -5t51 -80.5t-49.5 -84.5l-215 -112q-28 -13 -56.5 -11t-48 20.5t-29 41t1 49.5t40.5 47zM809 762q-85 100 -236 100q-135 0 -217 -94t-82 -250q0 -152 85 -244t223 -92q145 0 237 92q56 57 116.5 45t72.5 -65t-31 -111q-148 -163 -397 -163
q-244 0 -392.5 147t-148.5 389q0 249 146 398t388 149q120 0 215.5 -37.5t174.5 -128.5q28 -33 31.5 -69t-15.5 -60.5t-46.5 -39t-62 -6.5t-61.5 40z" />
    <glyph glyph-name="Cdotaccent" unicode="&#x10a;" horiz-adv-x="1366" 
d="M717 1651q55 0 99 -37t44 -92q0 -64 -42.5 -97.5t-100.5 -33.5q-57 0 -100.5 37.5t-43.5 93.5q0 55 43.5 92t100.5 37zM717 1325q330 0 510 -203q52 -59 28.5 -117t-83 -64.5t-115.5 42.5q-71 77 -153 105t-189 28q-195 0 -313.5 -123.5t-118.5 -324.5q0 -217 121 -348.5
t321 -131.5q94 0 190 48t156 120q53 63 120 58t87 -58t-21 -123q-83 -116 -232 -184.5t-304 -68.5q-303 0 -488.5 189t-185.5 499q0 193 88.5 344t240.5 232t341 81z" />
    <glyph glyph-name="cdotaccent" unicode="&#x10b;" horiz-adv-x="1101" 
d="M573 1409q55 0 99.5 -37t44.5 -92q0 -64 -43 -97.5t-101 -33.5q-57 0 -100 37.5t-43 93.5q0 55 43 92t100 37zM809 762q-85 100 -236 100q-135 0 -217 -94t-82 -250q0 -152 85 -244t223 -92q145 0 237 92q56 57 116.5 45t72.5 -65t-31 -111q-148 -163 -397 -163
q-244 0 -392.5 147t-148.5 389q0 249 146 398t388 149q120 0 215.5 -37.5t174.5 -128.5q28 -33 31.5 -69t-15.5 -60.5t-46.5 -39t-62 -6.5t-61.5 40z" />
    <glyph glyph-name="Ccaron" unicode="&#x10c;" horiz-adv-x="1366" 
d="M850 1661q25 15 48 13.5t44 -12t32.5 -30t15 -40.5t-8.5 -43.5t-39 -39.5l-170 -108q-34 -22 -54 -22t-54 22l-170 108q-32 20 -43 48t-1 51.5t29.5 43t49 21.5t57.5 -12l131 -76zM717 1325q330 0 510 -203q52 -59 28.5 -117t-83 -64.5t-115.5 42.5q-71 77 -153 105
t-189 28q-195 0 -313.5 -123.5t-118.5 -324.5q0 -217 121 -348.5t321 -131.5q94 0 190 48t156 120q53 63 120 58t87 -58t-21 -123q-83 -116 -232 -184.5t-304 -68.5q-303 0 -488.5 189t-185.5 499q0 193 88.5 344t240.5 232t341 81z" />
    <glyph glyph-name="ccaron" unicode="&#x10d;" horiz-adv-x="1101" 
d="M705 1417q26 15 48.5 13t43.5 -12t32.5 -29t15 -39.5t-9 -43.5t-38.5 -40l-170 -109q-34 -22 -54.5 -22t-54.5 22l-170 109q-26 17 -38 40t-8.5 43.5t15 39.5t32.5 29t43.5 12t47.5 -13l131 -76zM809 762q-85 100 -236 100q-135 0 -217 -94t-82 -250q0 -152 85 -244
t223 -92q145 0 237 92q56 57 116.5 45t72.5 -65t-31 -111q-148 -163 -397 -163q-244 0 -392.5 147t-148.5 389q0 249 146 398t388 149q120 0 215.5 -37.5t174.5 -128.5q28 -33 31.5 -69t-15.5 -60.5t-46.5 -39t-62 -6.5t-61.5 40z" />
    <glyph glyph-name="Dcaron" unicode="&#x10e;" horiz-adv-x="1345" 
d="M694 1661q25 15 48 13.5t44 -12t32.5 -30t15 -40.5t-8.5 -43.5t-39 -39.5l-170 -108q-34 -22 -54 -22t-54 22l-170 108q-32 20 -43 48t-1 51.5t29.5 43t49 21.5t57.5 -12l131 -76zM604 1305q279 0 450 -180t171 -474q0 -293 -170.5 -472t-450.5 -179h-422q-55 0 -95 35.5
t-40 85.5v1065q0 49 39.5 84t95.5 35h422zM604 203q172 0 278.5 123t106.5 325t-106.5 327.5t-278.5 125.5h-323v-901h323z" />
    <glyph glyph-name="dcaron" unicode="&#x10f;" horiz-adv-x="1263" 
d="M954 1325q48 0 83.5 -26t35.5 -76v-1119q0 -50 -31 -77t-88 -27q-107 0 -110 98q-64 -56 -145 -86t-158 -30q-228 0 -362 151.5t-134 398.5q0 233 140 382t364 149q70 0 148 -27.5t143 -79.5v267q0 51 33.5 76.5t80.5 25.5zM1321 1028q-30 -55 -90 -55q-45 0 -74 42
t-14 89l71 166q27 55 91 55q54 0 88 -42.5t4 -94.5zM547 188q105 0 187 48t110 133l-2 315q-34 81 -111.5 126.5t-165.5 45.5q-127 0 -206.5 -92.5t-79.5 -233.5q0 -152 73.5 -247t194.5 -95z" />
    <glyph glyph-name="Dcroat" unicode="&#x110;" horiz-adv-x="1345" 
d="M604 1305q279 0 450 -180t171 -474q0 -293 -170.5 -472t-450.5 -179h-422q-55 0 -95 35.5t-40 85.5v465h-61q-39 0 -61.5 25.5t-22.5 56.5t22.5 56.5t61.5 25.5h61v436q0 49 39.5 84t95.5 35h422zM604 203q172 0 278.5 123t106.5 325t-106.5 327.5t-278.5 125.5h-323
v-354h163q39 0 61 -25.5t22 -56.5t-22 -56.5t-61 -25.5h-163v-383h323z" />
    <glyph glyph-name="dcroat" unicode="&#x111;" horiz-adv-x="1263" 
d="M1122 1198q39 0 61 -22.5t22 -49t-22 -49t-61 -22.5h-49v-951q0 -50 -31 -77t-88 -27q-107 0 -110 98q-64 -56 -145 -86t-158 -30q-228 0 -362 151.5t-134 398.5q0 233 140 382t364 149q70 0 148 -27.5t143 -79.5v99h-72q-39 0 -61.5 22t-22.5 48.5t22.5 48.5t61.5 22h72
v27q0 51 33.5 76.5t80.5 25.5q48 0 83.5 -26t35.5 -76v-25h49zM547 188q105 0 187 48t110 133l-2 315q-34 81 -111.5 126.5t-165.5 45.5q-127 0 -206.5 -92.5t-79.5 -233.5q0 -152 73.5 -247t194.5 -95z" />
    <glyph glyph-name="Emacron" unicode="&#x112;" horiz-adv-x="1308" 
d="M831 1612q44 0 68.5 -29t24.5 -63.5t-24.5 -63.5t-68.5 -29h-350q-44 0 -69.5 29t-25.5 63.5t25.5 63.5t69.5 29h350zM1067 205q51 0 82 -33t31 -74q0 -40 -29.5 -69t-83.5 -29h-813q-60 0 -97.5 35.5t-37.5 87.5v1061q0 51 37.5 86t97.5 35h813q52 0 80.5 -29t28.5 -70
q0 -40 -29.5 -71t-79.5 -31h-715v-359h678q50 0 78.5 -30.5t28.5 -71.5q0 -40 -28 -69t-79 -29h-678v-340h715z" />
    <glyph glyph-name="emacron" unicode="&#x113;" horiz-adv-x="1267" 
d="M741 1370q44 0 68.5 -29t24.5 -63t-24.5 -63t-68.5 -29h-350q-44 0 -69.5 29t-25.5 63t25.5 63t69.5 29h350zM586 182q130 0 223 72q36 32 75 38t66.5 -11.5t44 -45t9 -65t-40.5 -68.5q-131 -126 -371 -122q-241 0 -391 144t-150 374q0 254 145.5 409.5t389.5 155.5
q242 0 377 -145.5t137 -387.5q0 -61 -24.5 -91.5t-104.5 -30.5h-682q28 -101 109 -163.5t188 -62.5zM588 860q-118 0 -198.5 -73.5t-102.5 -196.5h596q-11 127 -83.5 198.5t-211.5 71.5z" />
    <glyph glyph-name="Edotaccent" unicode="&#x116;" horiz-adv-x="1308" 
d="M657 1651q55 0 99.5 -37t44.5 -92q0 -64 -43 -97.5t-101 -33.5q-57 0 -100 37.5t-43 93.5q0 55 43 92t100 37zM1067 205q51 0 82 -33t31 -74q0 -40 -29.5 -69t-83.5 -29h-813q-60 0 -97.5 35.5t-37.5 87.5v1061q0 51 37.5 86t97.5 35h813q52 0 80.5 -29t28.5 -70
q0 -40 -29.5 -71t-79.5 -31h-715v-359h678q50 0 78.5 -30.5t28.5 -71.5q0 -40 -28 -69t-79 -29h-678v-340h715z" />
    <glyph glyph-name="edotaccent" unicode="&#x117;" horiz-adv-x="1267" 
d="M567 1409q55 0 99.5 -37t44.5 -92q0 -64 -43 -97.5t-101 -33.5q-57 0 -100 37.5t-43 93.5q0 55 43 92t100 37zM586 182q130 0 223 72q36 32 75 38t66.5 -11.5t44 -45t9 -65t-40.5 -68.5q-131 -126 -371 -122q-241 0 -391 144t-150 374q0 254 145.5 409.5t389.5 155.5
q242 0 377 -145.5t137 -387.5q0 -61 -24.5 -91.5t-104.5 -30.5h-682q28 -101 109 -163.5t188 -62.5zM588 860q-118 0 -198.5 -73.5t-102.5 -196.5h596q-11 127 -83.5 198.5t-211.5 71.5z" />
    <glyph glyph-name="Eogonek" unicode="&#x118;" horiz-adv-x="1308" 
d="M1075 -311q42 26 80 3t38 -66.5t-44 -86.5q-43 -35 -92.5 -46.5t-93 -1.5t-78.5 39.5t-53 71.5t-12 101.5t40 122.5l94 174h-700q-60 0 -97.5 35.5t-37.5 87.5v1061q0 51 37.5 86t97.5 35h813q52 0 80.5 -29t28.5 -70q0 -40 -29.5 -71t-79.5 -31h-715v-359h678
q50 0 78.5 -30.5t28.5 -71.5q0 -40 -28 -69t-79 -29h-678v-340h715q51 0 82 -33t31 -74q0 -38 -27 -65q0 -16 -10 -33l-131 -227q-19 -36 -14 -63.5t27 -32t50 11.5z" />
    <glyph glyph-name="eogonek" unicode="&#x119;" horiz-adv-x="1267" 
d="M1100 530q0 -61 -24.5 -91.5t-104.5 -30.5h-682q28 -101 109 -163.5t188 -62.5q130 0 223 72q36 32 75 38t66.5 -11.5t44 -45t9 -65t-40.5 -68.5q-35 -31 -58 -45q7 -32 -8 -57l-131 -227q-19 -36 -14 -63.5t27 -32t50 11.5q42 26 80 3t38 -66.5t-44 -86.5
q-43 -35 -92.5 -46.5t-93 -1.5t-78.5 39.5t-53 71.5t-12 101.5t40 122.5l86 160q-52 -6 -108 -6q-241 0 -391 144t-150 374q0 254 145.5 409.5t389.5 155.5q242 0 377 -145.5t137 -387.5zM287 590h596q-11 127 -83.5 198.5t-211.5 71.5q-118 0 -198.5 -73.5t-102.5 -196.5z
" />
    <glyph glyph-name="Ecaron" unicode="&#x11a;" horiz-adv-x="1308" 
d="M791 1661q25 15 48 13.5t44 -12t32.5 -30t15 -40.5t-8.5 -43.5t-39 -39.5l-170 -108q-34 -22 -54.5 -22t-54.5 22l-170 108q-32 20 -43 48t-1 51.5t29.5 43t49 21.5t57.5 -12l131 -76zM1067 205q51 0 82 -33t31 -74q0 -40 -29.5 -69t-83.5 -29h-813q-60 0 -97.5 35.5
t-37.5 87.5v1061q0 51 37.5 86t97.5 35h813q52 0 80.5 -29t28.5 -70q0 -40 -29.5 -71t-79.5 -31h-715v-359h678q50 0 78.5 -30.5t28.5 -71.5q0 -40 -28 -69t-79 -29h-678v-340h715z" />
    <glyph glyph-name="ecaron" unicode="&#x11b;" horiz-adv-x="1267" 
d="M698 1417q29 14 58 12t49 -21t29.5 -42t-1 -51.5t-42.5 -48.5l-170 -109q-34 -22 -54.5 -22t-54.5 22l-170 109q-26 17 -38 40t-8.5 43.5t15 39.5t32.5 29t43.5 12t47.5 -13l131 -76zM586 182q130 0 223 72q36 32 75 38t66.5 -11.5t44 -45t9 -65t-40.5 -68.5
q-131 -126 -371 -122q-241 0 -391 144t-150 374q0 254 145.5 409.5t389.5 155.5q242 0 377 -145.5t137 -387.5q0 -61 -24.5 -91.5t-104.5 -30.5h-682q28 -101 109 -163.5t188 -62.5zM588 860q-118 0 -198.5 -73.5t-102.5 -196.5h596q-11 127 -83.5 198.5t-211.5 71.5z" />
    <glyph glyph-name="Gbreve" unicode="&#x11e;" horiz-adv-x="1443" 
d="M776 1608q6 52 57 67t96.5 -11t37.5 -73q-19 -92 -90 -147t-177 -55q-108 0 -180 55.5t-86 146.5q-8 47 38 73t97 11t56 -67q3 -31 39.5 -42t72.5 2t39 40zM1257 315q0 -54 -30 -86q-95 -110 -241.5 -179.5t-289.5 -69.5q-199 0 -350 85.5t-231 241t-76 357.5
q0 298 182.5 479.5t480.5 181.5q139 0 270.5 -50.5t219.5 -144.5q55 -58 33 -118.5t-83 -67.5t-124 47q-125 131 -316 131q-192 0 -310 -129t-118 -336q3 -207 120 -339t304 -132q90 0 179 40.5t149 109.5v209h-299q-55 0 -84 29t-29 69q0 43 29.5 74t83.5 31h408
q67 0 94.5 -29t27.5 -82v-322z" />
    <glyph glyph-name="gbreve" unicode="&#x11f;" horiz-adv-x="1265" 
d="M705 1346q6 50 50.5 64.5t83.5 -10.5t31 -71q-17 -89 -86 -140.5t-172 -51.5q-105 0 -174.5 52t-83.5 140q-8 46 31.5 71t84 10.5t50.5 -64.5q2 -19 26 -38.5t66 -19.5t66.5 19.5t26.5 38.5zM956 1042q53 0 86 -33.5t33 -82.5v-863q0 -146 -70 -251t-185 -155t-261 -50
q-125 0 -219.5 32t-175.5 107q-27 27 -35 57t0.5 55.5t28 45t45.5 28.5t56.5 3t57.5 -29q60 -53 113 -70.5t129 -17.5q120 0 203.5 62.5t83.5 182.5v19q-66 -50 -148 -76t-157 -26q-223 0 -359.5 148.5t-136.5 395.5q0 239 139.5 389t364.5 150q173 0 297 -92q22 71 110 71z
M547 186q99 0 182.5 43t114.5 121v342q-37 76 -115.5 120t-163.5 44q-128 0 -207 -93.5t-79 -240.5q0 -152 73.5 -244t194.5 -92z" />
    <glyph glyph-name="Gdotaccent" unicode="&#x120;" horiz-adv-x="1443" 
d="M700 1651q55 0 99.5 -37t44.5 -92q0 -64 -43 -97.5t-101 -33.5q-57 0 -100 37.5t-43 93.5q0 55 43 92t100 37zM1257 315q0 -54 -30 -86q-95 -110 -241.5 -179.5t-289.5 -69.5q-199 0 -350 85.5t-231 241t-76 357.5q0 298 182.5 479.5t480.5 181.5q139 0 270.5 -50.5
t219.5 -144.5q55 -58 33 -118.5t-83 -67.5t-124 47q-125 131 -316 131q-192 0 -310 -129t-118 -336q3 -207 120 -339t304 -132q90 0 179 40.5t149 109.5v209h-299q-55 0 -84 29t-29 69q0 43 29.5 74t83.5 31h408q67 0 94.5 -29t27.5 -82v-322z" />
    <glyph glyph-name="gdotaccent" unicode="&#x121;" horiz-adv-x="1265" 
d="M612 1409q55 0 99.5 -37t44.5 -92q0 -64 -43 -97.5t-101 -33.5q-57 0 -100 37.5t-43 93.5q0 55 43 92t100 37zM956 1042q53 0 86 -33.5t33 -82.5v-863q0 -146 -70 -251t-185 -155t-261 -50q-125 0 -219.5 32t-175.5 107q-27 27 -35 57t0.5 55.5t28 45t45.5 28.5t56.5 3
t57.5 -29q60 -53 113 -70.5t129 -17.5q120 0 203.5 62.5t83.5 182.5v19q-66 -50 -148 -76t-157 -26q-223 0 -359.5 148.5t-136.5 395.5q0 239 139.5 389t364.5 150q173 0 297 -92q22 71 110 71zM547 186q99 0 182.5 43t114.5 121v342q-37 76 -115.5 120t-163.5 44
q-128 0 -207 -93.5t-79 -240.5q0 -152 73.5 -244t194.5 -92z" />
    <glyph glyph-name="uni0122" unicode="&#x122;" horiz-adv-x="1443" 
d="M1257 315q0 -54 -30 -86q-95 -110 -241.5 -179.5t-289.5 -69.5q-199 0 -350 85.5t-231 241t-76 357.5q0 298 182.5 479.5t480.5 181.5q139 0 270.5 -50.5t219.5 -144.5q55 -58 33 -118.5t-83 -67.5t-124 47q-125 131 -316 131q-192 0 -310 -129t-118 -336
q3 -207 120 -339t304 -132q90 0 179 40.5t149 109.5v209h-299q-55 0 -84 29t-29 69q0 43 29.5 74t83.5 31h408q67 0 94.5 -29t27.5 -82v-322zM717 -467q-17 -33 -47 -48.5t-59 -10.5t-54.5 22t-32 49t7.5 70l78 180q27 57 88 58.5t98 -46.5t5 -110z" />
    <glyph glyph-name="uni0123" unicode="&#x123;" horiz-adv-x="1265" 
d="M588 1448q17 33 47 48.5t59 10.5t54 -22t31.5 -49t-7.5 -70l-78 -180q-27 -57 -88 -58.5t-97.5 46.5t-4.5 110zM956 1042q53 0 86 -33.5t33 -82.5v-863q0 -146 -70 -251t-185 -155t-261 -50q-125 0 -219.5 32t-175.5 107q-27 27 -35 57t0.5 55.5t28 45t45.5 28.5t56.5 3
t57.5 -29q60 -53 113 -70.5t129 -17.5q120 0 203.5 62.5t83.5 182.5v19q-66 -50 -148 -76t-157 -26q-223 0 -359.5 148.5t-136.5 395.5q0 239 139.5 389t364.5 150q173 0 297 -92q22 71 110 71zM547 186q99 0 182.5 43t114.5 121v342q-37 76 -115.5 120t-163.5 44
q-128 0 -207 -93.5t-79 -240.5q0 -152 73.5 -244t194.5 -92z" />
    <glyph glyph-name="Hbar" unicode="&#x126;" horiz-adv-x="1398" 
d="M1251 1071q39 0 61 -25.5t22 -56.5t-22 -56.5t-61 -25.5h-51v-796q0 -52 -37 -81.5t-84 -29.5q-48 0 -82 29t-34 82v421h-613v-421q0 -53 -34 -82t-80 -29q-49 0 -85 30t-36 81v796h-49q-39 0 -61.5 25.5t-22.5 56.5t22.5 56.5t61.5 25.5h49v127q0 50 33.5 78.5
t80.5 28.5q48 0 84.5 -28.5t36.5 -78.5v-127h613v127q0 50 34.5 78.5t81.5 28.5t84 -29t37 -78v-127h51zM963 731v176h-613v-176h613z" />
    <glyph glyph-name="hbar" unicode="&#x127;" horiz-adv-x="1320" 
d="M678 1063q211 0 330.5 -135.5t119.5 -358.5v-463q0 -48 -30 -77t-86 -29q-52 0 -84.5 29.5t-32.5 76.5v467q0 132 -62.5 208.5t-187.5 76.5q-33 0 -72 -10.5t-81 -36t-76 -61.5t-56 -93t-22 -125v-426q0 -48 -30.5 -77t-84.5 -29q-55 0 -88 29t-33 77v949h-45
q-39 0 -61.5 22t-22.5 48.5t22.5 48.5t61.5 22h45v31q0 45 36.5 71.5t82.5 26.5q47 0 82 -26.5t35 -71.5v-29h74q39 0 61 -22.5t22 -49t-22 -49t-61 -22.5h-74v-107q135 115 340 115z" />
    <glyph glyph-name="Imacron" unicode="&#x12a;" horiz-adv-x="450" 
d="M385 1612q44 0 68.5 -29t24.5 -63.5t-24.5 -63.5t-68.5 -29h-350q-44 0 -69.5 29t-25.5 63.5t25.5 63.5t69.5 29h350zM92 1194q0 54 34.5 82.5t84.5 28.5q49 0 85 -29t36 -82v-1090q0 -49 -36.5 -76.5t-84.5 -27.5q-50 0 -84.5 26.5t-34.5 77.5v1090z" />
    <glyph glyph-name="imacron" unicode="&#x12b;" horiz-adv-x="411" 
d="M362 1350q44 0 68.5 -29t24.5 -63.5t-24.5 -63.5t-68.5 -29h-350q-44 0 -69.5 29t-25.5 63.5t25.5 63.5t69.5 29h350zM72 942q0 46 35.5 73t80.5 27q46 0 81.5 -26.5t35.5 -71.5v-844q0 -48 -35 -74t-82 -26q-46 0 -81 26t-35 74v842z" />
    <glyph glyph-name="Iogonek" unicode="&#x12e;" horiz-adv-x="450" 
d="M223 -311q42 26 80 3t38 -66.5t-44 -86.5q-43 -35 -92.5 -46.5t-93 -1.5t-78.5 39.5t-53 71.5t-12 101.5t40 122.5l113 207q-29 26 -29 71v1090q0 54 34.5 82.5t84.5 28.5q49 0 85 -29t36 -82v-1090q0 -43 -31 -71q0 -16 -10 -33l-131 -227q-19 -36 -14 -63.5t27 -32
t50 11.5z" />
    <glyph glyph-name="iogonek" unicode="&#x12f;" horiz-adv-x="411" 
d="M188 1128q-57 0 -100 38t-43 94q0 55 43 92t100 37q55 0 99.5 -37t44.5 -92q0 -64 -43 -98t-101 -34zM197 -311q42 26 79.5 3t37.5 -66.5t-44 -86.5q-43 -35 -92.5 -46.5t-92.5 -1.5t-78 39.5t-53 71.5t-12 101.5t40 122.5l114 211q-24 27 -24 63v842q0 46 35.5 73
t80.5 27q46 0 81.5 -26.5t35.5 -71.5v-844q0 -41 -31 -69q-4 -21 -10 -31l-131 -227q-19 -36 -13.5 -63.5t27.5 -32t50 11.5z" />
    <glyph glyph-name="Idotaccent" unicode="&#x130;" horiz-adv-x="450" 
d="M211 1651q55 0 99 -37t44 -92q0 -64 -42.5 -97.5t-100.5 -33.5q-57 0 -100 37.5t-43 93.5q0 55 43 92t100 37zM92 1194q0 54 34.5 82.5t84.5 28.5q49 0 85 -29t36 -82v-1090q0 -49 -36.5 -76.5t-84.5 -27.5q-50 0 -84.5 26.5t-34.5 77.5v1090z" />
    <glyph glyph-name="dotlessi" unicode="&#x131;" horiz-adv-x="411" 
d="M72 942q0 46 35.5 73t80.5 27q46 0 81.5 -26.5t35.5 -71.5v-844q0 -48 -35 -74t-82 -26q-46 0 -81 26t-35 74v842z" />
    <glyph glyph-name="IJ" unicode="&#x132;" horiz-adv-x="1636" 
d="M92 1194q0 54 34.5 82.5t84.5 28.5q49 0 85 -29t36 -82v-1090q0 -49 -36.5 -76.5t-84.5 -27.5q-50 0 -84.5 26.5t-34.5 77.5v1090zM1223 1100h-322q-57 0 -90 30.5t-33 71.5t33 72t90 31h432q45 0 79.5 -29.5t39.5 -69.5v-739q1 -219 -149 -353t-396 -134
q-137 0 -253 57.5t-184.5 159t-68.5 223.5q0 48 37 81.5t82 33.5q49 0 83 -27.5t38 -81.5q6 -109 79 -175.5t187 -66.5q141 0 228.5 78t87.5 205v633z" />
    <glyph glyph-name="ij" unicode="&#x133;" horiz-adv-x="841" 
d="M307 1196q0 -49 -36 -75.5t-83 -26.5q-50 0 -84 26t-34 76v27q0 50 34 76t84 26q47 0 83 -26.5t36 -75.5v-27zM735 1196q0 -49 -36 -75.5t-83 -26.5q-50 0 -84 26t-34 76v27q0 50 34 76t84 26q47 0 83 -26.5t36 -75.5v-27zM72 942q0 46 35.5 73t80.5 27q46 0 81.5 -26.5
t35.5 -71.5v-844q0 -48 -35 -74t-82 -26q-46 0 -81 26t-35 74v842zM504 -332q-67 -25 -114.5 7t-47.5 87q0 61 68 97q56 32 73 71t17 109v901q0 44 31.5 73t86.5 29q45 0 80 -30t35 -72v-834q0 -36 0.5 -70t-4.5 -68.5t-12.5 -66t-24 -63t-39.5 -60t-59.5 -56.5t-83.5 -52z
" />
    <glyph glyph-name="uni0136" unicode="&#x136;" horiz-adv-x="1284" 
d="M1169 182q39 -48 39 -84q0 -42 -33.5 -70t-80.5 -28q-61 0 -97 39l-489 524l-154 -135v-322q0 -49 -36.5 -77.5t-84.5 -28.5t-82 28t-34 78v1094q0 51 34 78t82 27q49 0 85 -27t36 -78v-489l633 561q39 33 86 33q48 0 83.5 -33t35.5 -74q0 -42 -41 -80l-475 -411z
M643 -467q-17 -33 -47 -48.5t-59 -10.5t-54 22t-31.5 49t7.5 70l78 180q27 57 88 58.5t97.5 -46.5t4.5 -110z" />
    <glyph glyph-name="uni0137" unicode="&#x137;" horiz-adv-x="1009" 
d="M918 176q33 -45 27.5 -84t-38 -65.5t-73.5 -26.5q-56 0 -95 45l-346 385l-59 -53v-273q0 -48 -36 -76t-83 -28t-81 27.5t-34 76.5v1117q0 40 24 67t58.5 33t69 0t58.5 -33t24 -67v-566l379 355q40 32 86 32q49 0 84 -31t35 -73q0 -39 -44 -80l-321 -285zM524 -467
q-17 -33 -47 -48.5t-59 -10.5t-54 22t-31.5 49t7.5 70l78 180q27 57 88 58.5t97.5 -46.5t4.5 -110z" />
    <glyph glyph-name="Lacute" unicode="&#x139;" horiz-adv-x="1179" 
d="M422 1683q46 23 90 -13t43 -85t-57 -80l-244 -100q-33 -12 -62.5 -7.5t-46.5 25t-23 44t8 50t46 42.5zM240 0q-64 0 -93.5 28t-29.5 83v1089q0 50 36 77.5t85 27.5q47 0 82.5 -28t35.5 -77v-995h672q56 0 89.5 -31.5t33.5 -71.5q0 -42 -33 -72t-90 -30h-788z" />
    <glyph glyph-name="lacute" unicode="&#x13a;" horiz-adv-x="413" 
d="M252 1686q43 27 90.5 -5t51 -80.5t-49.5 -84.5l-215 -113q-28 -13 -56.5 -11t-48 20.5t-29 41t1 49.5t40.5 47zM305 102q0 -42 -34 -72t-83 -30q-51 0 -83.5 30t-32.5 72v1121q0 42 32.5 72t83.5 30q49 0 83 -30t34 -72v-1121z" />
    <glyph glyph-name="uni013B" unicode="&#x13b;" horiz-adv-x="1179" 
d="M240 0q-64 0 -93.5 28t-29.5 83v1089q0 50 36 77.5t85 27.5q47 0 82.5 -28t35.5 -77v-995h672q56 0 89.5 -31.5t33.5 -71.5q0 -42 -33 -72t-90 -30h-788zM649 -467q-17 -33 -47 -48.5t-59 -10.5t-54 22t-31.5 49t7.5 70l78 180q27 57 88 58.5t97.5 -46.5t4.5 -110z" />
    <glyph glyph-name="uni013C" unicode="&#x13c;" horiz-adv-x="413" 
d="M305 102q0 -42 -34 -72t-83 -30q-51 0 -83.5 30t-32.5 72v1121q0 42 32.5 72t83.5 30q49 0 83 -30t34 -72v-1121zM207 -467q-17 -33 -47 -48.5t-59 -10.5t-54 22t-31.5 49t7.5 70l77 180q27 57 88 58.5t98 -46.5t5 -110z" />
    <glyph glyph-name="Lcaron" unicode="&#x13d;" horiz-adv-x="1179" 
d="M240 0q-64 0 -93.5 28t-29.5 83v1089q0 50 36 77.5t85 27.5q47 0 82.5 -28t35.5 -77v-995h672q56 0 89.5 -31.5t33.5 -71.5q0 -42 -33 -72t-90 -30h-788zM928 971q-17 -31 -44.5 -47.5t-58.5 -16.5q-50 0 -82.5 47.5t-15.5 100.5l80 186q30 64 102 64q63 0 101.5 -46.5
t5.5 -107.5z" />
    <glyph glyph-name="lcaron" unicode="&#x13e;" horiz-adv-x="413" 
d="M305 102q0 -42 -34 -72t-83 -30q-51 0 -83.5 30t-32.5 72v1121q0 42 32.5 72t83.5 30q49 0 83 -30t34 -72v-1121zM551 1028q-30 -55 -90 -55q-45 0 -74 42t-14 89l71 166q27 55 91 55q54 0 88 -42.5t4 -94.5z" />
    <glyph glyph-name="Ldot" unicode="&#x13f;" horiz-adv-x="1179" 
d="M240 0q-64 0 -93.5 28t-29.5 83v1089q0 50 36 77.5t85 27.5q47 0 82.5 -28t35.5 -77v-995h672q56 0 89.5 -31.5t33.5 -71.5q0 -42 -33 -72t-90 -30h-788zM711 877q62 0 100.5 -36.5t38.5 -92.5q0 -57 -38 -91t-101 -34q-61 0 -101.5 34.5t-40.5 90.5q0 55 41 92t101 37z
" />
    <glyph glyph-name="ldot" unicode="&#x140;" horiz-adv-x="413" 
d="M305 102q0 -42 -34 -72t-83 -30q-51 0 -83.5 30t-32.5 72v1121q0 42 32.5 72t83.5 30q49 0 83 -30t34 -72v-1121zM508 743q62 0 100.5 -36.5t38.5 -92.5q0 -57 -38 -91t-101 -34q-61 0 -101 34.5t-40 90.5q0 55 40.5 92t100.5 37z" />
    <glyph glyph-name="Lslash" unicode="&#x141;" horiz-adv-x="1179" 
d="M1028 205q56 0 89.5 -31.5t33.5 -71.5q0 -42 -33 -72t-90 -30h-788q-64 0 -93.5 28t-29.5 83v338l-68 -39q-28 -15 -54.5 -12t-43.5 22t-24.5 42t3 48t37.5 41l150 86v563q0 50 36 77.5t85 27.5q47 0 82.5 -28t35.5 -77v-424l195 113q27 14 53.5 11t43 -22.5t24 -42
t-2 -47.5t-36.5 -40l-277 -160v-383h672z" />
    <glyph glyph-name="lslash" unicode="&#x142;" horiz-adv-x="413" 
d="M338 766q27 15 53.5 12t43 -22t24 -42t-2 -48t-36.5 -41l-115 -66v-457q0 -42 -34 -72t-83 -30q-51 0 -83.5 30t-32.5 72v320l-23 -12q-28 -15 -54.5 -12t-43.5 22t-24.5 42t3 48t37.5 41l105 61v611q0 42 32.5 72t83.5 30q49 0 83 -30t34 -72v-475z" />
    <glyph glyph-name="Nacute" unicode="&#x143;" horiz-adv-x="1415" 
d="M858 1683q46 23 90 -13t43 -85t-57 -80l-244 -100q-33 -12 -62.5 -7.5t-46.5 25t-23 44t8 50t46 42.5zM987 1204q0 47 37.5 74t87.5 27t84.5 -26t34.5 -75v-1081q0 -58 -41 -90.5t-96 -32.5q-35 0 -69 16.5t-54 42.5l-627 807l8 -114v-643q0 -53 -36 -81t-85 -28
q-51 0 -86.5 27.5t-35.5 81.5v1071q0 59 36 92t88 33q69 0 119 -62l643 -835l-8 137v659z" />
    <glyph glyph-name="nacute" unicode="&#x144;" horiz-adv-x="1320" 
d="M676 1423q43 27 90.5 -5t51 -80.5t-49.5 -84.5l-215 -112q-28 -13 -56.5 -11t-48 20.5t-29 41t1 49.5t40.5 47zM690 1063q211 0 331 -135.5t120 -358.5v-463q0 -48 -31 -77t-86 -29q-52 0 -84.5 29.5t-32.5 76.5v467q0 133 -63 209t-189 76q-33 0 -73.5 -13t-84.5 -41.5
t-79.5 -68t-58.5 -99t-23 -128.5v-404q0 -50 -29 -77t-84 -27t-88 27.5t-33 76.5v834q0 48 34.5 76t82.5 28q46 0 81.5 -27.5t35.5 -72.5v-14q145 135 354 135z" />
    <glyph glyph-name="uni0145" unicode="&#x145;" horiz-adv-x="1415" 
d="M987 1204q0 47 37.5 74t87.5 27t84.5 -26t34.5 -75v-1081q0 -58 -41 -90.5t-96 -32.5q-35 0 -69 16.5t-54 42.5l-627 807l8 -114v-643q0 -53 -36 -81t-85 -28q-51 0 -86.5 27.5t-35.5 81.5v1071q0 59 36 92t88 33q69 0 119 -62l643 -835l-8 137v659zM666 -467
q-17 -33 -47 -48.5t-59 -10.5t-54.5 22t-32 49t7.5 70l78 180q27 57 88 58.5t98 -46.5t5 -110z" />
    <glyph glyph-name="uni0146" unicode="&#x146;" horiz-adv-x="1320" 
d="M690 1063q211 0 331 -135.5t120 -358.5v-463q0 -48 -31 -77t-86 -29q-52 0 -84.5 29.5t-32.5 76.5v467q0 133 -63 209t-189 76q-33 0 -73.5 -13t-84.5 -41.5t-79.5 -68t-58.5 -99t-23 -128.5v-404q0 -50 -29 -77t-84 -27t-88 27.5t-33 76.5v834q0 48 34.5 76t82.5 28
q46 0 81.5 -27.5t35.5 -72.5v-14q145 135 354 135zM639 -467q-17 -33 -47 -48.5t-59 -10.5t-54 22t-31.5 49t7.5 70l77 180q27 57 88 58.5t98 -46.5t5 -110z" />
    <glyph glyph-name="Ncaron" unicode="&#x147;" horiz-adv-x="1415" 
d="M838 1661q25 15 48 13.5t44 -12t32.5 -30t15 -40.5t-8.5 -43.5t-39 -39.5l-170 -108q-34 -22 -54.5 -22t-54.5 22l-170 108q-32 20 -43 48t-1 51.5t29.5 43t49 21.5t57.5 -12l132 -76zM987 1204q0 47 37.5 74t87.5 27t84.5 -26t34.5 -75v-1081q0 -58 -41 -90.5t-96 -32.5
q-35 0 -69 16.5t-54 42.5l-627 807l8 -114v-643q0 -53 -36 -81t-85 -28q-51 0 -86.5 27.5t-35.5 81.5v1071q0 59 36 92t88 33q69 0 119 -62l643 -835l-8 137v659z" />
    <glyph glyph-name="ncaron" unicode="&#x148;" horiz-adv-x="1320" 
d="M743 1417q29 14 58 12t49 -21t29.5 -42t-1 -51.5t-42.5 -48.5l-170 -109q-34 -22 -54.5 -22t-54.5 22l-170 109q-26 17 -38 40t-8.5 43.5t15 39.5t32.5 29t43.5 12t47.5 -13l131 -76zM690 1063q211 0 331 -135.5t120 -358.5v-463q0 -48 -31 -77t-86 -29q-52 0 -84.5 29.5
t-32.5 76.5v467q0 133 -63 209t-189 76q-33 0 -73.5 -13t-84.5 -41.5t-79.5 -68t-58.5 -99t-23 -128.5v-404q0 -50 -29 -77t-84 -27t-88 27.5t-33 76.5v834q0 48 34.5 76t82.5 28q46 0 81.5 -27.5t35.5 -72.5v-14q145 135 354 135z" />
    <glyph glyph-name="Eng" unicode="&#x14a;" horiz-adv-x="1415" 
d="M1231 106q0 -36 0.5 -70t-4.5 -68.5t-12.5 -66t-24 -63t-39.5 -60t-59.5 -56.5t-83.5 -52l-7 -2q-67 -25 -114 7t-47 87q0 61 67 97q51 29 69 63t21 90q-19 15 -26 27l-627 848l8 -115v-684q0 -53 -36 -80.5t-85 -27.5q-52 0 -87 27t-35 81v1112q0 59 36 92t88 33
q75 0 119 -61l643 -877l-8 137v701q0 47 37.5 73.5t87.5 26.5t84.5 -25.5t34.5 -74.5v-1119z" />
    <glyph glyph-name="eng" unicode="&#x14b;" horiz-adv-x="1320" 
d="M1141 106q0 -36 0.5 -70t-4.5 -68.5t-12.5 -66t-24 -63t-39.5 -60t-59.5 -56.5t-83.5 -52l-7 -2q-67 -25 -114 7t-47 87q0 61 67 97q56 32 73 71t17 109v534q0 133 -63 209t-189 76q-33 0 -73.5 -13t-84.5 -41.5t-79.5 -68t-58.5 -99t-23 -128.5v-404q0 -50 -29 -77
t-84 -27t-88 27.5t-33 76.5v834q0 48 34.5 76t82.5 28q46 0 81.5 -27.5t35.5 -72.5v-14q145 135 354 135q211 0 331 -135.5t120 -358.5v-463z" />
    <glyph glyph-name="Omacron" unicode="&#x14c;" horiz-adv-x="1525" 
d="M891 1612q44 0 68.5 -29t24.5 -63.5t-24.5 -63.5t-68.5 -29h-350q-44 0 -69.5 29t-25.5 63.5t25.5 63.5t69.5 29h350zM1382 651q0 -302 -183 -486.5t-482 -184.5q-301 0 -486.5 184.5t-185.5 486.5t185.5 488t486.5 186q299 0 482 -185.5t183 -488.5zM717 188
q192 0 309 128t117 335q0 209 -117 337t-309 128q-193 0 -311.5 -128t-118.5 -337q0 -207 118.5 -335t311.5 -128z" />
    <glyph glyph-name="omacron" unicode="&#x14d;" horiz-adv-x="1214" 
d="M760 1370q44 0 68.5 -29t24.5 -63t-24.5 -63t-68.5 -29h-350q-44 0 -69.5 29t-25.5 63t25.5 63t69.5 29h350zM586 1063q245 0 394.5 -151t149.5 -396q-3 -241 -152.5 -388.5t-391.5 -147.5t-392 147.5t-153 388.5q0 245 150.5 396t394.5 151zM586 184q137 0 221 92
t84 240q0 152 -84 247t-221 95t-221 -95t-84 -247q0 -148 84 -240t221 -92z" />
    <glyph glyph-name="Ohungarumlaut" unicode="&#x150;" horiz-adv-x="1525" 
d="M610 1688q39 30 87.5 3.5t56 -73t-40.5 -86.5l-199 -127q-18 -12 -38.5 -14.5t-37 3t-31.5 16.5t-22.5 27t-9 32.5t8.5 35t30 33.5zM997 1675q41 26 87 -4.5t49.5 -77.5t-48.5 -82l-208 -110q-27 -13 -54.5 -11t-46.5 19.5t-28 39.5t0.5 48t39.5 45zM1382 651
q0 -302 -183 -486.5t-482 -184.5q-301 0 -486.5 184.5t-185.5 486.5t185.5 488t486.5 186q299 0 482 -185.5t183 -488.5zM717 188q192 0 309 128t117 335q0 209 -117 337t-309 128q-193 0 -311.5 -128t-118.5 -337q0 -207 118.5 -335t311.5 -128z" />
    <glyph glyph-name="ohungarumlaut" unicode="&#x151;" horiz-adv-x="1214" 
d="M467 1427q36 34 86.5 11.5t62 -68.5t-33.5 -90l-187 -143q-23 -19 -51.5 -20.5t-49.5 12t-34 34t-7 48t32 51.5zM844 1423q39 30 87.5 3.5t55.5 -72.5t-41 -86l-198 -127q-21 -14 -44.5 -15.5t-42.5 7t-33 24.5t-18.5 35.5t5 41.5t32.5 40zM586 1063q245 0 394.5 -151
t149.5 -396q-3 -241 -152.5 -388.5t-391.5 -147.5t-392 147.5t-153 388.5q0 245 150.5 396t394.5 151zM586 184q137 0 221 92t84 240q0 152 -84 247t-221 95t-221 -95t-84 -247q0 -148 84 -240t221 -92z" />
    <glyph glyph-name="OE" unicode="&#x152;" horiz-adv-x="2177" 
d="M1251 209h641q52 0 80.5 -31.5t28.5 -73.5q0 -43 -28.5 -73.5t-80.5 -30.5h-731q-84 0 -121 61q-60 -39 -142.5 -60t-160.5 -21q-136 0 -258 48.5t-214 136t-144.5 219.5t-48.5 288q4 160 69 297.5t188 231.5t285 120q62 4 111 4q197 0 313 -78q33 58 119 58h737
q50 0 80.5 -31.5t30.5 -73.5q0 -40 -29.5 -70t-83.5 -30h-641v-352h604q48 0 76.5 -31t28.5 -74q0 -40 -27 -70t-78 -30h-604v-334zM649 1114q-152 -24 -243 -150t-97 -298q-4 -141 55 -252.5t157.5 -170.5t215.5 -59q163 0 283 105v725q-63 50 -141 77t-152 27
q-49 0 -78 -4z" />
    <glyph glyph-name="oe" unicode="&#x153;" horiz-adv-x="2164" 
d="M1442 1063q225 0 377.5 -151t171.5 -384q0 -53 -33.5 -95t-108.5 -42h-698q36 -88 111 -145.5t178 -57.5q115 -3 223 76q30 27 65 32.5t63.5 -6.5t47.5 -39t19 -61q0 -43 -35 -81q-69 -65 -168 -97t-209 -32q-282 0 -434 196q-67 -89 -184.5 -142.5t-243.5 -53.5
q-125 0 -230.5 44.5t-177 121.5t-109.5 183.5t-34 229.5q11 116 62 212.5t127 159.5t169.5 97.5t192.5 34.5q271 0 426 -209q160 209 432 209zM1139 586h610q-13 73 -43 127t-71.5 84.5t-88.5 44.5t-100 14q-121 0 -203 -66t-104 -204zM895 512q0 139 -88.5 240.5
t-224.5 101.5q-133 0 -222.5 -90.5t-89.5 -247.5q0 -135 89.5 -231.5t224.5 -96.5q133 0 222 95.5t89 228.5z" />
    <glyph glyph-name="Racute" unicode="&#x154;" horiz-adv-x="1345" 
d="M805 1683q46 23 90 -13t43 -85t-57 -80l-244 -100q-33 -12 -62.5 -7.5t-46.5 25t-23 44t8 50t46 42.5zM1182 201q58 -61 39 -125t-77 -73.5t-112 36.5l-366 391h-310v-324q0 -49 -35.5 -77.5t-82.5 -28.5q-49 0 -84 27.5t-35 76.5v1094q0 47 33 77t86 30h456
q265 0 409 -125t144 -318q0 -148 -79 -254t-232 -149zM356 629h340q156 0 235.5 65.5t76.5 165.5q-2 104 -86 171t-226 67h-340v-469z" />
    <glyph glyph-name="racute" unicode="&#x155;" horiz-adv-x="690" 
d="M428 1423q43 27 90.5 -5t51 -80.5t-49.5 -84.5l-215 -112q-28 -13 -56.5 -11t-48 20.5t-29 41t1 49.5t40.5 47zM553 1042q121 0 121 -100q0 -49 -32.5 -77.5t-88.5 -28.5q-124 0 -179 -88t-55 -254v-390q0 -45 -32.5 -74.5t-79.5 -29.5q-54 0 -86.5 29t-32.5 75v834
q0 47 36.5 75.5t82.5 28.5t79 -28t33 -76v-12q86 116 234 116z" />
    <glyph glyph-name="uni0156" unicode="&#x156;" horiz-adv-x="1345" 
d="M1182 201q58 -61 39 -125t-77 -73.5t-112 36.5l-366 391h-310v-324q0 -49 -35.5 -77.5t-82.5 -28.5q-49 0 -84 27.5t-35 76.5v1094q0 47 33 77t86 30h456q265 0 409 -125t144 -318q0 -148 -79 -254t-232 -149zM356 629h340q156 0 235.5 65.5t76.5 165.5q-2 104 -86 171
t-226 67h-340v-469zM682 -467q-17 -33 -47 -48.5t-59 -10.5t-54 22t-31.5 49t7.5 70l77 180q27 57 88 58.5t98 -46.5t5 -110z" />
    <glyph glyph-name="uni0157" unicode="&#x157;" horiz-adv-x="690" 
d="M553 1042q121 0 121 -100q0 -49 -32.5 -77.5t-88.5 -28.5q-124 0 -179 -88t-55 -254v-390q0 -45 -32.5 -74.5t-79.5 -29.5q-54 0 -86.5 29t-32.5 75v834q0 47 36.5 75.5t82.5 28.5t79 -28t33 -76v-12q86 116 234 116zM221 -467q-17 -33 -47 -48.5t-59 -10.5t-54 22
t-31.5 49t7.5 70l78 180q27 57 88 58.5t97.5 -46.5t4.5 -110z" />
    <glyph glyph-name="Rcaron" unicode="&#x158;" horiz-adv-x="1345" 
d="M784 1661q25 15 48 13.5t44 -12t33 -30t15.5 -40.5t-8.5 -43.5t-39 -39.5l-170 -108q-34 -22 -54.5 -22t-54.5 22l-170 108q-32 20 -43 48t-1 51.5t29.5 43t49 21.5t57.5 -12l131 -76zM1182 201q58 -61 39 -125t-77 -73.5t-112 36.5l-366 391h-310v-324
q0 -49 -35.5 -77.5t-82.5 -28.5q-49 0 -84 27.5t-35 76.5v1094q0 47 33 77t86 30h456q265 0 409 -125t144 -318q0 -148 -79 -254t-232 -149zM356 629h340q156 0 235.5 65.5t76.5 165.5q-2 104 -86 171t-226 67h-340v-469z" />
    <glyph glyph-name="rcaron" unicode="&#x159;" horiz-adv-x="690" 
d="M496 1417q26 15 48.5 13t43.5 -12t32.5 -29t15 -39.5t-9 -43.5t-38.5 -40l-170 -109q-34 -22 -54.5 -22t-54.5 22l-170 109q-26 17 -38 40t-8.5 43.5t15 39.5t32.5 29t43.5 12t47.5 -13l131 -76zM553 1042q121 0 121 -100q0 -49 -32.5 -77.5t-88.5 -28.5q-124 0 -179 -88
t-55 -254v-390q0 -45 -32.5 -74.5t-79.5 -29.5q-54 0 -86.5 29t-32.5 75v834q0 47 36.5 75.5t82.5 28.5t79 -28t33 -76v-12q86 116 234 116z" />
    <glyph glyph-name="Sacute" unicode="&#x15a;" horiz-adv-x="1323" 
d="M756 1704q46 23 90 -13t42.5 -85t-57.5 -80l-243 -101q-33 -12 -62.5 -7.5t-46.5 25t-23 44t8 50t46 42.5zM14 309q-14 57 26 93t99 36q42 0 74 -21t39 -59q16 -47 56.5 -81t95.5 -51t108.5 -24t110.5 -7q61 0 119 8.5t117.5 29t95.5 62t36 98.5q0 27 -11.5 49t-28.5 37
t-48 27t-57.5 19t-70.5 13t-73.5 8.5t-78.5 6.5q-73 6 -122 11.5t-117 18t-113.5 29t-95.5 44.5t-79.5 64t-49 88.5t-19.5 117.5q0 81 35.5 149t93 113.5t133.5 77t155 45.5t158 14q87 0 169 -14t164.5 -44.5t148.5 -89.5t100 -139q16 -54 -22.5 -93.5t-94.5 -39.5
q-35 0 -63.5 15.5t-40.5 42.5q-55 143 -359 143q-47 0 -99.5 -9t-107 -28t-90 -57t-35.5 -88q0 -32 12.5 -57t40.5 -41.5t57 -28t78 -18.5t86.5 -11t98.5 -8q211 -20 282 -35q201 -41 269 -156q41 -71 41 -174q0 -94 -40 -168t-102 -119.5t-145.5 -75t-163.5 -41t-163 -11.5
q-88 0 -177 16t-179.5 51.5t-159 103t-93.5 158.5z" />
    <glyph glyph-name="sacute" unicode="&#x15b;" horiz-adv-x="1095" 
d="M557 1423q43 27 90.5 -5t51 -80.5t-49.5 -84.5l-215 -112q-28 -13 -56.5 -11t-48 20.5t-29 41t1 49.5t40.5 47zM27 244q-14 54 24 90.5t92 36.5q38 0 67 -22t42 -64q18 -52 92 -78.5t166 -26.5q109 0 177.5 40t68.5 102q0 30 -19.5 50t-57 30t-77.5 15t-94 9h-6
q-190 17 -270 42q-161 52 -191 191q-8 35 -8 76q0 148 127 238t334 90q371 0 458 -223q19 -59 -20 -98.5t-94 -39.5q-74 0 -101 64q-43 94 -243 94q-103 0 -165.5 -35t-62.5 -92q0 -24 9.5 -40.5t23 -25.5t40 -14.5t48.5 -7t61 -4.5t66 -6q181 -21 244 -38q165 -43 211 -157
q20 -51 20 -118q0 -153 -132 -247.5t-347 -94.5q-58 0 -111 5.5t-115.5 22.5t-111 44.5t-88.5 77t-57 114.5z" />
    <glyph glyph-name="Scedilla" unicode="&#x15e;" horiz-adv-x="1323" 
d="M1237 395q0 -86 -33.5 -155.5t-87 -114t-127 -76.5t-146 -47t-151.5 -20l-30 -144q81 0 119 -51t38 -117q0 -96 -72.5 -149t-173.5 -53q-74 0 -127.5 15.5t-89.5 63.5q-19 25 -20 52t12.5 46.5t33 34t41.5 14t38 -12.5q21 -19 41 -28.5t32 -11t33 -1.5q40 0 56 37
q15 34 -8 57q-21 21 -66 12q-29 -6 -56 16t-16 66l37 158q-81 9 -155.5 30.5t-146.5 58.5t-124.5 97t-73.5 137q-14 57 26 93t99 36q42 0 74 -21t39 -59q16 -47 56.5 -81t95.5 -51t108.5 -24t110.5 -7q61 0 119 8.5t117.5 29t95.5 62t36 98.5q0 27 -11.5 49t-28.5 37t-48 27
t-57.5 19t-70.5 13t-73.5 8.5t-78.5 6.5q-73 6 -122 11.5t-117 18t-113.5 29t-95.5 44.5t-79.5 64t-49 88.5t-19.5 117.5q0 81 35.5 149t93 113.5t133.5 77t155 45.5t158 14q87 0 169 -14t164.5 -44.5t148.5 -89.5t100 -139q16 -54 -22.5 -93.5t-94.5 -39.5
q-35 0 -63.5 15.5t-40.5 42.5q-55 143 -359 143q-47 0 -99.5 -9t-107 -28t-90 -57t-35.5 -88q0 -32 12.5 -57t40.5 -41.5t57 -28t78 -18.5t86.5 -11t98.5 -8q211 -20 282 -35q201 -41 269 -156q41 -71 41 -174z" />
    <glyph glyph-name="scedilla" unicode="&#x15f;" horiz-adv-x="1095" 
d="M989 322q0 -136 -107.5 -227.5t-287.5 -110.5l-33 -146q81 0 119.5 -51t38.5 -117q0 -96 -72.5 -149t-173.5 -53q-74 0 -127.5 15.5t-89.5 63.5q-19 25 -20 52t12 46.5t32.5 34t41.5 14t38 -12.5q21 -19 41.5 -28.5t32 -11t33.5 -1.5q40 0 56 37q15 34 -8 57
q-21 21 -66 12q-29 -6 -56 16t-16 66l41 156q-331 29 -391 260q-14 54 24 90.5t92 36.5q38 0 67 -22t42 -64q18 -52 92 -78.5t166 -26.5q109 0 177.5 40t68.5 102q0 30 -19.5 50t-57 30t-77.5 15t-94 9h-6q-190 17 -270 42q-161 52 -191 191q-8 35 -8 76q0 148 127 238
t334 90q371 0 458 -223q19 -59 -20 -98.5t-94 -39.5q-74 0 -101 64q-43 94 -243 94q-103 0 -165.5 -35t-62.5 -92q0 -24 9.5 -40.5t23 -25.5t40 -14.5t48.5 -7t61 -4.5t66 -6q181 -21 244 -38q165 -43 211 -157q20 -51 20 -118z" />
    <glyph glyph-name="Scaron" unicode="&#x160;" horiz-adv-x="1323" 
d="M735 1681q20 12 41.5 13.5t38.5 -6t32 -20.5t21.5 -31t6.5 -36.5t-12.5 -37.5t-35.5 -33l-170 -109q-34 -22 -54 -22t-54 22l-170 109q-32 20 -43 48t-1 51.5t29.5 42.5t49 21t57.5 -12l131 -75zM14 309q-14 57 26 93t99 36q42 0 74 -21t39 -59q16 -47 56.5 -81t95.5 -51
t108.5 -24t110.5 -7q61 0 119 8.5t117.5 29t95.5 62t36 98.5q0 27 -11.5 49t-28.5 37t-48 27t-57.5 19t-70.5 13t-73.5 8.5t-78.5 6.5q-73 6 -122 11.5t-117 18t-113.5 29t-95.5 44.5t-79.5 64t-49 88.5t-19.5 117.5q0 81 35.5 149t93 113.5t133.5 77t155 45.5t158 14
q87 0 169 -14t164.5 -44.5t148.5 -89.5t100 -139q16 -54 -22.5 -93.5t-94.5 -39.5q-35 0 -63.5 15.5t-40.5 42.5q-55 143 -359 143q-47 0 -99.5 -9t-107 -28t-90 -57t-35.5 -88q0 -32 12.5 -57t40.5 -41.5t57 -28t78 -18.5t86.5 -11t98.5 -8q211 -20 282 -35
q201 -41 269 -156q41 -71 41 -174q0 -94 -40 -168t-102 -119.5t-145.5 -75t-163.5 -41t-163 -11.5q-88 0 -177 16t-179.5 51.5t-159 103t-93.5 158.5z" />
    <glyph glyph-name="scaron" unicode="&#x161;" horiz-adv-x="1095" 
d="M625 1417q26 15 48.5 13t43.5 -12t32.5 -29t15 -39.5t-9 -43.5t-38.5 -40l-170 -109q-34 -22 -54.5 -22t-54.5 22l-170 109q-26 17 -38 40t-8.5 43.5t15 39.5t32.5 29t43.5 12t47.5 -13l132 -76zM27 244q-14 54 24 90.5t92 36.5q38 0 67 -22t42 -64q18 -52 92 -78.5
t166 -26.5q109 0 177.5 40t68.5 102q0 30 -19.5 50t-57 30t-77.5 15t-94 9h-6q-190 17 -270 42q-161 52 -191 191q-8 35 -8 76q0 148 127 238t334 90q371 0 458 -223q19 -59 -20 -98.5t-94 -39.5q-74 0 -101 64q-43 94 -243 94q-103 0 -165.5 -35t-62.5 -92q0 -24 9.5 -40.5
t23 -25.5t40 -14.5t48.5 -7t61 -4.5t66 -6q181 -21 244 -38q165 -43 211 -157q20 -51 20 -118q0 -153 -132 -247.5t-347 -94.5q-58 0 -111 5.5t-115.5 22.5t-111 44.5t-88.5 77t-57 114.5z" />
    <glyph glyph-name="uni0162" unicode="&#x162;" horiz-adv-x="1206" 
d="M1061 1305q55 0 88 -32t33 -75q0 -41 -33 -72.5t-88 -31.5h-381l2 -985q0 -52 -41 -82l-39 -189q81 0 119.5 -51t38.5 -117q0 -96 -72.5 -149t-173.5 -53q-74 0 -127.5 15.5t-89.5 63.5q-19 25 -20 52t12 46.5t32.5 34t41.5 14t38 -12.5q21 -19 41.5 -28.5t32 -11
t33.5 -1.5q40 0 56 37q14 35 -9 57q-22 21 -66 12q-29 -6 -55.5 15.5t-15.5 66.5l49 211q-25 29 -25 70v985h-379q-56 0 -85 31t-29 73q0 44 29 75.5t85 31.5h998z" />
    <glyph glyph-name="uni0163" unicode="&#x163;" horiz-adv-x="788" 
d="M549 -162q81 0 119.5 -51t38.5 -117q0 -96 -72.5 -149t-173.5 -53q-74 0 -127.5 15.5t-89.5 63.5q-19 25 -20 52t12 46.5t32.5 34t41.5 14t38 -12.5q21 -19 41.5 -28.5t32 -11t33.5 -1.5q40 0 56 37q14 35 -9 57q-22 21 -66 12q-29 -6 -55.5 15.5t-15.5 66.5l41 160
q-238 49 -238 377v483h-78q-54 0 -83.5 28.5t-29.5 67.5q0 40 30 69t83 29h78v177q0 50 34 78t81 28q46 0 81 -28t35 -78v-177h160q51 0 81 -29.5t30 -68.5t-30 -67.5t-81 -28.5h-160v-483q0 -39 3.5 -67.5t13 -57.5t30.5 -44.5t52 -15.5q30 0 65 15q69 34 119.5 5t50.5 -87
q0 -63 -67 -99q-39 -20 -84 -30z" />
    <glyph glyph-name="Tcaron" unicode="&#x164;" horiz-adv-x="1206" 
d="M696 1661q25 15 48 13.5t44 -12t32.5 -30t15 -40.5t-8.5 -43.5t-39 -39.5l-170 -108q-34 -22 -54 -22t-54 22l-170 108q-32 20 -43 48t-1 51.5t29.5 43t49 21.5t57.5 -12l131 -76zM1061 1305q55 0 88 -32t33 -75q0 -41 -33 -72.5t-88 -31.5h-381l2 -985q0 -51 -38 -80
t-83 -29q-47 0 -83 28.5t-36 80.5v985h-379q-56 0 -85 31t-29 73q0 44 29 75.5t85 31.5h998z" />
    <glyph glyph-name="tcaron" unicode="&#x165;" horiz-adv-x="788" 
d="M686 1120q-17 -29 -46.5 -42.5t-57.5 -8.5t-52 20.5t-30 44t8 62.5l35 74q24 54 83.5 57.5t95.5 -39t3 -100.5zM563 195q69 34 119.5 5t50.5 -87q0 -63 -67 -99q-42 -23 -76 -28.5t-92 -5.5q-330 0 -330 385v483h-78q-54 0 -83.5 28.5t-29.5 67.5q0 40 30 69t83 29h78
v177q0 50 34 78t81 28q46 0 81 -28t35 -78v-177h160q51 0 81 -29.5t30 -68.5t-30 -67.5t-81 -28.5h-160v-483q0 -39 3.5 -67.5t13 -57.5t30.5 -44.5t52 -15.5q30 0 65 15z" />
    <glyph glyph-name="Tbar" unicode="&#x166;" horiz-adv-x="1206" 
d="M1061 1305q55 0 88 -32t33 -75q0 -41 -33 -72.5t-88 -31.5h-381v-332h203q39 0 61 -25.5t22 -56.5t-22 -56.5t-61 -25.5h-201v-489q0 -51 -38 -80t-83 -29q-47 0 -83 28.5t-36 80.5v489h-192q-39 0 -61.5 25.5t-22.5 55.5t22.5 55.5t61.5 25.5h192v334h-379q-56 0 -85 31
t-29 73q0 44 29 75.5t85 31.5h998z" />
    <glyph glyph-name="tbar" unicode="&#x167;" horiz-adv-x="788" 
d="M563 195q69 34 119.5 5t50.5 -87q0 -63 -67 -99q-42 -23 -76 -28.5t-92 -5.5q-330 0 -330 385v120h-64q-39 0 -61.5 25.5t-22.5 55.5t22.5 55.5t61.5 25.5h64v201h-78q-54 0 -83.5 28.5t-29.5 67.5q0 40 30 69t83 29h78v177q0 50 34 78t81 28q46 0 81 -28t35 -78v-177
h160q51 0 81 -29.5t30 -68.5t-30 -67.5t-81 -28.5h-160v-199h107q39 0 61 -25.5t22 -56.5t-22 -56.5t-61 -25.5h-107v-120q0 -39 3.5 -67.5t13 -57.5t30.5 -44.5t52 -15.5q30 0 65 15z" />
    <glyph glyph-name="Umacron" unicode="&#x16a;" horiz-adv-x="1554" 
d="M909 1612q44 0 68.5 -29t24.5 -63.5t-24.5 -63.5t-68.5 -29h-350q-44 0 -69.5 29t-25.5 63.5t25.5 63.5t69.5 29h350zM1110 1196q0 52 35.5 80.5t85.5 28.5q49 0 84 -28t35 -79v-623q0 -267 -169.5 -431t-447.5 -164t-447 164t-169 431v627q0 48 35 75.5t84 27.5
q50 0 86 -27t36 -78v-625q0 -170 103 -275t270 -105q170 0 274.5 105t104.5 275v621z" />
    <glyph glyph-name="umacron" unicode="&#x16b;" horiz-adv-x="1314" 
d="M786 1350q44 0 68.5 -29t24.5 -63.5t-24.5 -63.5t-68.5 -29h-350q-44 0 -69.5 29t-25.5 63.5t25.5 63.5t69.5 29h350zM1006 1042q53 0 85.5 -32t32.5 -82v-824q0 -48 -35.5 -76t-80.5 -28q-48 0 -82.5 28t-34.5 78v9q-140 -135 -342 -135q-212 0 -331.5 133.5
t-119.5 363.5v451q0 49 31.5 81.5t85.5 32.5q52 0 84.5 -33t32.5 -81v-455q0 -138 62.5 -213.5t189.5 -75.5q42 0 92.5 22.5t99.5 63.5t82 111.5t33 155.5v391q0 51 30 82.5t85 31.5z" />
    <glyph glyph-name="Uring" unicode="&#x16e;" horiz-adv-x="1554" 
d="M735 1737q94 0 153.5 -54.5t59.5 -140.5q0 -85 -59.5 -138.5t-153.5 -53.5t-153.5 53.5t-59.5 138.5q0 86 59.5 140.5t153.5 54.5zM735 1614q-33 0 -53 -20t-20 -52q0 -31 20 -50t53 -19q34 0 54 19t20 50q0 32 -20 52t-54 20zM1110 1196q0 52 35.5 80.5t85.5 28.5
q49 0 84 -28t35 -79v-623q0 -267 -169.5 -431t-447.5 -164t-447 164t-169 431v627q0 48 35 75.5t84 27.5q50 0 86 -27t36 -78v-625q0 -170 103 -275t270 -105q170 0 274.5 105t104.5 275v621z" />
    <glyph glyph-name="uring" unicode="&#x16f;" horiz-adv-x="1314" 
d="M612 1497q94 0 153.5 -54t59.5 -140q0 -85 -59.5 -139t-153.5 -54t-153.5 54t-59.5 139q0 86 59.5 140t153.5 54zM612 1374q-34 0 -53.5 -19.5t-19.5 -51.5q0 -31 20 -50.5t53 -19.5t53.5 19.5t20.5 50.5q0 32 -20 51.5t-54 19.5zM1006 1042q53 0 85.5 -32t32.5 -82v-824
q0 -48 -35.5 -76t-80.5 -28q-48 0 -82.5 28t-34.5 78v9q-140 -135 -342 -135q-212 0 -331.5 133.5t-119.5 363.5v451q0 49 31.5 81.5t85.5 32.5q52 0 84.5 -33t32.5 -81v-455q0 -138 62.5 -213.5t189.5 -75.5q42 0 92.5 22.5t99.5 63.5t82 111.5t33 155.5v391q0 51 30 82.5
t85 31.5z" />
    <glyph glyph-name="Uhungarumlaut" unicode="&#x170;" horiz-adv-x="1554" 
d="M629 1688q39 30 87.5 3.5t55.5 -73t-41 -86.5l-199 -127q-18 -12 -38.5 -14.5t-37 3t-31.5 16.5t-22.5 27t-9 32.5t8.5 35t30 33.5zM1016 1675q41 26 87 -4.5t49.5 -77.5t-48.5 -82l-209 -110q-27 -13 -54.5 -11t-46 19.5t-28 39.5t0.5 48t40 45zM1110 1196
q0 52 35.5 80.5t85.5 28.5q49 0 84 -28t35 -79v-623q0 -267 -169.5 -431t-447.5 -164t-447 164t-169 431v627q0 48 35 75.5t84 27.5q50 0 86 -27t36 -78v-625q0 -170 103 -275t270 -105q170 0 274.5 105t104.5 275v621z" />
    <glyph glyph-name="uhungarumlaut" unicode="&#x171;" horiz-adv-x="1314" 
d="M494 1407q36 34 86.5 11.5t61.5 -68.5t-34 -90l-186 -144q-23 -19 -51.5 -20.5t-49.5 12t-34 34t-7.5 48t31.5 51.5zM870 1403q39 30 87.5 3.5t56 -73t-40.5 -86.5l-199 -127q-35 -24 -66.5 -15t-53.5 31t-18.5 56t38.5 61zM1006 1042q53 0 85.5 -32t32.5 -82v-824
q0 -48 -35.5 -76t-80.5 -28q-48 0 -82.5 28t-34.5 78v9q-140 -135 -342 -135q-212 0 -331.5 133.5t-119.5 363.5v451q0 49 31.5 81.5t85.5 32.5q52 0 84.5 -33t32.5 -81v-455q0 -138 62.5 -213.5t189.5 -75.5q42 0 92.5 22.5t99.5 63.5t82 111.5t33 155.5v391q0 51 30 82.5
t85 31.5z" />
    <glyph glyph-name="Uogonek" unicode="&#x172;" horiz-adv-x="1554" 
d="M1231 1305q49 0 84 -28t35 -79v-623q0 -191 -89 -332t-247 -208q-5 -12 -20 -38t-48.5 -86.5t-73.5 -137.5q-28 -55 -3 -84t67 0q42 26 80 3t38 -66.5t-44 -86.5q-43 -35 -92.5 -46.5t-93 -1.5t-78.5 39.5t-53 71.5t-12 101.5t40 122.5l86 158q-50 -4 -74 -4
q-278 0 -447 164t-169 431v627q0 48 35 75.5t84 27.5q50 0 86 -27t36 -78v-625q0 -170 103 -275t270 -105q170 0 274.5 105t104.5 275v621q0 52 35.5 80.5t85.5 28.5z" />
    <glyph glyph-name="uogonek" unicode="&#x173;" horiz-adv-x="1314" 
d="M1026 -311q42 26 80 3t38 -66.5t-44 -86.5q-43 -35 -92.5 -46.5t-93 -1.5t-78.5 39.5t-53 71.5t-12 101.5t40 122.5l111 205q-31 31 -31 75v9q-140 -135 -342 -135q-212 0 -331.5 133.5t-119.5 363.5v451q0 49 31.5 81.5t85.5 32.5q52 0 84.5 -33t32.5 -81v-455
q0 -138 62.5 -213.5t189.5 -75.5q42 0 92.5 22.5t99.5 63.5t82 111.5t33 155.5v391q0 51 30 82.5t85 31.5q53 0 85.5 -32t32.5 -82v-824q0 -34 -20 -61q3 -17 -10 -43l-131 -227q-19 -36 -14 -63.5t27 -32t50 11.5z" />
    <glyph glyph-name="Wcircumflex" unicode="&#x174;" horiz-adv-x="2396" 
d="M1257 1397l-133 76l-131 -76q-28 -14 -57.5 -12t-49 21t-29.5 42.5t1 51.5t43 48l170 109q34 22 54.5 22t54.5 -22l170 -109q32 -20 43 -48t1 -51.5t-30 -43t-49.5 -21.5t-57.5 13zM645 383l373 739q13 33 41.5 50.5t64.5 17.5q35 0 66.5 -17t48.5 -47l373 -743l383 840
q18 38 49 60t70 22q61 0 101 -48t9 -116l-498 -1073q-15 -33 -45 -50.5t-67 -17.5q-76 0 -107 63l-381 752l-376 -752q-13 -29 -46 -46t-71 -17q-81 0 -107 68l-489 1065q-31 67 6 119.5t98 52.5q82 0 125 -93z" />
    <glyph glyph-name="wcircumflex" unicode="&#x175;" horiz-adv-x="1861" 
d="M1028 1128l-133 76l-131 -76q-28 -14 -57.5 -12t-49 21.5t-29.5 43t1 51.5t43 48l170 109q34 22 54 22t54 -22l170 -109q27 -17 39 -39.5t8.5 -43.5t-15 -40.5t-32.5 -30t-44 -12t-48 13.5zM47 889q-26 60 14.5 106.5t98.5 46.5q33 0 64 -21t42 -48l266 -608l256 526
q13 33 42 51.5t65 18.5q77 0 109 -68l258 -533l264 609q31 73 110 73q58 0 93 -45.5t10 -105.5l-363 -852q-22 -59 -104 -59q-83 0 -111 57l-262 555l-268 -553q-27 -59 -111 -59q-78 0 -104 61z" />
    <glyph glyph-name="Ycircumflex" unicode="&#x176;" horiz-adv-x="1263" 
d="M766 1397l-133 76l-131 -76q-28 -14 -57.5 -12t-49 21t-29.5 42.5t1 51.5t43 48l170 109q34 22 54 22t54 -22l170 -109q23 -14 35.5 -33t12.5 -37.5t-6.5 -36.5t-21.5 -31t-32 -20.5t-38.5 -6t-41.5 13.5zM215 1247l377 -514l377 508q48 64 110 64q39 0 70.5 -27.5
t37 -67.5t-25.5 -86l-448 -600v-401q0 -54 -38 -88.5t-81 -34.5q-51 0 -85 33.5t-34 89.5v401l-459 606q-29 44 -23 83t38.5 65.5t74.5 26.5q67 0 109 -58z" />
    <glyph glyph-name="ycircumflex" unicode="&#x177;" horiz-adv-x="1144" 
d="M664 1128l-134 76l-131 -76q-28 -14 -57.5 -12t-49 21.5t-29.5 43t1 51.5t43 48l170 109q34 22 54.5 22t54.5 -22l170 -109q27 -17 39 -39.5t8.5 -43.5t-15 -40.5t-32.5 -30t-44 -12t-48 13.5zM954 1042q55 0 91.5 -47t15.5 -106l-598 -1174q-20 -39 -52 -61.5t-67 -22.5
q-57 0 -91 51.5t-5 110.5l155 307l-403 781q-27 59 10.5 110t95.5 51q32 0 63 -20.5t46 -52.5l315 -617l316 619q14 33 43 52t65 19z" />
    <glyph glyph-name="Ydieresis" unicode="&#x178;" horiz-adv-x="1263" 
d="M440 1642q49 0 91 -34.5t42 -85.5q0 -60 -40.5 -91.5t-92.5 -31.5q-53 0 -93 35.5t-40 87.5t40 86t93 34zM819 1642q52 0 93.5 -34t41.5 -86q0 -60 -40 -91.5t-95 -31.5q-54 0 -94.5 35t-40.5 88q0 52 40.5 86t94.5 34zM215 1247l377 -514l377 508q48 64 110 64
q39 0 70.5 -27.5t37 -67.5t-25.5 -86l-448 -600v-401q0 -54 -38 -88.5t-81 -34.5q-51 0 -85 33.5t-34 89.5v401l-459 606q-29 44 -23 83t38.5 65.5t74.5 26.5q67 0 109 -58z" />
    <glyph glyph-name="Zacute" unicode="&#x179;" horiz-adv-x="1257" 
d="M768 1683q46 23 90 -13t43 -85t-57 -80l-244 -100q-33 -12 -62.5 -7.5t-46.5 25t-23 44t8 50t46 42.5zM350 211h729q56 0 87.5 -31.5t31.5 -73.5q0 -41 -31 -72t-88 -34h-950q-59 0 -93 28t-34 70q0 39 33 78l809 924h-688q-54 0 -83.5 30t-29.5 70q0 41 29.5 73t81.5 32
h919q59 0 93 -28.5t34 -70.5q0 -35 -35 -82z" />
    <glyph glyph-name="zacute" unicode="&#x17a;" horiz-adv-x="1083" 
d="M569 1403q43 27 90.5 -5t51 -80.5t-48.5 -84.5l-216 -113q-28 -13 -56.5 -11t-48 20.5t-29 41.5t1 50t40.5 47zM354 203l518 2q55 0 87 -31.5t32 -73.5q0 -41 -31 -70.5t-88 -29.5h-741q-57 0 -90 29.5t-33 70.5q0 43 39 82l584 654l-477 -2q-53 0 -84 30.5t-31 71.5
q0 43 31 74.5t84 31.5h704q54 0 88.5 -32.5t34.5 -75.5q0 -38 -37 -78z" />
    <glyph glyph-name="Zdotaccent" unicode="&#x17b;" horiz-adv-x="1257" 
d="M614 1651q55 0 99.5 -37t44.5 -92q0 -64 -43 -97.5t-101 -33.5q-57 0 -100 37.5t-43 93.5q0 55 43 92t100 37zM350 211h729q56 0 87.5 -31.5t31.5 -73.5q0 -41 -31 -72t-88 -34h-950q-59 0 -93 28t-34 70q0 39 33 78l809 924h-688q-54 0 -83.5 30t-29.5 70q0 41 29.5 73
t81.5 32h919q59 0 93 -28.5t34 -70.5q0 -35 -35 -82z" />
    <glyph glyph-name="zdotaccent" unicode="&#x17c;" horiz-adv-x="1083" 
d="M506 1389q55 0 99 -37t44 -92q0 -64 -42.5 -98t-100.5 -34q-57 0 -100.5 38t-43.5 94q0 55 43.5 92t100.5 37zM354 203l518 2q55 0 87 -31.5t32 -73.5q0 -41 -31 -70.5t-88 -29.5h-741q-57 0 -90 29.5t-33 70.5q0 43 39 82l584 654l-477 -2q-53 0 -84 30.5t-31 71.5
q0 43 31 74.5t84 31.5h704q54 0 88.5 -32.5t34.5 -75.5q0 -38 -37 -78z" />
    <glyph glyph-name="Zcaron" unicode="&#x17d;" horiz-adv-x="1257" 
d="M748 1661q25 15 48 13.5t44 -12t32.5 -30t15 -40.5t-8.5 -43.5t-39 -39.5l-170 -108q-34 -22 -54.5 -22t-54.5 22l-170 108q-32 20 -43 48t-1 51.5t29.5 43t49 21.5t57.5 -12l131 -76zM350 211h729q56 0 87.5 -31.5t31.5 -73.5q0 -41 -31 -72t-88 -34h-950q-59 0 -93 28
t-34 70q0 39 33 78l809 924h-688q-54 0 -83.5 30t-29.5 70q0 41 29.5 73t81.5 32h919q59 0 93 -28.5t34 -70.5q0 -35 -35 -82z" />
    <glyph glyph-name="zcaron" unicode="&#x17e;" horiz-adv-x="1083" 
d="M637 1397q29 14 58 12t48.5 -21t29 -42.5t-1 -52t-42.5 -48.5l-170 -108q-34 -22 -54 -22t-54 22l-170 108q-26 17 -38 40t-8.5 43.5t15 40t32.5 29.5t43.5 12t47.5 -13l131 -76zM354 203l518 2q55 0 87 -31.5t32 -73.5q0 -41 -31 -70.5t-88 -29.5h-741q-57 0 -90 29.5
t-33 70.5q0 43 39 82l584 654l-477 -2q-53 0 -84 30.5t-31 71.5q0 43 31 74.5t84 31.5h704q54 0 88.5 -32.5t34.5 -75.5q0 -38 -37 -78z" />
    <glyph glyph-name="florin" unicode="&#x192;" horiz-adv-x="944" 
d="M580 831l-107 -761q-10 -71 -35 -132.5t-68 -115t-112 -85t-156 -32.5q-130 -5 -186 68q-25 30 -27 65t15.5 60.5t44.5 42t62.5 11.5t66.5 -34q3 -2 7 -6q6 -6 15 -6h6q106 0 134 186l102 739h-104q-53 0 -82 27.5t-29 65.5q0 40 33 70t88 30h121q30 133 119 215.5
t245 85.5q135 3 215 -68q49 -40 36 -95.5t-66.5 -73.5t-124.5 18q-17 14 -66 14q-88 0 -117 -96h117q56 0 86.5 -27.5t30.5 -64.5q0 -40 -33 -70.5t-88 -30.5h-143z" />
    <glyph glyph-name="uni0218" unicode="&#x218;" horiz-adv-x="1323" 
d="M14 309q-14 57 26 93t99 36q42 0 74 -21t39 -59q16 -47 56.5 -81t95.5 -51t108.5 -24t110.5 -7q61 0 119 8.5t117.5 29t95.5 62t36 98.5q0 27 -11.5 49t-28.5 37t-48 27t-57.5 19t-70.5 13t-73.5 8.5t-78.5 6.5q-73 6 -122 11.5t-117 18t-113.5 29t-95.5 44.5t-79.5 64
t-49 88.5t-19.5 117.5q0 81 35.5 149t93 113.5t133.5 77t155 45.5t158 14q87 0 169 -14t164.5 -44.5t148.5 -89.5t100 -139q16 -54 -22.5 -93.5t-94.5 -39.5q-35 0 -63.5 15.5t-40.5 42.5q-55 143 -359 143q-47 0 -99.5 -9t-107 -28t-90 -57t-35.5 -88q0 -32 12.5 -57
t40.5 -41.5t57 -28t78 -18.5t86.5 -11t98.5 -8q211 -20 282 -35q201 -41 269 -156q41 -71 41 -174q0 -94 -40 -168t-102 -119.5t-145.5 -75t-163.5 -41t-163 -11.5q-88 0 -177 16t-179.5 51.5t-159 103t-93.5 158.5zM633 -467q-17 -33 -47 -48.5t-59 -10.5t-54 22t-31.5 49
t7.5 70l77 180q27 57 88 58.5t98 -46.5t5 -110z" />
    <glyph glyph-name="uni0219" unicode="&#x219;" horiz-adv-x="1095" 
d="M27 244q-14 54 24 90.5t92 36.5q38 0 67 -22t42 -64q18 -52 92 -78.5t166 -26.5q109 0 177.5 40t68.5 102q0 30 -19.5 50t-57 30t-77.5 15t-94 9h-6q-190 17 -270 42q-161 52 -191 191q-8 35 -8 76q0 148 127 238t334 90q371 0 458 -223q19 -59 -20 -98.5t-94 -39.5
q-74 0 -101 64q-43 94 -243 94q-103 0 -165.5 -35t-62.5 -92q0 -24 9.5 -40.5t23 -25.5t40 -14.5t48.5 -7t61 -4.5t66 -6q181 -21 244 -38q165 -43 211 -157q20 -51 20 -118q0 -153 -132 -247.5t-347 -94.5q-58 0 -111 5.5t-115.5 22.5t-111 44.5t-88.5 77t-57 114.5z
M522 -467q-17 -33 -47 -48.5t-59 -10.5t-54 22t-31.5 49t7.5 70l78 180q27 57 88 58.5t97.5 -46.5t4.5 -110z" />
    <glyph glyph-name="uni021A" unicode="&#x21a;" horiz-adv-x="1206" 
d="M1061 1305q55 0 88 -32t33 -75q0 -41 -33 -72.5t-88 -31.5h-381l2 -985q0 -51 -38 -80t-83 -29q-47 0 -83 28.5t-36 80.5v985h-379q-56 0 -85 31t-29 73q0 44 29 75.5t85 31.5h998zM573 -467q-17 -33 -47 -48.5t-59 -10.5t-54 22t-31.5 49t7.5 70l78 180q27 57 88 58.5
t97.5 -46.5t4.5 -110z" />
    <glyph glyph-name="uni021B" unicode="&#x21b;" horiz-adv-x="788" 
d="M563 195q69 34 119.5 5t50.5 -87q0 -63 -67 -99q-42 -23 -76 -28.5t-92 -5.5q-330 0 -330 385v483h-78q-54 0 -83.5 28.5t-29.5 67.5q0 40 30 69t83 29h78v177q0 50 34 78t81 28q46 0 81 -28t35 -78v-177h160q51 0 81 -29.5t30 -68.5t-30 -67.5t-81 -28.5h-160v-483
q0 -39 3.5 -67.5t13 -57.5t30.5 -44.5t52 -15.5q30 0 65 15zM510 -467q-17 -33 -47 -48.5t-59 -10.5t-54 22t-31.5 49t7.5 70l77 180q27 57 88 58.5t98 -46.5t5 -110z" />
    <glyph glyph-name="circumflex" unicode="&#x2c6;" horiz-adv-x="661" 
d="M494 1128l-134 76l-131 -76q-28 -14 -57.5 -12t-49 21.5t-29.5 43t1 51.5t43 48l170 109q34 22 54.5 22t54.5 -22l170 -109q27 -17 39 -39.5t8.5 -43.5t-15 -40.5t-32.5 -30t-44 -12t-48 13.5z" />
    <glyph glyph-name="caron" unicode="&#x2c7;" horiz-adv-x="667" 
d="M494 1397q25 15 48 13.5t44 -12t32.5 -30t15 -40.5t-8.5 -43.5t-39 -39.5l-170 -108q-34 -22 -54.5 -22t-54.5 22l-170 108q-32 20 -43 48t-1 51.5t29.5 43t49 21.5t57.5 -12l131 -76z" />
    <glyph glyph-name="breve" unicode="&#x2d8;" horiz-adv-x="724" 
d="M455 1325q6 50 50.5 64.5t84 -10t31.5 -70.5q-17 -89 -86.5 -141t-172.5 -52q-105 0 -174.5 52.5t-83.5 140.5q-8 46 31.5 70.5t84 10t50.5 -64.5q2 -19 26 -38t66 -19t66.5 19t26.5 38z" />
    <glyph glyph-name="dotaccent" unicode="&#x2d9;" horiz-adv-x="491" 
d="M246 1389q55 0 99 -37t44 -92q0 -64 -42.5 -98t-100.5 -34q-57 0 -100.5 38t-43.5 94q0 55 43.5 92t100.5 37z" />
    <glyph glyph-name="ring" unicode="&#x2da;" horiz-adv-x="428" 
d="M195 1497q94 0 153.5 -54t59.5 -140q0 -85 -59.5 -139t-153.5 -54t-153.5 54t-59.5 139q0 86 59.5 140t153.5 54zM195 1374q-34 0 -54 -19.5t-20 -51.5q0 -31 20.5 -50.5t53.5 -19.5t53 19.5t20 50.5q0 32 -19.5 51.5t-53.5 19.5z" />
    <glyph glyph-name="ogonek" unicode="&#x2db;" horiz-adv-x="665" 
d="M475 0l-131 -227q-19 -36 -13.5 -63.5t27.5 -32t50 11.5q42 26 79.5 3t37.5 -66.5t-44 -86.5q-43 -35 -92.5 -46.5t-92.5 -1.5t-78 39.5t-53 71.5t-12 101.5t40 122.5l131 242q31 43 74 45t72 -34t5 -79z" />
    <glyph glyph-name="tilde" unicode="&#x2dc;" horiz-adv-x="722" 
d="M51 1294q42 65 100 87.5t114.5 9t115.5 -53.5q76 -52 104 -2q18 29 46.5 39.5t53.5 2.5t46.5 -26t25 -47t-11.5 -61q-36 -64 -91 -92.5t-115 -21t-117 46.5q-29 19 -45.5 27t-37 5t-40.5 -24q-21 -24 -51 -32t-54.5 0.5t-43.5 28t-19 49t20 64.5z" />
    <glyph glyph-name="hungarumlaut" unicode="&#x2dd;" horiz-adv-x="989" 
d="M344 1407q36 34 86.5 11.5t62 -68.5t-33.5 -90l-187 -144q-23 -19 -51.5 -20.5t-49.5 12t-34 34t-7 48t32 51.5zM721 1403q39 30 87.5 3.5t55.5 -73t-41 -86.5l-198 -127q-21 -14 -44.5 -15.5t-42.5 7t-33 24.5t-18.5 35.5t5 41.5t32.5 40z" />
    <glyph glyph-name="gravecomb" unicode="&#x300;" 
d="M-375 1409l213 -135q31 -20 41.5 -47t1 -50t-29 -41.5t-48 -20.5t-55.5 11l-215 113q-53 36 -49.5 84.5t51 80.5t90.5 5z" />
    <glyph glyph-name="acutecomb" unicode="&#x301;" 
d="M-240 1403q43 27 90.5 -5t51 -80.5t-48.5 -84.5l-215 -113q-28 -13 -56.5 -11t-48 20.5t-29 41.5t0.5 50t40 47z" />
    <glyph glyph-name="uni0302" unicode="&#x302;" 
d="M-168 1128l-133 76l-131 -76q-28 -14 -57.5 -12t-49 21.5t-29.5 43t1 51.5t43 48l170 109q34 22 54 22t54 -22l170 -109q27 -17 39 -39.5t8.5 -43.5t-15 -40.5t-32.5 -30t-44 -12t-48 13.5z" />
    <glyph glyph-name="tildecomb" unicode="&#x303;" 
d="M-672 1294q42 65 100 87.5t114.5 9t115.5 -53.5q76 -52 104 -2q18 29 46.5 39.5t53.5 2.5t46.5 -26t25 -47t-11.5 -61q-36 -64 -91 -92.5t-115 -21t-117 46.5q-29 19 -45.5 27t-37 5t-40.5 -24q-21 -24 -51 -32t-54.5 0.5t-43.5 28t-19 49t20 64.5z" />
    <glyph glyph-name="uni0304" unicode="&#x304;" 
d="M-195 1350q44 0 68.5 -29t24.5 -63.5t-24.5 -63.5t-68.5 -29h-350q-44 0 -69.5 29t-25.5 63.5t25.5 63.5t69.5 29h350z" />
    <glyph glyph-name="uni0306" unicode="&#x306;" 
d="M-270 1325q6 50 50.5 64.5t84 -10t31.5 -70.5q-17 -89 -86 -141t-172 -52q-105 0 -175 52.5t-84 140.5q-8 46 31.5 70.5t84 10t50.5 -64.5q2 -19 26.5 -38t66.5 -19t66 19t26 38z" />
    <glyph glyph-name="uni0307" unicode="&#x307;" 
d="M-246 1389q55 0 99.5 -37t44.5 -92q0 -64 -43 -98t-101 -34q-57 0 -100 38t-43 94q0 55 43 92t100 37z" />
    <glyph glyph-name="uni0308" unicode="&#x308;" 
d="M-616 1380q49 0 91 -34.5t42 -85.5q0 -60 -40.5 -91.5t-92.5 -31.5q-53 0 -93.5 35.5t-40.5 87.5t40.5 86t93.5 34zM-238 1380q52 0 94 -34t42 -86q0 -60 -40.5 -91.5t-95.5 -31.5q-54 0 -94.5 35t-40.5 88q0 52 40.5 86t94.5 34z" />
    <glyph glyph-name="uni030A" unicode="&#x30a;" 
d="M-233 1497q94 0 153.5 -54t59.5 -140q0 -85 -59.5 -139t-153.5 -54t-153.5 54t-59.5 139q0 86 59.5 140t153.5 54zM-233 1374q-34 0 -54 -19.5t-20 -51.5q0 -31 20.5 -50.5t53.5 -19.5t53 19.5t20 50.5q0 32 -19.5 51.5t-53.5 19.5z" />
    <glyph glyph-name="uni030B" unicode="&#x30b;" 
d="M-645 1407q36 34 86.5 11.5t62 -68.5t-33.5 -90l-187 -144q-23 -19 -51.5 -20.5t-49.5 12t-34 34t-7 48t32 51.5zM-268 1403q39 30 87.5 3.5t55.5 -73t-41 -86.5l-199 -127q-35 -24 -66.5 -15t-53.5 31t-18.5 56t38.5 61z" />
    <glyph glyph-name="uni030C" unicode="&#x30c;" 
d="M-174 1397q29 14 58 12t48.5 -21t29 -42.5t-1 -52t-42.5 -48.5l-170 -108q-34 -22 -54 -22t-54 22l-170 108q-26 17 -38 40t-8.5 43.5t15 40t32.5 29.5t43.5 12t47.5 -13l131 -76z" />
    <glyph glyph-name="uni0326" unicode="&#x326;" 
d="M-506 -467q-17 -33 -47 -48.5t-59 -10.5t-54 22t-31.5 49t7.5 70l78 180q27 57 88 58.5t97.5 -46.5t4.5 -110z" />
    <glyph glyph-name="uni0327" unicode="&#x327;" 
d="M-176 0l-37 -162q81 0 119.5 -51t38.5 -117q0 -96 -72.5 -149t-173.5 -53q-74 0 -127.5 15.5t-89.5 63.5q-19 25 -20 52t12 46.5t32.5 34t41.5 14t38 -12.5q21 -19 41.5 -28.5t32 -11t33.5 -1.5q40 0 56 37q14 35 -9 57q-22 21 -66 12q-29 -6 -55.5 15.5t-15.5 66.5
l45 172h176z" />
    <glyph glyph-name="uni0328" unicode="&#x328;" 
d="M-190 0l-132 -227q-19 -36 -13.5 -63.5t27.5 -32t50 11.5q42 26 80 3t38 -66.5t-44 -86.5q-43 -35 -92.5 -46.5t-93 -1.5t-78.5 39.5t-53 71.5t-12 101.5t40 122.5l131 242q31 43 74.5 45t72.5 -34t5 -79z" />
    <glyph glyph-name="uni0401" unicode="&#x401;" horiz-adv-x="1308" 
d="M465 1642q49 0 91 -34.5t42 -85.5q0 -60 -40.5 -91.5t-92.5 -31.5q-53 0 -93 35.5t-40 87.5t40 86t93 34zM844 1642q52 0 93.5 -34t41.5 -86q0 -60 -40 -91.5t-95 -31.5q-54 0 -94.5 35t-40.5 88q0 52 40.5 86t94.5 34zM1067 205q51 0 82 -33t31 -74q0 -40 -29.5 -69
t-83.5 -29h-813q-60 0 -97.5 35.5t-37.5 87.5v1061q0 51 37.5 86t97.5 35h813q52 0 80.5 -29t28.5 -70q0 -40 -29.5 -71t-79.5 -31h-715v-359h678q50 0 78.5 -30.5t28.5 -71.5q0 -40 -28 -69t-79 -29h-678v-340h715z" />
    <glyph glyph-name="uni0410" unicode="&#x410;" horiz-adv-x="1427" 
d="M670 1325q76 0 104 -57l580 -1137q37 -63 -2.5 -107t-104.5 -44q-31 0 -60.5 15.5t-43.5 43.5l-144 285h-659l-143 -285q-27 -59 -103 -59q-59 0 -99.5 44t-14.5 101l583 1143q14 32 39.5 44.5t67.5 12.5zM670 979l-230 -457h459z" />
    <glyph glyph-name="uni0411" unicode="&#x411;" horiz-adv-x="1406" 
d="M766 819q138 0 247 -45t165.5 -117.5t83 -159.5t1 -174.5t-81 -160t-163.5 -117.5t-246 -45h-534q-50 0 -85.5 27t-35.5 77v1090q0 52 25 80t81 31h799q57 0 90 -30.5t33 -72.5q0 -40 -33 -71t-90 -31h-666v-281h410zM774 205q101 0 169.5 42.5t83.5 102.5t-1.5 120.5
t-87 103t-172.5 42.5h-410v-411h418z" />
    <glyph glyph-name="uni0412" unicode="&#x412;" horiz-adv-x="1406" 
d="M698 1305q55 0 107 -5.5t111.5 -19t108.5 -40t90 -64.5t64 -97t23 -133q0 -69 -33 -137.5t-88 -99.5q104 -42 157.5 -123t53.5 -191q0 -92 -32.5 -162.5t-84.5 -113.5t-125.5 -70.5t-148.5 -38t-160 -10.5h-499q-49 0 -85 32.5t-36 76.5v1087q0 45 35.5 77t85.5 32h456z
M698 1102h-340v-318h347q113 0 187.5 40.5t74.5 121.5q0 47 -26.5 80t-71 48.5t-85.5 21.5t-86 6zM801 582h-443v-379h383q310 0 310 192q0 90 -70 138.5t-180 48.5z" />
    <glyph glyph-name="uni0413" unicode="&#x413;" horiz-adv-x="1038" 
d="M240 1305h706q57 0 90 -30.5t33 -72.5q0 -40 -33 -71t-90 -31h-590v-996q0 -49 -35.5 -76.5t-82.5 -27.5q-50 0 -85.5 27t-35.5 77v1090q0 55 29.5 83t93.5 28z" />
    <glyph glyph-name="uni0414" unicode="&#x414;" horiz-adv-x="1654" 
d="M1409 205q64 0 90.5 -27.5t26.5 -83.5v-274q0 -50 -33 -77.5t-82 -27.5q-46 0 -79.5 27.5t-33.5 77.5v180h-925v-180q0 -50 -33.5 -77.5t-79.5 -27.5q-49 0 -82 27.5t-33 77.5v274q0 56 26.5 83.5t90.5 27.5h29q44 0 75.5 54.5t45.5 127.5l159 797q13 65 53 93t115 28
h504q45 0 83 -35.5t38 -85.5v-979h45zM1137 205v911h-357l-145 -751q-17 -89 -76 -160h578z" />
    <glyph glyph-name="uni0415" unicode="&#x415;" horiz-adv-x="1308" 
d="M1067 205q51 0 82 -33t31 -74q0 -40 -29.5 -69t-83.5 -29h-813q-60 0 -97.5 35.5t-37.5 87.5v1061q0 51 37.5 86t97.5 35h813q52 0 80.5 -29t28.5 -70q0 -40 -29.5 -71t-79.5 -31h-715v-359h678q50 0 78.5 -30.5t28.5 -71.5q0 -40 -28 -69t-79 -29h-678v-340h715z" />
    <glyph glyph-name="uni0416" unicode="&#x416;" horiz-adv-x="2035" 
d="M1921 182q39 -48 39 -84q0 -42 -34 -70t-81 -28q-64 0 -96 39l-449 524l-133 -127v-330q0 -50 -34 -78t-82 -28h-2h-2q-48 0 -82.5 28t-34.5 78v330l-133 127l-449 -524q-32 -39 -96 -39q-47 0 -81 28t-34 70q0 36 39 84l453 525l-434 411q-41 38 -41 80q0 41 35 74
t83 33q50 0 86 -33l572 -553v481q0 51 34.5 78t82.5 27h2h2q48 0 82 -27t34 -78v-481l572 553q36 33 86 33q48 0 83.5 -33t35.5 -74q0 -42 -41 -80l-435 -411z" />
    <glyph glyph-name="uni0417" unicode="&#x417;" horiz-adv-x="1323" 
d="M1237 385q0 -90 -35 -161.5t-93 -117t-138.5 -75t-166 -42t-181.5 -12.5q-88 0 -177 16.5t-179.5 52t-159 103t-93.5 158.5q-14 57 26 93t99 36q42 0 74 -21t39 -59q16 -47 56.5 -81t95.5 -51t108.5 -24t110.5 -7q61 0 119 8.5t117.5 28.5t95.5 60t36 95q0 171 -246 180
h-122q-41 0 -70 31.5t-29 73.5t30 72t73 30h143q87 0 129.5 42.5t42.5 119.5q0 36 -22.5 66t-57 49t-78 31.5t-83.5 18t-76 5.5q-304 0 -359 -143q-12 -27 -40.5 -42.5t-63.5 -15.5q-56 0 -94.5 39.5t-22.5 93.5q34 80 100 139t148.5 89.5t164.5 44.5t169 14q80 0 157 -12.5
t151 -40.5t129.5 -70t89.5 -105.5t34 -140.5q0 -60 -22.5 -113t-56.5 -86.5t-70 -53.5t-68 -23q51 0 112 -37.5t107.5 -107.5t46.5 -148z" />
    <glyph glyph-name="uni0418" unicode="&#x418;" horiz-adv-x="1415" 
d="M428 1204v-659l-8 -137l643 835q50 62 119 62q52 0 88.5 -33t36.5 -92v-1071q0 -54 -35.5 -81.5t-87.5 -27.5q-49 0 -85 28t-36 81v643l8 114l-627 -807q-20 -26 -53.5 -42.5t-68.5 -16.5q-56 0 -97 32.5t-41 90.5v1081q0 49 34.5 75t84.5 26t87.5 -27t37.5 -74z" />
    <glyph glyph-name="uni0419" unicode="&#x419;" horiz-adv-x="1415" 
d="M862 1608q6 53 53.5 68t90 -12t34.5 -75q-19 -95 -92 -151t-184 -56q-114 0 -188.5 56.5t-88.5 150.5q-9 48 33.5 75t90.5 12t55 -68q2 -22 27 -42t71 -20t71 20t27 42zM428 1204v-659l-8 -137l643 835q50 62 119 62q52 0 88.5 -33t36.5 -92v-1071q0 -54 -35.5 -81.5
t-87.5 -27.5q-49 0 -85 28t-36 81v643l8 114l-627 -807q-20 -26 -53.5 -42.5t-68.5 -16.5q-56 0 -97 32.5t-41 90.5v1081q0 49 34.5 75t84.5 26t87.5 -27t37.5 -74z" />
    <glyph glyph-name="uni041A" unicode="&#x41a;" horiz-adv-x="1284" 
d="M1169 182q39 -48 39 -84q0 -42 -33.5 -70t-80.5 -28q-61 0 -97 39l-489 524l-154 -135v-322q0 -49 -36.5 -77.5t-84.5 -28.5t-82 28t-34 78v1094q0 51 34 78t82 27q49 0 85 -27t36 -78v-489l633 561q39 33 86 33q48 0 83.5 -33t35.5 -74q0 -42 -41 -80l-475 -411z" />
    <glyph glyph-name="uni041B" unicode="&#x41b;" horiz-adv-x="1398" 
d="M1079 1305q47 0 84 -29t37 -78v-1087q0 -52 -37 -81.5t-84 -29.5q-48 0 -82 29t-34 82v997h-342l-146 -743q-10 -60 -24 -107t-42.5 -97.5t-68.5 -84t-103.5 -55t-144.5 -21.5h-2q-41 0 -70.5 29.5t-29.5 70.5t29.5 71t70.5 30q22 0 41 5.5t31.5 10.5t24.5 20.5
t17.5 22.5t13 30.5t9.5 29.5t8 35t7 32l166 797q15 65 54 93t113 28h504z" />
    <glyph glyph-name="uni041C" unicode="&#x41c;" horiz-adv-x="1642" 
d="M242 1305q64 0 104 -62l428 -670l426 672q40 60 109 60q47 0 80.5 -31t33.5 -84v-1084q0 -50 -36.5 -78t-83.5 -28q-48 0 -82.5 27.5t-34.5 78.5v691l-305 -478q-33 -59 -107 -59q-32 0 -62.5 18t-47.5 48l-302 469v-689q0 -51 -35.5 -78.5t-82.5 -27.5q-48 0 -83.5 27.5
t-35.5 78.5v1082q0 52 35 84.5t82 32.5z" />
    <glyph glyph-name="uni041D" unicode="&#x41d;" horiz-adv-x="1398" 
d="M1079 1305q47 0 84 -29t37 -78v-1087q0 -52 -37 -81.5t-84 -29.5q-48 0 -82 29t-34 82v421h-613v-421q0 -53 -34 -82t-80 -29q-49 0 -85 30t-36 81v1087q0 50 33.5 78.5t80.5 28.5q48 0 84.5 -28.5t36.5 -78.5v-467h613v467q0 50 34.5 78.5t81.5 28.5z" />
    <glyph glyph-name="uni041E" unicode="&#x41e;" horiz-adv-x="1525" 
d="M1382 651q0 -302 -183 -486.5t-482 -184.5q-301 0 -486.5 184.5t-185.5 486.5t185.5 488t486.5 186q299 0 482 -185.5t183 -488.5zM717 188q192 0 309 128t117 335q0 209 -117 337t-309 128q-193 0 -311.5 -128t-118.5 -337q0 -207 118.5 -335t311.5 -128z" />
    <glyph glyph-name="uni041F" unicode="&#x41f;" horiz-adv-x="1398" 
d="M1079 1305q47 0 84 -29t37 -78v-1087q0 -52 -37 -81.5t-84 -29.5q-48 0 -82 29t-34 82v995h-613v-995q0 -53 -34 -82t-80 -29q-49 0 -85 30t-36 81v1087q0 50 33.5 78.5t80.5 28.5h850z" />
    <glyph glyph-name="uni0420" unicode="&#x420;" horiz-adv-x="1310" 
d="M354 362v-258q0 -50 -35.5 -77t-82.5 -27q-48 0 -82.5 27t-34.5 75v1096q0 47 34.5 77t84.5 30h417q252 0 395.5 -131.5t143.5 -350.5q0 -210 -145 -335.5t-400 -125.5h-295zM354 1102v-537h295q149 0 230.5 69.5t81.5 188.5q0 128 -80 203.5t-224 75.5h-303z" />
    <glyph glyph-name="uni0421" unicode="&#x421;" horiz-adv-x="1366" 
d="M717 1325q330 0 510 -203q52 -59 28.5 -117t-83 -64.5t-115.5 42.5q-71 77 -153 105t-189 28q-195 0 -313.5 -123.5t-118.5 -324.5q0 -217 121 -348.5t321 -131.5q94 0 190 48t156 120q53 63 120 58t87 -58t-21 -123q-83 -116 -232 -184.5t-304 -68.5q-303 0 -488.5 189
t-185.5 499q0 193 88.5 344t240.5 232t341 81z" />
    <glyph glyph-name="uni0422" unicode="&#x422;" horiz-adv-x="1206" 
d="M1061 1305q55 0 88 -32t33 -75q0 -41 -33 -72.5t-88 -31.5h-381l2 -985q0 -51 -38 -80t-83 -29q-47 0 -83 28.5t-36 80.5v985h-379q-56 0 -85 31t-29 73q0 44 29 75.5t85 31.5h998z" />
    <glyph glyph-name="uni0423" unicode="&#x423;" horiz-adv-x="1333" 
d="M1198 1286q41 -25 55 -67t-8 -80l-553 -1004q-81 -155 -231 -155q-106 0 -148 62q-33 48 -5 97q38 58 126 60q31 0 46.5 11.5t33.5 51.5l45 98l-485 775q-24 37 -7.5 86t60.5 71q49 19 90 1.5t68 -60.5l397 -660l362 682q21 37 64.5 47t89.5 -16z" />
    <glyph glyph-name="uni0424" unicode="&#x424;" horiz-adv-x="1748" 
d="M1018 1206q266 0 427 -157t161 -400t-161 -400t-427 -157h-76v-49q0 -50 -33.5 -77t-81.5 -27q-49 0 -81.5 26.5t-32.5 77.5v49h-80q-266 0 -427 157t-161 400t161 400t427 157h80v49q0 54 32.5 82.5t81.5 28.5q48 0 81.5 -28.5t33.5 -82.5v-49h76zM633 295h80v713h-80
q-174 0 -272.5 -95.5t-98.5 -263.5q0 -167 98 -260.5t273 -93.5zM1018 295q175 0 273 93.5t98 260.5q0 168 -98.5 263.5t-272.5 95.5h-76v-713h76z" />
    <glyph glyph-name="uni0425" unicode="&#x425;" horiz-adv-x="1314" 
d="M1204 178q33 -42 33 -78q0 -41 -33.5 -70.5t-79.5 -29.5q-64 0 -102 43l-406 451l-407 -451q-37 -43 -94 -43q-45 0 -79 30.5t-34 71.5q0 42 33 78l438 482l-426 475q-29 37 -21.5 74.5t41 65.5t72.5 28q56 0 88 -35l394 -436l395 432q33 39 88 39q40 0 73.5 -27.5
t39 -66t-26.5 -78.5l-424 -467z" />
    <glyph glyph-name="uni0426" unicode="&#x426;" horiz-adv-x="1366" 
d="M1169 199q64 0 93.5 -28t29.5 -83v-268q0 -49 -33.5 -77t-74 -28t-74 28t-33.5 77v180h-905q-47 0 -81 28t-34 78v1088q0 51 36 81t85 30q46 0 80.5 -29t34.5 -82v-995h612v995q0 52 34.5 81.5t82.5 29.5q47 0 84 -29.5t37 -81.5v-995h26z" />
    <glyph glyph-name="uni0427" unicode="&#x427;" horiz-adv-x="1398" 
d="M1079 1305q47 0 84 -29t37 -78v-1087q0 -52 -37 -81.5t-84 -29.5q-48 0 -82 29t-34 82v387q-184 -88 -365 -88q-55 0 -106 8.5t-108 27.5t-103.5 56t-84.5 89.5t-59.5 132.5t-21.5 179v295q0 49 30 78t86 29q52 0 84.5 -30t32.5 -77v-299q0 -133 63 -212t187 -79
q205 0 365 129v461q0 50 34.5 78.5t81.5 28.5z" />
    <glyph glyph-name="uni0428" unicode="&#x428;" horiz-adv-x="1773" 
d="M1536 1305q47 0 84 -29.5t37 -81.5v-1088q0 -49 -37 -77.5t-84 -28.5h-1307q-47 0 -80.5 28t-33.5 78v1088q0 51 36 81t85 30q46 0 80 -29t34 -82v-995h416v995q0 52 34.5 81.5t82.5 29.5q47 0 84 -29.5t37 -81.5v-995h415v995q0 52 34.5 81.5t82.5 29.5z" />
    <glyph glyph-name="uni0429" unicode="&#x429;" horiz-adv-x="1798" 
d="M1688 199q64 0 93 -27.5t29 -83.5v-268q0 -50 -32 -77.5t-80 -27.5q-46 0 -78.5 27.5t-32.5 77.5v180h-1358q-47 0 -80.5 28t-33.5 78v1088q0 51 36 81t85 30q46 0 80 -29t34 -82v-995h416v995q0 52 34.5 81.5t82.5 29.5q47 0 84 -29.5t37 -81.5v-995h415v995
q0 52 34.5 81.5t82.5 29.5q47 0 84 -29.5t37 -81.5v-995h31z" />
    <glyph glyph-name="uni042A" unicode="&#x42a;" horiz-adv-x="1310" 
d="M762 858q128 0 228.5 -47.5t152.5 -123t76.5 -167t1 -183t-74.5 -167t-151 -123t-227 -47.5h-530q-50 0 -84.5 29.5t-34.5 76.5v981h-180q-44 0 -74 22.5t-37 54.5t0 64t37 54.5t74 22.5h297q47 0 82.5 -27.5t35.5 -77.5v-342h408zM770 203q86 0 145 46.5t71.5 113
t-2 133t-75 113t-147.5 46.5h-408v-452h416z" />
    <glyph glyph-name="uni042B" unicode="&#x42b;" horiz-adv-x="1699" 
d="M354 858h408q128 0 228.5 -47.5t152.5 -123t76.5 -167t1 -183t-74.5 -167t-151 -123t-227 -47.5h-530q-50 0 -84.5 29.5t-34.5 76.5v1096q0 48 34.5 75.5t82.5 27.5q47 0 82.5 -27.5t35.5 -77.5v-342zM1341 1194q0 54 34.5 82.5t84.5 28.5q49 0 85 -29t36 -82v-1090
q0 -49 -36.5 -76.5t-84.5 -27.5q-50 0 -84.5 26.5t-34.5 77.5v1090zM354 203h416q86 0 145 46.5t71.5 113t-2 133t-75 113t-147.5 46.5h-408v-452z" />
    <glyph glyph-name="uni042C" unicode="&#x42c;" horiz-adv-x="1310" 
d="M354 858h408q128 0 228.5 -47.5t152.5 -123t76.5 -167t1 -183t-74.5 -167t-151 -123t-227 -47.5h-530q-50 0 -84.5 29.5t-34.5 76.5v1096q0 48 34.5 75.5t82.5 27.5q47 0 82.5 -27.5t35.5 -77.5v-342zM354 203h416q86 0 145 46.5t71.5 113t-2 133t-75 113t-147.5 46.5
h-408v-452z" />
    <glyph glyph-name="uni042D" unicode="&#x42d;" horiz-adv-x="1366" 
d="M618 1325q189 0 341 -81t240.5 -232t88.5 -344q0 -310 -185.5 -499t-488.5 -189q-155 0 -304 68.5t-232 184.5q-47 66 -20.5 123.5t87 58t119.5 -58.5q60 -72 156 -120t190 -48q172 0 287.5 99.5t144.5 269.5h-522q-51 0 -78.5 29t-27.5 69q0 41 28 72t78 31h527
q-26 164 -140.5 261t-285.5 97q-107 0 -189 -28t-153 -105q-50 -55 -115.5 -43t-83 65t28.5 117q180 203 509 203z" />
    <glyph glyph-name="uni042E" unicode="&#x42e;" horiz-adv-x="2000" 
d="M1192 1325q299 0 482.5 -186t183.5 -488t-183.5 -486.5t-482.5 -184.5q-277 0 -458 158t-210 423h-174v-450q0 -53 -34 -82t-80 -29q-49 0 -85 30t-36 81v1087q0 50 33.5 78.5t80.5 28.5q48 0 84.5 -28.5t36.5 -78.5v-438h176q34 258 213.5 411.5t452.5 153.5zM1192 188
q192 0 309 128t117 335q0 209 -117 337t-309 128q-194 0 -312 -128t-118 -337q0 -207 118.5 -335t311.5 -128z" />
    <glyph glyph-name="uni042F" unicode="&#x42f;" horiz-adv-x="1345" 
d="M168 182l262 318q-83 27 -144 77t-93.5 111t-40.5 131.5t8 138.5t58.5 131t104.5 111t152.5 76.5t196.5 28.5h477q53 0 86 -30t33 -77v-1094q0 -49 -35 -76.5t-84 -27.5q-47 0 -83 28.5t-36 77.5v365h-330l-366 -432q-20 -24 -46 -36t-50 -10.5t-46.5 10.5t-37 28
t-21 41.5t2 51.5t32.5 58zM1030 670v428h-360q-67 0 -121.5 -18.5t-87.5 -48.5t-51.5 -68.5t-18.5 -78.5t18.5 -78.5t51.5 -68.5t87.5 -48.5t121.5 -18.5h360z" />
    <glyph glyph-name="uni0430" unicode="&#x430;" horiz-adv-x="1261" 
d="M952 1042q52 0 84.5 -29.5t32.5 -76.5v-830q0 -47 -32.5 -76.5t-84.5 -29.5q-50 0 -79 23t-35 63q-67 -53 -152.5 -79.5t-167.5 -26.5q-221 0 -349 147.5t-128 396.5q0 239 139.5 389t364.5 150q70 0 149.5 -26t143.5 -76q17 81 114 81zM543 186q95 0 177 41.5t116 116.5
v354q-37 73 -114.5 115.5t-160.5 42.5q-128 0 -207.5 -93.5t-79.5 -240.5q0 -152 73.5 -244t195.5 -92z" />
    <glyph glyph-name="uni0431" unicode="&#x431;" horiz-adv-x="1214" 
d="M670 1020q213 0 333.5 -139.5t120.5 -376.5q0 -232 -137.5 -377t-368.5 -145q-227 0 -373.5 146.5t-146.5 375.5v303q0 239 141.5 393t362.5 154q141 0 217 59q36 32 75 38t66.5 -11.5t44 -45t9 -64.5t-40.5 -68q-69 -66 -154 -90.5t-217 -24.5q-144 0 -226.5 -88
t-82.5 -230q49 92 159 141.5t218 49.5zM621 186q120 0 196 89t76 229q0 142 -75 223.5t-197 81.5q-131 0 -209.5 -87t-81.5 -237q6 -133 86.5 -216t204.5 -83z" />
    <glyph glyph-name="uni0432" unicode="&#x432;" horiz-adv-x="1187" 
d="M1063 315q0 -91 -37.5 -155.5t-103 -98t-138 -47.5t-159.5 -14h-432q-40 0 -68.5 25.5t-28.5 60.5v870q0 36 28.5 61t68.5 25h399q53 0 102.5 -6t105.5 -25t96.5 -49.5t67.5 -84t27 -123.5q0 -29 -7 -59t-22 -60t-43 -51.5t-65 -26.5q92 -20 150.5 -88t58.5 -154z
M328 625h309q45 0 76 22t38.5 53.5t0 63.5t-39.5 54t-79 22h-305v-215zM328 463v-256h354q43 0 76 14t50.5 36.5t25.5 50t0 55t-25.5 50t-50.5 36.5t-76 14h-354z" />
    <glyph glyph-name="uni0433" unicode="&#x433;" horiz-adv-x="1038" 
d="M240 1042h565q57 0 90 -30t33 -72q0 -40 -33 -71t-90 -31h-449v-734q0 -49 -35.5 -76.5t-82.5 -27.5q-50 0 -85.5 27t-35.5 77v828q0 55 29 82.5t94 27.5z" />
    <glyph glyph-name="uni0434" unicode="&#x434;" horiz-adv-x="1300" 
d="M1126 207q113 0 113 -101v-274q0 -46 -33.5 -72t-74 -26.5t-74 26t-33.5 72.5v168h-739v-168q0 -46 -33.5 -72t-74 -26t-74 26t-33.5 72v274q0 101 112 101q45 0 67.5 38.5t35.5 104.5l127 606q9 40 38 63t72 23h496q39 0 68.5 -23t29.5 -63v-749h10zM881 207v629h-275
l-92 -504q-11 -68 -82 -125h449z" />
    <glyph glyph-name="uni0435" unicode="&#x435;" horiz-adv-x="1267" 
d="M586 182q130 0 223 72q36 32 75 38t66.5 -11.5t44 -45t9 -65t-40.5 -68.5q-131 -126 -371 -122q-241 0 -391 144t-150 374q0 254 145.5 409.5t389.5 155.5q242 0 377 -145.5t137 -387.5q0 -61 -24.5 -91.5t-104.5 -30.5h-682q28 -101 109 -163.5t188 -62.5zM588 860
q-118 0 -198.5 -73.5t-102.5 -196.5h596q-11 127 -83.5 198.5t-211.5 71.5z" />
    <glyph glyph-name="uni0436" unicode="&#x436;" horiz-adv-x="1476" 
d="M1419 176q33 -45 27.5 -84t-38 -65.5t-73.5 -26.5q-55 0 -94 45l-326 406l-59 -54v-293q0 -49 -34 -76.5t-81 -27.5h-2h-2q-47 0 -80.5 27.5t-33.5 76.5v314l-60 53l-325 -426q-33 -45 -95 -45q-41 0 -73.5 26.5t-38 65.5t27.5 84l342 418l-309 264q-43 37 -43 80
q0 42 35 73t84 31q46 0 86 -32l285 -248l84 -96v272q0 40 24 67t58.5 33t68.5 0t58 -33t24 -67v-272l84 96l285 248q40 32 86 32q49 0 84 -31t35 -73t-44 -80l-311 -264z" />
    <glyph glyph-name="uni0437" unicode="&#x437;" horiz-adv-x="1193" 
d="M1069 301q0 -150 -128 -235.5t-351 -85.5q-193 0 -322.5 70.5t-161.5 193.5q-14 60 17 93.5t100 33.5q39 0 69 -23.5t40 -62.5q15 -46 84.5 -72.5t175.5 -26.5q114 0 179 36.5t65 99.5q0 40 -67.5 67.5t-186.5 36.5q-43 5 -68 32.5t-25 71.5q0 49 29 77t80 28
q97 0 152 26t55 72q0 57 -60.5 90t-164.5 33q-95 0 -161 -24.5t-85 -65.5q-33 -64 -101 -64q-74 0 -104 37t-10 101q38 104 161 163.5t298 59.5q215 0 337.5 -82t122.5 -225q0 -99 -58 -159t-146 -60q10 -1 25.5 -4t56 -19t71.5 -39.5t56.5 -69t25.5 -104.5z" />
    <glyph glyph-name="uni0438" unicode="&#x438;" horiz-adv-x="1191" 
d="M973 1042q46 0 81.5 -26.5t35.5 -71.5v-844q0 -48 -35 -74t-82 -26q-46 0 -81.5 26t-35.5 74v584l-547 -651q-29 -33 -90 -33q-46 0 -81.5 26t-35.5 74v842q0 46 36 73t81 27q46 0 81.5 -26.5t35.5 -71.5v-588l547 652q27 34 90 34z" />
    <glyph glyph-name="uni0439" unicode="&#x439;" horiz-adv-x="1191" 
d="M688 1329q7 54 55 70t90 -11t33 -75q-19 -95 -92 -151t-184 -56q-113 0 -187.5 56.5t-89.5 150.5q-9 48 33.5 75t90.5 11t55 -70q2 -20 27.5 -40.5t70.5 -20.5t70.5 20.5t27.5 40.5zM973 1042q46 0 81.5 -26.5t35.5 -71.5v-844q0 -48 -35 -74t-82 -26q-46 0 -81.5 26
t-35.5 74v584l-547 -651q-29 -33 -90 -33q-46 0 -81.5 26t-35.5 74v842q0 46 36 73t81 27q46 0 81.5 -26.5t35.5 -71.5v-588l547 652q27 34 90 34z" />
    <glyph glyph-name="uni043A" unicode="&#x43a;" horiz-adv-x="1050" 
d="M958 219q67 -67 46 -140q-16 -53 -66 -72q-66 -26 -127 30l-6 6l-375 379l-94 -66v-252q0 -48 -36 -76t-83 -28t-81 27.5t-34 76.5v834q0 40 24 67t58.5 33t69 0t58.5 -33t24 -67v-324l127 119l356 277q39 30 79 33t65.5 -17t38.5 -50t-0.5 -69t-53.5 -71l-334 -269z" />
    <glyph glyph-name="uni043B" unicode="&#x43b;" horiz-adv-x="1243" 
d="M1032 1042q39 0 68.5 -23t29.5 -63v-856q0 -48 -34.5 -74t-81.5 -26q-46 0 -81.5 26t-35.5 74v736h-258l-96 -457q-18 -95 -43 -161t-66 -117.5t-102.5 -76t-147.5 -24.5q-34 0 -60.5 11.5t-40 29.5t-19.5 40t0.5 44.5t20.5 40.5t40.5 29.5t60.5 11.5q82 0 109 123
l131 626q9 40 38.5 63t72.5 23h495z" />
    <glyph glyph-name="uni043C" unicode="&#x43c;" horiz-adv-x="1314" 
d="M1106 1042q48 0 86.5 -32.5t38.5 -81.5v-828q0 -48 -35.5 -74t-81.5 -26q-47 0 -82 26t-35 74v465l-219 -307q-43 -62 -120.5 -62t-120.5 62l-220 307v-465q0 -48 -34.5 -74t-81.5 -26q-46 0 -81.5 26t-35.5 74v828q0 49 38.5 81.5t86.5 32.5q58 0 90 -49l358 -528
l359 528q32 49 90 49z" />
    <glyph glyph-name="uni043D" unicode="&#x43d;" horiz-adv-x="1341" 
d="M1040 1042q47 0 84 -28.5t37 -77.5v-825q0 -52 -37 -81.5t-84 -29.5q-48 0 -82 29t-34 82v317h-574v-317q0 -53 -34 -82t-80 -29q-49 0 -85 30t-36 81v825q0 50 33.5 78t80.5 28q48 0 84.5 -28.5t36.5 -77.5v-309h574v309q0 50 34 78t82 28z" />
    <glyph glyph-name="uni043E" unicode="&#x43e;" horiz-adv-x="1214" 
d="M586 1063q245 0 394.5 -151t149.5 -396q-3 -241 -152.5 -388.5t-391.5 -147.5t-392 147.5t-153 388.5q0 245 150.5 396t394.5 151zM586 184q137 0 221 92t84 240q0 152 -84 247t-221 95t-221 -95t-84 -247q0 -148 84 -240t221 -92z" />
    <glyph glyph-name="uni043F" unicode="&#x43f;" horiz-adv-x="1228" 
d="M979 1042q47 0 84 -28.5t37 -77.5v-825q0 -52 -37 -81.5t-84 -29.5q-48 0 -82.5 29.5t-34.5 81.5v725h-512v-725q0 -53 -34 -82t-80 -29q-49 0 -85 30t-36 81v825q0 50 33.5 78t80.5 28h750z" />
    <glyph glyph-name="uni0440" unicode="&#x440;" horiz-adv-x="1269" 
d="M627 1063q226 0 364.5 -147t138.5 -384q0 -248 -136 -400t-359 -152q-71 0 -153 25t-148 69v-314q0 -48 -34.5 -76t-80.5 -28q-48 0 -82.5 28t-34.5 76v1178q0 49 31.5 76.5t87.5 27.5q94 0 109 -71q127 92 297 92zM629 186q121 0 194.5 95t73.5 249q0 146 -79 236
t-208 90q-84 0 -161.5 -43.5t-114.5 -118.5v-340q31 -77 114.5 -122.5t180.5 -45.5z" />
    <glyph glyph-name="uni0441" unicode="&#x441;" horiz-adv-x="1101" 
d="M809 762q-85 100 -236 100q-135 0 -217 -94t-82 -250q0 -152 85 -244t223 -92q145 0 237 92q56 57 116.5 45t72.5 -65t-31 -111q-148 -163 -397 -163q-244 0 -392.5 147t-148.5 389q0 249 146 398t388 149q120 0 215.5 -37.5t174.5 -128.5q28 -33 31.5 -69t-15.5 -60.5
t-46.5 -39t-62 -6.5t-61.5 40z" />
    <glyph glyph-name="uni0442" unicode="&#x442;" horiz-adv-x="1136" 
d="M954 1042q57 0 89.5 -32t32.5 -71t-32.5 -71t-89.5 -32h-270v-736q0 -48 -35 -74t-82 -26q-46 0 -81 26t-35 74v736h-275q-56 0 -86 32t-28.5 71t32.5 71t82 32h778z" />
    <glyph glyph-name="uni0443" unicode="&#x443;" horiz-adv-x="1144" 
d="M954 1042q55 0 91.5 -47t15.5 -106l-475 -1006q-115 -227 -406 -227q-57 0 -89 32.5t-32 71t32 71t89 32.5q139 0 201 117l63 120l-444 781q-27 59 10.5 110t95.5 51q31 0 61 -20.5t48 -52.5l356 -617l275 619q14 33 43 52t65 19z" />
    <glyph glyph-name="uni0444" unicode="&#x444;" horiz-adv-x="1740" 
d="M1153 1063q225 0 364.5 -150t139.5 -389q0 -249 -128 -396.5t-349 -147.5q-109 0 -213 61v-199q0 -42 -34 -72t-83 -30q-51 0 -84 30t-33 72v201q-108 -63 -215 -63q-221 0 -349 147.5t-128 396.5q0 239 139.5 389t364.5 150q88 0 188 -59v198q0 42 33 72.5t84 30.5
q49 0 83 -30.5t34 -72.5v-196q102 57 186 57zM543 186q120 0 190 70v528q-72 72 -172 72q-128 0 -207.5 -93.5t-79.5 -240.5q0 -152 73.5 -244t195.5 -92zM1155 186q121 0 194.5 92t73.5 244q0 147 -79 240.5t-207 93.5q-100 0 -170 -70v-532q71 -68 188 -68z" />
    <glyph glyph-name="uni0445" unicode="&#x445;" horiz-adv-x="1064" 
d="M946 195q39 -47 38 -90.5t-32.5 -74t-74.5 -30.5q-48 0 -93 45l-292 317l-291 -313q-46 -49 -103 -49q-42 0 -72 27.5t-31 68.5t38 88l315 340l-307 332q-39 47 -38 88.5t32.5 69.5t75.5 28q58 0 108 -53l277 -297l280 301q46 49 103 49q43 0 74 -27.5t31.5 -68
t-40.5 -88.5l-307 -330z" />
    <glyph glyph-name="uni0446" unicode="&#x446;" horiz-adv-x="1228" 
d="M1118 207q113 0 113 -101v-274q0 -46 -31.5 -72t-69 -26.5t-69 26t-31.5 72.5v168h-801q-47 0 -80.5 28t-33.5 78v826q0 51 36 80.5t85 29.5q46 0 80 -28.5t34 -81.5v-725h512v725q0 52 34.5 81t82.5 29q47 0 84 -29t37 -81v-725h18z" />
    <glyph glyph-name="uni0447" unicode="&#x447;" horiz-adv-x="1320" 
d="M956 1042q46 0 79.5 -28.5t33.5 -81.5v-826q0 -47 -32.5 -76.5t-84.5 -29.5t-84 29.5t-32 76.5v263q-67 -51 -148 -78t-149 -27q-115 0 -201 34t-136.5 95t-75 139.5t-24.5 174.5v225q0 51 35 80.5t84 29.5q46 0 80.5 -28.5t34.5 -81.5v-227q0 -234 227 -234q77 0 158 51
t115 127v283q0 51 35.5 80.5t84.5 29.5z" />
    <glyph glyph-name="uni0448" unicode="&#x448;" horiz-adv-x="1484" 
d="M1311 1042q47 0 84 -29t37 -81v-826q0 -49 -37 -77.5t-84 -28.5h-1143q-47 0 -81 28t-34 78v826q0 51 36 80.5t85 29.5q46 0 80.5 -28.5t34.5 -81.5v-725h334v725q0 52 34 81t82 29q47 0 84 -29t37 -81v-725h334v725q0 52 34.5 81t82.5 29z" />
    <glyph glyph-name="uni0449" unicode="&#x449;" horiz-adv-x="1630" 
d="M1456 207q113 0 113 -101v-274q0 -46 -32.5 -72t-71 -26.5t-71 26t-32.5 72.5v168h-1194q-47 0 -81 28t-34 78v826q0 51 36 80.5t85 29.5q46 0 80.5 -28.5t34.5 -81.5v-725h334v725q0 52 34 81t82 29q47 0 84 -29t37 -81v-725h334v725q0 52 34.5 81t82.5 29q47 0 84 -29
t37 -81v-725h24z" />
    <glyph glyph-name="uni044A" unicode="&#x44a;" horiz-adv-x="1228" 
d="M680 705q112 0 199 -39t131.5 -101t65 -137t-0.5 -150.5t-66 -137.5t-130.5 -101t-194.5 -39h-448q-46 0 -81.5 26t-35.5 74v736h-168q-56 0 -86 32t-28.5 71t32.5 71t82 32h285q46 0 81 -26.5t35 -71.5v-239h328zM686 186q44 0 78 17t51.5 44.5t25.5 61t-0.5 67t-27 61
t-53.5 44.5t-80 17h-328v-312h334z" />
    <glyph glyph-name="uni044B" unicode="&#x44b;" horiz-adv-x="1501" 
d="M680 705q112 0 199 -39t131.5 -101t65 -137t-0.5 -150.5t-66 -137.5t-130.5 -101t-194.5 -39h-448q-46 0 -81.5 26t-35.5 74v842q0 46 36 73t81 27q46 0 81 -26.5t35 -71.5v-239h328zM1186 942q0 46 36 73t81 27q46 0 81 -26.5t35 -71.5v-844q0 -48 -34.5 -74t-81.5 -26
q-46 0 -81.5 26t-35.5 74v842zM686 186q44 0 78 17t51.5 44.5t25.5 61t-0.5 67t-27 61t-53.5 44.5t-80 17h-328v-312h334z" />
    <glyph glyph-name="uni044C" unicode="&#x44c;" horiz-adv-x="1173" 
d="M680 705q112 0 199 -39t131.5 -101t65 -137t-0.5 -150.5t-66 -137.5t-130.5 -101t-194.5 -39h-448q-46 0 -81.5 26t-35.5 74v842q0 46 36 73t81 27q46 0 81 -26.5t35 -71.5v-239h328zM686 186q44 0 78 17t51.5 44.5t25.5 61t-0.5 67t-27 61t-53.5 44.5t-80 17h-328v-312
h334z" />
    <glyph glyph-name="uni044D" unicode="&#x44d;" horiz-adv-x="1101" 
d="M528 1063q242 0 388.5 -149t146.5 -398q0 -242 -148.5 -389t-392.5 -147q-249 0 -397 163q-49 54 -31 111t72.5 65t116.5 -45q92 -92 237 -92q113 0 191.5 64t105.5 174h-354q-51 0 -79 29t-28 69q0 41 28.5 72t78.5 31h354q-25 113 -101 177t-188 64q-150 0 -235 -100
q-27 -32 -61.5 -40t-62 6.5t-46.5 39t-15.5 60.5t31.5 69q79 91 174 128.5t215 37.5z" />
    <glyph glyph-name="uni044E" unicode="&#x44e;" horiz-adv-x="1632" 
d="M1004 1063q245 0 394.5 -151t149.5 -396q-3 -241 -152.5 -388.5t-391.5 -147.5q-216 0 -360.5 119t-176.5 321h-135v-320q0 -48 -35 -74t-82 -26q-46 0 -81.5 26t-35.5 74v842q0 46 36 73t81 27q46 0 81.5 -26.5t35.5 -71.5v-323h135q31 202 176 322t361 120zM1004 184
q137 0 221 92t84 240q0 152 -84 247t-221 95t-221.5 -95t-84.5 -247q0 -148 84 -240t222 -92z" />
    <glyph glyph-name="uni044F" unicode="&#x44f;" horiz-adv-x="1228" 
d="M954 1042q46 0 81.5 -26t35.5 -74v-842q0 -46 -36 -73t-81 -27q-46 0 -81 26.5t-35 71.5v250h-260l-256 -295q-52 -61 -116 -51.5t-78 63.5t32 119l184 209q-30 15 -78 49q-62 46 -97 110t-40.5 130t19.5 131t76 115.5t137 82t194 31.5h399zM838 535v321h-285
q-94 0 -143 -48t-42.5 -111t58.5 -109q62 -53 178 -53h234z" />
    <glyph glyph-name="uni0451" unicode="&#x451;" horiz-adv-x="1267" 
d="M381 1401q49 0 91 -35t42 -86q0 -60 -40.5 -91.5t-92.5 -31.5q-53 0 -93 35.5t-40 87.5t40 86.5t93 34.5zM760 1401q52 0 93.5 -34.5t41.5 -86.5q0 -60 -40 -91.5t-95 -31.5q-54 0 -94.5 35t-40.5 88q0 52 40.5 86.5t94.5 34.5zM586 182q130 0 223 72q36 32 75 38
t66.5 -11.5t44 -45t9 -65t-40.5 -68.5q-131 -126 -371 -122q-241 0 -391 144t-150 374q0 254 145.5 409.5t389.5 155.5q242 0 377 -145.5t137 -387.5q0 -61 -24.5 -91.5t-104.5 -30.5h-682q28 -101 109 -163.5t188 -62.5zM588 860q-118 0 -198.5 -73.5t-102.5 -196.5h596
q-11 127 -83.5 198.5t-211.5 71.5z" />
    <glyph glyph-name="Wgrave" unicode="&#x1e80;" horiz-adv-x="2396" 
d="M1022 1683l246 -124q33 -16 47 -42.5t8 -50t-23 -44t-47 -25t-63 7.5l-244 100q-56 31 -57 80t43 85t90 13zM645 383l373 739q13 33 41.5 50.5t64.5 17.5q35 0 66.5 -17t48.5 -47l373 -743l383 840q18 38 49 60t70 22q61 0 101 -48t9 -116l-498 -1073q-15 -33 -45 -50.5
t-67 -17.5q-76 0 -107 63l-381 752l-376 -752q-13 -29 -46 -46t-71 -17q-81 0 -107 68l-489 1065q-31 67 6 119.5t98 52.5q82 0 125 -93z" />
    <glyph glyph-name="wgrave" unicode="&#x1e81;" horiz-adv-x="1861" 
d="M829 1409l213 -135q31 -20 41.5 -47t1 -50t-29 -41.5t-48 -20.5t-55.5 11l-215 113q-53 36 -49.5 84.5t51 80.5t90.5 5zM47 889q-26 60 14.5 106.5t98.5 46.5q33 0 64 -21t42 -48l266 -608l256 526q13 33 42 51.5t65 18.5q77 0 109 -68l258 -533l264 609q31 73 110 73
q58 0 93 -45.5t10 -105.5l-363 -852q-22 -59 -104 -59q-83 0 -111 57l-262 555l-268 -553q-27 -59 -111 -59q-78 0 -104 61z" />
    <glyph glyph-name="Wacute" unicode="&#x1e82;" horiz-adv-x="2396" 
d="M1278 1683q46 23 90 -13t43 -85t-57 -80l-244 -100q-33 -12 -62.5 -7.5t-46.5 25t-23 44t8 50t46 42.5zM645 383l373 739q13 33 41.5 50.5t64.5 17.5q35 0 66.5 -17t48.5 -47l373 -743l383 840q18 38 49 60t70 22q61 0 101 -48t9 -116l-498 -1073q-15 -33 -45 -50.5
t-67 -17.5q-76 0 -107 63l-381 752l-376 -752q-13 -29 -46 -46t-71 -17q-81 0 -107 68l-489 1065q-31 67 6 119.5t98 52.5q82 0 125 -93z" />
    <glyph glyph-name="wacute" unicode="&#x1e83;" horiz-adv-x="1861" 
d="M958 1403q43 27 90.5 -5t51 -80.5t-48.5 -84.5l-215 -113q-28 -13 -56.5 -11t-48 20.5t-29 41.5t0.5 50t40 47zM47 889q-26 60 14.5 106.5t98.5 46.5q33 0 64 -21t42 -48l266 -608l256 526q13 33 42 51.5t65 18.5q77 0 109 -68l258 -533l264 609q31 73 110 73
q58 0 93 -45.5t10 -105.5l-363 -852q-22 -59 -104 -59q-83 0 -111 57l-262 555l-268 -553q-27 -59 -111 -59q-78 0 -104 61z" />
    <glyph glyph-name="Wdieresis" unicode="&#x1e84;" horiz-adv-x="2396" 
d="M932 1642q49 0 91 -34.5t42 -85.5q0 -60 -40.5 -91.5t-92.5 -31.5q-53 0 -93 35.5t-40 87.5t40 86t93 34zM1311 1642q52 0 93.5 -34t41.5 -86q0 -60 -40 -91.5t-95 -31.5q-54 0 -94.5 35t-40.5 88q0 52 40.5 86t94.5 34zM645 383l373 739q13 33 41.5 50.5t64.5 17.5
q35 0 66.5 -17t48.5 -47l373 -743l383 840q18 38 49 60t70 22q61 0 101 -48t9 -116l-498 -1073q-15 -33 -45 -50.5t-67 -17.5q-76 0 -107 63l-381 752l-376 -752q-13 -29 -46 -46t-71 -17q-81 0 -107 68l-489 1065q-31 67 6 119.5t98 52.5q82 0 125 -93z" />
    <glyph glyph-name="wdieresis" unicode="&#x1e85;" horiz-adv-x="1861" 
d="M709 1380q49 0 91 -34.5t42 -85.5q0 -60 -40.5 -91.5t-92.5 -31.5q-53 0 -93.5 35.5t-40.5 87.5t40.5 86t93.5 34zM1087 1380q52 0 94 -34t42 -86q0 -60 -40.5 -91.5t-95.5 -31.5q-54 0 -94.5 35t-40.5 88q0 52 40.5 86t94.5 34zM47 889q-26 60 14.5 106.5t98.5 46.5
q33 0 64 -21t42 -48l266 -608l256 526q13 33 42 51.5t65 18.5q77 0 109 -68l258 -533l264 609q31 73 110 73q58 0 93 -45.5t10 -105.5l-363 -852q-22 -59 -104 -59q-83 0 -111 57l-262 555l-268 -553q-27 -59 -111 -59q-78 0 -104 61z" />
    <glyph glyph-name="Ygrave" unicode="&#x1ef2;" horiz-adv-x="1263" 
d="M530 1683l246 -124q33 -16 47 -42.5t8 -50t-23 -44t-47 -25t-63 7.5l-243 100q-56 31 -57.5 80t42.5 85t90 13zM215 1247l377 -514l377 508q48 64 110 64q39 0 70.5 -27.5t37 -67.5t-25.5 -86l-448 -600v-401q0 -54 -38 -88.5t-81 -34.5q-51 0 -85 33.5t-34 89.5v401
l-459 606q-29 44 -23 83t38.5 65.5t74.5 26.5q67 0 109 -58z" />
    <glyph glyph-name="ygrave" unicode="&#x1ef3;" horiz-adv-x="1144" 
d="M465 1409l213 -135q31 -20 41.5 -47t1 -50t-29 -41.5t-48 -20.5t-55.5 11l-215 113q-53 36 -49.5 84.5t51 80.5t90.5 5zM954 1042q55 0 91.5 -47t15.5 -106l-598 -1174q-20 -39 -52 -61.5t-67 -22.5q-57 0 -91 51.5t-5 110.5l155 307l-403 781q-27 59 10.5 110t95.5 51
q32 0 63 -20.5t46 -52.5l315 -617l316 619q14 33 43 52t65 19z" />
    <glyph glyph-name="endash" unicode="&#x2013;" horiz-adv-x="831" 
d="M141 510q-58 0 -89.5 30t-31.5 72q0 43 32.5 75t86.5 32h496q50 0 79 -32t29 -75q0 -42 -28 -72t-80 -30h-494z" />
    <glyph glyph-name="emdash" unicode="&#x2014;" horiz-adv-x="1097" 
d="M150 510q-52 0 -80.5 30t-28.5 70q0 42 30 75.5t79 33.5h741q54 0 82 -31t28 -74q0 -42 -28.5 -73t-81.5 -31h-741z" />
    <glyph glyph-name="quoteleft" unicode="&#x2018;" horiz-adv-x="296" 
d="M78 1262q34 63 104 63q51 0 83.5 -46.5t15.5 -100.5l-80 -185q-28 -63 -105 -63q-60 0 -98 47t-6 106z" />
    <glyph glyph-name="quoteright" unicode="&#x2019;" horiz-adv-x="274" 
d="M182 993q-34 -63 -100 -63q-51 0 -83.5 46.5t-14.5 100.5l77 185q32 63 105 63q60 0 98 -47.5t6 -106.5l2 3z" />
    <glyph glyph-name="quotesinglbase" unicode="&#x201a;" horiz-adv-x="301" 
d="M164 -129q-37 -64 -103 -64q-51 0 -85 48.5t-13 99.5l78 186q34 64 104 64q63 0 100.5 -46t6.5 -108z" />
    <glyph glyph-name="quotedblleft" unicode="&#x201c;" horiz-adv-x="509" 
d="M414 1321q50 0 80.5 -44t13.5 -99l-78 -185q-32 -63 -104 -63q-37 0 -71 22.5t-44 55.5l-6 -15q-32 -63 -105 -63q-61 0 -99 47t-5 106l-2 -2l86 181q35 65 108 65q44 0 75 -31.5t30 -76.5l18 36q32 66 103 66z" />
    <glyph glyph-name="quotedblright" unicode="&#x201d;" horiz-adv-x="520" 
d="M393 1319q60 0 98.5 -48.5t6.5 -107.5l2 2l-90 -180q-33 -65 -105 -65q-44 0 -75.5 31.5t-28.5 76.5l-21 -37q-27 -63 -102 -63q-50 0 -79.5 43t-14.5 98l79 186q30 64 105 64q39 0 72.5 -21.5t42.5 -54.5l6 12q30 64 104 64z" />
    <glyph glyph-name="quotedblbase" unicode="&#x201e;" horiz-adv-x="509" 
d="M168 -129q-37 -64 -102 -64q-51 0 -84 47.5t-15 100.5l78 186q34 64 105 64q60 0 98.5 -48.5t5.5 -107.5zM459 -129q-17 -31 -44.5 -47.5t-58.5 -16.5q-50 0 -82.5 47.5t-15.5 100.5l80 186q30 64 104 64q59 0 98 -48.5t7 -107.5v2z" />
    <glyph glyph-name="bullet" unicode="&#x2022;" horiz-adv-x="479" 
d="M209 809q91 0 151 -57t60 -142q0 -81 -60.5 -138.5t-150.5 -57.5q-86 0 -147.5 58t-61.5 138q0 84 61 141.5t148 57.5z" />
    <glyph glyph-name="ellipsis" unicode="&#x2026;" horiz-adv-x="751" 
d="M567 240q59 0 97 -33t38 -86q0 -54 -38 -87.5t-97 -33.5q-81 0 -114 57q-37 -57 -117 -57t-117 57q-33 -57 -115 -57q-59 0 -97 33.5t-38 87.5q0 53 38 86t97 33q83 0 115 -56q37 56 117 56t117 -56q32 56 114 56z" />
    <glyph glyph-name="perthousand" unicode="&#x2030;" horiz-adv-x="1878" 
d="M915 1311q19 20 53.5 13t68 -25t51.5 -47t4 -54l-834 -1173q-37 -45 -92 -45q-60 0 -91 55t3 110zM307 698q-129 0 -217 89.5t-88 228.5q0 124 86 216.5t219 92.5q128 0 217.5 -89.5t89.5 -219.5q0 -124 -85.5 -221t-221.5 -97zM307 1130q-37 0 -63.5 -34t-26.5 -80
t25.5 -84.5t64.5 -38.5t63 34.5t27 92.5q-3 44 -28 77t-62 33zM1444 604q127 0 216 -89t89 -220q0 -78 -36 -149.5t-107.5 -118.5t-161.5 -47q-108 0 -189.5 62.5t-107.5 166.5q-28 -98 -105.5 -163.5t-187.5 -65.5q-131 0 -219 88.5t-88 226.5q0 124 86 216.5t221 92.5
q104 0 185.5 -62.5t109.5 -162.5q26 97 105 161t190 64zM854 174q38 0 61.5 34t26.5 91q-3 44 -28 77.5t-60 33.5q-38 0 -65 -34.5t-27 -80.5t25.5 -83.5t66.5 -37.5zM1444 174q38 0 61.5 34t26.5 91q-3 44 -28 77.5t-60 33.5q-38 0 -65 -34.5t-27 -80.5t25.5 -83.5
t66.5 -37.5z" />
    <glyph glyph-name="guilsinglleft" unicode="&#x2039;" horiz-adv-x="647" 
d="M279 539l256 -246q36 -36 36 -74q0 -44 -31 -74t-85 -30q-51 0 -93 39l-311 301q-25 24 -35 42t-10 42q0 37 51 88l316 307q19 19 34 25t48 6q46 0 81 -31.5t35 -73.5q0 -40 -36 -76z" />
    <glyph glyph-name="guilsinglright" unicode="&#x203a;" horiz-adv-x="618" 
d="M319 539l-256 245q-36 36 -36 76q0 42 35 73.5t81 31.5q33 0 48 -6t34 -25l316 -307q51 -51 51 -88q0 -24 -10 -42t-35 -42l-311 -301q-42 -39 -93 -39q-54 0 -85 30t-31 74q0 38 36 74z" />
    <glyph glyph-name="Euro" unicode="&#x20ac;" horiz-adv-x="1228" 
 />
    <glyph glyph-name="trademark" unicode="&#x2122;" horiz-adv-x="1216" 
d="M1040 1311q47 0 81 -30.5t34 -78.5v-428q0 -50 -32 -77t-79 -27q-46 0 -84 30.5t-38 73.5v78l-13 -18q-15 -28 -42 -45t-56 -17q-27 0 -55 17.5t-43 44.5l-13 18v-78q0 -43 -38 -73.5t-84 -30.5q-47 0 -79 27t-32 77v342q-29 -16 -68 -16h-77v-328q0 -48 -35.5 -75
t-81.5 -27q-45 0 -79 25.5t-38 72.5v332h-78q-47 0 -74.5 31.5t-27.5 72.5q0 42 26.5 71.5t75.5 29.5h389q58 0 90 -37q32 43 93 43q64 0 100 -54l129 -184l131 184q34 54 98 54z" />
    <glyph glyph-name="i.loclTRK" horiz-adv-x="411" 
d="M188 1389q55 0 99.5 -37t44.5 -92q0 -64 -43 -98t-101 -34q-57 0 -100 38t-43 94q0 55 43 92t100 37zM72 942q0 46 35.5 73t80.5 27q46 0 81.5 -26.5t35.5 -71.5v-844q0 -48 -35 -74t-82 -26q-46 0 -81 26t-35 74v842z" />
    <glyph glyph-name="uni0414.loclBGR" horiz-adv-x="1654" 
d="M1423 184q65 0 94 -27.5t29 -82.5v-275q0 -50 -32.5 -77t-81.5 -27q-46 0 -79.5 27t-33.5 77v181h-983v-181q0 -50 -33.5 -77t-79.5 -27q-49 0 -81.5 27t-32.5 77v275q0 55 29 82.5t93 27.5h17l475 1084q14 32 39 44.5t67 12.5q80 0 105 -57l475 -1084h14zM1167 184
l-229 527l-109 288l-108 -288l-229 -527h675z" />
    <glyph glyph-name="uni041B.loclBGR" horiz-adv-x="1345" 
d="M629 979l-432 -940q-27 -59 -103 -59q-59 0 -99.5 44t-14.5 101l542 1143q14 32 39.5 44.5t67.5 12.5q76 0 104 -57l539 -1137q37 -63 -2.5 -107t-104.5 -44q-31 0 -60.5 15.5t-43.5 43.5z" />
    <glyph glyph-name="uni0424.loclBGR" horiz-adv-x="1755" 
d="M1612 651q0 -300 -182 -475.5t-482 -175.5v-20q0 -60 -36.5 -93.5t-80 -33.5t-80 33.5t-36.5 93.5v20q-199 0 -350.5 78t-235.5 226t-84 347q0 300 184.5 478t485.5 176v20q0 42 17.5 72.5t43 44t56 13.5t56 -13.5t43 -44t17.5 -72.5v-20q300 2 482 -176t182 -478z
M287 651q0 -204 116.5 -327t311.5 -134v924q-195 -11 -311.5 -134t-116.5 -329zM948 190q193 11 308.5 133.5t115.5 327.5q0 206 -115.5 329t-308.5 134v-924z" />
    <glyph glyph-name="uni0432.loclBGR" horiz-adv-x="1124" 
d="M74 590v309q0 175 139.5 300.5t335.5 125.5h74q163 0 278 -106.5t115 -255.5q0 -83 -42 -162t-102 -107q95 -28 162.5 -116.5t67.5 -186.5q0 -170 -139 -290.5t-336 -120.5h-78q-129 0 -239 58t-174 158t-64 218zM307 770h242h78q64 0 109.5 57.5t45.5 137.5
q0 66 -45.5 113.5t-109.5 47.5h-78q-100 0 -171 -66.5t-71 -160.5v-129zM307 567v-153q0 -86 71 -146.5t171 -60.5h78q100 0 170.5 54t70.5 130q0 72 -71 124t-170 52h-78h-242z" />
    <glyph glyph-name="uni0433.loclBGR" horiz-adv-x="1095" 
d="M1006 244q-17 -65 -57 -114.5t-88.5 -77t-111.5 -44.5t-116 -22.5t-111 -5.5q-215 0 -347 94.5t-132 247.5q0 75 29 129.5t60 83.5t108 51.5t113 28t135 16.5q20 3 30 4q27 3 66 6t61 4.5t48.5 7t40 14.5t23 25.5t9.5 40.5q0 57 -62 92t-165 35q-201 0 -244 -94
q-27 -64 -100 -64q-55 0 -94.5 39.5t-20.5 98.5q87 223 459 223q207 0 333.5 -90t126.5 -238q0 -44 -9 -80.5t-23.5 -64t-39 -50t-49 -38t-59.5 -27.5t-65.5 -19.5t-72.5 -13.5t-74 -9t-76 -7h-1q-145 -11 -192 -29q-62 -23 -62 -75q0 -62 68.5 -102t177.5 -40
q92 0 166 26.5t92 78.5q13 42 42 64t67 22q54 0 92.5 -36.5t24.5 -90.5z" />
    <glyph glyph-name="uni0434.loclBGR" horiz-adv-x="1187" 
d="M952 1042q52 0 84.5 -29.5t32.5 -76.5v-778q0 -254 -150.5 -399.5t-412.5 -145.5q-165 0 -268 70q-35 24 -52.5 54t-17 56.5t15 49t38.5 33.5t58 7t70 -26q59 -39 158 -39q148 0 243 74.5t95 189.5l-8 4q-67 -53 -152.5 -79.5t-167.5 -26.5q-221 0 -349 147.5t-128 396.5
q0 239 139.5 389t364.5 150q70 0 149.5 -26t143.5 -76q17 81 114 81zM836 698q-37 73 -114.5 115.5t-160.5 42.5q-128 0 -207.5 -93.5t-79.5 -240.5q0 -152 73.5 -244t195.5 -92q95 0 177 41.5t116 116.5v354z" />
    <glyph glyph-name="uni0436.loclBGR" horiz-adv-x="1476" 
d="M1419 176q33 -45 27.5 -84t-38 -65.5t-73.5 -26.5q-55 0 -94 45l-326 406l-59 -54v-293q0 -49 -34 -76.5t-81 -27.5h-2h-2q-47 0 -80.5 27.5t-33.5 76.5v314l-60 53l-325 -426q-33 -45 -95 -45q-41 0 -73.5 26.5t-38 65.5t27.5 84l342 418l-309 264q-43 37 -43 80
q0 42 35 73t84 31q46 0 86 -32l285 -248l84 -96v534q0 40 24 67t58.5 33t68.5 0t58 -33t24 -67v-534l84 96l285 248q40 32 86 32q49 0 84 -31t35 -73t-44 -80l-311 -264z" />
    <glyph glyph-name="uni0438.loclBGR" horiz-adv-x="1314" 
d="M965 1042q53 0 85.5 -32t32.5 -82v-824q0 -48 -35.5 -76t-80.5 -28q-48 0 -82.5 28t-34.5 78v9q-79 -76 -157 -105.5t-165 -29.5q-210 0 -320 132t-110 365v451q0 49 31.5 81.5t85.5 32.5q52 0 84.5 -33t32.5 -81v-453q0 -143 58.5 -216t172.5 -73q141 0 214 90t73 263
v389q0 51 30 82.5t85 31.5z" />
    <glyph glyph-name="uni0439.loclBGR" horiz-adv-x="1191" 
d="M696 1325q6 50 50.5 64.5t84 -10t31.5 -70.5q-17 -89 -86 -141t-172 -52q-105 0 -174.5 52.5t-83.5 140.5q-8 46 31.5 70.5t84 10t50.5 -64.5q2 -19 26 -38t66 -19t66 19t26 38zM965 1042q53 0 85.5 -32t32.5 -82v-824q0 -48 -35.5 -76t-80.5 -28q-48 0 -82.5 28
t-34.5 78v9q-79 -76 -157 -105.5t-165 -29.5q-210 0 -320 132t-110 365v451q0 49 31.5 81.5t85.5 32.5q52 0 84.5 -33t32.5 -81v-453q0 -143 58.5 -216t172.5 -73q141 0 214 90t73 263v389q0 51 30 82.5t85 31.5z" />
    <glyph glyph-name="uni043B.loclBGR" horiz-adv-x="1136" 
d="M43 154l424 829q36 59 102 59q34 0 63.5 -18t43.5 -45l418 -827q32 -63 -3 -107.5t-94 -44.5q-74 0 -110 70l-314 616l-313 -614q-39 -72 -106 -72q-58 0 -98.5 49t-12.5 105z" />
    <glyph glyph-name="uni043F.loclBGR" horiz-adv-x="1320" 
d="M690 1063q211 0 331 -135.5t120 -358.5v-463q0 -48 -31 -77t-86 -29q-52 0 -84.5 29.5t-32.5 76.5v467q0 133 -63 209t-189 76q-33 0 -73.5 -13t-84.5 -41.5t-79.5 -68t-58.5 -99t-23 -128.5v-404q0 -50 -29 -77t-84 -27t-88 27.5t-33 76.5v834q0 48 34.5 76t82.5 28
q46 0 81.5 -27.5t35.5 -72.5v-14q145 135 354 135z" />
    <glyph glyph-name="uni0442.loclBGR" horiz-adv-x="2187" 
d="M1499 1063q210 0 330.5 -136.5t120.5 -359.5v-461q0 -48 -30.5 -77t-86.5 -29q-52 0 -84.5 29.5t-32.5 76.5v465q0 133 -62.5 210t-187.5 77q-50 0 -104 -24t-100.5 -67t-76.5 -111t-30 -148v-402q0 -48 -30.5 -77t-84.5 -29q-53 0 -85.5 29.5t-32.5 76.5v465
q0 133 -62.5 210t-187.5 77q-42 0 -92 -22t-98 -62.5t-80.5 -110.5t-32.5 -155v-406q0 -49 -35 -75.5t-82 -26.5q-48 0 -81.5 26t-33.5 76v836q0 43 34 73.5t81 30.5q51 0 84 -30t33 -74v-6q137 131 338 131q126 0 220.5 -51t151.5 -144q59 73 137.5 119t145.5 61t137 15z
" />
    <glyph glyph-name="uni0444.loclBGR" horiz-adv-x="1499" 
d="M895 1063q242 -5 392.5 -155.5t150.5 -391.5t-150.5 -391.5t-392.5 -155.5h-41v-127q0 -42 -34 -72t-83 -30q-51 0 -83.5 30t-32.5 72v127h-37q-242 5 -392.5 155.5t-150.5 391.5t150.5 391.5t392.5 155.5h37v139q0 43 32.5 73t83.5 30q49 0 83 -30.5t34 -72.5v-139h41z
M584 174h37v684h-37q-136 -1 -219.5 -96t-83.5 -246t83.5 -246t219.5 -96zM895 174q136 1 219.5 96t83.5 246t-83.5 246t-219.5 96h-41v-684h41z" />
    <glyph glyph-name="uni0446.loclBGR" horiz-adv-x="1228" 
d="M1161 207q113 0 113 -101v-274q0 -44 -34 -70t-77 -26q-44 0 -77 25.5t-33 70.5v168h-29q-5 0 -14 1t-13 1q-32 8 -55.5 29t-30.5 53q-4 16 -4 27v2q-142 -133 -340 -133q-212 0 -331 133t-119 364v451q0 49 31 81.5t85 32.5q52 0 84.5 -33t32.5 -81v-455
q0 -138 62.5 -213.5t189.5 -75.5q42 0 92.5 22.5t99.5 63.5t82 111.5t33 155.5v391q0 51 30 82.5t85 31.5q53 0 86 -32t33 -82v-721h18z" />
    <glyph glyph-name="uni0448.loclBGR" horiz-adv-x="2187" 
d="M688 -20q-210 0 -330 136t-120 359v461q0 48 30 77t86 29q52 0 84.5 -29.5t32.5 -76.5v-465q0 -133 62.5 -210t187.5 -77q50 0 104 24t100.5 67t76.5 111.5t30 148.5v401q0 48 30.5 77t84.5 29q53 0 86 -29.5t33 -76.5v-465q0 -133 62.5 -210t187.5 -77q42 0 92 22
t98 62.5t80.5 111t32.5 155.5v405q0 49 34.5 75.5t81.5 26.5q48 0 81.5 -26t33.5 -76v-836q0 -43 -34 -73.5t-81 -30.5q-51 0 -83.5 30t-32.5 74v7q-137 -131 -338 -131q-127 0 -221.5 50.5t-151.5 143.5q-85 -106 -196.5 -150t-223.5 -44z" />
    <glyph glyph-name="uni0449.loclBGR" horiz-adv-x="2387" 
d="M2095 207q113 0 113 -101v-274q0 -44 -34 -70t-77 -26q-44 0 -77 25.5t-33 70.5v168h-58q-47 0 -78.5 32.5t-31.5 71.5v7q-137 -131 -338 -131q-127 0 -221.5 50.5t-151.5 143.5q-85 -106 -196.5 -150t-223.5 -44q-210 0 -330 136t-120 359v461q0 48 30 77t86 29
q52 0 84.5 -29.5t32.5 -76.5v-465q0 -133 62.5 -210t187.5 -77q50 0 104 24t100.5 67t76.5 111.5t30 148.5v401q0 48 30.5 77t84.5 29q53 0 86 -29.5t33 -76.5v-465q0 -133 62.5 -210t187.5 -77q42 0 92 22t98 62.5t80.5 111t32.5 155.5v405q0 49 34.5 75.5t81.5 26.5
q48 0 81.5 -26t33.5 -76v-733h45z" />
    <glyph glyph-name="uni044E.loclBGR" horiz-adv-x="1632" 
d="M1020 1063q245 0 395 -151t150 -396q-3 -241 -153 -388.5t-392 -147.5q-216 0 -360.5 119t-176.5 321h-151v-320q0 -48 -35 -74t-82 -26q-46 0 -81.5 26t-35.5 74v1104q0 46 36 73.5t81 27.5q46 0 81.5 -27t35.5 -72v-585h151q31 202 176 322t361 120zM1020 184
q137 0 221 92t84 240q0 152 -84 247t-221 95t-221 -95t-84 -247q0 -148 84 -240t221 -92z" />
    <glyph glyph-name="uni0308.case" 
d="M-623 1642q49 0 91.5 -34.5t42.5 -85.5q0 -60 -41 -91.5t-93 -31.5q-53 0 -93 35.5t-40 87.5t40 86t93 34zM-244 1642q52 0 93.5 -34t41.5 -86q0 -60 -40 -91.5t-95 -31.5q-54 0 -94.5 35t-40.5 88q0 52 40.5 86t94.5 34z" />
    <glyph glyph-name="uni0307.case" 
d="M-246 1651q55 0 99.5 -37t44.5 -92q0 -64 -43 -97.5t-101 -33.5q-57 0 -100 37.5t-43 93.5q0 55 43 92t100 37z" />
    <glyph glyph-name="gravecomb.case" 
d="M-412 1683l246 -124q33 -16 47 -42.5t8 -50t-23 -44t-47 -25t-63 7.5l-243 100q-56 31 -57.5 80t42.5 85t90 13z" />
    <glyph glyph-name="acutecomb.case" 
d="M-225 1683q46 23 90 -13t42.5 -85t-57.5 -80l-243 -100q-33 -12 -62.5 -7.5t-46.5 25t-23 44t8 50t46 42.5z" />
    <glyph glyph-name="uni030B.case" 
d="M-631 1688q39 30 87.5 3.5t56 -73t-40.5 -86.5l-199 -127q-18 -12 -38.5 -14.5t-37 3t-31.5 16.5t-22.5 27t-9 32.5t8.5 35t30 33.5zM-244 1675q41 26 87 -4.5t49.5 -77.5t-48.5 -82l-209 -110q-27 -13 -54.5 -11t-46 19.5t-28 39.5t0.5 48t40 45z" />
    <glyph glyph-name="uni0302.case" 
d="M-168 1397l-133 76l-131 -76q-28 -14 -57.5 -12t-49 21t-29.5 42.5t1 51.5t43 48l170 109q34 22 54 22t54 -22l170 -109q23 -14 35.5 -33t12.5 -37.5t-6.5 -36.5t-21.5 -31t-32 -20.5t-38.5 -6t-41.5 13.5z" />
    <glyph glyph-name="uni030C.case" 
d="M-174 1661q25 15 48 13.5t44 -12t32.5 -30t15 -40.5t-8.5 -43.5t-39 -39.5l-170 -108q-34 -22 -54 -22t-54 22l-170 108q-32 20 -43 48t-1 51.5t29.5 43t49 21.5t57.5 -12l131 -76z" />
    <glyph glyph-name="uni0306.case" 
d="M-285 1608q6 52 57 67t96.5 -11t37.5 -73q-19 -92 -89.5 -147t-176.5 -55q-108 0 -180.5 55.5t-86.5 146.5q-8 47 38 73t97 11t56 -67q3 -31 39.5 -42t72.5 2t39 40z" />
    <glyph glyph-name="uni030A.case" 
d="M-233 1737q94 0 153.5 -54.5t59.5 -140.5q0 -85 -59.5 -138.5t-153.5 -53.5t-153.5 53.5t-59.5 138.5q0 86 59.5 140.5t153.5 54.5zM-233 1614q-34 0 -54 -20t-20 -52q0 -31 20 -50t54 -19q33 0 53 19t20 50q0 32 -20 52t-53 20z" />
    <glyph glyph-name="tildecomb.case" 
d="M-672 1565q42 65 100 87.5t114.5 9t115.5 -53.5q76 -52 104 -2q18 29 46.5 39.5t53.5 2.5t46.5 -26.5t25 -47.5t-11.5 -61q-36 -64 -91 -92.5t-115 -21t-117 46.5q-29 19 -45.5 27t-37 5t-40.5 -24q-27 -30 -65 -34.5t-64.5 14.5t-37 52.5t18.5 78.5z" />
    <glyph glyph-name="uni0304.case" 
d="M-195 1612q44 0 68.5 -29t24.5 -63.5t-24.5 -63.5t-68.5 -29h-350q-44 0 -69.5 29t-25.5 63.5t25.5 63.5t69.5 29h350z" />
    <glyph glyph-name="uni0326.case" 
d="M-506 -467q-17 -33 -47 -48.5t-59 -10.5t-54 22t-31.5 49t7.5 70l78 180q27 57 88 58.5t97.5 -46.5t4.5 -110z" />
    <glyph glyph-name="uni0327.case" 
d="M-166 63l-47 -225q81 0 119.5 -51t38.5 -117q0 -96 -72.5 -149t-173.5 -53q-74 0 -127.5 15.5t-89.5 63.5q-19 25 -20 52t12 46.5t32.5 34t41.5 14t38 -12.5q21 -19 41.5 -28.5t32 -11t33.5 -1.5q40 0 56 37q14 35 -9 57q-22 21 -66 12q-29 -6 -55.5 15.5t-15.5 66.5
l55 235h176z" />
    <glyph glyph-name="uni0328.case" 
d="M-190 0l-132 -227q-19 -36 -13.5 -63.5t27.5 -32t50 11.5q42 26 80 3t38 -66.5t-44 -86.5q-43 -35 -92.5 -46.5t-93 -1.5t-78.5 39.5t-53 71.5t-12 101.5t40 122.5l131 242q31 43 74.5 45t72.5 -34t5 -79z" />
    <glyph glyph-name="newGlyph" horiz-adv-x="1228" 
 />
    <glyph glyph-name="dieresis.case" horiz-adv-x="1228" 
 />
    </font>
</defs>
</svg>
