<?xml version="1.0" standalone="no"?>
<!DOCTYPE svg PUBLIC "-//W3C//DTD SVG 1.1//EN" "http://www.w3.org/Graphics/SVG/1.1/DTD/svg11.dtd" >
<svg xmlns="http://www.w3.org/2000/svg" xmlns:xlink="http://www.w3.org/1999/xlink" version="1.1">
<metadata>
Created by FontForge 20170731 at Sat Oct 23 12:07:34 2021
 By Aleksey,,,
Modern and elegant sans serif font.
</metadata>
<defs>
<font id="Hero-Light" horiz-adv-x="0" >
  <font-face 
    font-family="Hero Light"
    font-weight="200"
    font-stretch="normal"
    units-per-em="2048"
    panose-1="0 0 3 0 0 0 0 0 0 0"
    ascent="1536"
    descent="-512"
    x-height="1042"
    cap-height="1303"
    bbox="-1002.2 -520.962 2334.86 1742.91"
    underline-thickness="102"
    underline-position="-307"
    unicode-range="U+0020-2122"
  />
<missing-glyph horiz-adv-x="409" 
 />
    <glyph glyph-name=".notdef" horiz-adv-x="409" 
 />
    <glyph glyph-name=".null" 
 />
    <glyph glyph-name="nonmarkingreturn" horiz-adv-x="682" 
 />
    <glyph glyph-name="space" unicode=" " horiz-adv-x="559" 
 />
    <glyph glyph-name="exclam" unicode="!" horiz-adv-x="374" 
d="M188 338q0 -16 -10.5 -25.5t-25.5 -9.5q-13 0 -24 9.5t-11 25.5v954q0 14 11 22.5t26 8.5q13 0 23.5 -8.5t10.5 -22.5v-954zM188 154q0 16 -10.5 25t-23.5 9q-15 0 -26 -9t-11 -25v-119q0 -16 11 -25.5t26 -9.5q13 0 23.5 9.5t10.5 25.5v119z" />
    <glyph glyph-name="quotedbl" unicode="&#x22;" horiz-adv-x="520" 
d="M154 1032q0 -16 -10 -24.5t-25 -8.5q-14 0 -24.5 8.5t-10.5 24.5v236q0 16 11 25.5t24 9.5q14 0 24.5 -9.5t10.5 -25.5v-236zM342 1032q0 -16 -10 -24.5t-23 -8.5q-15 0 -25 8.5t-10 24.5v236q0 16 10.5 25.5t24.5 9.5q13 0 23 -9.5t10 -25.5v-236z" />
    <glyph glyph-name="numbersign" unicode="#" horiz-adv-x="1134" 
d="M236 446h-146q-14 0 -25.5 10.5t-11.5 26.5q0 13 11.5 24t25.5 11h158l51 291h-158q-15 0 -26 9.5t-11 25.5t11.5 26.5t25.5 10.5h170l66 387q3 35 37 35q18 0 27.5 -14t7.5 -32l-64 -376h363l65 387q6 35 39 35q17 0 27.5 -14.5t5.5 -31.5l-64 -376h150q14 0 25.5 -11
t11.5 -24q0 -37 -37 -37h-162l-51 -291h162q15 0 25.5 -9.5t10.5 -25.5q0 -37 -36 -37h-175l-67 -413q-6 -33 -39 -33q-18 0 -27 13.5t-6 31.5l68 401h-365l-69 -413q-6 -33 -37 -33q-18 0 -28 13.5t-7 31.5zM322 518h364l49 291h-362z" />
    <glyph glyph-name="dollar" unicode="$" horiz-adv-x="1431" 
d="M94 281q-6 20 7 33t30.5 9t24.5 -24q17 -60 64.5 -107t111.5 -74.5t126.5 -43t125.5 -21.5q40 -4 63 -4v586q-53 5 -88.5 8.5t-84 11t-81.5 15.5t-73 21.5t-67 30t-54 40.5t-42.5 52.5t-25.5 66.5t-10 82q0 71 32.5 130t87.5 98.5t116 65t130 39.5q84 19 160 19v119
q0 19 14.5 27t29 0t14.5 -27v-119q79 -3 150.5 -16.5t145 -41t128.5 -78t81 -120.5q8 -24 -4 -37t-30 -9.5t-25 21.5q-72 208 -446 217v-561q60 -5 92 -8t87.5 -10t86.5 -14.5t76 -20.5t71 -28.5t56 -39t45.5 -51.5t26.5 -65.5t11 -81.5q0 -84 -34.5 -150.5t-89.5 -108.5
t-129.5 -70t-147.5 -40t-151 -14v-121q0 -17 -14.5 -24.5t-29 0t-14.5 24.5v123q-67 2 -131.5 11.5t-134.5 31t-126 53t-99.5 82t-61.5 113.5zM647 1251h-37q-60 -4 -119 -17.5t-119 -38.5t-106 -68t-65 -99q-13 -37 -13 -70q0 -44 13.5 -79.5t34.5 -60t58 -44t71 -31.5
t87 -21.5t93 -14.5t102 -11v555zM705 49q64 1 127 11t129 34t116 59t81.5 90.5t31.5 125.5q0 36 -9 65.5t-23 52.5t-39 42t-48.5 32t-61 24t-67 17.5t-76 12.5t-78.5 9t-83 7v-582z" />
    <glyph glyph-name="percent" unicode="%" horiz-adv-x="1310" 
d="M199 2q-12 -16 -31.5 -13t-27 18t4.5 36l920 1300q13 18 32 15t25.5 -19t-4.5 -36zM367 1323q110 0 187 -81.5t77 -201.5q0 -113 -73.5 -201.5t-190.5 -88.5q-112 0 -188.5 81t-76.5 209q0 113 74 198t191 85zM567 1040q0 86 -56 151.5t-144 65.5q-85 0 -145 -64
t-60 -153q0 -86 57 -155.5t148 -69.5q88 0 142.5 62t57.5 163zM915 573q110 0 187.5 -81t77.5 -201q0 -113 -74 -202t-191 -89q-112 0 -188 81.5t-76 209.5q0 113 73.5 197.5t190.5 84.5zM1116 291q0 86 -56 151.5t-145 65.5q-85 0 -144.5 -64t-59.5 -153q0 -86 56.5 -155.5
t147.5 -69.5q89 0 143.5 62t57.5 163z" />
    <glyph glyph-name="ampersand" unicode="&#x26;" horiz-adv-x="1327" 
d="M588 -20q-79 1 -147 10.5t-137.5 36t-118.5 67t-80 108.5t-31 156q0 122 76.5 200t203.5 99q-110 27 -180 108t-70 198q0 75 29.5 136.5t78 102t112.5 68.5t131.5 40.5t136.5 12.5q71 -1 139 -13.5t132.5 -41t112 -69.5t76 -103t27.5 -138q0 -18 -15.5 -25t-30.5 0.5
t-15 24.5q0 73 -36.5 132.5t-96.5 96t-136.5 56.5t-156.5 20t-156.5 -20t-136.5 -56.5t-96.5 -96t-36.5 -132.5q0 -272 424 -272h635q17 0 23.5 -15t0 -30.5t-23.5 -15.5h-135v-269q0 -87 -28.5 -154t-75 -108t-113.5 -67.5t-136 -36.5t-149 -10zM590 625q-76 0 -136.5 -5.5
t-123 -23t-104.5 -46.5t-68.5 -79t-26.5 -117q0 -72 30 -128.5t76.5 -91t109 -57.5t122.5 -31.5t121 -8.5q63 0 120.5 8t117.5 29.5t103.5 56t71 92t27.5 131.5v271h-440z" />
    <glyph glyph-name="quotesingle" unicode="'" horiz-adv-x="425" 
d="M184 1032q0 -16 -9.5 -24.5t-22.5 -8.5q-15 0 -25 8.5t-10 24.5v236q0 16 10.5 25.5t24.5 9.5q13 0 22.5 -9.5t9.5 -25.5v-236z" />
    <glyph glyph-name="parenleft" unicode="(" horiz-adv-x="557" 
d="M442 1298q-93 -79 -158.5 -193.5t-96.5 -241.5t-31.5 -265t30.5 -265t96 -241.5t158 -193.5q14 -11 16 -28.5t-10 -29.5q-26 -23 -51 2q-122 105 -200 259.5t-99.5 325t1 341t100 325t198.5 259.5q17 17 36.5 9t23.5 -26.5t-13 -36.5z" />
    <glyph glyph-name="parenright" unicode=")" horiz-adv-x="555" 
d="M51 1286q-12 11 -14 28t10 29q26 23 51 -2q122 -105 200 -259.5t99.5 -324.5t-1 -340.5t-100 -325t-198.5 -259.5q-25 -25 -51 -2q-12 12 -10 29t16 28q140 119 213 310t72 388.5t-75 389t-212 311.5z" />
    <glyph glyph-name="asterisk" unicode="*" horiz-adv-x="663" 
d="M311 1040l4 -168q0 -20 -15.5 -28.5t-31.5 0t-16 28.5l6 168l-141 -92q-18 -9 -33.5 1.5t-15.5 26.5t16 30l139 75l-139 78q-15 13 -16 29.5t14.5 27t34.5 1.5l141 -93l-8 168q0 14 10 22.5t23 8.5t22.5 -8.5t9.5 -22.5l-6 -166l137 91q28 12 45 -13t-10 -45l-139 -78
l139 -75q24 -19 9.5 -45t-44.5 -13z" />
    <glyph glyph-name="plus" unicode="+" horiz-adv-x="1161" 
d="M578 637h372q37 0 37 -35q0 -14 -10 -24.5t-27 -10.5h-372v-372q0 -17 -10.5 -27t-24.5 -10q-35 0 -35 37v372h-375q-13 0 -24 10.5t-11 24.5q0 16 10.5 25.5t24.5 9.5h375v375q0 14 9.5 24.5t25.5 10.5q13 0 24 -10.5t11 -24.5v-375z" />
    <glyph glyph-name="comma" unicode="," horiz-adv-x="301" 
d="M96 -195q-9 -19 -28 -19.5t-29.5 15t-1.5 33.5l92 207q16 37 45 30q23 -5 27 -29q2 -14 -6 -28z" />
    <glyph glyph-name="hyphen" unicode="-" horiz-adv-x="841" 
d="M604 580h-446q-25 0 -34.5 18t1 35.5t33.5 17.5h446q23 0 32.5 -17.5t0 -35.5t-32.5 -18z" />
    <glyph glyph-name="period" unicode="." horiz-adv-x="288" 
d="M119 104q23 0 37 -15t14 -38t-14 -37t-37 -14t-38 14t-15 37t15 38t38 15z" />
    <glyph glyph-name="slash" unicode="/" horiz-adv-x="763" 
d="M12 -166l633 1489q11 23 32.5 26t34 -13.5t1.5 -39.5l-637 -1491q-12 -25 -31.5 -27t-31 15.5t-1.5 40.5z" />
    <glyph glyph-name="zero" unicode="0" horiz-adv-x="1097" 
d="M80 840q-1 116 39 210.5t106.5 152.5t150 89t173.5 31t173.5 -31t150 -89t106.5 -152.5t39 -210.5v-377q1 -116 -39 -210.5t-106.5 -152.5t-150 -89t-173.5 -31t-173.5 31t-150 89t-106.5 152.5t-39 210.5v377zM952 840q1 102 -33 183.5t-91.5 132.5t-129 77.5
t-149.5 26.5q-79 0 -150.5 -26.5t-129.5 -77.5t-92.5 -132.5t-33.5 -183.5v-377q-1 -101 33.5 -182.5t92 -132.5t130 -78t150.5 -27q62 0 120 16.5t110 51t90.5 83.5t61 118.5t21.5 150.5v377z" />
    <glyph glyph-name="one" unicode="1" horiz-adv-x="661" 
d="M459 1307q8 11 21.5 15.5t25.5 0.5q31 -9 31 -39v-1249q0 -17 -10 -26t-23 -9t-23 9t-10 26v1188l-278 -387q-14 -19 -33.5 -18t-26 16.5t5.5 35.5z" />
    <glyph glyph-name="two" unicode="2" horiz-adv-x="1163" 
d="M197 55l180 8h645q23 0 32.5 -15.5t0 -31.5t-32.5 -16h-866q-29 0 -39 29q-6 29 16 45q115 85 334.5 253t318.5 242q208 152 175 381q-20 149 -122.5 227t-256.5 78q-156 0 -259 -77.5t-124 -227.5q-4 -32 -4 -55q0 -16 -15.5 -22.5t-31 0t-15.5 22.5q0 26 4 66
q25 176 146.5 269t300.5 93q174 0 296 -94.5t146 -267.5q41 -251 -195 -435l-485 -376z" />
    <glyph glyph-name="three" unicode="3" horiz-adv-x="1161" 
d="M166 362q21 -166 131.5 -242.5t282.5 -76.5q152 0 256 87.5t125 240.5q18 124 -37.5 235.5t-169.5 161.5q-62 26 -130.5 25t-127.5 -29q-19 -12 -38.5 -1.5t-19.5 32.5q0 20 13 30l446 412h-723q-21 0 -30 16.5t0 33t30 16.5h784q30 0 39.5 -28.5t-14.5 -47.5l-287 -266
l-151 -123q57 18 123.5 16.5t113.5 -20.5q138 -55 201 -188.5t39 -289.5q-24 -173 -146 -274.5t-296 -101.5q-427 0 -478 368q-4 46 -4 66q0 18 16 25.5t32 0t16 -25.5q0 -36 4 -52z" />
    <glyph glyph-name="four" unicode="4" horiz-adv-x="1048" 
d="M893 1292q0 12 9 21.5t22 9.5q12 0 21 -9.5t9 -21.5v-1257q0 -16 -9 -25.5t-21 -9.5t-21.5 9t-9.5 24v282h-778q-40 0 -54.5 25t7.5 59l534 908q11 16 29 16t26.5 -13.5t-0.5 -35.5l-536 -897h772v915z" />
    <glyph glyph-name="five" unicode="5" horiz-adv-x="1148" 
d="M156 352q41 -311 399 -311q108 0 194 42t131 109.5t66.5 149t1 163t-65.5 149t-134 109.5t-203 42h-400q-14 0 -23 9t-9 22v415q0 25 13.5 38.5t37.5 13.5h700q14 0 23.5 -9.5t9.5 -23.5q0 -12 -10 -21.5t-23 -9.5h-688v-371h369q183 0 305.5 -91.5t149 -222t-3 -261
t-149 -222t-290.5 -91.5q-414 0 -463 358q-6 35 -6 65q0 18 16 25.5t32 0t16 -25.5q0 -19 4 -51z" />
    <glyph glyph-name="six" unicode="6" horiz-adv-x="1150" 
d="M184 645q50 115 166.5 185.5t243.5 70.5q126 0 232.5 -56.5t170 -160.5t64.5 -233q1 -105 -40 -195t-109.5 -149.5t-156.5 -93t-182 -33.5q-140 0 -256 71q-92 56 -145 148t-53 198v385q0 164 44.5 275t168.5 188q121 78 274 78q33 0 49 -2q184 -16 312 -141
q16 -16 10 -34t-23.5 -21t-35.5 12q-62 61 -145 93t-171 32q-121 0 -219 -58q-64 -37 -105 -83.5t-61 -104.5t-26.5 -112.5t-6.5 -129.5v-129zM348 106q102 -61 227 -61q108 0 201.5 48.5t153 142.5t59.5 215q0 160 -113.5 273.5t-277.5 113.5q-105 0 -198 -46t-151 -130
t-61 -187l-2 -76q0 -89 43 -168.5t119 -124.5z" />
    <glyph glyph-name="seven" unicode="7" horiz-adv-x="1083" 
d="M895 1237h-754q-23 0 -32.5 16.5t0 33t32.5 16.5h783q39 0 53 -22t-10 -56l-688 -1209q-10 -16 -33 -16q-12 0 -22.5 10.5t-10.5 22.5q0 10 4 18z" />
    <glyph glyph-name="eight" unicode="8" horiz-adv-x="1226" 
d="M606 -20q-78 1 -147 11t-138.5 36.5t-119 67.5t-80.5 108.5t-31 154.5q0 125 77.5 202.5t205.5 98.5q-111 29 -180.5 108.5t-69.5 195.5q0 82 37 151q30 57 82 99.5t114.5 65.5t125.5 33.5t128 10.5q87 0 168.5 -18t159.5 -67t117 -124q39 -73 39 -151q0 -121 -67 -196.5
t-185 -104.5q128 -19 206 -101t78 -205q0 -85 -30.5 -152t-80 -108t-119 -68t-140 -37.5t-150.5 -10.5zM606 682q426 0 426 276q0 43 -10 74q-22 74 -86.5 128t-148 78.5t-179 24.5t-179 -24.5t-148 -78.5t-86.5 -128q-13 -32 -13 -74q0 -276 424 -276zM608 633
q-75 0 -136.5 -6.5t-123 -25t-103.5 -48.5t-68.5 -80.5t-26.5 -118.5q0 -88 43.5 -153t114.5 -99.5t146 -50.5t154 -16q62 0 121.5 8.5t122 31t109 57t76.5 92t30 130.5q0 279 -459 279z" />
    <glyph glyph-name="nine" unicode="9" horiz-adv-x="1144" 
d="M965 653q-50 -113 -166.5 -181.5t-245.5 -68.5q-126 0 -231.5 57t-168 160.5t-63.5 231.5q-1 105 39 195t107.5 149.5t155 93t181.5 33.5q140 0 258 -72q92 -55 144.5 -147.5t52.5 -198.5v-383q0 -164 -44.5 -276t-168.5 -191q-118 -75 -274 -75q-107 0 -209 38t-174 107
q-16 16 -10 34.5t23.5 22t35.5 -11.5q62 -62 151 -95.5t185 -33.5q129 0 225 57q63 37 104 84t60.5 105t26 111.5t6.5 127.5v127zM801 1198q-104 62 -228 62q-110 0 -204.5 -48.5t-154.5 -143t-60 -216.5q0 -160 117.5 -272.5t279.5 -112.5q106 0 198.5 46t150.5 129.5
t61 186.5l2 74q0 90 -43 169t-119 126z" />
    <glyph glyph-name="colon" unicode=":" horiz-adv-x="292" 
d="M113 1020q23 0 38 -15t15 -38t-15 -37.5t-38 -14.5t-37.5 14.5t-14.5 37.5t14.5 38t37.5 15zM113 106q23 0 38 -15t15 -38t-15 -38t-38 -15t-37.5 15t-14.5 38t14.5 38t37.5 15z" />
    <glyph glyph-name="semicolon" unicode=";" horiz-adv-x="317" 
d="M139 1028q23 0 38.5 -15t15.5 -38t-15 -37t-39 -14q-23 0 -37 14t-14 37t14 38t37 15zM164 35q16 28 -5 48q-22 19 -45 2q-11 -8 -18 -24l-90 -206q-9 -18 2 -33.5t30 -15t28 19.5z" />
    <glyph glyph-name="less" unicode="&#x3c;" horiz-adv-x="649" 
d="M125 645l371 -352q14 -14 14 -29q0 -14 -10 -24.5t-27 -10.5q-14 0 -27 13l-380 368q-37 35 4 76l381 367q10 10 22 10q37 0 37 -37q0 -12 -12 -27z" />
    <glyph glyph-name="equal" unicode="=" horiz-adv-x="1077" 
d="M131 834q-13 0 -23 10t-10 24t10 24.5t23 10.5h690q13 0 24 -10.5t11 -24.5q0 -13 -10.5 -23.5t-24.5 -10.5h-690zM821 602q14 0 24.5 -10t10.5 -23t-10.5 -23.5t-24.5 -10.5h-690q-13 0 -23 10t-10 24q0 33 33 33h690z" />
    <glyph glyph-name="greater" unicode="&#x3e;" horiz-adv-x="722" 
d="M115 1004q-13 16 -13 26q0 37 37 37q13 0 23 -10l381 -367q41 -41 4 -76l-381 -368q-13 -13 -27 -13q-17 0 -27 10.5t-10 24.5t15 29l364 352z" />
    <glyph glyph-name="question" unicode="?" horiz-adv-x="1271" 
d="M1071 926q1 74 -31.5 132t-83.5 93.5t-119.5 58.5t-134 32t-131.5 9q-388 0 -471 -231q-7 -19 -24.5 -23t-29.5 9.5t-5 37.5q26 81 84.5 138.5t136 86.5t153 41.5t158.5 12.5q75 0 151.5 -13t153.5 -44t136 -75.5t95 -113.5t34 -153q-2 -80 -35 -141t-83.5 -98
t-111.5 -66t-121.5 -53.5t-110.5 -52t-81 -70.5t-31 -101v-84q0 -19 -16.5 -27t-33.5 0t-17 27v86q0 54 19.5 97t52 72t74.5 53t89 43.5l94 39t90 44.5t76 55.5t53 75.5t21 102zM569 12q0 -16 -9.5 -24t-22.5 -8q-35 0 -35 32v113q0 16 10 24.5t25 8.5q13 0 22.5 -8.5
t9.5 -24.5v-113z" />
    <glyph glyph-name="at" unicode="@" horiz-adv-x="1662" 
d="M1137 213q-36 -108 -158 -176q-102 -57 -213 -57q-121 0 -227.5 63t-172 173t-67.5 239q-3 115 47.5 221.5t149.5 179.5q94 71 225.5 81.5t249.5 -46t166 -166.5v174q0 14 9.5 23.5t22.5 9.5t23 -10t10 -23v-758q0 -38 22 -64t60 -26q92 0 148 205q26 98 26 213
q0 135 -51.5 256.5t-144.5 214.5q-92 92 -213.5 143.5t-257.5 51.5q-182 0 -335.5 -89t-243 -242.5t-89.5 -334.5q0 -165 74 -308.5t209 -238.5q133 -93 291.5 -115.5t312.5 31.5q16 5 28 -7t10 -28.5t-20 -23.5q-167 -57 -339.5 -32t-317.5 126q-147 103 -228.5 259.5
t-81.5 336.5q0 148 58 282.5t155.5 232t233 155t283.5 57.5t281 -56.5t233 -156.5t156.5 -233t56.5 -281q0 -122 -29 -229q-72 -250 -205 -250q-64 0 -105.5 43.5t-41.5 107.5v72zM1137 551q0 52 -23 113q-44 110 -148 169t-225.5 50t-214.5 -84q-82 -66 -123 -157t-38 -189
q3 -111 59.5 -205.5t149 -148.5t196.5 -54q91 0 172 41q59 29 104 75.5t68 104.5q23 61 23 113v172z" />
    <glyph glyph-name="A" unicode="A" horiz-adv-x="1427" 
d="M711 1339q19 0 28 -18l654 -1284q10 -21 -1 -36t-30 -15q-20 0 -29 18l-182 363h-881l-182 -363q-9 -18 -29 -18q-19 0 -29.5 15t-0.5 36l651 1284q9 18 31 18zM711 1239l-410 -811h817z" />
    <glyph glyph-name="B" unicode="B" horiz-adv-x="1406" 
d="M721 1303q58 0 118 -8t129 -31t121.5 -59t87.5 -97.5t35 -140.5q0 -98 -53 -168t-151 -101q138 -28 220.5 -109.5t82.5 -217.5q0 -84 -30.5 -150t-79.5 -106.5t-118.5 -67t-140.5 -37t-151 -10.5h-566q-15 0 -26 11t-11 26v1229q0 15 11 26t26 11h496zM721 1241h-463
v-524h490q83 0 151 13t124 40.5t87 77.5t31 119q0 63 -31 113t-76.5 79t-105 48t-110 26t-97.5 8zM856 651h-598v-590h533q70 0 130 8t120 29t102.5 54.5t69 89.5t26.5 129q0 97 -52.5 161.5t-136 91.5t-194.5 27z" />
    <glyph glyph-name="C" unicode="C" horiz-adv-x="1366" 
d="M797 1323q140 0 253.5 -46.5t213.5 -154.5q23 -27 -1 -46.5t-46 5.5q-80 86 -166.5 128t-177.5 46.5t-203 -8.5q-219 -35 -351.5 -185.5t-138.5 -391.5q-4 -128 43.5 -244.5t129 -199t191.5 -131t228 -48.5q146 0 272 66q117 55 191 155q14 19 33 16.5t25.5 -19
t-5.5 -36.5q-78 -111 -215 -178q-139 -71 -303 -71q-132 0 -254 53t-212 144t-141.5 221t-47.5 274q6 255 155.5 429.5t388.5 213.5q63 8 138 8z" />
    <glyph glyph-name="D" unicode="D" horiz-adv-x="1345" 
d="M639 0h-475q-23 0 -39 15.5t-16 37.5v1198q0 22 16 37t39 15h475q145 0 262.5 -56t190 -147.5t111.5 -208.5t39 -239.5t-39 -239.5t-111.5 -208.5t-190 -147.5t-262.5 -56zM176 63h463q104 0 192.5 33t150.5 89.5t106 132t64.5 160t20.5 174.5t-20.5 174.5t-64.5 160
t-106 132t-150.5 89.5t-192.5 33h-463v-1178z" />
    <glyph glyph-name="E" unicode="E" horiz-adv-x="1308" 
d="M256 66h905q20 0 28.5 -16.5t0 -33t-28.5 -16.5h-917q-24 0 -40 16t-16 39v1194q0 22 16 38t40 16h919q19 0 27 -15.5t-0.5 -31t-28.5 -15.5h-905v-565h864q20 0 28.5 -15.5t0 -31t-28.5 -15.5h-864v-548z" />
    <glyph glyph-name="F" unicode="F" horiz-adv-x="1263" 
d="M193 1249q0 22 15 38t36 16h895q20 0 29 -15.5t0.5 -31t-29.5 -15.5h-881v-620h840q20 0 28.5 -15t0 -30t-28.5 -15h-840v-526q0 -16 -10 -25.5t-23 -9.5t-22.5 9.5t-9.5 23.5v1216z" />
    <glyph glyph-name="G" unicode="G" horiz-adv-x="1443" 
d="M1262 225q-89 -118 -228.5 -182.5t-290.5 -62.5q-130 1 -249.5 54t-207.5 142.5t-139 216.5t-47 269q5 157 73.5 296t191.5 235.5t278 121.5q47 8 107 8q139 0 267.5 -47.5t211.5 -138.5q16 -18 9.5 -37t-24 -22t-34.5 12q-73 82 -186.5 123.5t-239.5 41.5q-35 0 -101 -8
q-139 -22 -249.5 -109t-171.5 -212.5t-66 -266.5q-3 -125 43 -238.5t125 -194t186.5 -129t224.5 -50.5q139 -2 267 57t202 168v342h-436q-18 0 -26 15.5t0 31t26 15.5h461q37 0 37 -39v-365q0 -33 -14 -47z" />
    <glyph glyph-name="H" unicode="H" horiz-adv-x="1398" 
d="M252 655h889v609q0 19 10.5 29t24.5 10q15 0 24.5 -10t9.5 -29v-1229q0 -16 -10 -25.5t-24 -9.5q-13 0 -24 9.5t-11 25.5v559l-889 2v-561q0 -16 -10 -25.5t-23 -9.5q-14 0 -24.5 9.5t-10.5 25.5v1229q0 19 10 29t25 10q13 0 23 -10t10 -29v-609z" />
    <glyph glyph-name="I" unicode="I" horiz-adv-x="450" 
d="M188 1264q0 19 11 29t26 10t26 -10t11 -29v-1229q0 -16 -11 -25.5t-26 -9.5t-26 9.5t-11 25.5v1229z" />
    <glyph glyph-name="J" unicode="J" horiz-adv-x="1185" 
d="M938 1235h-463q-22 0 -31 17t0 34t31 17h492q12 0 21 -10.5t11 -24.5v-819q1 -131 -73 -240t-192.5 -169t-250.5 -60q-141 0 -260 71q-94 58 -150 151t-61 197q0 19 17 29t34.5 2.5t18.5 -31.5q5 -87 51.5 -166t122.5 -124q104 -62 227 -62q115 0 219.5 52t170 145.5
t65.5 204.5v786z" />
    <glyph glyph-name="K" unicode="K" horiz-adv-x="1284" 
d="M1116 1292q15 11 25 11q23 0 35 -20.5t-7 -37.5l-591 -524l634 -664q20 -19 9.5 -38t-33.5 -19q-13 0 -25 12l-635 666l-272 -242v-403q0 -14 -10 -23.5t-25 -9.5q-14 0 -24.5 10t-10.5 23v1235q0 14 11 24.5t24 10.5q15 0 25 -10.5t10 -24.5v-752z" />
    <glyph glyph-name="L" unicode="L" horiz-adv-x="1179" 
d="M227 0q-37 0 -37 39v1225q0 19 10.5 29t24.5 10q15 0 25 -10t10 -29v-1201h860q22 0 31 -15.5t-0.5 -31.5t-30.5 -16h-893z" />
    <glyph glyph-name="M" unicode="M" horiz-adv-x="1642" 
d="M1389 1282q15 21 34 21q13 0 23 -9.5t10 -27.5v-1229q0 -17 -11 -27t-24 -10q-15 0 -25 9.5t-10 27.5v1118l-528 -829q-12 -23 -36 -23t-36 23l-528 825v-1114q0 -18 -10 -27.5t-25 -9.5q-13 0 -24 10t-11 27v1229q0 18 10 27.5t23 9.5q21 0 33 -21l569 -887z" />
    <glyph glyph-name="N" unicode="N" horiz-adv-x="1406" 
d="M1147 1264q0 19 10.5 29t24.5 10q15 0 25 -10t10 -29v-1223q0 -19 -9 -29t-22 -10q-21 0 -41 23l-891 1153v-1141q0 -18 -10 -27.5t-23 -9.5q-15 0 -25 9.5t-10 27.5v1223q0 21 9.5 32t23.5 11q22 0 39 -23l889 -1153v1137z" />
    <glyph glyph-name="O" unicode="O" horiz-adv-x="1525" 
d="M762 -20q-131 0 -252 53.5t-210 145t-141 221t-48 274.5q4 134 45 245t104.5 184.5t146.5 124t169 73t174 22.5q86 0 175 -23.5t175.5 -75t154.5 -125.5t111.5 -184t46.5 -241q4 -145 -47 -274.5t-140 -221t-210.5 -145t-253.5 -53.5zM180 672q-4 -129 42.5 -246.5
t126 -200.5t188 -132.5t225.5 -49.5q118 0 227 49.5t188.5 132.5t126 200.5t42.5 246.5q-3 121 -43 221.5t-101.5 166.5t-140 111.5t-157 65.5t-154.5 20q-80 0 -157.5 -20t-151 -66t-130 -112t-92.5 -166t-39 -221z" />
    <glyph glyph-name="P" unicode="P" horiz-adv-x="1310" 
d="M256 403v-368q0 -16 -10.5 -25.5t-24.5 -9.5q-13 0 -23 9.5t-10 23.5v1235q0 15 10.5 25t24.5 10h465q125 0 226.5 -40t165 -106.5t97 -148.5t33.5 -170q0 -91 -32.5 -169t-95.5 -137.5t-163.5 -94t-228.5 -34.5h-434zM256 467h434q93 0 169.5 21t128.5 56.5t87.5 83.5
t51 101t14.5 109q-1 76 -32.5 147.5t-88 128t-142.5 91t-188 34.5h-434v-772z" />
    <glyph glyph-name="Q" unicode="Q" horiz-adv-x="1542" 
d="M1241 195l131 -136q17 -20 9.5 -39.5t-27.5 -19.5q-15 0 -27 12l-131 138q-89 -81 -201 -125.5t-233 -44.5q-131 0 -252 53.5t-210 145t-141 221t-48 274.5q4 134 45 245t104.5 184.5t146.5 124t169 73t174 22.5q86 0 175 -23.5t175.5 -75t154.5 -125.5t111.5 -184
t46.5 -241q4 -138 -41.5 -261t-130.5 -218zM762 43q223 0 389 156l-152 157q-16 16 -10.5 34t22 21.5t33.5 -12.5l150 -155q158 182 152 428q-3 121 -43 221.5t-101.5 166.5t-140 111.5t-157 65.5t-154.5 20q-80 0 -157.5 -20t-151 -66t-130 -112t-92.5 -166t-39 -221
q-4 -129 42.5 -246.5t126 -200.5t188 -132.5t225.5 -49.5z" />
    <glyph glyph-name="R" unicode="R" horiz-adv-x="1345" 
d="M256 479v-444q0 -16 -10.5 -25.5t-24.5 -9.5q-13 0 -23 9.5t-10 23.5v1235q0 15 10 25t25 10h516q126 0 227 -34t165 -92.5t97.5 -135t33.5 -164.5q0 -170 -114 -276.5t-333 -123.5l410 -418q17 -20 9 -39.5t-28 -19.5q-12 0 -24 12l-447 467h-479zM256 539h485
q115 0 204 26.5t142.5 73t80 107t24.5 131.5q-2 156 -124 259t-327 103h-485v-700z" />
    <glyph glyph-name="S" unicode="S" horiz-adv-x="1323" 
d="M70 274q-6 19 7 32t30.5 9t23.5 -24q18 -62 68.5 -110t110 -74.5t132 -43t124.5 -21.5t96 -5q54 0 109 6.5t114.5 20.5t111 39.5t92.5 59.5t65 85t24 112q0 75 -37 126t-99.5 76.5t-144 39.5t-171 21t-179 14.5t-171 26.5t-144 52t-99.5 95t-37 150q0 81 40 146t100 104
t136 65.5t142.5 36.5t124.5 10q83 0 161 -11t160.5 -37.5t145 -80t90.5 -129.5q9 -23 -2.5 -36.5t-29.5 -10t-25 23.5q-80 220 -498 220q-115 0 -222 -34t-181 -105.5t-74 -164.5q0 -75 37 -126t99.5 -77t143.5 -40.5t170.5 -21.5t179.5 -15.5t171 -27t143.5 -50.5t99.5 -92
t37 -146q0 -87 -37.5 -155t-96 -110t-137.5 -69t-155.5 -37.5t-156.5 -10.5q-69 0 -136 7.5t-143 28t-136.5 52t-109 85t-67.5 121.5z" />
    <glyph glyph-name="T" unicode="T" horiz-adv-x="1206" 
d="M33 1303h1128q23 0 32.5 -15.5t0 -31t-32.5 -15.5h-530l2 -1202q0 -19 -11.5 -29t-25.5 -10t-24.5 10t-10.5 29v1202h-528q-23 0 -32.5 15.5t0 31t32.5 15.5z" />
    <glyph glyph-name="U" unicode="U" horiz-adv-x="1554" 
d="M1303 567v701q0 16 10 25.5t24 9.5q13 0 23 -9.5t10 -23.5v-703q0 -141 -50.5 -255.5t-134.5 -185.5t-188 -108.5t-217 -37.5q-114 0 -218.5 37.5t-188.5 108.5t-134.5 185.5t-50.5 255.5v703q0 14 10 23.5t23 9.5t23 -9.5t10 -25.5v-701q0 -125 44.5 -226t119.5 -163.5
t167.5 -95.5t192.5 -33t192.5 33t167.5 95.5t120 163.5t45 226z" />
    <glyph glyph-name="V" unicode="V" horiz-adv-x="1400" 
d="M45 1253q-9 19 3.5 34.5t31.5 15.5q22 0 35 -25l592 -1174l581 1174q9 25 37 25q17 0 28 -14.5t1 -35.5l-619 -1247q-9 -19 -28 -20t-31 18z" />
    <glyph glyph-name="W" unicode="W" horiz-adv-x="2396" 
d="M647 104l516 1045q9 21 34.5 22t37.5 -20l516 -1047l514 1176q9 23 33 23q18 0 30 -15.5t3 -34.5l-549 -1245q-9 -21 -32 -21t-34 21l-518 1057l-518 -1057q-9 -21 -33 -21t-33 21l-546 1245q-9 19 2.5 34.5t29.5 15.5q22 0 31 -23z" />
    <glyph glyph-name="X" unicode="X" horiz-adv-x="1314" 
d="M657 711l500 577q12 15 29 15q20 0 29 -18t-7 -40l-510 -579l533 -607q16 -23 8.5 -41t-27.5 -18q-19 0 -32 16l-523 605l-522 -605q-13 -16 -33 -16q-21 0 -28.5 18t10.5 41l528 607l-506 581q-17 20 -8 38t29 18q17 0 29 -15z" />
    <glyph glyph-name="Y" unicode="Y" horiz-adv-x="1263" 
d="M596 530l-537 715q-17 22 -10 40t29 18q19 0 33 -17l520 -698l518 698q14 17 33 17q21 0 27.5 -18t-9.5 -40l-534 -715v-491q0 -19 -10.5 -29t-24.5 -10q-15 0 -25 10t-10 29v491z" />
    <glyph glyph-name="Z" unicode="Z" horiz-adv-x="1257" 
d="M174 68h1006q15 0 24.5 -9.5t9.5 -23.5q0 -15 -9.5 -25t-24.5 -10h-1076q-30 0 -38 19.5t10 41.5l1032 1176h-973q-13 0 -23 10.5t-10 24.5q0 12 10 21.5t23 9.5h1036q30 0 38 -20.5t-11 -43.5z" />
    <glyph glyph-name="bracketleft" unicode="[" horiz-adv-x="555" 
d="M238 1356v-1516h202q23 0 33 -16t0.5 -32.5t-33.5 -16.5h-229q-20 0 -33.5 13.5t-13.5 33.5v1556q0 20 13.5 33.5t33.5 13.5h229q22 0 32.5 -17.5t1.5 -34.5t-34 -17h-202z" />
    <glyph glyph-name="backslash" unicode="\" horiz-adv-x="727" 
d="M692 -150q11 -25 -1.5 -44t-33.5 -16.5t-32 30.5l-623 1476q-13 25 -0.5 42.5t35 14t33.5 -29.5z" />
    <glyph glyph-name="bracketright" unicode="]" horiz-adv-x="612" 
d="M102 1366q-22 0 -31.5 16.5t-0.5 33t32 16.5h232q19 0 33 -14t14 -34v-1564q0 -20 -14 -33.5t-33 -13.5h-232q-22 0 -31.5 16.5t-0.5 33.5t32 17h205v1526h-205z" />
    <glyph glyph-name="asciicircum" unicode="^" horiz-adv-x="788" 
d="M410 1391l223 -279q13 -18 5 -35.5t-24.5 -18t-31.5 16.5l-215 264l-209 -266q-16 -20 -36.5 -18.5t-27 18.5t7.5 39l224 279q19 23 42 23t42 -23z" />
    <glyph glyph-name="underscore" unicode="_" horiz-adv-x="888" 
d="M803 -131h-762q-25 0 -35 17t0.5 34t34.5 17h762q25 0 35 -17t-0.5 -34t-34.5 -17z" />
    <glyph glyph-name="grave" unicode="`" horiz-adv-x="669" 
d="M336 1710l158 -215q9 -13 1.5 -28.5t-22 -17.5t-29.5 13l-168 203q-15 20 -4.5 38.5t30 20t34.5 -13.5z" />
    <glyph glyph-name="a" unicode="a" horiz-adv-x="1261" 
d="M629 1063q142 0 245.5 -68.5t149.5 -193.5v205q0 36 35 36q37 0 37 -36v-969q0 -37 -37 -37q-35 0 -35 37v196q-46 -124 -153.5 -188.5t-249.5 -64.5q-106 0 -201.5 38.5t-168 108.5t-114 178.5t-37.5 239.5q4 123 50 223.5t120.5 163.5t166.5 97t192 34zM1024 428v178
q0 91 -32 165.5t-87 122t-126 73t-150 24.5q-138 -1 -242 -62t-157.5 -160t-57.5 -222q-7 -212 118 -354t314 -142q80 0 154 24t134 69t96 118.5t36 165.5z" />
    <glyph glyph-name="b" unicode="b" horiz-adv-x="1265" 
d="M850 1024q146 -57 228.5 -195t82.5 -303q0 -176 -83 -309.5t-242 -198.5q-89 -38 -195 -38q-138 0 -248.5 64t-154.5 181v-188q0 -37 -35 -37q-37 0 -37 37v1266q0 36 37 36q35 0 35 -36v-486q51 120 162 183t249 63q110 0 201 -39zM645 51q53 0 128 22.5t136 69.5
q181 143 181 379q0 119 -37 203q-51 124 -168.5 196t-251.5 70q-172 -6 -283.5 -113.5t-111.5 -265.5v-184q0 -90 35.5 -163t94 -119t130 -70.5t147.5 -24.5z" />
    <glyph glyph-name="c" unicode="c" horiz-adv-x="1087" 
d="M946 840q-134 155 -332 155q-90 0 -170.5 -33t-142 -92.5t-97.5 -151.5t-36 -202q0 -202 127.5 -334.5t327.5 -132.5q99 0 189.5 41t152.5 119q10 13 24 16q31 3 41 -32q0 -21 -8 -29q-72 -90 -178 -137t-223 -47q-231 0 -379 153.5t-148 384.5q0 244 146 394.5
t393 150.5q215 0 368 -176q9 -12 9 -21q2 -15 -6.5 -27.5t-24.5 -13.5q-21 -3 -33 15z" />
    <glyph glyph-name="d" unicode="d" horiz-adv-x="1263" 
d="M416 1024q91 39 217 39q138 0 244.5 -67.5t150.5 -186.5v494q0 36 35 36q37 0 37 -36v-1276q0 -37 -37 -37q-35 0 -35 37v202q-41 -109 -149 -180q-117 -69 -254 -69q-106 0 -195 38q-163 66 -247 205t-79 322q5 160 87.5 292t224.5 187zM815 96q102 50 157.5 135.5
t55.5 196.5v178q0 91 -32 164.5t-87 120t-125.5 72.5t-150.5 28q-138 2 -242 -59.5t-157.5 -161.5t-57.5 -223q-7 -210 116.5 -347t315.5 -149q102 -3 207 45z" />
    <glyph glyph-name="e" unicode="e" horiz-adv-x="1267" 
d="M1163 524q2 -27 -12 -47t-51 -20h-922q21 -170 146 -287.5t307 -120.5q180 -3 321 105q29 22 52 -0.5t-5 -51.5q-134 -125 -362 -122q-159 2 -285 79t-192 209t-58 291q6 122 54.5 220.5t124.5 159t166.5 92.5t185.5 32q103 0 196 -33.5t167.5 -98t119.5 -170t47 -237.5z
M176 524h918q-2 117 -42.5 209.5t-106 147.5t-144.5 83.5t-164 28.5q-92 0 -175 -32.5t-146.5 -91t-101 -148t-38.5 -197.5z" />
    <glyph glyph-name="f" unicode="f" horiz-adv-x="716" 
d="M305 973v-930q0 -19 -11 -30t-26 -11q-13 0 -24 11t-11 30v930h-163q-21 0 -29.5 14.5t1 29.5t30.5 15h161v12q0 69 14.5 124.5t46 102t88.5 72t136 25.5q122 0 191 -53q18 -13 15.5 -31.5t-18.5 -24.5t-36 7q-42 37 -150 37q-64 0 -107.5 -18.5t-66.5 -55.5t-32 -80.5
t-9 -104.5v-12h256q22 0 31 -15t0 -29.5t-31 -14.5h-256z" />
    <glyph glyph-name="g" unicode="g" horiz-adv-x="1265" 
d="M1102 33q0 -108 -38.5 -194t-107 -141.5t-158.5 -84.5t-196 -29q-123 0 -216 30t-173 105q-28 29 -5 51.5t52 0.5q88 -67 163 -92t179 -25q86 0 162 23.5t136 69t95 119t35 167.5v190q-50 -117 -156.5 -180t-238.5 -63q-101 0 -193.5 33.5t-166.5 96t-119.5 160.5
t-49.5 219q-5 184 79.5 326.5t246.5 208.5q91 39 195 39q132 0 254 -72q107 -71 149 -182v203q0 37 35 37q37 0 37 -37v-979zM817 944q-103 50 -207 47q-144 -9 -252 -92q-190 -151 -180 -412q4 -123 57.5 -220.5t157.5 -156.5t242 -59q169 0 282 110.5t113 266.5v178
q0 112 -55.5 200t-157.5 138z" />
    <glyph glyph-name="h" unicode="h" horiz-adv-x="1320" 
d="M1087 608q0 166 -114.5 275.5t-272.5 109.5q-78 0 -158.5 -33.5t-148 -93t-110.5 -153t-43 -201.5v-475q0 -37 -35 -37q-37 0 -37 37v1268q0 23 18 31.5t36 -1.5t18 -32v-576q24 87 76 154t117.5 105.5t134 57.5t134.5 19q88 0 169.5 -30.5t146 -86.5t103 -144t38.5 -194
v-571q0 -37 -35 -37q-37 0 -37 37v571z" />
    <glyph glyph-name="i" unicode="i" horiz-adv-x="403" 
d="M242 1255q0 -16 -11 -24t-26 -8q-39 0 -39 32v33q0 16 11.5 25.5t27.5 9.5q15 0 26 -9.5t11 -25.5v-33zM168 1006q0 18 11 27t26 9q13 0 24 -9t11 -25v-971q0 -17 -11 -27t-24 -10q-15 0 -26 9.5t-11 27.5v969z" />
    <glyph glyph-name="j" unicode="j" horiz-adv-x="428" 
d="M262 1255q0 -16 -11 -24t-26 -8q-39 0 -39 32v33q0 16 11.5 25.5t27.5 9.5q15 0 26 -9.5t11 -25.5v-33zM57 -391q-21 -8 -36 6t-12 33.5t24 27.5q26 16 46.5 33t36 35t27 37t19.5 38.5t13 41.5t7.5 45t4 48t1.5 51.5v56.5v34v912q0 14 10 24t27 10q14 0 24.5 -10.5
t10.5 -23.5v-912q0 -56 -0.5 -84.5t-4.5 -78t-11 -78t-22 -68.5t-36 -67t-53.5 -57t-75.5 -54z" />
    <glyph glyph-name="k" unicode="k" horiz-adv-x="1009" 
d="M856 1028q14 14 33 14q23 0 31.5 -20.5t-11.5 -42.5l-432 -381l473 -539q15 -22 5 -40.5t-31 -18.5q-13 0 -25 12l-477 541l-180 -158v-358q0 -17 -11 -27t-24 -10q-15 0 -26 9.5t-11 27.5v1270q0 24 18 33t36 -1t18 -32v-826z" />
    <glyph glyph-name="l" unicode="l" horiz-adv-x="401" 
d="M240 35q0 -13 -11 -24t-24 -11q-17 0 -27 10.5t-10 24.5v1268q0 14 10 24t27 10q14 0 24.5 -10.5t10.5 -23.5v-1268z" />
    <glyph glyph-name="m" unicode="m" horiz-adv-x="2240" 
d="M2007 625q0 158 -113.5 263t-273.5 105q-82 0 -163 -33.5t-148 -93t-108.5 -152.5t-41.5 -202v-475q0 -37 -37 -37t-37 37v551q0 186 -110.5 294.5t-276.5 108.5q-64 0 -128.5 -20.5t-123.5 -62t-105 -98t-73.5 -134t-27.5 -164.5v-475q0 -17 -11 -27t-24 -10
q-15 0 -26 9.5t-11 27.5v971q0 13 10.5 23.5t24.5 10.5q17 0 27 -10t10 -24v-283q21 73 60.5 132.5t86.5 97t102.5 62.5t106.5 35.5t100 10.5q78 0 150 -22t133.5 -65.5t104.5 -116t57 -165.5q27 101 80.5 175.5t120 115t134 59.5t136.5 19q88 0 171 -29.5t149 -82.5
t106.5 -136.5t40.5 -183.5v-594q0 -37 -37 -37q-35 0 -35 37v588z" />
    <glyph glyph-name="n" unicode="n" horiz-adv-x="1320" 
d="M1087 608q0 166 -114.5 275.5t-272.5 109.5q-78 0 -158.5 -33.5t-148 -93t-110.5 -153t-43 -201.5v-475q0 -37 -35 -37q-37 0 -37 37v971q0 14 10 24t27 10q35 0 35 -36v-279q24 87 76 154t117.5 105.5t134 57.5t134.5 19q88 0 169.5 -30.5t146 -86.5t103 -144t38.5 -194
v-585q0 -37 -35 -37q-37 0 -37 37v585z" />
    <glyph glyph-name="o" unicode="o" horiz-adv-x="1261" 
d="M631 -20q-122 0 -228 46.5t-180 135.5q-135 164 -123 397q14 170 114 305.5t261 179.5q74 19 156 19q72 0 153 -19q161 -44 262 -179.5t115 -305.5q12 -233 -123 -397q-75 -89 -180 -135.5t-227 -46.5zM762 975q-66 16 -133 16q-63 0 -129 -16q-115 -30 -196.5 -120.5
t-111.5 -201t-8.5 -233t97.5 -213.5q63 -75 155 -116.5t195 -41.5q104 0 197.5 41.5t156.5 116.5q76 91 97 213.5t-10 233t-113 201t-197 120.5z" />
    <glyph glyph-name="p" unicode="p" horiz-adv-x="1269" 
d="M852 16q-84 -36 -217 -36q-132 0 -238.5 63t-156.5 180v-592q0 -37 -35 -37q-37 0 -37 37v1375q0 36 37 36q35 0 35 -36v-197q42 111 149 182q122 72 254 72q104 0 199 -40.5t167.5 -113t114.5 -182t39 -238.5q-5 -160 -86.5 -288.5t-224.5 -184.5zM240 606v-178
q0 -158 111.5 -264.5t283.5 -112.5q206 -3 328.5 122t128.5 314q3 103 -25.5 190t-76.5 143.5t-109 96t-120.5 57t-113.5 17.5q-106 0 -197 -43t-150.5 -132.5t-59.5 -209.5z" />
    <glyph glyph-name="q" unicode="q" horiz-adv-x="1271" 
d="M109 489q-4 131 37.5 241t113.5 182t167.5 111.5t201.5 39.5q136 0 247 -67.5t156 -186.5v197q0 36 35 36q37 0 37 -36v-1375q0 -37 -37 -37q-35 0 -35 37v592q-32 -76 -87.5 -128.5t-118.5 -75t-111 -31t-94 -8.5q-99 0 -189 33.5t-161 96.5t-114.5 161t-47.5 218z
M625 991q-130 0 -234.5 -68t-160 -183.5t-50.5 -252.5q4 -122 56.5 -219.5t154.5 -157t238 -59.5q41 0 87 9.5t101 36t99.5 66.5t77 109t38.5 156v178q-10 180 -127 282.5t-280 102.5z" />
    <glyph glyph-name="r" unicode="r" horiz-adv-x="690" 
d="M242 780q34 116 138 189t232 73q37 0 37 -34q0 -35 -37 -35q-76 0 -138.5 -25.5t-105 -69t-71.5 -103.5t-42 -128.5t-13 -144.5v-463q0 -17 -10.5 -27t-24.5 -10q-37 0 -37 37v969q0 14 10 24t27 10q14 0 24.5 -10.5t10.5 -23.5v-228z" />
    <glyph glyph-name="s" unicode="s" horiz-adv-x="1089" 
d="M78 225q-8 25 7.5 39t35 7t22.5 -33q13 -61 76 -106t148 -66t178 -21q52 0 113 12.5t124.5 39t105.5 77t42 115.5q0 73 -46.5 116t-120.5 58.5t-163.5 23t-179 18t-163.5 33t-120.5 78.5t-46.5 146q0 93 70 164t167 104t197 33q362 0 443 -211q7 -27 -7.5 -42t-34 -10.5
t-26.5 25.5q-63 170 -375 170q-59 0 -119.5 -13.5t-117 -39.5t-92 -73t-35.5 -107q0 -70 46.5 -111t120.5 -56.5t163.5 -23t179.5 -18.5t164 -35t120.5 -81.5t46.5 -147.5q0 -70 -32 -126t-80.5 -89.5t-112 -55.5t-120 -30t-111.5 -8t-109.5 6t-116 23t-109.5 43.5t-84.5 71
t-47.5 101.5z" />
    <glyph glyph-name="t" unicode="t" horiz-adv-x="788" 
d="M618 1042q25 0 35.5 -16.5t0 -32.5t-35.5 -16h-284v-629q0 -50 4 -88.5t17 -80t36 -68.5t63 -44.5t95 -17.5q67 0 123 31q21 10 38 0t15.5 -29t-27.5 -33q-64 -34 -149 -34q-285 0 -285 364v629h-190q-26 0 -36.5 16.5t0 32.5t36.5 16h190v263q0 21 17.5 29.5t35 -0.5
t17.5 -29v-263h284z" />
    <glyph glyph-name="u" unicode="u" horiz-adv-x="1323" 
d="M236 428q0 -162 115.5 -270.5t273.5 -108.5q78 0 158 33t147.5 92t110 151.5t42.5 200.5v480q0 36 35 36q37 0 37 -36v-971q0 -14 -10 -24.5t-27 -10.5q-35 0 -35 37v287q-31 -114 -109 -194.5t-165.5 -115t-175.5 -34.5q-89 0 -172 29.5t-149.5 84t-107 141.5t-40.5 193
v578q0 36 35 36q37 0 37 -36v-578z" />
    <glyph glyph-name="v" unicode="v" horiz-adv-x="1136" 
d="M45 993q-9 19 3.5 34t31.5 15q23 0 35 -24l458 -907l457 907q9 24 35 24q17 0 25.5 -13t-0.5 -36l-486 -981q-9 -19 -28 -20t-31 18z" />
    <glyph glyph-name="w" unicode="w" horiz-adv-x="1925" 
d="M70 991q-8 23 3.5 37t30.5 14q26 0 35 -22l400 -909l393 804q10 23 34 23t35 -23l400 -806l393 911q10 22 35 22q19 0 30 -13t1 -36l-428 -983q-9 -19 -33 -19t-33 19l-395 819l-404 -819q-9 -19 -34 -19t-35 19z" />
    <glyph glyph-name="x" unicode="x" horiz-adv-x="1064" 
d="M84 977q-18 22 -10.5 43.5t30.5 21.5q20 0 31 -14l381 -457l406 457q11 14 28 14q22 0 33 -18t-6 -41l-408 -457l422 -465q19 -22 9.5 -41.5t-31.5 -19.5q-20 0 -35 18l-418 461l-391 -463q-13 -16 -35 -16q-23 0 -30.5 21.5t14.5 46.5l393 458z" />
    <glyph glyph-name="y" unicode="y" horiz-adv-x="1144" 
d="M47 995q-8 19 4 33t31 14q21 0 35 -22l461 -914l450 910q12 26 37 26q20 0 31.5 -15t1.5 -36l-690 -1362q-14 -26 -33.5 -30t-30.5 12.5t-2 40.5l190 385z" />
    <glyph glyph-name="z" unicode="z" horiz-adv-x="1083" 
d="M172 66l801 4q22 0 31 -17.5t-0.5 -35t-30.5 -17.5h-864q-31 0 -39.5 23.5t12.5 42.5l805 907l-752 -2q-25 0 -35 17.5t0.5 35.5t34.5 18h821q29 0 40 -24.5t-9 -46.5z" />
    <glyph glyph-name="braceleft" unicode="{" horiz-adv-x="534" 
d="M213 532q26 -19 37 -34q14 -17 24 -36.5t16 -45t10 -43t5.5 -49.5t2 -44.5t0 -49t-0.5 -42.5q-5 -134 0 -182q3 -21 4 -26.5t5 -24.5t7.5 -28.5t10.5 -23t16 -22.5q39 -39 109 -39q23 0 32.5 -19t0 -37.5t-32.5 -18.5q-113 0 -168 65q-12 15 -22 33.5t-16 35t-10.5 42.5
t-7 41t-3.5 45t-1 41v43.5v38.5q0 16 1 44.5t1 43.5q0 113 -12 157q-12 41 -35 64q-32 35 -94 35q-23 0 -32.5 18t0 36.5t32.5 18.5q63 4 94 35q22 22 33 63t12.5 68.5t1.5 75.5v14q0 15 -1 45t-1 45q0 54 -1.5 110t11 109.5t34.5 95.5t69 67.5t115 25.5q23 0 32.5 -16.5
t0 -33t-32.5 -16.5q-62 0 -109 -47q-20 -22 -32 -51.5t-14.5 -71t-3 -67t3 -78t3.5 -65.5v-38v-43t-1 -40.5t-4 -45t-7 -40.5t-11.5 -42t-17 -35t-23 -34.5t-30.5 -26.5z" />
    <glyph glyph-name="bar" unicode="|" horiz-adv-x="315" 
d="M119 1286q0 17 10.5 27t24.5 10q36 0 36 -37v-1462q0 -35 -36 -35q-14 0 -24.5 9.5t-10.5 25.5v1462z" />
    <glyph glyph-name="braceright" unicode="}" horiz-adv-x="552" 
d="M332 535q-36 25 -58.5 66.5t-29 86.5t-8.5 94.5t2 89.5q0 13 3 59t3 76.5t-3 72.5t-14.5 75t-31.5 55q-39 39 -109 39q-23 0 -32.5 18.5t0 37t32.5 18.5q67 0 113.5 -26t68.5 -68.5t34.5 -96.5t11.5 -110.5t-1 -110.5q-1 -15 -2 -44.5t-2 -45.5q0 -168 47 -215
q34 -31 97 -35q23 0 32.5 -18.5t0 -36.5t-32.5 -18q-62 0 -97 -35q-47 -47 -47 -221q1 -15 2 -47t2 -48q0 -5 0.5 -43.5t0 -51t-2 -46.5t-5.5 -51.5t-10.5 -44t-17 -46t-24.5 -36.5q-56 -66 -168 -66q-23 0 -32.5 19t0 38t32.5 19q70 0 109 39q14 15 23.5 40t12 39t7.5 46
q5 48 0 182q0 6 -0.5 43t0 49.5t2 45.5t5.5 51t10 44t16 46t24 37q13 18 37 35z" />
    <glyph glyph-name="asciitilde" unicode="~" horiz-adv-x="1056" 
d="M53 492q17 97 64 147.5t116.5 54t143.5 -19t162 -68.5t186 -71q178 -48 211 129q5 20 22 25.5t31.5 -5t11.5 -31.5q-17 -121 -94.5 -167.5t-195.5 -16.5q-80 20 -199 76q-8 3 -24 11q-30 14 -46.5 21.5t-48.5 20t-52 17.5t-49.5 10.5t-48.5 2t-41.5 -11.5t-37 -25.5
t-26.5 -45.5t-17 -66q-2 -22 -20 -28.5t-34.5 6t-13.5 35.5z" />
    <glyph glyph-name="exclamdown" unicode="&#xa1;" horiz-adv-x="325" 
d="M123 1028q0 16 11 25.5t26 9.5q13 0 24 -9.5t11 -25.5v-119q0 -16 -10.5 -24t-24.5 -8q-15 0 -26 8t-11 24v119zM123 723q0 16 11 25.5t26 9.5q13 0 24 -9.5t11 -25.5v-954q0 -14 -11 -22.5t-24 -8.5q-15 0 -26 8.5t-11 22.5v954z" />
    <glyph glyph-name="cent" unicode="&#xa2;" horiz-adv-x="1044" 
d="M532 -12q-106 9 -199 54.5t-157 125.5q-131 158 -119 389q12 169 110.5 301.5t256.5 177.5q64 15 108 17v151q0 22 16 31.5t32 0.5t16 -32v-151q102 -8 192.5 -51.5t155.5 -118.5q8 -11 8 -21q2 -15 -6 -26.5t-24 -12.5q-20 -3 -33 13q-54 64 -130.5 100.5t-162.5 42.5
v-924q95 3 179 43t143 115q12 11 24 14q30 3 41 -30q0 -21 -8 -29q-68 -86 -167.5 -131.5t-211.5 -48.5v-164q0 -21 -16 -30.5t-32 -0.5t-16 31v164zM231 213q55 -68 133.5 -108t167.5 -48v922q-42 -3 -86 -12q-111 -30 -190 -118t-109 -197t-10 -229t94 -210z" />
    <glyph glyph-name="yen" unicode="&#xa5;" horiz-adv-x="1263" 
d="M285 283q-20 2 -28.5 17t0 29.5t28.5 14.5h311v182h-311q-20 2 -28.5 17.5t0 30t28.5 14.5h268l-508 678q-18 22 -10.5 39.5t28.5 17.5q20 0 33 -16l535 -719l532 717q15 18 31 18q20 0 28 -18t-8 -41l-505 -676h266q21 0 29.5 -15.5t-0.5 -31t-29 -15.5h-309v-182h309
q21 0 29.5 -15t-0.5 -30.5t-29 -15.5h-309v-244q0 -19 -10.5 -29t-24.5 -10q-15 0 -25 10t-10 29v244h-311z" />
    <glyph glyph-name="dieresis" unicode="&#xa8;" horiz-adv-x="716" 
d="M147 1634q22 0 42 -17.5t20 -43.5q0 -31 -19.5 -47.5t-42.5 -16.5q-27 0 -45 17.5t-18 46.5q0 27 18 44t45 17zM541 1634q26 0 44.5 -17t18.5 -44q0 -32 -18 -48t-45 -16q-23 0 -42.5 18t-19.5 46q0 26 19.5 43.5t42.5 17.5z" />
    <glyph glyph-name="copyright" unicode="&#xa9;" horiz-adv-x="935" 
d="M459 1063q165 0 281 -116t116 -281t-116 -281.5t-281 -116.5q-164 0 -281 117t-117 281t117 280.5t281 116.5zM459 991q-134 0 -230 -95t-96 -230t96 -230.5t230 -95.5q135 0 230 95.5t95 230.5t-95 230t-230 95zM584 791q-42 46 -108.5 50t-115.5 -34
q-56 -47 -61.5 -127.5t43.5 -134.5q50 -58 133.5 -54t128.5 64q10 10 25 14q15 2 27.5 -6t13.5 -24q3 -15 -6 -27q-43 -60 -113.5 -82.5t-142 -4t-119.5 72.5q-44 49 -57 116t6 129q22 73 77 119q27 24 64 37q65 26 138.5 10t119.5 -69q7 -7 10 -19q3 -34 -31 -43
q-16 -3 -32 13z" />
    <glyph glyph-name="guillemotleft" unicode="&#xab;" horiz-adv-x="827" 
d="M111 532l352 -339q12 -12 12 -27q0 -14 -9.5 -24.5t-25.5 -10.5q-15 0 -24 12l-369 355q-38 35 4 73l367 355q10 10 22 10q14 0 24.5 -11t10.5 -24q0 -15 -12 -27zM782 193q13 -13 13 -27t-10.5 -24.5t-24.5 -10.5q-16 0 -25 12l-368 355q-38 35 4 73l366 355
q10 10 23 10q14 0 24.5 -11t10.5 -24q0 -14 -13 -27l-352 -342z" />
    <glyph glyph-name="registered" unicode="&#xae;" horiz-adv-x="862" 
d="M428 1042q165 0 281 -116t116 -281t-116 -281t-281 -116q-164 0 -280.5 116.5t-116.5 280.5t116.5 280.5t280.5 116.5zM428 971q-134 0 -230 -95.5t-96 -230.5t96 -230.5t230 -95.5q135 0 230.5 95.5t95.5 230.5t-95.5 230.5t-230.5 95.5zM379 793q80 96 190 96
q14 0 25.5 -10.5t11.5 -26.5q0 -14 -10 -24.5t-27 -10.5q-86 0 -138 -63.5t-52 -153.5v-188q0 -37 -37 -37q-35 0 -35 37v434q-1 17 8.5 27t26.5 10q37 0 37 -37v-53z" />
    <glyph glyph-name="macron" unicode="&#xaf;" horiz-adv-x="1228" 
d="M741 1567q34 0 48 -16t0 -32t-48 -16h-366q-37 0 -51 16t1.5 32t49.5 16h366z" />
    <glyph glyph-name="degree" unicode="&#xb0;" horiz-adv-x="399" 
d="M184 1376q62 0 105 -42t43 -103q0 -63 -43 -105.5t-105 -42.5q-63 0 -106 42.5t-43 105.5q0 61 43 103t106 42zM184 1317q-37 0 -63.5 -25.5t-26.5 -60.5q0 -37 26.5 -62.5t63.5 -25.5q36 0 62 26t26 62q0 35 -26.5 60.5t-61.5 25.5z" />
    <glyph glyph-name="plusminus" unicode="&#xb1;" horiz-adv-x="970" 
d="M518 686h336q19 0 28 -16t1.5 -31.5t-29.5 -15.5h-336v-340q0 -13 -10.5 -23t-24.5 -10q-32 0 -32 33v340h-336q-21 0 -29.5 15.5t0.5 31.5t29 16h336v336q0 33 32 33q14 0 24.5 -10t10.5 -23v-336zM115 0q-13 0 -23 10.5t-10 22.5q0 14 10 24.5t23 10.5h739
q13 0 23 -10.5t10 -24.5q0 -12 -10 -22.5t-23 -10.5h-739z" />
    <glyph glyph-name="acute" unicode="&#xb4;" horiz-adv-x="489" 
d="M430 1710q13 17 34 13.5t29.5 -20t-4.5 -38.5l-167 -203q-13 -16 -29.5 -13t-22 17.5t1.5 28.5z" />
    <glyph glyph-name="paragraph" unicode="&#xb6;" horiz-adv-x="985" 
d="M799 1231v-1424q0 -14 -9.5 -24t-25.5 -10q-17 0 -27 10t-10 24v1424h-367v-1424q0 -14 -9 -24t-25 -10q-17 0 -27 10t-10 24v914q-103 17 -171.5 99.5t-68.5 189.5q0 118 87.5 205.5t205.5 87.5h561q37 0 37 -37q0 -35 -37 -35h-104z" />
    <glyph glyph-name="middot" unicode="&#xb7;" horiz-adv-x="249" 
d="M121 674q23 0 37 -15t14 -38t-14 -37.5t-37 -14.5t-38 14.5t-15 37.5t15 38t38 15z" />
    <glyph glyph-name="cedilla" unicode="&#xb8;" horiz-adv-x="622" 
d="M360 -121q76 12 131.5 -28t55.5 -111q0 -77 -61 -120t-143 -35.5t-138 63.5q-20 20 -8 40q13 23 44 5q5 -3 11 -8q37 -29 79 -38.5t75 -0.5t54.5 32.5t22.5 55.5q1 33 -13 55.5t-35 30t-44 10.5t-41 -2q-35 -6 -45 9.5t4 43.5l53 115q20 43 45 43q18 1 18 -22
q1 -15 -9 -33z" />
    <glyph glyph-name="guillemotright" unicode="&#xbb;" horiz-adv-x="862" 
d="M422 528l-354 342q-11 18 -11 27q0 14 10 24.5t23 10.5q15 0 25 -10l366 -355q40 -37 4 -73l-368 -355q-12 -12 -27 -12q-13 0 -23 10.5t-10 24.5q0 13 13 26zM387 870q-10 17 -10 27q0 14 10 24.5t23 10.5q14 0 24 -10l367 -355q40 -37 4 -73l-369 -355q-12 -12 -26 -12
q-13 0 -23 10.5t-10 24.5t12 26l352 340z" />
    <glyph glyph-name="questiondown" unicode="&#xbf;" horiz-adv-x="1189" 
d="M602 1030q0 16 10 24.5t25 8.5q13 0 23 -8.5t10 -24.5v-112q0 -14 -10 -23.5t-23 -9.5q-14 0 -24.5 9.5t-10.5 23.5v112zM100 123q-1 -74 31.5 -132t83.5 -93.5t119.5 -59t134 -32.5t131.5 -9q388 0 471 232q7 19 24.5 22.5t29.5 -10t5 -37.5q-21 -65 -65 -115.5
t-96.5 -80.5t-119 -49t-126.5 -26t-125 -7q-75 0 -151.5 13t-153 44t-135.5 75.5t-95 113.5t-34 153q2 63 22.5 114.5t54 86t76.5 62.5t90 48.5t94 40t89.5 41t75 46.5t52 61.5t19.5 81.5v84q0 19 17 27t34 0t17 -27v-86q0 -54 -19.5 -97t-52 -72t-75 -53t-89.5 -43.5
l-94 -39t-89.5 -44.5t-76 -55.5t-53.5 -75.5t-21 -102z" />
    <glyph glyph-name="Agrave" unicode="&#xc0;" horiz-adv-x="1427" 
d="M604 1706l176 -201q10 -12 4 -28t-20 -19.5t-31 10.5l-184 187q-16 19 -8 38.5t27 23t36 -10.5zM711 1339q19 0 28 -18l654 -1284q10 -21 -1 -36t-30 -15q-20 0 -29 18l-182 363h-881l-182 -363q-9 -18 -29 -18q-19 0 -29.5 15t-0.5 36l651 1284q9 18 31 18zM711 1239
l-410 -811h817z" />
    <glyph glyph-name="Aacute" unicode="&#xc1;" horiz-adv-x="1427" 
d="M827 1696q14 16 35 10.5t28 -23t-7 -38.5l-185 -187q-15 -15 -31 -10.5t-20 19.5t4 28zM711 1339q19 0 28 -18l654 -1284q10 -21 -1 -36t-30 -15q-20 0 -29 18l-182 363h-881l-182 -363q-9 -18 -29 -18q-19 0 -29.5 15t-0.5 36l651 1284q9 18 31 18zM711 1239l-410 -811
h817z" />
    <glyph glyph-name="Acircumflex" unicode="&#xc2;" horiz-adv-x="1427" 
d="M944 1501q15 -13 11.5 -30t-18 -21.5t-32.5 8.5l-194 170l-195 -170q-16 -15 -32.5 -9t-18 22t11.5 30l209 185q15 14 23.5 14t25.5 -14zM711 1339q19 0 28 -18l654 -1284q10 -21 -1 -36t-30 -15q-20 0 -29 18l-182 363h-881l-182 -363q-9 -18 -29 -18q-19 0 -29.5 15
t-0.5 36l651 1284q9 18 31 18zM711 1239l-410 -811h817z" />
    <glyph glyph-name="Atilde" unicode="&#xc3;" horiz-adv-x="1427" 
d="M442 1567q17 57 55.5 86.5t92.5 29.5q33 0 69.5 -23.5t63 -51t60.5 -51t63 -23.5q27 0 48 9.5t34.5 27t21 32t15.5 35.5q9 24 29 21q21 -4 20 -30q-1 -11 -6 -23q-25 -56 -63.5 -90.5t-104.5 -34.5q-28 0 -56.5 15.5t-53 37.5t-47.5 44t-47 37.5t-44 16.5
q-42 1 -64.5 -21t-33.5 -67q-5 -20 -28 -19t-26 23q-1 9 2 19zM711 1339q19 0 28 -18l654 -1284q10 -21 -1 -36t-30 -15q-20 0 -29 18l-182 363h-881l-182 -363q-9 -18 -29 -18q-19 0 -29.5 15t-0.5 36l651 1284q9 18 31 18zM711 1239l-410 -811h817z" />
    <glyph glyph-name="Adieresis" unicode="&#xc4;" horiz-adv-x="1427" 
d="M514 1634q22 0 41.5 -17.5t19.5 -43.5q0 -31 -19 -47.5t-42 -16.5q-27 0 -45 17.5t-18 46.5q0 27 18 44t45 17zM907 1634q26 0 45 -17t19 -44q0 -32 -18.5 -48t-45.5 -16q-23 0 -42 18t-19 46q0 26 19 43.5t42 17.5zM711 1339q19 0 28 -18l654 -1284q10 -21 -1 -36
t-30 -15q-20 0 -29 18l-182 363h-881l-182 -363q-9 -18 -29 -18q-19 0 -29.5 15t-0.5 36l651 1284q9 18 31 18zM711 1239l-410 -811h817z" />
    <glyph glyph-name="Aring" unicode="&#xc5;" horiz-adv-x="1427" 
d="M1393 37q10 -21 -1 -36t-30 -15q-20 0 -29 18l-182 363h-881l-182 -363q-9 -18 -29 -18q-19 0 -29.5 15t-0.5 36l635 1251q-46 14 -74.5 51.5t-28.5 87.5q0 61 43.5 103.5t106.5 42.5q62 0 104.5 -42.5t42.5 -103.5q0 -50 -28.5 -88t-73.5 -53zM621 1427
q0 -37 26.5 -62.5t63.5 -25.5q36 0 62 26t26 62q0 35 -26.5 60.5t-61.5 25.5q-37 0 -63.5 -25.5t-26.5 -60.5zM301 428h817l-407 811z" />
    <glyph glyph-name="AE" unicode="&#xc6;" horiz-adv-x="1951" 
d="M1806 1303q19 0 27 -15.5t-0.5 -31t-28.5 -15.5h-780v-565h739q20 0 28.5 -15.5t0 -31t-28.5 -15.5h-739v-548h780q20 0 28.5 -16.5t0 -33t-28.5 -16.5h-792q-24 0 -40 16t-16 39v312h-577l-289 -367q-13 -18 -35 -18q-20 0 -27 16.5t7 38.5l930 1241q21 25 47 25h794z
M956 1159l-526 -731h526v731z" />
    <glyph glyph-name="Ccedilla" unicode="&#xc7;" horiz-adv-x="1366" 
d="M1235 268q14 19 33 16.5t25.5 -19t-5.5 -36.5q-78 -111 -215 -178q-125 -63 -260 -69l-55 -105q76 12 131 -28t55 -111q0 -77 -61 -120t-143 -35.5t-138 63.5q-20 20 -8 40q13 23 44 5q5 -3 11 -8q37 -29 79.5 -38.5t75 -0.5t54.5 32.5t23 55.5q1 33 -13 55.5t-35 30
t-44 10.5t-41 -2q-35 -6 -45 9.5t4 43.5l47 101q-130 4 -249 58.5t-206.5 145t-137.5 218.5t-46 270q6 255 155.5 429.5t388.5 213.5q63 8 138 8q140 0 253.5 -46.5t213.5 -154.5q23 -27 -1 -46.5t-46 5.5q-80 86 -166.5 128t-177.5 46.5t-203 -8.5q-219 -35 -351.5 -185.5
t-138.5 -391.5q-4 -128 43.5 -244.5t129 -199t191.5 -131t228 -48.5q146 0 272 66q117 55 191 155z" />
    <glyph glyph-name="Egrave" unicode="&#xc8;" horiz-adv-x="1308" 
d="M604 1706l176 -201q10 -12 4 -28t-20 -19.5t-31 10.5l-184 187q-16 19 -8 38.5t27 23t36 -10.5zM256 66h905q20 0 28.5 -16.5t0 -33t-28.5 -16.5h-917q-24 0 -40 16t-16 39v1194q0 22 16 38t40 16h919q19 0 27 -15.5t-0.5 -31t-28.5 -15.5h-905v-565h864q20 0 28.5 -15.5
t0 -31t-28.5 -15.5h-864v-548z" />
    <glyph glyph-name="Eacute" unicode="&#xc9;" horiz-adv-x="1308" 
d="M827 1696q14 16 35 10.5t28 -23t-7 -38.5l-185 -187q-15 -15 -31 -10.5t-20 19.5t4 28zM256 66h905q20 0 28.5 -16.5t0 -33t-28.5 -16.5h-917q-24 0 -40 16t-16 39v1194q0 22 16 38t40 16h919q19 0 27 -15.5t-0.5 -31t-28.5 -15.5h-905v-565h864q20 0 28.5 -15.5t0 -31
t-28.5 -15.5h-864v-548z" />
    <glyph glyph-name="Ecircumflex" unicode="&#xca;" horiz-adv-x="1308" 
d="M944 1501q15 -13 11.5 -30t-18 -21.5t-32.5 8.5l-194 170l-195 -170q-16 -15 -32.5 -9t-18 22t11.5 30l209 185q15 14 23.5 14t25.5 -14zM256 66h905q20 0 28.5 -16.5t0 -33t-28.5 -16.5h-917q-24 0 -40 16t-16 39v1194q0 22 16 38t40 16h919q19 0 27 -15.5t-0.5 -31
t-28.5 -15.5h-905v-565h864q20 0 28.5 -15.5t0 -31t-28.5 -15.5h-864v-548z" />
    <glyph glyph-name="Edieresis" unicode="&#xcb;" horiz-adv-x="1308" 
d="M514 1634q22 0 41.5 -17.5t19.5 -43.5q0 -31 -19 -47.5t-42 -16.5q-27 0 -45 17.5t-18 46.5q0 27 18 44t45 17zM907 1634q26 0 45 -17t19 -44q0 -32 -18.5 -48t-45.5 -16q-23 0 -42 18t-19 46q0 26 19 43.5t42 17.5zM256 66h905q20 0 28.5 -16.5t0 -33t-28.5 -16.5h-917
q-24 0 -40 16t-16 39v1194q0 22 16 38t40 16h919q19 0 27 -15.5t-0.5 -31t-28.5 -15.5h-905v-565h864q20 0 28.5 -15.5t0 -31t-28.5 -15.5h-864v-548z" />
    <glyph glyph-name="Igrave" unicode="&#xcc;" horiz-adv-x="450" 
d="M119 1706l176 -201q10 -12 4 -28t-20 -19.5t-31 10.5l-185 187q-16 19 -7.5 38.5t27.5 23t36 -10.5zM188 1264q0 19 11 29t26 10t26 -10t11 -29v-1229q0 -16 -11 -25.5t-26 -9.5t-26 9.5t-11 25.5v1229z" />
    <glyph glyph-name="Iacute" unicode="&#xcd;" horiz-adv-x="450" 
d="M342 1696q14 16 35 10.5t28 -23t-8 -38.5l-184 -187q-15 -15 -31 -10.5t-20 19.5t4 28zM188 1264q0 19 11 29t26 10t26 -10t11 -29v-1229q0 -16 -11 -25.5t-26 -9.5t-26 9.5t-11 25.5v1229z" />
    <glyph glyph-name="Icircumflex" unicode="&#xce;" horiz-adv-x="450" 
d="M459 1501q15 -13 11.5 -30t-18 -21.5t-32.5 8.5l-195 170l-194 -170q-16 -15 -32.5 -9t-18 22t11.5 30l209 185q15 14 23.5 14t25.5 -14zM188 1264q0 19 11 29t26 10t26 -10t11 -29v-1229q0 -16 -11 -25.5t-26 -9.5t-26 9.5t-11 25.5v1229z" />
    <glyph glyph-name="Idieresis" unicode="&#xcf;" horiz-adv-x="450" 
d="M92 1634q22 0 42 -17.5t20 -43.5q0 -31 -19.5 -47.5t-42.5 -16.5q-27 0 -45 17.5t-18 46.5q0 27 18 44t45 17zM360 1634q26 0 45 -17t19 -44q0 -32 -18.5 -48t-45.5 -16q-23 0 -42 18t-19 46q0 26 19 43.5t42 17.5zM188 1264q0 19 11 29t26 10t26 -10t11 -29v-1229
q0 -16 -11 -25.5t-26 -9.5t-26 9.5t-11 25.5v1229z" />
    <glyph glyph-name="Eth" unicode="&#xd0;" horiz-adv-x="1345" 
d="M639 1303q145 0 262.5 -56t190 -147.5t111.5 -208.5t39 -239.5t-39 -239.5t-111.5 -208.5t-190 -147.5t-262.5 -56h-475q-23 0 -39 15.5t-16 37.5v568h-117q-22 0 -30.5 12.5t1 25.5t29.5 13h117v579q0 22 16 37t39 15h475zM639 63q104 0 192.5 33t150.5 89.5t106 132
t64.5 160t20.5 174.5t-20.5 174.5t-64.5 160t-106 132t-150.5 89.5t-192.5 33h-463v-569h377q20 0 28.5 -13t0 -25.5t-28.5 -12.5h-377v-558h463z" />
    <glyph glyph-name="Ntilde" unicode="&#xd1;" horiz-adv-x="1406" 
d="M442 1567q17 57 55.5 86.5t92.5 29.5q33 0 69.5 -23.5t63 -51t60.5 -51t63 -23.5q27 0 48 9.5t34.5 27t21 32t15.5 35.5q9 24 29 21q21 -4 20 -30q-1 -11 -6 -23q-25 -56 -63.5 -90.5t-104.5 -34.5q-28 0 -56.5 15.5t-53 37.5t-47.5 44t-47 37.5t-44 16.5
q-42 1 -64.5 -21t-33.5 -67q-5 -20 -28 -19t-26 23q-1 9 2 19zM1147 1264q0 19 10.5 29t24.5 10q15 0 25 -10t10 -29v-1223q0 -19 -9 -29t-22 -10q-21 0 -41 23l-891 1153v-1141q0 -18 -10 -27.5t-23 -9.5q-15 0 -25 9.5t-10 27.5v1223q0 21 9.5 32t23.5 11q22 0 39 -23
l889 -1153v1137z" />
    <glyph glyph-name="Ograve" unicode="&#xd2;" horiz-adv-x="1525" 
d="M643 1706l176 -201q10 -12 4 -28t-20 -19.5t-31 10.5l-184 187q-16 19 -8 38.5t27 23t36 -10.5zM762 -20q-131 0 -252 53.5t-210 145t-141 221t-48 274.5q4 134 45 245t104.5 184.5t146.5 124t169 73t174 22.5q86 0 175 -23.5t175.5 -75t154.5 -125.5t111.5 -184
t46.5 -241q4 -145 -47 -274.5t-140 -221t-210.5 -145t-253.5 -53.5zM180 672q-4 -129 42.5 -246.5t126 -200.5t188 -132.5t225.5 -49.5q118 0 227 49.5t188.5 132.5t126 200.5t42.5 246.5q-3 121 -43 221.5t-101.5 166.5t-140 111.5t-157 65.5t-154.5 20q-80 0 -157.5 -20
t-151 -66t-130 -112t-92.5 -166t-39 -221z" />
    <glyph glyph-name="Oacute" unicode="&#xd3;" horiz-adv-x="1525" 
d="M866 1696q14 16 35 10.5t28 -23t-7 -38.5l-185 -187q-15 -15 -31 -10.5t-20 19.5t4 28zM762 -20q-131 0 -252 53.5t-210 145t-141 221t-48 274.5q4 134 45 245t104.5 184.5t146.5 124t169 73t174 22.5q86 0 175 -23.5t175.5 -75t154.5 -125.5t111.5 -184t46.5 -241
q4 -145 -47 -274.5t-140 -221t-210.5 -145t-253.5 -53.5zM180 672q-4 -129 42.5 -246.5t126 -200.5t188 -132.5t225.5 -49.5q118 0 227 49.5t188.5 132.5t126 200.5t42.5 246.5q-3 121 -43 221.5t-101.5 166.5t-140 111.5t-157 65.5t-154.5 20q-80 0 -157.5 -20t-151 -66
t-130 -112t-92.5 -166t-39 -221z" />
    <glyph glyph-name="Ocircumflex" unicode="&#xd4;" horiz-adv-x="1525" 
d="M983 1501q15 -13 11.5 -30t-18 -21.5t-32.5 8.5l-194 170l-195 -170q-16 -15 -32.5 -9t-18 22t11.5 30l209 185q15 14 23.5 14t25.5 -14zM762 -20q-131 0 -252 53.5t-210 145t-141 221t-48 274.5q4 134 45 245t104.5 184.5t146.5 124t169 73t174 22.5q86 0 175 -23.5
t175.5 -75t154.5 -125.5t111.5 -184t46.5 -241q4 -145 -47 -274.5t-140 -221t-210.5 -145t-253.5 -53.5zM180 672q-4 -129 42.5 -246.5t126 -200.5t188 -132.5t225.5 -49.5q118 0 227 49.5t188.5 132.5t126 200.5t42.5 246.5q-3 121 -43 221.5t-101.5 166.5t-140 111.5
t-157 65.5t-154.5 20q-80 0 -157.5 -20t-151 -66t-130 -112t-92.5 -166t-39 -221z" />
    <glyph glyph-name="Otilde" unicode="&#xd5;" horiz-adv-x="1525" 
d="M481 1567q17 57 55.5 86.5t92.5 29.5q33 0 69.5 -23.5t63 -51t60.5 -51t63 -23.5q27 0 48 9.5t34.5 27t21 32t15.5 35.5q9 24 29 21q21 -4 20 -30q-1 -11 -6 -23q-25 -56 -63.5 -90.5t-104.5 -34.5q-28 0 -56.5 15.5t-53 37.5t-47.5 44t-47 37.5t-44 16.5q-76 3 -99 -88
q-5 -21 -28 -19q-22 2 -25 24q-1 8 2 18zM762 -20q-131 0 -252 53.5t-210 145t-141 221t-48 274.5q4 134 45 245t104.5 184.5t146.5 124t169 73t174 22.5q86 0 175 -23.5t175.5 -75t154.5 -125.5t111.5 -184t46.5 -241q4 -145 -47 -274.5t-140 -221t-210.5 -145
t-253.5 -53.5zM180 672q-4 -129 42.5 -246.5t126 -200.5t188 -132.5t225.5 -49.5q118 0 227 49.5t188.5 132.5t126 200.5t42.5 246.5q-3 121 -43 221.5t-101.5 166.5t-140 111.5t-157 65.5t-154.5 20q-80 0 -157.5 -20t-151 -66t-130 -112t-92.5 -166t-39 -221z" />
    <glyph glyph-name="Odieresis" unicode="&#xd6;" horiz-adv-x="1525" 
d="M553 1634q22 0 41.5 -17.5t19.5 -43.5q0 -31 -19 -47.5t-42 -16.5q-27 0 -45.5 17.5t-18.5 46.5q0 27 18.5 44t45.5 17zM946 1634q26 0 45 -17t19 -44q0 -32 -18.5 -48t-45.5 -16q-23 0 -42 18t-19 46q0 26 19 43.5t42 17.5zM762 -20q-131 0 -252 53.5t-210 145t-141 221
t-48 274.5q4 134 45 245t104.5 184.5t146.5 124t169 73t174 22.5q86 0 175 -23.5t175.5 -75t154.5 -125.5t111.5 -184t46.5 -241q4 -145 -47 -274.5t-140 -221t-210.5 -145t-253.5 -53.5zM180 672q-4 -129 42.5 -246.5t126 -200.5t188 -132.5t225.5 -49.5q118 0 227 49.5
t188.5 132.5t126 200.5t42.5 246.5q-3 121 -43 221.5t-101.5 166.5t-140 111.5t-157 65.5t-154.5 20q-80 0 -157.5 -20t-151 -66t-130 -112t-92.5 -166t-39 -221z" />
    <glyph glyph-name="Oslash" unicode="&#xd8;" horiz-adv-x="1525" 
d="M1413 674q4 -145 -47 -274.5t-140 -221t-210.5 -145t-253.5 -53.5q-160 0 -305 77l-101 -180q-11 -19 -26 -20t-20 13t3 32l103 182q-143 92 -226 247.5t-79 342.5q4 134 45 245t104.5 184.5t146.5 124t169 73t174 22.5q167 0 315 -80l102 182q9 17 24.5 18t21 -11.5
t-2.5 -30.5l-102 -182q134 -80 216.5 -218t88.5 -327zM180 672q-4 -165 68 -307t198 -226l586 1045q-134 73 -282 73q-80 0 -157.5 -20t-151 -66t-130 -112t-92.5 -166t-39 -221zM762 43q118 0 227 49.5t188.5 132.5t126 200.5t42.5 246.5q-6 148 -79 276t-194 209
l-584 -1044q124 -70 273 -70z" />
    <glyph glyph-name="Ugrave" unicode="&#xd9;" horiz-adv-x="1554" 
d="M672 1706l176 -201q10 -12 4 -28t-20 -19.5t-31 10.5l-185 187q-16 19 -7.5 38.5t27.5 23t36 -10.5zM1303 567v701q0 16 10 25.5t24 9.5q13 0 23 -9.5t10 -23.5v-703q0 -141 -50.5 -255.5t-134.5 -185.5t-188 -108.5t-217 -37.5q-114 0 -218.5 37.5t-188.5 108.5
t-134.5 185.5t-50.5 255.5v703q0 14 10 23.5t23 9.5t23 -9.5t10 -25.5v-701q0 -125 44.5 -226t119.5 -163.5t167.5 -95.5t192.5 -33t192.5 33t167.5 95.5t120 163.5t45 226z" />
    <glyph glyph-name="Uacute" unicode="&#xda;" horiz-adv-x="1554" 
d="M895 1696q14 16 35 10.5t28 -23t-8 -38.5l-184 -187q-15 -15 -31 -10.5t-20 19.5t4 28zM1303 567v701q0 16 10 25.5t24 9.5q13 0 23 -9.5t10 -23.5v-703q0 -141 -50.5 -255.5t-134.5 -185.5t-188 -108.5t-217 -37.5q-114 0 -218.5 37.5t-188.5 108.5t-134.5 185.5
t-50.5 255.5v703q0 14 10 23.5t23 9.5t23 -9.5t10 -25.5v-701q0 -125 44.5 -226t119.5 -163.5t167.5 -95.5t192.5 -33t192.5 33t167.5 95.5t120 163.5t45 226z" />
    <glyph glyph-name="Ucircumflex" unicode="&#xdb;" horiz-adv-x="1554" 
d="M1012 1501q15 -13 11.5 -30t-18 -21.5t-32.5 8.5l-195 170l-194 -170q-16 -15 -32.5 -9t-18 22t11.5 30l209 185q15 14 23.5 14t25.5 -14zM1303 567v701q0 16 10 25.5t24 9.5q13 0 23 -9.5t10 -23.5v-703q0 -141 -50.5 -255.5t-134.5 -185.5t-188 -108.5t-217 -37.5
q-114 0 -218.5 37.5t-188.5 108.5t-134.5 185.5t-50.5 255.5v703q0 14 10 23.5t23 9.5t23 -9.5t10 -25.5v-701q0 -125 44.5 -226t119.5 -163.5t167.5 -95.5t192.5 -33t192.5 33t167.5 95.5t120 163.5t45 226z" />
    <glyph glyph-name="Udieresis" unicode="&#xdc;" horiz-adv-x="1554" 
d="M582 1634q22 0 41.5 -17.5t19.5 -43.5q0 -31 -19 -47.5t-42 -16.5q-27 0 -45.5 17.5t-18.5 46.5q0 27 18.5 44t45.5 17zM975 1634q26 0 44.5 -17t18.5 -44q0 -32 -18 -48t-45 -16q-23 0 -42.5 18t-19.5 46q0 26 19.5 43.5t42.5 17.5zM1303 567v701q0 16 10 25.5t24 9.5
q13 0 23 -9.5t10 -23.5v-703q0 -141 -50.5 -255.5t-134.5 -185.5t-188 -108.5t-217 -37.5q-114 0 -218.5 37.5t-188.5 108.5t-134.5 185.5t-50.5 255.5v703q0 14 10 23.5t23 9.5t23 -9.5t10 -25.5v-701q0 -125 44.5 -226t119.5 -163.5t167.5 -95.5t192.5 -33t192.5 33
t167.5 95.5t120 163.5t45 226z" />
    <glyph glyph-name="Yacute" unicode="&#xdd;" horiz-adv-x="1263" 
d="M737 1710q13 17 34.5 13.5t29.5 -20t-4 -38.5l-168 -203q-8 -10 -18 -12.5t-17 1.5t-13 11t-6 16t5 17zM596 530l-537 715q-17 22 -10 40t29 18q19 0 33 -17l520 -698l518 698q14 17 33 17q21 0 27.5 -18t-9.5 -40l-534 -715v-491q0 -19 -10.5 -29t-24.5 -10
q-15 0 -25 10t-10 29v491z" />
    <glyph glyph-name="Thorn" unicode="&#xde;" horiz-adv-x="1298" 
d="M188 1270q0 14 10 23.5t23 9.5q14 0 24.5 -9.5t10.5 -25.5v-166h432q125 0 226.5 -40t165 -106.5t97 -148.5t33.5 -170q0 -91 -32.5 -168.5t-95.5 -137.5t-163.5 -94t-228.5 -34h-434v-168q0 -16 -10.5 -25.5t-24.5 -9.5q-13 0 -23 9.5t-10 23.5v1237zM256 266h434
q114 0 203 31t141.5 83t79.5 115.5t27 133.5q0 78 -31 150.5t-87 130.5t-143 93t-190 35h-434v-772z" />
    <glyph glyph-name="germandbls" unicode="&#xdf;" horiz-adv-x="1144" 
d="M236 987v-1319q0 -25 -17.5 -34t-35 1.5t-17.5 32.5v1319q0 78 23.5 138.5t61.5 97t90 60t103 32t107 8.5q57 0 110 -9.5t107 -33.5t93.5 -61t64 -96.5t24.5 -135.5q0 -101 -54.5 -180t-150.5 -109q138 -28 221 -109.5t83 -217.5q0 -84 -30.5 -150t-80 -106.5t-118.5 -67
t-140.5 -37t-151.5 -10.5h-157q-23 0 -32 15t0.5 30.5t31.5 15.5h157q70 0 130 8t120.5 29t103 54.5t69 89.5t26.5 129q0 97 -52.5 161.5t-136 91.5t-194.5 27h-219q-21 0 -30 16.5t0 33t30 16.5h110q110 0 196.5 27t142 89.5t55.5 153.5q0 77 -31 133t-82 85.5t-105 43
t-112 13.5q-59 0 -110.5 -13t-99 -42t-75.5 -85.5t-28 -134.5z" />
    <glyph glyph-name="agrave" unicode="&#xe0;" horiz-adv-x="1261" 
d="M532 1470l158 -215q9 -13 2 -28t-21.5 -17t-29.5 13l-168 202q-15 20 -4.5 38.5t29.5 20t34 -13.5zM629 1063q142 0 245.5 -68.5t149.5 -193.5v205q0 36 35 36q37 0 37 -36v-969q0 -37 -37 -37q-35 0 -35 37v196q-46 -124 -153.5 -188.5t-249.5 -64.5q-106 0 -201.5 38.5
t-168 108.5t-114 178.5t-37.5 239.5q4 123 50 223.5t120.5 163.5t166.5 97t192 34zM1024 428v178q0 91 -32 165.5t-87 122t-126 73t-150 24.5q-138 -1 -242 -62t-157.5 -160t-57.5 -222q-7 -212 118 -354t314 -142q80 0 154 24t134 69t96 118.5t36 165.5z" />
    <glyph glyph-name="aacute" unicode="&#xe1;" horiz-adv-x="1261" 
d="M735 1470q13 17 34.5 13.5t29.5 -20t-4 -38.5l-168 -202q-13 -16 -29.5 -13t-21.5 17t2 28zM629 1063q142 0 245.5 -68.5t149.5 -193.5v205q0 36 35 36q37 0 37 -36v-969q0 -37 -37 -37q-35 0 -35 37v196q-46 -124 -153.5 -188.5t-249.5 -64.5q-106 0 -201.5 38.5
t-168 108.5t-114 178.5t-37.5 239.5q4 123 50 223.5t120.5 163.5t166.5 97t192 34zM1024 428v178q0 91 -32 165.5t-87 122t-126 73t-150 24.5q-138 -1 -242 -62t-157.5 -160t-57.5 -222q-7 -212 118 -354t314 -142q80 0 154 24t134 69t96 118.5t36 165.5z" />
    <glyph glyph-name="acircumflex" unicode="&#xe2;" horiz-adv-x="1261" 
d="M872 1253q17 -17 0 -35q-17 -19 -41 -3q-4 2 -8 6l-194 190l-195 -190q-23 -23 -45 -6q-18 15 -8 33q2 3 4 5l219 215q14 14 24 14.5t25 -14.5zM629 1063q142 0 245.5 -68.5t149.5 -193.5v205q0 36 35 36q37 0 37 -36v-969q0 -37 -37 -37q-35 0 -35 37v196
q-46 -124 -153.5 -188.5t-249.5 -64.5q-106 0 -201.5 38.5t-168 108.5t-114 178.5t-37.5 239.5q4 123 50 223.5t120.5 163.5t166.5 97t192 34zM1024 428v178q0 91 -32 165.5t-87 122t-126 73t-150 24.5q-138 -1 -242 -62t-157.5 -160t-57.5 -222q-7 -212 118 -354t314 -142
q80 0 154 24t134 69t96 118.5t36 165.5z" />
    <glyph glyph-name="atilde" unicode="&#xe3;" horiz-adv-x="1261" 
d="M360 1327q38 117 148 117q33 0 69.5 -23.5t63 -51.5t60.5 -51.5t63 -23.5q27 0 48 9.5t34.5 27.5t21 32.5t15.5 35.5q9 24 29.5 20t19.5 -30q-1 -11 -6 -23q-25 -56 -63.5 -90.5t-104.5 -34.5q-28 0 -56.5 15.5t-53 37.5t-47.5 44.5t-47 38t-44 16.5q-42 1 -64.5 -21
t-33.5 -67q-5 -20 -27.5 -19t-26.5 22q-1 9 2 19zM629 1063q142 0 245.5 -68.5t149.5 -193.5v205q0 36 35 36q37 0 37 -36v-969q0 -37 -37 -37q-35 0 -35 37v196q-46 -124 -153.5 -188.5t-249.5 -64.5q-106 0 -201.5 38.5t-168 108.5t-114 178.5t-37.5 239.5q4 123 50 223.5
t120.5 163.5t166.5 97t192 34zM1024 428v178q0 91 -32 165.5t-87 122t-126 73t-150 24.5q-138 -1 -242 -62t-157.5 -160t-57.5 -222q-7 -212 118 -354t314 -142q80 0 154 24t134 69t96 118.5t36 165.5z" />
    <glyph glyph-name="adieresis" unicode="&#xe4;" horiz-adv-x="1261" 
d="M422 1395q22 0 41.5 -18t19.5 -44q0 -31 -19 -47t-42 -16q-27 0 -45.5 17.5t-18.5 45.5q0 27 18.5 44.5t45.5 17.5zM815 1395q26 0 45 -17.5t19 -44.5q0 -32 -18.5 -47.5t-45.5 -15.5q-23 0 -42 17.5t-19 45.5q0 27 19 44.5t42 17.5zM629 1063q142 0 245.5 -68.5
t149.5 -193.5v205q0 36 35 36q37 0 37 -36v-969q0 -37 -37 -37q-35 0 -35 37v196q-46 -124 -153.5 -188.5t-249.5 -64.5q-106 0 -201.5 38.5t-168 108.5t-114 178.5t-37.5 239.5q4 123 50 223.5t120.5 163.5t166.5 97t192 34zM1024 428v178q0 91 -32 165.5t-87 122t-126 73
t-150 24.5q-138 -1 -242 -62t-157.5 -160t-57.5 -222q-7 -212 118 -354t314 -142q80 0 154 24t134 69t96 118.5t36 165.5z" />
    <glyph glyph-name="aring" unicode="&#xe5;" horiz-adv-x="1261" 
d="M629 1495q62 0 104.5 -42t42.5 -103q0 -63 -42.5 -105.5t-104.5 -42.5q-63 0 -106.5 42.5t-43.5 105.5q0 61 43.5 103t106.5 42zM629 1436q-37 0 -63.5 -25.5t-26.5 -60.5q0 -37 26.5 -62.5t63.5 -25.5q36 0 62 26t26 62q0 35 -26.5 60.5t-61.5 25.5zM629 1063
q142 0 245.5 -68.5t149.5 -193.5v205q0 36 35 36q37 0 37 -36v-969q0 -37 -37 -37q-35 0 -35 37v196q-46 -124 -153.5 -188.5t-249.5 -64.5q-106 0 -201.5 38.5t-168 108.5t-114 178.5t-37.5 239.5q4 123 50 223.5t120.5 163.5t166.5 97t192 34zM1024 428v178
q0 91 -32 165.5t-87 122t-126 73t-150 24.5q-138 -1 -242 -62t-157.5 -160t-57.5 -222q-7 -212 118 -354t314 -142q80 0 154 24t134 69t96 118.5t36 165.5z" />
    <glyph glyph-name="ae" unicode="&#xe6;" horiz-adv-x="2187" 
d="M612 1063q146 0 257 -67t159 -195v205q0 18 10 27t23 9t23 -9t10 -27v-205q77 136 199.5 199t262.5 63q82 0 158.5 -20.5t143.5 -64.5t117 -106.5t80 -152t32 -195.5q2 -27 -12.5 -47t-51.5 -20h-927q21 -174 151.5 -291t317.5 -117q176 0 311 103q13 10 27 10
q16 0 26.5 -11t7.5 -28q-5 -14 -14 -23q-129 -120 -352 -120q-148 0 -279 70.5t-198 197.5v-211q0 -18 -10 -27.5t-23 -9.5t-23 9.5t-10 27.5v196q-46 -124 -155 -188.5t-252 -64.5q-102 0 -196 38t-166.5 106.5t-115.5 173t-43 228.5q0 123 41.5 225.5t112.5 170
t163.5 104.5t194.5 37zM1028 428v178q-10 180 -122 280t-277 105q-107 1 -195 -36t-144.5 -102.5t-87 -150.5t-30.5 -180q0 -102 34.5 -188.5t93.5 -146t137 -95t167 -41.5q109 -3 202 39.5t154 130.5t68 207zM1094 539v-15h923q-2 94 -28.5 172.5t-70.5 132.5t-102.5 91.5
t-122.5 55t-132 17.5q-89 0 -171 -30.5t-146.5 -86.5t-105 -143t-44.5 -194z" />
    <glyph glyph-name="ccedilla" unicode="&#xe7;" horiz-adv-x="1087" 
d="M989 225q31 3 41 -32q0 -21 -8 -29q-67 -84 -164 -131t-205 -53l-55 -103q76 12 131 -28t55 -111q0 -77 -61 -120t-143 -35.5t-138 63.5q-20 20 -8 40q13 23 44 5q5 -3 11 -8q37 -29 79.5 -38.5t75 -0.5t54.5 32.5t23 55.5q1 33 -13 55.5t-35 30t-44 10.5t-41 -2
q-35 -6 -45 9.5t4 43.5l47 101q-221 10 -360.5 162t-139.5 376q0 244 146 394.5t393 150.5q215 0 368 -176q9 -12 9 -21q2 -15 -6.5 -27.5t-24.5 -13.5q-21 -3 -33 15q-134 155 -332 155q-90 0 -170.5 -33t-142 -92.5t-97.5 -151.5t-36 -202q0 -202 127.5 -334.5
t327.5 -132.5q99 0 189.5 41t152.5 119q10 13 24 16z" />
    <glyph glyph-name="egrave" unicode="&#xe8;" horiz-adv-x="1267" 
d="M539 1450l157 -215q9 -13 2 -28.5t-21.5 -17.5t-29.5 13l-168 203q-15 20 -4.5 38.5t30 20t34.5 -13.5zM1163 524q2 -27 -12 -47t-51 -20h-922q21 -170 146 -287.5t307 -120.5q180 -3 321 105q29 22 52 -0.5t-5 -51.5q-134 -125 -362 -122q-159 2 -285 79t-192 209
t-58 291q6 122 54.5 220.5t124.5 159t166.5 92.5t185.5 32q103 0 196 -33.5t167.5 -98t119.5 -170t47 -237.5zM176 524h918q-2 117 -42.5 209.5t-106 147.5t-144.5 83.5t-164 28.5q-92 0 -175 -32.5t-146.5 -91t-101 -148t-38.5 -197.5z" />
    <glyph glyph-name="eacute" unicode="&#xe9;" horiz-adv-x="1267" 
d="M741 1450q13 17 34.5 13.5t29.5 -20t-4 -38.5l-168 -203q-8 -10 -18 -12.5t-17 1.5t-13 11t-6 16t5 17zM1163 524q2 -27 -12 -47t-51 -20h-922q21 -170 146 -287.5t307 -120.5q180 -3 321 105q29 22 52 -0.5t-5 -51.5q-134 -125 -362 -122q-159 2 -285 79t-192 209
t-58 291q6 122 54.5 220.5t124.5 159t166.5 92.5t185.5 32q103 0 196 -33.5t167.5 -98t119.5 -170t47 -237.5zM176 524h918q-2 117 -42.5 209.5t-106 147.5t-144.5 83.5t-164 28.5q-92 0 -175 -32.5t-146.5 -91t-101 -148t-38.5 -197.5z" />
    <glyph glyph-name="ecircumflex" unicode="&#xea;" horiz-adv-x="1267" 
d="M879 1233q17 -17 1 -35q-18 -20 -42 -5q-5 3 -9 7l-194 191l-195 -191q-23 -23 -45 -5q-18 15 -8 33q2 3 4 5l219 215q14 14 24 14.5t25 -14.5zM1163 524q2 -27 -12 -47t-51 -20h-922q21 -170 146 -287.5t307 -120.5q180 -3 321 105q29 22 52 -0.5t-5 -51.5
q-134 -125 -362 -122q-159 2 -285 79t-192 209t-58 291q6 122 54.5 220.5t124.5 159t166.5 92.5t185.5 32q103 0 196 -33.5t167.5 -98t119.5 -170t47 -237.5zM176 524h918q-2 117 -42.5 209.5t-106 147.5t-144.5 83.5t-164 28.5q-92 0 -175 -32.5t-146.5 -91t-101 -148
t-38.5 -197.5z" />
    <glyph glyph-name="edieresis" unicode="&#xeb;" horiz-adv-x="1267" 
d="M428 1374q22 0 41.5 -17.5t19.5 -43.5q0 -31 -19 -47.5t-42 -16.5q-27 0 -45 17.5t-18 46.5q0 27 18 44t45 17zM821 1374q26 0 45 -17t19 -44q0 -32 -18.5 -48t-45.5 -16q-23 0 -42 18t-19 46q0 26 19 43.5t42 17.5zM1163 524q2 -27 -12 -47t-51 -20h-922
q21 -170 146 -287.5t307 -120.5q180 -3 321 105q29 22 52 -0.5t-5 -51.5q-134 -125 -362 -122q-159 2 -285 79t-192 209t-58 291q6 122 54.5 220.5t124.5 159t166.5 92.5t185.5 32q103 0 196 -33.5t167.5 -98t119.5 -170t47 -237.5zM176 524h918q-2 117 -42.5 209.5
t-106 147.5t-144.5 83.5t-164 28.5q-92 0 -175 -32.5t-146.5 -91t-101 -148t-38.5 -197.5z" />
    <glyph glyph-name="igrave" unicode="&#xec;" horiz-adv-x="401" 
d="M109 1450l157 -215q9 -13 2 -28.5t-21.5 -17.5t-29.5 13l-168 203q-15 20 -4.5 38.5t30 20t34.5 -13.5zM168 1006q0 18 11 27t26 9q13 0 24 -9t11 -25v-971q0 -17 -11 -27t-24 -10q-15 0 -26 9.5t-11 27.5v969z" />
    <glyph glyph-name="iacute" unicode="&#xed;" horiz-adv-x="401" 
d="M311 1450q13 17 34.5 13.5t29.5 -20t-4 -38.5l-168 -203q-8 -10 -18 -12.5t-17 1.5t-13 11t-6 16t5 17zM168 1006q0 18 11 27t26 9q13 0 24 -9t11 -25v-971q0 -17 -11 -27t-24 -10q-15 0 -26 9.5t-11 27.5v969z" />
    <glyph glyph-name="icircumflex" unicode="&#xee;" horiz-adv-x="401" 
d="M387 1233q10 -14 2.5 -30t-22 -18t-29.5 15l-133 191l-133 -191q-13 -18 -29 -14.5t-21.5 18.5t1.5 29l157 215q26 33 49 0zM168 1006q0 18 11 27t26 9q13 0 24 -9t11 -25v-971q0 -17 -11 -27t-24 -10q-15 0 -26 9.5t-11 27.5v969z" />
    <glyph glyph-name="idieresis" unicode="&#xef;" horiz-adv-x="401" 
d="M59 1374q22 0 42 -17.5t20 -43.5q0 -31 -19.5 -47.5t-42.5 -16.5q-27 0 -45 17.5t-18 46.5q0 27 18 44t45 17zM330 1374q26 0 44.5 -17t18.5 -44q0 -32 -18 -48t-45 -16q-23 0 -42.5 18t-19.5 46q0 26 19.5 43.5t42.5 17.5zM168 1006q0 18 11 27t26 9q13 0 24 -9t11 -25
v-971q0 -17 -11 -27t-24 -10q-15 0 -26 9.5t-11 27.5v969z" />
    <glyph glyph-name="eth" unicode="&#xf0;" horiz-adv-x="1187" 
d="M934 1411q16 17 35 14t23.5 -19t-9.5 -34l-84 -90q137 -119 158 -303q5 -34 7 -72.5t2 -65t-0.5 -73t-0.5 -68.5v-297q-2 -109 -54 -203t-149 -153q-105 -67 -254 -67q-168 0 -286 81q-162 105 -220 301.5t19 374.5q37 88 105 152.5t148 97.5t171 38t174.5 -19t158 -80.5
t121.5 -139.5q0 132 -8 187q-22 160 -137 258l-106 -117q-16 -17 -35.5 -13t-24.5 20t10 34l105 115l-8 6q-133 77 -294.5 56.5t-271.5 -130.5q-29 -26 -52 -3t3 52q127 127 326 150q190 16 342 -80q0 -2 2 -2zM186 709q-59 -146 -18 -312q49 -181 190 -274q116 -78 250 -78
q117 0 221 61q77 45 122 125.5t48 171.5v222q-19 94 -77 167t-135 112.5t-167.5 49t-173.5 -12.5t-153.5 -82t-106.5 -150z" />
    <glyph glyph-name="ntilde" unicode="&#xf1;" horiz-adv-x="1320" 
d="M412 1327q38 117 147 117q33 0 69.5 -23.5t63 -51.5t60.5 -51.5t63 -23.5q27 0 48 9.5t34.5 27.5t21 32.5t15.5 35.5q9 24 29.5 20t19.5 -30q-1 -11 -6 -23q-25 -56 -63.5 -90.5t-104.5 -34.5q-28 0 -56.5 15.5t-53 37.5t-47.5 44.5t-47 38t-44 16.5q-42 1 -64.5 -21
t-33.5 -67q-5 -20 -28 -19q-22 1 -25 22q-1 9 2 19zM1087 608q0 166 -114.5 275.5t-272.5 109.5q-78 0 -158.5 -33.5t-148 -93t-110.5 -153t-43 -201.5v-475q0 -37 -35 -37q-37 0 -37 37v971q0 14 10 24t27 10q35 0 35 -36v-279q24 87 76 154t117.5 105.5t134 57.5t134.5 19
q88 0 169.5 -30.5t146 -86.5t103 -144t38.5 -194v-585q0 -37 -35 -37q-37 0 -37 37v585z" />
    <glyph glyph-name="ograve" unicode="&#xf2;" horiz-adv-x="1261" 
d="M532 1470l158 -215q9 -13 2 -28t-21.5 -17t-29.5 13l-168 202q-15 20 -4.5 38.5t29.5 20t34 -13.5zM631 -20q-122 0 -228 46.5t-180 135.5q-135 164 -123 397q14 170 114 305.5t261 179.5q74 19 156 19q72 0 153 -19q161 -44 262 -179.5t115 -305.5q12 -233 -123 -397
q-75 -89 -180 -135.5t-227 -46.5zM762 975q-66 16 -133 16q-63 0 -129 -16q-115 -30 -196.5 -120.5t-111.5 -201t-8.5 -233t97.5 -213.5q63 -75 155 -116.5t195 -41.5q104 0 197.5 41.5t156.5 116.5q76 91 97 213.5t-10 233t-113 201t-197 120.5z" />
    <glyph glyph-name="oacute" unicode="&#xf3;" horiz-adv-x="1261" 
d="M735 1470q13 17 34.5 13.5t29.5 -20t-4 -38.5l-168 -202q-13 -16 -29.5 -13t-21.5 17t2 28zM631 -20q-122 0 -228 46.5t-180 135.5q-135 164 -123 397q14 170 114 305.5t261 179.5q74 19 156 19q72 0 153 -19q161 -44 262 -179.5t115 -305.5q12 -233 -123 -397
q-75 -89 -180 -135.5t-227 -46.5zM762 975q-66 16 -133 16q-63 0 -129 -16q-115 -30 -196.5 -120.5t-111.5 -201t-8.5 -233t97.5 -213.5q63 -75 155 -116.5t195 -41.5q104 0 197.5 41.5t156.5 116.5q76 91 97 213.5t-10 233t-113 201t-197 120.5z" />
    <glyph glyph-name="ocircumflex" unicode="&#xf4;" horiz-adv-x="1261" 
d="M872 1253q17 -17 0 -35q-17 -19 -41 -3q-4 2 -8 6l-194 190l-195 -190q-23 -23 -45 -6q-18 15 -8 33q2 3 4 5l219 215q14 14 24 14.5t25 -14.5zM631 -20q-122 0 -228 46.5t-180 135.5q-135 164 -123 397q14 170 114 305.5t261 179.5q74 19 156 19q72 0 153 -19
q161 -44 262 -179.5t115 -305.5q12 -233 -123 -397q-75 -89 -180 -135.5t-227 -46.5zM762 975q-66 16 -133 16q-63 0 -129 -16q-115 -30 -196.5 -120.5t-111.5 -201t-8.5 -233t97.5 -213.5q63 -75 155 -116.5t195 -41.5q104 0 197.5 41.5t156.5 116.5q76 91 97 213.5
t-10 233t-113 201t-197 120.5z" />
    <glyph glyph-name="otilde" unicode="&#xf5;" horiz-adv-x="1261" 
d="M360 1327q38 117 148 117q33 0 69.5 -23.5t63 -51.5t60.5 -51.5t63 -23.5q27 0 48 9.5t34.5 27.5t21 32.5t15.5 35.5q9 24 29.5 20t19.5 -30q-1 -11 -6 -23q-25 -56 -63.5 -90.5t-104.5 -34.5q-28 0 -56.5 15.5t-53 37.5t-47.5 44.5t-47 38t-44 16.5q-42 1 -64.5 -21
t-33.5 -67q-5 -20 -27.5 -19t-26.5 22q-1 9 2 19zM631 -20q-122 0 -228 46.5t-180 135.5q-135 164 -123 397q14 170 114 305.5t261 179.5q74 19 156 19q72 0 153 -19q161 -44 262 -179.5t115 -305.5q12 -233 -123 -397q-75 -89 -180 -135.5t-227 -46.5zM762 975
q-66 16 -133 16q-63 0 -129 -16q-115 -30 -196.5 -120.5t-111.5 -201t-8.5 -233t97.5 -213.5q63 -75 155 -116.5t195 -41.5q104 0 197.5 41.5t156.5 116.5q76 91 97 213.5t-10 233t-113 201t-197 120.5z" />
    <glyph glyph-name="odieresis" unicode="&#xf6;" horiz-adv-x="1261" 
d="M422 1395q22 0 41.5 -18t19.5 -44q0 -31 -19 -47t-42 -16q-27 0 -45.5 17.5t-18.5 45.5q0 27 18.5 44.5t45.5 17.5zM815 1395q26 0 45 -17.5t19 -44.5q0 -32 -18.5 -47.5t-45.5 -15.5q-23 0 -42 17.5t-19 45.5q0 27 19 44.5t42 17.5zM631 -20q-122 0 -228 46.5
t-180 135.5q-135 164 -123 397q14 170 114 305.5t261 179.5q74 19 156 19q72 0 153 -19q161 -44 262 -179.5t115 -305.5q12 -233 -123 -397q-75 -89 -180 -135.5t-227 -46.5zM762 975q-66 16 -133 16q-63 0 -129 -16q-115 -30 -196.5 -120.5t-111.5 -201t-8.5 -233
t97.5 -213.5q63 -75 155 -116.5t195 -41.5q104 0 197.5 41.5t156.5 116.5q76 91 97 213.5t-10 233t-113 201t-197 120.5z" />
    <glyph glyph-name="divide" unicode="&#xf7;" horiz-adv-x="1060" 
d="M500 961q23 0 38 -15.5t15 -38.5t-15 -37t-38 -14t-37 14t-14 37q0 24 14 39t37 15zM135 600q-14 0 -24.5 10t-10.5 23t11 24t24 11h750q13 0 23 -10.5t10 -24.5q0 -33 -33 -33h-750zM500 434q23 0 38 -15t15 -38t-15 -38t-38 -15t-37 15t-14 38t14 38t37 15z" />
    <glyph glyph-name="oslash" unicode="&#xf8;" horiz-adv-x="1263" 
d="M924 983q119 -76 179 -206t60 -261q0 -151 -68 -273.5t-190 -192.5t-274 -70q-139 0 -250 57l-90 -158q-11 -20 -27 -20q-13 0 -19 13t3 32l90 157q-113 71 -175.5 190.5t-62.5 264.5q0 130 45.5 236t120.5 172.5t169.5 102.5t195.5 36q143 0 250 -55l90 155q9 19 26 19
q13 0 19.5 -12t-2.5 -31zM172 516q0 -129 53 -231.5t148 -163.5l471 821q-94 49 -217 49q-91 0 -174 -34t-145 -94t-99 -150.5t-37 -196.5zM629 49q200 0 330.5 135t130.5 332q0 130 -54 235t-149 167l-471 -822q92 -47 213 -47z" />
    <glyph glyph-name="ugrave" unicode="&#xf9;" horiz-adv-x="1323" 
d="M582 1470l157 -215q9 -13 2 -28t-21.5 -17t-29.5 13l-168 202q-15 20 -4.5 38.5t30 20t34.5 -13.5zM236 428q0 -162 115.5 -270.5t273.5 -108.5q78 0 158 33t147.5 92t110 151.5t42.5 200.5v480q0 36 35 36q37 0 37 -36v-971q0 -14 -10 -24.5t-27 -10.5q-35 0 -35 37v287
q-31 -114 -109 -194.5t-165.5 -115t-175.5 -34.5q-89 0 -172 29.5t-149.5 84t-107 141.5t-40.5 193v578q0 36 35 36q37 0 37 -36v-578z" />
    <glyph glyph-name="uacute" unicode="&#xfa;" horiz-adv-x="1323" 
d="M784 1470q13 17 34.5 13.5t29.5 -20t-4 -38.5l-168 -202q-13 -16 -29.5 -13t-21.5 17t2 28zM236 428q0 -162 115.5 -270.5t273.5 -108.5q78 0 158 33t147.5 92t110 151.5t42.5 200.5v480q0 36 35 36q37 0 37 -36v-971q0 -14 -10 -24.5t-27 -10.5q-35 0 -35 37v287
q-31 -114 -109 -194.5t-165.5 -115t-175.5 -34.5q-89 0 -172 29.5t-149.5 84t-107 141.5t-40.5 193v578q0 36 35 36q37 0 37 -36v-578z" />
    <glyph glyph-name="ucircumflex" unicode="&#xfb;" horiz-adv-x="1323" 
d="M922 1253q17 -17 1 -34q-18 -20 -42 -5q-5 3 -9 7l-194 190l-195 -190q-23 -23 -45 -6q-18 15 -8 33q2 3 4 5l219 215q14 14 24 14.5t25 -14.5zM236 428q0 -162 115.5 -270.5t273.5 -108.5q78 0 158 33t147.5 92t110 151.5t42.5 200.5v480q0 36 35 36q37 0 37 -36v-971
q0 -14 -10 -24.5t-27 -10.5q-35 0 -35 37v287q-31 -114 -109 -194.5t-165.5 -115t-175.5 -34.5q-89 0 -172 29.5t-149.5 84t-107 141.5t-40.5 193v578q0 36 35 36q37 0 37 -36v-578z" />
    <glyph glyph-name="udieresis" unicode="&#xfc;" horiz-adv-x="1323" 
d="M471 1395q22 0 41.5 -18t19.5 -44q0 -31 -19 -47t-42 -16q-27 0 -45 17t-18 46q0 27 18 44.5t45 17.5zM864 1395q26 0 45 -17.5t19 -44.5q0 -32 -18.5 -47.5t-45.5 -15.5q-23 0 -42 17.5t-19 45.5q0 27 19 44.5t42 17.5zM236 428q0 -162 115.5 -270.5t273.5 -108.5
q78 0 158 33t147.5 92t110 151.5t42.5 200.5v480q0 36 35 36q37 0 37 -36v-971q0 -14 -10 -24.5t-27 -10.5q-35 0 -35 37v287q-31 -114 -109 -194.5t-165.5 -115t-175.5 -34.5q-89 0 -172 29.5t-149.5 84t-107 141.5t-40.5 193v578q0 36 35 36q37 0 37 -36v-578z" />
    <glyph glyph-name="yacute" unicode="&#xfd;" horiz-adv-x="1144" 
d="M690 1450q13 17 34.5 13.5t29.5 -20t-4 -38.5l-168 -203q-13 -16 -29.5 -13t-22 17.5t1.5 28.5zM47 995q-8 19 4 33t31 14q21 0 35 -22l461 -914l450 910q12 26 37 26q20 0 31.5 -15t1.5 -36l-690 -1362q-14 -26 -33.5 -30t-30.5 12.5t-2 40.5l190 385z" />
    <glyph glyph-name="thorn" unicode="&#xfe;" horiz-adv-x="1267" 
d="M1161 526q0 -177 -83.5 -313t-241.5 -201q-75 -32 -195 -32q-138 0 -248.5 64t-154.5 181v-575q0 -35 -37 -35q-14 0 -24.5 9.5t-10.5 25.5v1753q0 37 37 37q35 0 35 -37v-592q51 121 162.5 186.5t248.5 65.5q102 0 194.5 -37t163.5 -104.5t112.5 -170t41.5 -225.5z
M451 96q105 -48 206 -45q152 10 252 86q181 143 181 385q0 129 -53.5 234.5t-159 169.5t-244.5 65q-167 1 -275.5 -110t-119.5 -275v-178q12 -234 213 -332z" />
    <glyph glyph-name="ydieresis" unicode="&#xff;" horiz-adv-x="1144" 
d="M377 1374q22 0 41.5 -17.5t19.5 -43.5q0 -31 -19 -47.5t-42 -16.5q-27 0 -45.5 17.5t-18.5 46.5q0 27 18.5 44t45.5 17zM770 1374q26 0 45 -17t19 -44q0 -32 -18.5 -48t-45.5 -16q-23 0 -42 18t-19 46q0 26 19 43.5t42 17.5zM47 995q-8 19 4 33t31 14q21 0 35 -22
l461 -914l450 910q12 26 37 26q20 0 31.5 -15t1.5 -36l-690 -1362q-14 -26 -33.5 -30t-30.5 12.5t-2 40.5l190 385z" />
    <glyph glyph-name="Amacron" unicode="&#x100;" horiz-adv-x="1427" 
d="M883 1567q34 0 48 -16t0 -32t-48 -16h-367q-37 0 -51 16t1.5 32t49.5 16h367zM711 1339q19 0 28 -18l654 -1284q10 -21 -1 -36t-30 -15q-20 0 -29 18l-182 363h-881l-182 -363q-9 -18 -29 -18q-19 0 -29.5 15t-0.5 36l651 1284q9 18 31 18zM711 1239l-410 -811h817z" />
    <glyph glyph-name="amacron" unicode="&#x101;" horiz-adv-x="1261" 
d="M801 1327q34 0 48 -15.5t0 -31.5t-48 -16h-367q-37 0 -51 16t1.5 31.5t49.5 15.5h367zM629 1063q142 0 245.5 -68.5t149.5 -193.5v205q0 36 35 36q37 0 37 -36v-969q0 -37 -37 -37q-35 0 -35 37v196q-46 -124 -153.5 -188.5t-249.5 -64.5q-106 0 -201.5 38.5t-168 108.5
t-114 178.5t-37.5 239.5q4 123 50 223.5t120.5 163.5t166.5 97t192 34zM1024 428v178q0 91 -32 165.5t-87 122t-126 73t-150 24.5q-138 -1 -242 -62t-157.5 -160t-57.5 -222q-7 -212 118 -354t314 -142q80 0 154 24t134 69t96 118.5t36 165.5z" />
    <glyph glyph-name="Abreve" unicode="&#x102;" horiz-adv-x="1427" 
d="M866 1640q8 27 27 31.5t32 -10t7 -35.5q-27 -90 -78 -132t-141 -42t-141 42t-78 132q-6 21 7 35.5t31.5 10t26.5 -31.5q25 -71 60 -100t94 -27q59 -2 93.5 27t59.5 100zM711 1339q19 0 28 -18l654 -1284q10 -21 -1 -36t-30 -15q-20 0 -29 18l-182 363h-881l-182 -363
q-9 -18 -29 -18q-19 0 -29.5 15t-0.5 36l651 1284q9 18 31 18zM711 1239l-410 -811h817z" />
    <glyph glyph-name="abreve" unicode="&#x103;" horiz-adv-x="1261" 
d="M788 1403q8 27 27 31.5t32 -10t7 -35.5q-27 -93 -79 -136t-144 -43t-144 43t-79 136q-6 21 6.5 35.5t31 10t27.5 -31.5q26 -73 62 -102t96 -27q61 -2 97.5 27.5t59.5 101.5zM629 1063q142 0 245.5 -68.5t149.5 -193.5v205q0 36 35 36q37 0 37 -36v-969q0 -37 -37 -37
q-35 0 -35 37v196q-46 -124 -153.5 -188.5t-249.5 -64.5q-106 0 -201.5 38.5t-168 108.5t-114 178.5t-37.5 239.5q4 123 50 223.5t120.5 163.5t166.5 97t192 34zM1024 428v178q0 91 -32 165.5t-87 122t-126 73t-150 24.5q-138 -1 -242 -62t-157.5 -160t-57.5 -222
q-7 -212 118 -354t314 -142q80 0 154 24t134 69t96 118.5t36 165.5z" />
    <glyph glyph-name="Aogonek" unicode="&#x104;" horiz-adv-x="1427" 
d="M1403 -309q24 36 51 32q22 -3 17 -29q-2 -14 -13 -30q-30 -44 -61 -62.5t-82 -17.5q-63 1 -98 39t-35 103q0 49 28 107t54 91.5t67 81.5l-180 361h-881l-182 -363q-9 -18 -29 -18q-19 0 -29.5 15t-0.5 36l651 1284q9 18 31 18q19 0 28 -18l654 -1284q12 -23 -4 -39
q-2 -10 -17 -29q-129 -145 -127 -245q1 -45 30.5 -66.5t67 -12t60.5 45.5zM301 428h817l-407 811z" />
    <glyph glyph-name="aogonek" unicode="&#x105;" horiz-adv-x="1261" 
d="M1094 -309q24 36 51 32q22 -3 17 -29q-2 -14 -13 -30q-30 -44 -61 -62.5t-82 -17.5q-63 1 -98.5 39t-35.5 103q0 37 13.5 76.5t40.5 79.5t46 64t50 60l8 8q-6 9 -6 23v196q-46 -124 -153.5 -188.5t-249.5 -64.5q-106 0 -201.5 38.5t-168 108.5t-114 178.5t-37.5 239.5
q4 123 50 223.5t120.5 163.5t166.5 97t192 34q142 0 245.5 -68.5t149.5 -193.5v205q0 36 35 36q37 0 37 -36v-969q0 -20 -15 -31q-4 -21 -18 -37q-129 -145 -127 -245q1 -45 30.5 -66.5t67 -12t60.5 45.5zM1024 428v178q0 91 -32 165.5t-87 122t-126 73t-150 24.5
q-138 -1 -242 -62t-157.5 -160t-57.5 -222q-7 -212 118 -354t314 -142q80 0 154 24t134 69t96 118.5t36 165.5z" />
    <glyph glyph-name="Cacute" unicode="&#x106;" horiz-adv-x="1366" 
d="M913 1696q14 16 35 10.5t28 -23t-7 -38.5l-185 -187q-15 -15 -31 -10.5t-20 19.5t4 28zM797 1323q140 0 253.5 -46.5t213.5 -154.5q23 -27 -1 -46.5t-46 5.5q-80 86 -166.5 128t-177.5 46.5t-203 -8.5q-219 -35 -351.5 -185.5t-138.5 -391.5q-4 -128 43.5 -244.5
t129 -199t191.5 -131t228 -48.5q146 0 272 66q117 55 191 155q14 19 33 16.5t25.5 -19t-5.5 -36.5q-78 -111 -215 -178q-139 -71 -303 -71q-132 0 -254 53t-212 144t-141.5 221t-47.5 274q6 255 155.5 429.5t388.5 213.5q63 8 138 8z" />
    <glyph glyph-name="cacute" unicode="&#x107;" horiz-adv-x="1087" 
d="M717 1470q13 17 34 13.5t29.5 -20t-4.5 -38.5l-168 -202q-13 -16 -29.5 -13t-21.5 17t2 28zM946 840q-134 155 -332 155q-90 0 -170.5 -33t-142 -92.5t-97.5 -151.5t-36 -202q0 -202 127.5 -334.5t327.5 -132.5q99 0 189.5 41t152.5 119q10 13 24 16q31 3 41 -32
q0 -21 -8 -29q-72 -90 -178 -137t-223 -47q-231 0 -379 153.5t-148 384.5q0 244 146 394.5t393 150.5q215 0 368 -176q9 -12 9 -21q2 -15 -6.5 -27.5t-24.5 -13.5q-21 -3 -33 15z" />
    <glyph glyph-name="Cdotaccent" unicode="&#x10a;" horiz-adv-x="1366" 
d="M797 1647q26 0 49.5 -21.5t23.5 -52.5q0 -37 -22.5 -56.5t-50.5 -19.5q-31 0 -53.5 21.5t-22.5 54.5q0 32 22.5 53t53.5 21zM797 1323q140 0 253.5 -46.5t213.5 -154.5q23 -27 -1 -46.5t-46 5.5q-80 86 -166.5 128t-177.5 46.5t-203 -8.5q-219 -35 -351.5 -185.5
t-138.5 -391.5q-4 -128 43.5 -244.5t129 -199t191.5 -131t228 -48.5q146 0 272 66q117 55 191 155q14 19 33 16.5t25.5 -19t-5.5 -36.5q-78 -111 -215 -178q-139 -71 -303 -71q-132 0 -254 53t-212 144t-141.5 221t-47.5 274q6 255 155.5 429.5t388.5 213.5q63 8 138 8z" />
    <glyph glyph-name="cdotaccent" unicode="&#x10b;" horiz-adv-x="1087" 
d="M610 1407q27 0 50.5 -21.5t23.5 -52.5q0 -37 -23 -56.5t-51 -19.5q-31 0 -53 21.5t-22 54.5q0 32 22 53t53 21zM946 840q-134 155 -332 155q-90 0 -170.5 -33t-142 -92.5t-97.5 -151.5t-36 -202q0 -202 127.5 -334.5t327.5 -132.5q99 0 189.5 41t152.5 119q10 13 24 16
q31 3 41 -32q0 -21 -8 -29q-72 -90 -178 -137t-223 -47q-231 0 -379 153.5t-148 384.5q0 244 146 394.5t393 150.5q215 0 368 -176q9 -12 9 -21q2 -15 -6.5 -27.5t-24.5 -13.5q-21 -3 -33 15z" />
    <glyph glyph-name="Ccaron" unicode="&#x10c;" horiz-adv-x="1366" 
d="M1024 1647l-209 -185q-17 -14 -25.5 -14t-23.5 14l-209 185q-15 13 -11.5 30t18 21.5t32.5 -8.5l195 -170l194 170q16 15 32.5 9t18 -22t-11.5 -30zM797 1323q140 0 253.5 -46.5t213.5 -154.5q23 -27 -1 -46.5t-46 5.5q-80 86 -166.5 128t-177.5 46.5t-203 -8.5
q-219 -35 -351.5 -185.5t-138.5 -391.5q-4 -128 43.5 -244.5t129 -199t191.5 -131t228 -48.5q146 0 272 66q117 55 191 155q14 19 33 16.5t25.5 -19t-5.5 -36.5q-78 -111 -215 -178q-139 -71 -303 -71q-132 0 -254 53t-212 144t-141.5 221t-47.5 274q6 255 155.5 429.5
t388.5 213.5q63 8 138 8z" />
    <glyph glyph-name="ccaron" unicode="&#x10d;" horiz-adv-x="1087" 
d="M848 1438l-219 -215q-15 -15 -25 -14.5t-24 14.5l-220 215q-15 15 0 33q18 21 42 5q4 -2 8 -6l194 -190l195 190q23 23 46 6q19 -14 7 -33zM946 840q-134 155 -332 155q-90 0 -170.5 -33t-142 -92.5t-97.5 -151.5t-36 -202q0 -202 127.5 -334.5t327.5 -132.5
q99 0 189.5 41t152.5 119q10 13 24 16q31 3 41 -32q0 -21 -8 -29q-72 -90 -178 -137t-223 -47q-231 0 -379 153.5t-148 384.5q0 244 146 394.5t393 150.5q215 0 368 -176q9 -12 9 -21q2 -15 -6.5 -27.5t-24.5 -13.5q-21 -3 -33 15z" />
    <glyph glyph-name="Dcaron" unicode="&#x10e;" horiz-adv-x="1345" 
d="M877 1677l-220 -215q-15 -15 -25 -14.5t-24 14.5l-219 215q-16 16 0 34q19 21 42 5q4 -3 7 -6l195 -190l194 190q23 23 45 6q20 -14 10 -33q-2 -3 -5 -6zM639 0h-475q-23 0 -39 15.5t-16 37.5v1198q0 22 16 37t39 15h475q145 0 262.5 -56t190 -147.5t111.5 -208.5
t39 -239.5t-39 -239.5t-111.5 -208.5t-190 -147.5t-262.5 -56zM176 63h463q104 0 192.5 33t150.5 89.5t106 132t64.5 160t20.5 174.5t-20.5 174.5t-64.5 160t-106 132t-150.5 89.5t-192.5 33h-463v-1178z" />
    <glyph glyph-name="dcaron" unicode="&#x10f;" horiz-adv-x="1263" 
d="M416 1024q91 39 217 39q138 0 244.5 -67.5t150.5 -186.5v494q0 36 35 36q37 0 37 -36v-1276q0 -37 -37 -37q-35 0 -35 37v202q-41 -109 -149 -180q-117 -69 -254 -69q-106 0 -195 38q-163 66 -247 205t-79 322q5 160 87.5 292t224.5 187zM1214 1085q-13 -39 -39 -45
q-20 -5 -23 16q-1 10 3 23l64 215q11 38 35 39q21 1 28 -24q4 -18 -4 -41zM815 96q102 50 157.5 135.5t55.5 196.5v178q0 91 -32 164.5t-87 120t-125.5 72.5t-150.5 28q-138 2 -242 -59.5t-157.5 -161.5t-57.5 -223q-7 -210 116.5 -347t315.5 -149q102 -3 207 45z" />
    <glyph glyph-name="Dcroat" unicode="&#x110;" horiz-adv-x="1345" 
d="M639 1303q145 0 262.5 -56t190 -147.5t111.5 -208.5t39 -239.5t-39 -239.5t-111.5 -208.5t-190 -147.5t-262.5 -56h-475q-23 0 -39 15.5t-16 37.5v568h-117q-22 0 -30.5 12.5t1 25.5t29.5 13h117v579q0 22 16 37t39 15h475zM639 63q104 0 192.5 33t150.5 89.5t106 132
t64.5 160t20.5 174.5t-20.5 174.5t-64.5 160t-106 132t-150.5 89.5t-192.5 33h-463v-569h377q20 0 28.5 -13t0 -25.5t-28.5 -12.5h-377v-558h463z" />
    <glyph glyph-name="dcroat" unicode="&#x111;" horiz-adv-x="1263" 
d="M1180 1178q34 0 48 -16t0 -32t-48 -16h-80v-1087q0 -37 -37 -37q-35 0 -35 37v202q-41 -109 -149 -180q-117 -69 -254 -69q-106 0 -195 38q-163 66 -247 205t-79 322q5 160 87.5 292t224.5 187q91 39 217 39q138 0 244.5 -67.5t150.5 -186.5v305h-215q-37 0 -51 16
t1.5 32t49.5 16h215v125q0 36 35 36q37 0 37 -36v-125h80zM1028 428v178q0 91 -32 164.5t-87 120t-125.5 72.5t-150.5 28q-138 2 -242 -59.5t-157.5 -161.5t-57.5 -223q-7 -210 116.5 -347t315.5 -149q102 -3 207 45q102 50 157.5 135.5t55.5 196.5z" />
    <glyph glyph-name="Emacron" unicode="&#x112;" horiz-adv-x="1308" 
d="M883 1567q34 0 48 -16t0 -32t-48 -16h-367q-37 0 -51 16t1.5 32t49.5 16h367zM256 66h905q20 0 28.5 -16.5t0 -33t-28.5 -16.5h-917q-24 0 -40 16t-16 39v1194q0 22 16 38t40 16h919q19 0 27 -15.5t-0.5 -31t-28.5 -15.5h-905v-565h864q20 0 28.5 -15.5t0 -31
t-28.5 -15.5h-864v-548z" />
    <glyph glyph-name="emacron" unicode="&#x113;" horiz-adv-x="1267" 
d="M807 1307q34 0 48 -16t0 -32t-48 -16h-367q-37 0 -51 16t1.5 32t49.5 16h367zM1163 524q2 -27 -12 -47t-51 -20h-922q21 -170 146 -287.5t307 -120.5q180 -3 321 105q29 22 52 -0.5t-5 -51.5q-134 -125 -362 -122q-159 2 -285 79t-192 209t-58 291q6 122 54.5 220.5
t124.5 159t166.5 92.5t185.5 32q103 0 196 -33.5t167.5 -98t119.5 -170t47 -237.5zM176 524h918q-2 117 -42.5 209.5t-106 147.5t-144.5 83.5t-164 28.5q-92 0 -175 -32.5t-146.5 -91t-101 -148t-38.5 -197.5z" />
    <glyph glyph-name="Edotaccent" unicode="&#x116;" horiz-adv-x="1308" 
d="M711 1647q26 0 49.5 -21.5t23.5 -52.5q0 -37 -22.5 -56.5t-50.5 -19.5q-31 0 -53.5 21.5t-22.5 54.5q0 32 22.5 53t53.5 21zM256 66h905q20 0 28.5 -16.5t0 -33t-28.5 -16.5h-917q-24 0 -40 16t-16 39v1194q0 22 16 38t40 16h919q19 0 27 -15.5t-0.5 -31t-28.5 -15.5
h-905v-565h864q20 0 28.5 -15.5t0 -31t-28.5 -15.5h-864v-548z" />
    <glyph glyph-name="edotaccent" unicode="&#x117;" horiz-adv-x="1267" 
d="M635 1386q27 0 50.5 -21t23.5 -52q0 -37 -23 -56.5t-51 -19.5q-31 0 -53.5 21.5t-22.5 54.5q0 32 22.5 52.5t53.5 20.5zM1163 524q2 -27 -12 -47t-51 -20h-922q21 -170 146 -287.5t307 -120.5q180 -3 321 105q29 22 52 -0.5t-5 -51.5q-134 -125 -362 -122q-159 2 -285 79
t-192 209t-58 291q6 122 54.5 220.5t124.5 159t166.5 92.5t185.5 32q103 0 196 -33.5t167.5 -98t119.5 -170t47 -237.5zM176 524h918q-2 117 -42.5 209.5t-106 147.5t-144.5 83.5t-164 28.5q-92 0 -175 -32.5t-146.5 -91t-101 -148t-38.5 -197.5z" />
    <glyph glyph-name="Eogonek" unicode="&#x118;" horiz-adv-x="1308" 
d="M1202 -309q24 36 51 32q22 -3 17 -29q-2 -14 -13 -30q-30 -44 -61 -62.5t-82 -17.5q-63 1 -98 39t-35 103q0 109 143 274h-880q-24 0 -40 16t-16 39v1194q0 22 16 38t40 16h919q19 0 27 -15.5t-0.5 -31t-28.5 -15.5h-905v-565h864q20 0 28.5 -15.5t0 -31t-28.5 -15.5
h-864v-548h905q22 0 29.5 -18.5t-2.5 -33.5q7 -18 -17 -45q-129 -145 -127 -245q1 -45 30.5 -66.5t67 -12t60.5 45.5z" />
    <glyph glyph-name="eogonek" unicode="&#x119;" horiz-adv-x="1267" 
d="M1163 524q2 -27 -12 -47t-51 -20h-922q21 -170 146 -287.5t307 -120.5q180 -3 321 105q29 22 52 -0.5t-5 -51.5q-67 -60 -143 -86q7 -21 -16 -47q-129 -145 -127 -245q1 -45 30 -66.5t66.5 -12t60.5 45.5t50 33q23 -3 19 -28q-1 -15 -13 -32q-29 -44 -60.5 -62.5
t-83.5 -17.5q-63 1 -98 39t-35 103q0 46 25.5 101t50 89t63.5 80q-65 -16 -151 -16q-159 2 -285 79t-192 209t-58 291q6 122 54.5 220.5t124.5 159t166.5 92.5t185.5 32q103 0 196 -33.5t167.5 -98t119.5 -170t47 -237.5zM176 524h918q-2 117 -42.5 209.5t-106 147.5
t-144.5 83.5t-164 28.5q-92 0 -175 -32.5t-146.5 -91t-101 -148t-38.5 -197.5z" />
    <glyph glyph-name="Ecaron" unicode="&#x11a;" horiz-adv-x="1308" 
d="M938 1647l-209 -185q-17 -14 -25.5 -14t-23.5 14l-209 185q-15 13 -11.5 30t18 21.5t32.5 -8.5l195 -170l194 170q16 15 32.5 9t18 -22t-11.5 -30zM256 66h905q20 0 28.5 -16.5t0 -33t-28.5 -16.5h-917q-24 0 -40 16t-16 39v1194q0 22 16 38t40 16h919q19 0 27 -15.5
t-0.5 -31t-28.5 -15.5h-905v-565h864q20 0 28.5 -15.5t0 -31t-28.5 -15.5h-864v-548z" />
    <glyph glyph-name="ecaron" unicode="&#x11b;" horiz-adv-x="1267" 
d="M872 1417l-219 -215q-15 -15 -25 -14.5t-24 14.5l-219 215q-16 16 0 34q19 21 42 5q4 -3 7 -6l195 -190l194 190q23 23 46 6q19 -15 7 -34q-2 -3 -4 -5zM1163 524q2 -27 -12 -47t-51 -20h-922q21 -170 146 -287.5t307 -120.5q180 -3 321 105q29 22 52 -0.5t-5 -51.5
q-134 -125 -362 -122q-159 2 -285 79t-192 209t-58 291q6 122 54.5 220.5t124.5 159t166.5 92.5t185.5 32q103 0 196 -33.5t167.5 -98t119.5 -170t47 -237.5zM176 524h918q-2 117 -42.5 209.5t-106 147.5t-144.5 83.5t-164 28.5q-92 0 -175 -32.5t-146.5 -91t-101 -148
t-38.5 -197.5z" />
    <glyph glyph-name="Gbreve" unicode="&#x11e;" horiz-adv-x="1443" 
d="M905 1640q8 27 27 31.5t32 -10t7 -35.5q-27 -90 -78 -132t-141 -42t-141.5 42t-78.5 132q-6 21 7 35.5t32 10t27 -31.5q25 -71 60 -100t94 -27q59 -2 93.5 27t59.5 100zM1262 225q-89 -118 -228.5 -182.5t-290.5 -62.5q-130 1 -249.5 54t-207.5 142.5t-139 216.5t-47 269
q5 157 73.5 296t191.5 235.5t278 121.5q47 8 107 8q139 0 267.5 -47.5t211.5 -138.5q16 -18 9.5 -37t-24 -22t-34.5 12q-73 82 -186.5 123.5t-239.5 41.5q-35 0 -101 -8q-139 -22 -249.5 -109t-171.5 -212.5t-66 -266.5q-3 -125 43 -238.5t125 -194t186.5 -129t224.5 -50.5
q139 -2 267 57t202 168v342h-436q-18 0 -26 15.5t0 31t26 15.5h461q37 0 37 -39v-365q0 -33 -14 -47z" />
    <glyph glyph-name="gbreve" unicode="&#x11f;" horiz-adv-x="1265" 
d="M809 1403q8 27 26.5 31.5t31.5 -10t7 -35.5q-27 -93 -79 -136t-144 -43t-144 43t-79 136q-6 21 6.5 35.5t31.5 10t28 -31.5q26 -73 61.5 -102t95.5 -27q61 -2 98 27.5t60 101.5zM1102 33q0 -108 -38.5 -194t-107 -141.5t-158.5 -84.5t-196 -29q-123 0 -216 30t-173 105
q-28 29 -5 51.5t52 0.5q88 -67 163 -92t179 -25q86 0 162 23.5t136 69t95 119t35 167.5v190q-50 -117 -156.5 -180t-238.5 -63q-101 0 -193.5 33.5t-166.5 96t-119.5 160.5t-49.5 219q-5 184 79.5 326.5t246.5 208.5q91 39 195 39q132 0 254 -72q107 -71 149 -182v203
q0 37 35 37q37 0 37 -37v-979zM817 944q-103 50 -207 47q-144 -9 -252 -92q-190 -151 -180 -412q4 -123 57.5 -220.5t157.5 -156.5t242 -59q169 0 282 110.5t113 266.5v178q0 112 -55.5 200t-157.5 138z" />
    <glyph glyph-name="Gdotaccent" unicode="&#x120;" horiz-adv-x="1443" 
d="M750 1647q26 0 49.5 -21.5t23.5 -52.5q0 -37 -22.5 -56.5t-50.5 -19.5q-31 0 -53.5 21.5t-22.5 54.5q0 32 22.5 53t53.5 21zM1262 225q-89 -118 -228.5 -182.5t-290.5 -62.5q-130 1 -249.5 54t-207.5 142.5t-139 216.5t-47 269q5 157 73.5 296t191.5 235.5t278 121.5
q47 8 107 8q139 0 267.5 -47.5t211.5 -138.5q16 -18 9.5 -37t-24 -22t-34.5 12q-73 82 -186.5 123.5t-239.5 41.5q-35 0 -101 -8q-139 -22 -249.5 -109t-171.5 -212.5t-66 -266.5q-3 -125 43 -238.5t125 -194t186.5 -129t224.5 -50.5q139 -2 267 57t202 168v342h-436
q-18 0 -26 15.5t0 31t26 15.5h461q37 0 37 -39v-365q0 -33 -14 -47z" />
    <glyph glyph-name="gdotaccent" unicode="&#x121;" horiz-adv-x="1265" 
d="M649 1407q27 0 50.5 -21.5t23.5 -52.5q0 -37 -23 -56.5t-51 -19.5q-31 0 -53.5 21.5t-22.5 54.5q0 32 22.5 53t53.5 21zM1102 33q0 -108 -38.5 -194t-107 -141.5t-158.5 -84.5t-196 -29q-123 0 -216 30t-173 105q-28 29 -5 51.5t52 0.5q88 -67 163 -92t179 -25
q86 0 162 23.5t136 69t95 119t35 167.5v190q-50 -117 -156.5 -180t-238.5 -63q-101 0 -193.5 33.5t-166.5 96t-119.5 160.5t-49.5 219q-5 184 79.5 326.5t246.5 208.5q91 39 195 39q132 0 254 -72q107 -71 149 -182v203q0 37 35 37q37 0 37 -37v-979zM817 944
q-103 50 -207 47q-144 -9 -252 -92q-190 -151 -180 -412q4 -123 57.5 -220.5t157.5 -156.5t242 -59q169 0 282 110.5t113 266.5v178q0 112 -55.5 200t-157.5 138z" />
    <glyph glyph-name="uni0122" unicode="&#x122;" horiz-adv-x="1443" 
d="M1262 225q-89 -118 -228.5 -182.5t-290.5 -62.5q-130 1 -249.5 54t-207.5 142.5t-139 216.5t-47 269q5 157 73.5 296t191.5 235.5t278 121.5q47 8 107 8q139 0 267.5 -47.5t211.5 -138.5q16 -18 9.5 -37t-24 -22t-34.5 12q-73 82 -186.5 123.5t-239.5 41.5q-35 0 -101 -8
q-139 -22 -249.5 -109t-171.5 -212.5t-66 -266.5q-3 -125 43 -238.5t125 -194t186.5 -129t224.5 -50.5q139 -2 267 57t202 168v342h-436q-18 0 -26 15.5t0 31t26 15.5h461q37 0 37 -39v-365q0 -33 -14 -47zM713 -475q-13 -38 -39 -45q-20 -5 -23 16q-2 10 2 23l64 215
q11 38 35 39q21 1 27 -24q5 -19 -3 -42z" />
    <glyph glyph-name="uni0123" unicode="&#x123;" horiz-adv-x="1265" 
d="M680 1458q12 18 30 19t31 -15t4 -35l-98 -204q-11 -21 -31 -22.5t-32 14t-2 34.5zM1102 33q0 -108 -38.5 -194t-107 -141.5t-158.5 -84.5t-196 -29q-123 0 -216 30t-173 105q-28 29 -5 51.5t52 0.5q88 -67 163 -92t179 -25q86 0 162 23.5t136 69t95 119t35 167.5v190
q-50 -117 -156.5 -180t-238.5 -63q-101 0 -193.5 33.5t-166.5 96t-119.5 160.5t-49.5 219q-5 184 79.5 326.5t246.5 208.5q91 39 195 39q132 0 254 -72q107 -71 149 -182v203q0 37 35 37q37 0 37 -37v-979zM817 944q-103 50 -207 47q-144 -9 -252 -92q-190 -151 -180 -412
q4 -123 57.5 -220.5t157.5 -156.5t242 -59q169 0 282 110.5t113 266.5v178q0 112 -55.5 200t-157.5 138z" />
    <glyph glyph-name="Hbar" unicode="&#x126;" horiz-adv-x="1398" 
d="M1325 983q20 0 28.5 -12.5t0 -25.5t-28.5 -13h-115v-897q0 -16 -10 -25.5t-24 -9.5q-13 0 -24 9.5t-11 25.5v559l-889 2v-561q0 -16 -10 -25.5t-23 -9.5q-14 0 -24.5 9.5t-10.5 25.5v897h-112q-22 0 -30.5 13t1 25.5t29.5 12.5h112v281q0 19 10 29t25 10q13 0 23 -10
t10 -29v-281h889v281q0 19 10.5 29t24.5 10q15 0 24.5 -10t9.5 -29v-281h115zM1141 655v277h-889v-277h889z" />
    <glyph glyph-name="hbar" unicode="&#x127;" horiz-adv-x="1320" 
d="M702 1063q88 0 169.5 -30.5t146 -86.5t103 -144t38.5 -194v-571q0 -37 -35 -37q-37 0 -37 37v571q0 166 -114.5 275.5t-272.5 109.5q-78 0 -158.5 -33.5t-148 -93t-110.5 -153t-43 -201.5v-475q0 -37 -35 -37q-37 0 -37 37v1087h-66q-37 0 -51 16t1.5 32t49.5 16h66v117
q0 23 18 31.5t36 -1.5t18 -32v-115h229q34 0 48 -16t0 -32t-48 -16h-229v-397q24 87 76 154t117.5 105.5t134 57.5t134.5 19z" />
    <glyph glyph-name="Imacron" unicode="&#x12a;" horiz-adv-x="450" 
d="M397 1567q34 0 48 -16t0 -32t-48 -16h-366q-37 0 -51 16t1.5 32t49.5 16h366zM188 1264q0 19 11 29t26 10t26 -10t11 -29v-1229q0 -16 -11 -25.5t-26 -9.5t-26 9.5t-11 25.5v1229z" />
    <glyph glyph-name="imacron" unicode="&#x12b;" horiz-adv-x="401" 
d="M295 1307q34 0 48 -16t0 -32t-48 -16h-182q-37 0 -51 16t1.5 32t49.5 16h182zM168 1006q0 18 11 27t26 9q13 0 24 -9t11 -25v-971q0 -17 -11 -27t-24 -10q-15 0 -26 9.5t-11 27.5v969z" />
    <glyph glyph-name="Iogonek" unicode="&#x12e;" horiz-adv-x="450" 
d="M262 -309q24 36 51 32q22 -3 17 -29q-2 -14 -13 -30q-30 -44 -61 -62.5t-82 -17.5q-63 1 -98 39t-35 103q0 49 28 107t54 91.5t67 81.5l7 6q-9 14 -9 23v1229q0 19 11 29t26 10t26 -10t11 -29v-1229q0 -15 -12 -27q0 -17 -19 -39q-129 -145 -127 -245q1 -45 30.5 -66.5
t67 -12t60.5 45.5z" />
    <glyph glyph-name="iogonek" unicode="&#x12f;" horiz-adv-x="401" 
d="M205 1223q-39 0 -39 32v33q0 16 11.5 25.5t27.5 9.5q15 0 26 -9.5t11 -25.5v-33q0 -16 -11 -24t-26 -8zM244 -309q24 36 51 32q22 -3 17 -29q-2 -14 -13 -30q-30 -44 -61 -62.5t-82 -17.5q-63 1 -98 39t-35 103q0 49 28 107t54 91.5t67 81.5q4 4 4 6q-8 12 -8 25v969
q0 18 11 27t26 9q13 0 24 -9t11 -25v-971q0 -11 -9 -25q0 -22 -18 -43q-129 -145 -127 -245q1 -45 30.5 -66.5t67 -12t60.5 45.5z" />
    <glyph glyph-name="Idotaccent" unicode="&#x130;" horiz-adv-x="450" 
d="M225 1647q27 0 50.5 -21.5t23.5 -52.5q0 -37 -23 -56.5t-51 -19.5q-31 0 -53 21.5t-22 54.5q0 32 22 53t53 21zM188 1264q0 19 11 29t26 10t26 -10t11 -29v-1229q0 -16 -11 -25.5t-26 -9.5t-26 9.5t-11 25.5v1229z" />
    <glyph glyph-name="dotlessi" unicode="&#x131;" horiz-adv-x="401" 
d="M168 1006q0 18 11 27t26 9q13 0 24 -9t11 -25v-971q0 -17 -11 -27t-24 -10q-15 0 -26 9.5t-11 27.5v969z" />
    <glyph glyph-name="IJ" unicode="&#x132;" horiz-adv-x="1636" 
d="M188 1264q0 19 11 29t26 10t26 -10t11 -29v-1229q0 -16 -11 -25.5t-26 -9.5t-26 9.5t-11 25.5v1229zM1389 1235h-463q-22 0 -31 17t0 34t31 17h491q12 0 21.5 -10.5t11.5 -24.5v-819q1 -131 -73 -240t-192.5 -169t-250.5 -60q-141 0 -260 71q-94 58 -150 151t-61 197
q0 19 17 29t34 2.5t18 -31.5q5 -87 52 -166t123 -124q104 -62 227 -62q115 0 219.5 52t170 145.5t65.5 204.5v786z" />
    <glyph glyph-name="ij" unicode="&#x133;" horiz-adv-x="831" 
d="M242 1255q0 -16 -11 -24t-26 -8q-39 0 -39 32v33q0 16 11.5 25.5t27.5 9.5q15 0 26 -9.5t11 -25.5v-33zM666 1255q0 -16 -11 -24t-26 -8q-39 0 -39 32v33q0 16 11.5 25.5t27.5 9.5q15 0 26 -9.5t11 -25.5v-33zM168 1006q0 18 11 27t26 9q13 0 24 -9t11 -25v-971
q0 -17 -11 -27t-24 -10q-15 0 -26 9.5t-11 27.5v969zM461 -391q-21 -8 -36 6t-12.5 33.5t23.5 27.5q26 16 47 33.5t36.5 35t27 36.5t19.5 39t13 42t7.5 45t4 48.5t1.5 52.5v57v31v912q0 14 10 24t27 10q14 0 24.5 -10.5t10.5 -23.5v-912q0 -56 -0.5 -84.5t-4.5 -78t-11 -78
t-22 -68.5t-36 -67t-53.5 -57t-75.5 -54z" />
    <glyph glyph-name="uni0136" unicode="&#x136;" horiz-adv-x="1284" 
d="M1116 1292q15 11 25 11q23 0 35 -20.5t-7 -37.5l-591 -524l634 -664q20 -19 9.5 -38t-33.5 -19q-13 0 -25 12l-635 666l-272 -242v-403q0 -14 -10 -23.5t-25 -9.5q-14 0 -24.5 10t-10.5 23v1235q0 14 11 24.5t24 10.5q15 0 25 -10.5t10 -24.5v-752zM637 -475
q-13 -39 -39 -45q-20 -5 -23 16q-1 10 3 23l63 215q11 38 35 39q21 1 27 -24q5 -19 -3 -42z" />
    <glyph glyph-name="uni0137" unicode="&#x137;" horiz-adv-x="1009" 
d="M856 1028q14 14 33 14q23 0 31.5 -20.5t-11.5 -42.5l-432 -381l473 -539q15 -22 5 -40.5t-31 -18.5q-13 0 -25 12l-477 541l-180 -158v-358q0 -17 -11 -27t-24 -10q-15 0 -26 9.5t-11 27.5v1270q0 24 18 33t36 -1t18 -32v-826zM506 -475q-13 -38 -39 -45q-20 -5 -23 16
q-2 10 2 23l64 215q11 38 35 39q21 1 27 -24q5 -19 -3 -42z" />
    <glyph glyph-name="Lacute" unicode="&#x139;" horiz-adv-x="1179" 
d="M342 1696q14 16 35 10.5t28 -23t-8 -38.5l-184 -187q-15 -15 -31 -10.5t-20 19.5t4 28zM227 0q-37 0 -37 39v1225q0 19 10.5 29t24.5 10q15 0 25 -10t10 -29v-1201h860q22 0 31 -15.5t-0.5 -31.5t-30.5 -16h-893z" />
    <glyph glyph-name="lacute" unicode="&#x13a;" horiz-adv-x="401" 
d="M322 1731q14 16 35 10.5t28 -23.5t-8 -39l-184 -186q-15 -15 -31.5 -10.5t-20.5 19.5t4 28zM240 35q0 -13 -11 -24t-24 -11q-17 0 -27 10.5t-10 24.5v1268q0 14 10 24t27 10q14 0 24.5 -10.5t10.5 -23.5v-1268z" />
    <glyph glyph-name="uni013B" unicode="&#x13b;" horiz-adv-x="1179" 
d="M227 0q-37 0 -37 39v1225q0 19 10.5 29t24.5 10q15 0 25 -10t10 -29v-1201h860q22 0 31 -15.5t-0.5 -31.5t-30.5 -16h-893zM670 -475q-13 -38 -39 -45q-20 -5 -23 16q-2 10 2 23l64 215q11 38 35 39q21 1 27 -24q5 -19 -3 -42z" />
    <glyph glyph-name="uni013C" unicode="&#x13c;" horiz-adv-x="401" 
d="M240 35q0 -13 -11 -24t-24 -11q-17 0 -27 10.5t-10 24.5v1268q0 14 10 24t27 10q14 0 24.5 -10.5t10.5 -23.5v-1268zM164 -459q-13 -38 -39 -45q-20 -5 -23 16q-2 10 2 23l64 215q11 38 35 39q21 1 28 -24q4 -18 -4 -41z" />
    <glyph glyph-name="Lcaron" unicode="&#x13d;" horiz-adv-x="1179" 
d="M227 0q-37 0 -37 39v1225q0 19 10.5 29t24.5 10q15 0 25 -10t10 -29v-1201h860q22 0 31 -15.5t-0.5 -31.5t-30.5 -16h-893zM940 997q-9 -19 -28 -19.5t-29.5 15t-1.5 33.5l92 207q16 37 46 30q22 -6 25 -30q1 -14 -6 -27z" />
    <glyph glyph-name="lcaron" unicode="&#x13e;" horiz-adv-x="401" 
d="M389 1085q-13 -39 -39 -45q-20 -5 -23 16q-1 10 3 23l63 215q11 39 36 39q21 1 28 -25q3 -18 -4 -40zM240 35q0 -13 -11 -24t-24 -11q-17 0 -27 10.5t-10 24.5v1268q0 14 10 24t27 10q14 0 24.5 -10.5t10.5 -23.5v-1268z" />
    <glyph glyph-name="Ldot" unicode="&#x13f;" horiz-adv-x="1179" 
d="M227 0q-37 0 -37 39v1225q0 19 10.5 29t24.5 10q15 0 25 -10t10 -29v-1201h860q22 0 31 -15.5t-0.5 -31.5t-30.5 -16h-893zM641 674q23 0 37 -15t14 -38t-14 -37.5t-37 -14.5t-38 14.5t-15 37.5t15 38t38 15z" />
    <glyph glyph-name="ldot" unicode="&#x140;" horiz-adv-x="401" 
d="M240 35q0 -13 -11 -24t-24 -11q-17 0 -27 10.5t-10 24.5v1268q0 14 10 24t27 10q14 0 24.5 -10.5t10.5 -23.5v-1268zM377 676q25 0 39 -15t14 -40q0 -24 -14.5 -39t-38.5 -15q-23 0 -39 15.5t-16 38.5q0 24 15.5 39.5t39.5 15.5z" />
    <glyph glyph-name="Lslash" unicode="&#x141;" horiz-adv-x="1179" 
d="M1120 63q22 0 31 -15.5t-0.5 -31.5t-30.5 -16h-893q-37 0 -37 39v547l-153 -56q-20 -8 -32.5 1.5t-8 24.5t23.5 22l170 61v625q0 19 10.5 29t24.5 10q15 0 25 -10t10 -29v-598l268 98q18 7 30.5 -2.5t9 -24.5t-22.5 -22l-285 -103v-549h860z" />
    <glyph glyph-name="lslash" unicode="&#x142;" horiz-adv-x="401" 
d="M358 733q30 15 48.5 10t15 -26.5t-32.5 -38.5l-149 -86v-557q0 -13 -11 -24t-24 -11q-17 0 -27 10.5t-10 24.5v516l-96 -55q-33 -16 -52 -11t-14 26.5t35 39.5l127 74v678q0 14 10 24t27 10q14 0 24.5 -10.5t10.5 -23.5v-637z" />
    <glyph glyph-name="Nacute" unicode="&#x143;" horiz-adv-x="1406" 
d="M827 1696q14 16 35 10.5t28 -23t-7 -38.5l-185 -187q-15 -15 -31 -10.5t-20 19.5t4 28zM1147 1264q0 19 10.5 29t24.5 10q15 0 25 -10t10 -29v-1223q0 -19 -9 -29t-22 -10q-21 0 -41 23l-891 1153v-1141q0 -18 -10 -27.5t-23 -9.5q-15 0 -25 9.5t-10 27.5v1223
q0 21 9.5 32t23.5 11q22 0 39 -23l889 -1153v1137z" />
    <glyph glyph-name="nacute" unicode="&#x144;" horiz-adv-x="1320" 
d="M786 1470q13 17 34.5 13.5t29.5 -20t-4 -38.5l-168 -202q-13 -16 -29.5 -13t-21.5 17t2 28zM1087 608q0 166 -114.5 275.5t-272.5 109.5q-78 0 -158.5 -33.5t-148 -93t-110.5 -153t-43 -201.5v-475q0 -37 -35 -37q-37 0 -37 37v971q0 14 10 24t27 10q35 0 35 -36v-279
q24 87 76 154t117.5 105.5t134 57.5t134.5 19q88 0 169.5 -30.5t146 -86.5t103 -144t38.5 -194v-585q0 -37 -35 -37q-37 0 -37 37v585z" />
    <glyph glyph-name="uni0145" unicode="&#x145;" horiz-adv-x="1406" 
d="M1147 1264q0 19 10.5 29t24.5 10q15 0 25 -10t10 -29v-1223q0 -19 -9 -29t-22 -10q-21 0 -41 23l-891 1153v-1141q0 -18 -10 -27.5t-23 -9.5q-15 0 -25 9.5t-10 27.5v1223q0 21 9.5 32t23.5 11q22 0 39 -23l889 -1153v1137zM676 -475q-13 -38 -39 -45q-20 -5 -23 16
q-2 10 2 23l64 215q11 38 35 39q21 1 27 -24q5 -19 -3 -42z" />
    <glyph glyph-name="uni0146" unicode="&#x146;" horiz-adv-x="1320" 
d="M1087 608q0 166 -114.5 275.5t-272.5 109.5q-78 0 -158.5 -33.5t-148 -93t-110.5 -153t-43 -201.5v-475q0 -37 -35 -37q-37 0 -37 37v971q0 14 10 24t27 10q35 0 35 -36v-279q24 87 76 154t117.5 105.5t134 57.5t134.5 19q88 0 169.5 -30.5t146 -86.5t103 -144t38.5 -194
v-585q0 -37 -35 -37q-37 0 -37 37v585zM666 -475q-13 -38 -39 -45q-20 -5 -23 16q-2 10 2 23l64 215q11 38 35 39q21 1 27 -24q5 -19 -3 -42z" />
    <glyph glyph-name="Ncaron" unicode="&#x147;" horiz-adv-x="1406" 
d="M938 1647l-209 -185q-17 -14 -25.5 -14t-23.5 14l-209 185q-15 13 -11.5 30t18 21.5t32.5 -8.5l195 -170l194 170q16 15 32.5 9t18 -22t-11.5 -30zM1147 1264q0 19 10.5 29t24.5 10q15 0 25 -10t10 -29v-1223q0 -19 -9 -29t-22 -10q-21 0 -41 23l-891 1153v-1141
q0 -18 -10 -27.5t-23 -9.5q-15 0 -25 9.5t-10 27.5v1223q0 21 9.5 32t23.5 11q22 0 39 -23l889 -1153v1137z" />
    <glyph glyph-name="ncaron" unicode="&#x148;" horiz-adv-x="1320" 
d="M918 1438l-220 -215q-15 -15 -25 -14.5t-24 14.5l-219 215q-16 16 0 34q19 20 42 4q4 -3 7 -6l195 -190l194 190q23 23 45 7q20 -14 10 -33q-2 -3 -5 -6zM1087 608q0 166 -114.5 275.5t-272.5 109.5q-78 0 -158.5 -33.5t-148 -93t-110.5 -153t-43 -201.5v-475
q0 -37 -35 -37q-37 0 -37 37v971q0 14 10 24t27 10q35 0 35 -36v-279q24 87 76 154t117.5 105.5t134 57.5t134.5 19q88 0 169.5 -30.5t146 -86.5t103 -144t38.5 -194v-585q0 -37 -35 -37q-37 0 -37 37v585z" />
    <glyph glyph-name="Eng" unicode="&#x14a;" horiz-adv-x="1406" 
d="M1182 1303q15 0 25 -10t10 -29v-1223q0 -76 -6.5 -130t-26.5 -112.5t-62 -105.5t-108 -84q-21 -8 -36 6t-12.5 33.5t23.5 27.5q52 33 84.5 69t48 81.5t20.5 88.5t5 108l-893 1155v-1141q0 -18 -10 -27.5t-23 -9.5q-15 0 -25 9.5t-10 27.5v1223q0 21 9.5 32t23.5 11
q22 0 39 -23l889 -1153v1137q0 19 10.5 29t24.5 10z" />
    <glyph glyph-name="eng" unicode="&#x14b;" horiz-adv-x="1320" 
d="M702 1063q88 0 169.5 -30.5t146 -86.5t103 -144t38.5 -194v-585q0 -147 -41.5 -246.5t-161.5 -167.5q-21 -8 -36 6t-12 33.5t24 27.5q52 33 84 69t47 82t19.5 87.5t4.5 108.5v585q0 166 -114.5 275.5t-272.5 109.5q-78 0 -158.5 -33.5t-148 -93t-110.5 -153t-43 -201.5
v-475q0 -37 -35 -37q-37 0 -37 37v971q0 14 10 24t27 10q35 0 35 -36v-279q24 87 76 154t117.5 105.5t134 57.5t134.5 19z" />
    <glyph glyph-name="Omacron" unicode="&#x14c;" horiz-adv-x="1525" 
d="M922 1567q34 0 48 -16t0 -32t-48 -16h-367q-37 0 -51 16t1.5 32t49.5 16h367zM762 -20q-131 0 -252 53.5t-210 145t-141 221t-48 274.5q4 134 45 245t104.5 184.5t146.5 124t169 73t174 22.5q86 0 175 -23.5t175.5 -75t154.5 -125.5t111.5 -184t46.5 -241
q4 -145 -47 -274.5t-140 -221t-210.5 -145t-253.5 -53.5zM180 672q-4 -129 42.5 -246.5t126 -200.5t188 -132.5t225.5 -49.5q118 0 227 49.5t188.5 132.5t126 200.5t42.5 246.5q-3 121 -43 221.5t-101.5 166.5t-140 111.5t-157 65.5t-154.5 20q-80 0 -157.5 -20t-151 -66
t-130 -112t-92.5 -166t-39 -221z" />
    <glyph glyph-name="omacron" unicode="&#x14d;" horiz-adv-x="1261" 
d="M801 1327q34 0 48 -15.5t0 -31.5t-48 -16h-367q-37 0 -51 16t1.5 31.5t49.5 15.5h367zM631 -20q-122 0 -228 46.5t-180 135.5q-135 164 -123 397q14 170 114 305.5t261 179.5q74 19 156 19q72 0 153 -19q161 -44 262 -179.5t115 -305.5q12 -233 -123 -397
q-75 -89 -180 -135.5t-227 -46.5zM762 975q-66 16 -133 16q-63 0 -129 -16q-115 -30 -196.5 -120.5t-111.5 -201t-8.5 -233t97.5 -213.5q63 -75 155 -116.5t195 -41.5q104 0 197.5 41.5t156.5 116.5q76 91 97 213.5t-10 233t-113 201t-197 120.5z" />
    <glyph glyph-name="Ohungarumlaut" unicode="&#x150;" horiz-adv-x="1525" 
d="M717 1708q12 18 33.5 15t29.5 -19.5t-4 -38.5l-135 -190q-15 -16 -29 -14.5t-22 16.5t0 28zM938 1708q12 18 33.5 15t30 -19.5t-2.5 -38.5l-137 -190q-15 -16 -29 -14.5t-22 16.5t0 28zM762 -20q-131 0 -252 53.5t-210 145t-141 221t-48 274.5q4 134 45 245t104.5 184.5
t146.5 124t169 73t174 22.5q86 0 175 -23.5t175.5 -75t154.5 -125.5t111.5 -184t46.5 -241q4 -145 -47 -274.5t-140 -221t-210.5 -145t-253.5 -53.5zM180 672q-4 -129 42.5 -246.5t126 -200.5t188 -132.5t225.5 -49.5q118 0 227 49.5t188.5 132.5t126 200.5t42.5 246.5
q-3 121 -43 221.5t-101.5 166.5t-140 111.5t-157 65.5t-154.5 20q-80 0 -157.5 -20t-151 -66t-130 -112t-92.5 -166t-39 -221z" />
    <glyph glyph-name="ohungarumlaut" unicode="&#x151;" horiz-adv-x="1261" 
d="M586 1470q10 19 31.5 18t31.5 -16t0 -38l-119 -203q-17 -28 -40.5 -12.5t-12.5 38.5zM807 1470q12 17 31.5 18t32.5 -16t1 -38l-120 -203q-13 -18 -27.5 -17.5t-24 15t-2.5 28.5zM631 -20q-122 0 -228 46.5t-180 135.5q-135 164 -123 397q14 170 114 305.5t261 179.5
q74 19 156 19q72 0 153 -19q161 -44 262 -179.5t115 -305.5q12 -233 -123 -397q-75 -89 -180 -135.5t-227 -46.5zM762 975q-66 16 -133 16q-63 0 -129 -16q-115 -30 -196.5 -120.5t-111.5 -201t-8.5 -233t97.5 -213.5q63 -75 155 -116.5t195 -41.5q104 0 197.5 41.5
t156.5 116.5q76 91 97 213.5t-10 233t-113 201t-197 120.5z" />
    <glyph glyph-name="OE" unicode="&#x152;" horiz-adv-x="2215" 
d="M1249 66h819q16 0 24.5 -10t8.5 -23t-8.5 -23t-24.5 -10h-831q-24 0 -39.5 15.5t-15.5 39.5v78q-176 -153 -420 -153q-129 0 -248.5 51.5t-208 140t-141.5 215t-53 268.5q0 135 39.5 248.5t104 189.5t148.5 129t171.5 77t175.5 24q260 0 432 -149v75q0 22 15.5 38
t39.5 16h834q14 0 22 -9t8 -22q0 -12 -8.5 -21.5t-24.5 -9.5h-819v-565h779q32 0 32 -31q0 -12 -8 -21.5t-24 -9.5h-779v-548zM180 653q0 -168 80.5 -309t214 -221t287.5 -80q262 0 420 170v879q-171 165 -430 165q-82 0 -161.5 -21.5t-154.5 -69.5t-131.5 -117t-90.5 -171
t-34 -225z" />
    <glyph glyph-name="oe" unicode="&#x153;" horiz-adv-x="2254" 
d="M2152 524q2 -27 -12 -47t-51 -20h-924q15 -136 107 -244q66 -78 160.5 -121t197.5 -43q174 0 312 105q13 10 26 10q16 0 27 -11t8 -28q-5 -14 -14 -23q-131 -122 -353 -122q-126 0 -239 49t-183 139q-67 85 -88 192q-24 -118 -88 -192q-76 -90 -181 -139t-226 -49
q-234 0 -382.5 154.5t-148.5 385.5q0 126 45 231t119.5 172t169.5 103.5t197 36.5q169 0 304 -94.5t193 -270.5q27 93 77.5 164.5t117 114.5t141.5 64.5t158 21.5q103 0 196 -33.5t167.5 -98t119.5 -170t47 -237.5zM1163 524h920q-2 117 -42.5 209.5t-106 147.5t-144.5 83.5
t-164 28.5q-124 0 -227.5 -54.5t-169 -163t-66.5 -251.5zM629 991q-91 0 -174 -34t-145 -94t-99 -150.5t-37 -196.5q0 -95 34 -180t93 -148.5t145 -101t185 -37.5q103 0 196.5 44t157.5 120q107 128 107 299q0 112 -39 204.5t-104 151.5t-147.5 91t-172.5 32z" />
    <glyph glyph-name="Racute" unicode="&#x154;" horiz-adv-x="1345" 
d="M815 1696q14 16 35 10.5t28 -23t-8 -38.5l-184 -187q-15 -15 -31 -10.5t-20 19.5t4 28zM256 479v-444q0 -16 -10.5 -25.5t-24.5 -9.5q-13 0 -23 9.5t-10 23.5v1235q0 15 10 25t25 10h516q126 0 227 -34t165 -92.5t97.5 -135t33.5 -164.5q0 -170 -114 -276.5t-333 -123.5
l410 -418q17 -20 9 -39.5t-28 -19.5q-12 0 -24 12l-447 467h-479zM256 539h485q115 0 204 26.5t142.5 73t80 107t24.5 131.5q-2 156 -124 259t-327 103h-485v-700z" />
    <glyph glyph-name="racute" unicode="&#x155;" horiz-adv-x="690" 
d="M504 1470q13 17 34 13.5t29.5 -20t-4.5 -38.5l-168 -202q-13 -16 -29.5 -13t-21.5 17t2 28zM242 780q34 116 138 189t232 73q37 0 37 -34q0 -35 -37 -35q-76 0 -138.5 -25.5t-105 -69t-71.5 -103.5t-42 -128.5t-13 -144.5v-463q0 -17 -10.5 -27t-24.5 -10q-37 0 -37 37
v969q0 14 10 24t27 10q14 0 24.5 -10.5t10.5 -23.5v-228z" />
    <glyph glyph-name="uni0156" unicode="&#x156;" horiz-adv-x="1345" 
d="M256 479v-444q0 -16 -10.5 -25.5t-24.5 -9.5q-13 0 -23 9.5t-10 23.5v1235q0 15 10 25t25 10h516q126 0 227 -34t165 -92.5t97.5 -135t33.5 -164.5q0 -170 -114 -276.5t-333 -123.5l410 -418q17 -20 9 -39.5t-28 -19.5q-12 0 -24 12l-447 467h-479zM256 539h485
q115 0 204 26.5t142.5 73t80 107t24.5 131.5q-2 156 -124 259t-327 103h-485v-700zM682 -475q-13 -39 -39 -45q-20 -5 -23 16q-1 10 3 23l63 215q11 38 35 39q21 1 27 -24q5 -19 -3 -42z" />
    <glyph glyph-name="uni0157" unicode="&#x157;" horiz-adv-x="690" 
d="M242 780q34 116 138 189t232 73q37 0 37 -34q0 -35 -37 -35q-76 0 -138.5 -25.5t-105 -69t-71.5 -103.5t-42 -128.5t-13 -144.5v-463q0 -17 -10.5 -27t-24.5 -10q-37 0 -37 37v969q0 14 10 24t27 10q14 0 24.5 -10.5t10.5 -23.5v-228zM150 -473q-13 -38 -39 -45
q-20 -5 -23 16q-2 10 2 23l64 215q11 38 35 39q21 1 27 -24q5 -19 -3 -42z" />
    <glyph glyph-name="Rcaron" unicode="&#x158;" horiz-adv-x="1345" 
d="M926 1647l-209 -185q-17 -14 -25.5 -14t-23.5 14l-209 185q-15 13 -11.5 30t18 21.5t32.5 -8.5l194 -170l195 170q16 15 32.5 9t18 -22t-11.5 -30zM256 479v-444q0 -16 -10.5 -25.5t-24.5 -9.5q-13 0 -23 9.5t-10 23.5v1235q0 15 10 25t25 10h516q126 0 227 -34
t165 -92.5t97.5 -135t33.5 -164.5q0 -170 -114 -276.5t-333 -123.5l410 -418q17 -20 9 -39.5t-28 -19.5q-12 0 -24 12l-447 467h-479zM256 539h485q115 0 204 26.5t142.5 73t80 107t24.5 131.5q-2 156 -124 259t-327 103h-485v-700z" />
    <glyph glyph-name="rcaron" unicode="&#x159;" horiz-adv-x="690" 
d="M635 1438l-219 -215q-15 -15 -25 -14.5t-24 14.5l-220 215q-15 15 0 33q18 21 42 5q4 -2 8 -6l194 -190l195 190q23 23 46 6q19 -14 7 -33zM242 780q34 116 138 189t232 73q37 0 37 -34q0 -35 -37 -35q-76 0 -138.5 -25.5t-105 -69t-71.5 -103.5t-42 -128.5t-13 -144.5
v-463q0 -17 -10.5 -27t-24.5 -10q-37 0 -37 37v969q0 14 10 24t27 10q14 0 24.5 -10.5t10.5 -23.5v-228z" />
    <glyph glyph-name="Sacute" unicode="&#x15a;" horiz-adv-x="1323" 
d="M801 1696q14 16 35 10.5t28 -23t-8 -38.5l-184 -187q-15 -15 -31 -10.5t-20 19.5t4 28zM70 274q-6 19 7 32t30.5 9t23.5 -24q18 -62 68.5 -110t110 -74.5t132 -43t124.5 -21.5t96 -5q54 0 109 6.5t114.5 20.5t111 39.5t92.5 59.5t65 85t24 112q0 75 -37 126t-99.5 76.5
t-144 39.5t-171 21t-179 14.5t-171 26.5t-144 52t-99.5 95t-37 150q0 81 40 146t100 104t136 65.5t142.5 36.5t124.5 10q83 0 161 -11t160.5 -37.5t145 -80t90.5 -129.5q9 -23 -2.5 -36.5t-29.5 -10t-25 23.5q-80 220 -498 220q-115 0 -222 -34t-181 -105.5t-74 -164.5
q0 -75 37 -126t99.5 -77t143.5 -40.5t170.5 -21.5t179.5 -15.5t171 -27t143.5 -50.5t99.5 -92t37 -146q0 -87 -37.5 -155t-96 -110t-137.5 -69t-155.5 -37.5t-156.5 -10.5q-69 0 -136 7.5t-143 28t-136.5 52t-109 85t-67.5 121.5z" />
    <glyph glyph-name="sacute" unicode="&#x15b;" horiz-adv-x="1089" 
d="M670 1470q13 17 34 13.5t29.5 -20t-4.5 -38.5l-168 -202q-13 -16 -29.5 -13t-21.5 17t2 28zM78 225q-8 25 7.5 39t35 7t22.5 -33q13 -61 76 -106t148 -66t178 -21q52 0 113 12.5t124.5 39t105.5 77t42 115.5q0 73 -46.5 116t-120.5 58.5t-163.5 23t-179 18t-163.5 33
t-120.5 78.5t-46.5 146q0 93 70 164t167 104t197 33q362 0 443 -211q7 -27 -7.5 -42t-34 -10.5t-26.5 25.5q-63 170 -375 170q-59 0 -119.5 -13.5t-117 -39.5t-92 -73t-35.5 -107q0 -70 46.5 -111t120.5 -56.5t163.5 -23t179.5 -18.5t164 -35t120.5 -81.5t46.5 -147.5
q0 -70 -32 -126t-80.5 -89.5t-112 -55.5t-120 -30t-111.5 -8t-109.5 6t-116 23t-109.5 43.5t-84.5 71t-47.5 101.5z" />
    <glyph glyph-name="Scedilla" unicode="&#x15e;" horiz-adv-x="1323" 
d="M1245 362q0 -71 -24.5 -130t-68 -99.5t-97.5 -70.5t-119.5 -47t-128 -25.5t-127.5 -9.5l-55 -103q76 12 131 -28t55 -111q0 -77 -61 -120t-143 -35.5t-138 63.5q-20 20 -8 40q13 23 44 5q5 -3 11 -8q37 -29 79.5 -38.5t75 -0.5t54.5 32.5t23 55.5q1 33 -13.5 55.5
t-35.5 30t-44 10.5t-41 -2q-35 -6 -45 9.5t4 43.5l48 101q-67 3 -131 12t-134 31t-125.5 53.5t-99 82.5t-61.5 115q-6 19 7 32t30.5 9t23.5 -24q18 -62 68.5 -110t110 -74.5t132 -43t124.5 -21.5t96 -5h6h6q66 1 131 10t134 32.5t120.5 59t85 92.5t33.5 129q0 75 -37 126
t-99.5 76.5t-144 39.5t-171 21t-179 14.5t-171 26.5t-144 52t-99.5 95t-37 150q0 81 40 146t100 104t136 65.5t142.5 36.5t124.5 10q83 0 161 -11t160.5 -37.5t145 -80t90.5 -129.5q9 -23 -2.5 -36.5t-29.5 -10t-25 23.5q-80 220 -498 220q-115 0 -222 -34t-181 -105.5
t-74 -164.5q0 -75 37 -126t99.5 -77t143.5 -40.5t170.5 -21.5t179.5 -15.5t171 -27t143.5 -50.5t99.5 -92t37 -146z" />
    <glyph glyph-name="scedilla" unicode="&#x15f;" horiz-adv-x="1089" 
d="M1001 289q0 -68 -29.5 -122t-75 -87.5t-105.5 -56.5t-115.5 -32.5t-110.5 -10.5l-55 -103q76 12 131 -28t55 -111q0 -77 -61 -120t-143 -35.5t-138 63.5q-20 20 -8 40q13 23 44 5q5 -3 11 -8q37 -29 79.5 -38.5t75 -0.5t54.5 32.5t23 55.5q1 33 -13 55.5t-35 30t-44 10.5
t-41 -2q-35 -6 -45 9.5t4 43.5l47 101q-69 3 -133 16.5t-128 39.5t-109 74.5t-58 114.5q-8 25 7.5 39t35 7t22.5 -33q13 -61 76 -106t148 -66t178 -21q52 0 113 12.5t124.5 39t105.5 77t42 115.5q0 73 -46.5 116t-120.5 58.5t-163.5 23t-179 18t-163.5 33t-120.5 78.5
t-46.5 146q0 93 70 164t167 104t197 33q362 0 443 -211q7 -27 -7.5 -42t-34 -10.5t-26.5 25.5q-63 170 -375 170q-59 0 -119.5 -13.5t-117 -39.5t-92 -73t-35.5 -107q0 -70 46.5 -111t120.5 -56.5t163.5 -23t179.5 -18.5t164 -35t120.5 -81.5t46.5 -147.5z" />
    <glyph glyph-name="Scaron" unicode="&#x160;" horiz-adv-x="1323" 
d="M911 1647l-209 -185q-17 -14 -25.5 -14t-23.5 14l-209 185q-15 13 -11.5 30t18 21.5t32.5 -8.5l195 -170l194 170q16 15 32.5 9t18 -22t-11.5 -30zM70 274q-6 19 7 32t30.5 9t23.5 -24q18 -62 68.5 -110t110 -74.5t132 -43t124.5 -21.5t96 -5q54 0 109 6.5t114.5 20.5
t111 39.5t92.5 59.5t65 85t24 112q0 75 -37 126t-99.5 76.5t-144 39.5t-171 21t-179 14.5t-171 26.5t-144 52t-99.5 95t-37 150q0 81 40 146t100 104t136 65.5t142.5 36.5t124.5 10q83 0 161 -11t160.5 -37.5t145 -80t90.5 -129.5q9 -23 -2.5 -36.5t-29.5 -10t-25 23.5
q-80 220 -498 220q-115 0 -222 -34t-181 -105.5t-74 -164.5q0 -75 37 -126t99.5 -77t143.5 -40.5t170.5 -21.5t179.5 -15.5t171 -27t143.5 -50.5t99.5 -92t37 -146q0 -87 -37.5 -155t-96 -110t-137.5 -69t-155.5 -37.5t-156.5 -10.5q-69 0 -136 7.5t-143 28t-136.5 52
t-109 85t-67.5 121.5z" />
    <glyph glyph-name="scaron" unicode="&#x161;" horiz-adv-x="1089" 
d="M801 1438l-219 -215q-15 -15 -25.5 -14.5t-24.5 14.5l-219 215q-16 16 0 34q19 20 42 4q4 -3 7 -6l195 -190l195 190q23 23 46 6q19 -14 7 -33zM78 225q-8 25 7.5 39t35 7t22.5 -33q13 -61 76 -106t148 -66t178 -21q52 0 113 12.5t124.5 39t105.5 77t42 115.5
q0 73 -46.5 116t-120.5 58.5t-163.5 23t-179 18t-163.5 33t-120.5 78.5t-46.5 146q0 93 70 164t167 104t197 33q362 0 443 -211q7 -27 -7.5 -42t-34 -10.5t-26.5 25.5q-63 170 -375 170q-59 0 -119.5 -13.5t-117 -39.5t-92 -73t-35.5 -107q0 -70 46.5 -111t120.5 -56.5
t163.5 -23t179.5 -18.5t164 -35t120.5 -81.5t46.5 -147.5q0 -70 -32 -126t-80.5 -89.5t-112 -55.5t-120 -30t-111.5 -8t-109.5 6t-116 23t-109.5 43.5t-84.5 71t-47.5 101.5z" />
    <glyph glyph-name="uni0162" unicode="&#x162;" horiz-adv-x="1206" 
d="M1161 1303q23 0 32.5 -15.5t0 -31t-32.5 -15.5h-530l2 -1202q0 -20 -15 -31q0 -13 -8 -26l-55 -105q76 12 131 -28t55 -111q0 -77 -61 -120t-143 -35.5t-138 63.5q-20 20 -8 40q13 23 44 5q5 -3 11 -8q37 -29 79.5 -38.5t75 -0.5t54.5 32.5t23 55.5q1 33 -13 55.5t-35 30
t-44 10.5t-41 -2q-35 -6 -45 9.5t4 43.5l53 115q4 8 12 20q-8 8 -8 25v1202h-528q-23 0 -32.5 15.5t0 31t32.5 15.5h1128z" />
    <glyph glyph-name="uni0163" unicode="&#x163;" horiz-adv-x="788" 
d="M672 80q21 10 38 0t15.5 -29t-27.5 -33q-64 -34 -149 -34q-21 0 -31 2q0 -1 -1 -2t-1 -2l-55 -105q76 12 131 -28t55 -111q0 -77 -61 -120t-143 -35.5t-138 63.5q-20 20 -8 40q13 23 44 5q5 -3 11 -8q37 -29 79.5 -38.5t75 -0.5t54.5 32.5t23 55.5q1 33 -13 55.5t-35 30
t-44 10.5t-41 -2q-35 -6 -45 9.5t4 43.5l53 115q-199 49 -199 354v629h-190q-26 0 -36.5 16.5t0 32.5t36.5 16h190v263q0 21 17.5 29.5t35 -0.5t17.5 -29v-263h284q25 0 35.5 -16.5t0 -32.5t-35.5 -16h-284v-629q0 -50 4 -88.5t17 -80t36 -68.5t63 -44.5t95 -17.5
q67 0 123 31z" />
    <glyph glyph-name="Tcaron" unicode="&#x164;" horiz-adv-x="1206" 
d="M823 1647l-209 -185q-17 -14 -25.5 -14t-23.5 14l-209 185q-15 13 -11.5 30t18 21.5t32.5 -8.5l195 -170l194 170q16 15 32.5 9t18 -22t-11.5 -30zM33 1303h1128q23 0 32.5 -15.5t0 -31t-32.5 -15.5h-530l2 -1202q0 -19 -11.5 -29t-25.5 -10t-24.5 10t-10.5 29v1202h-528
q-23 0 -32.5 15.5t0 31t32.5 15.5z" />
    <glyph glyph-name="tcaron" unicode="&#x165;" horiz-adv-x="788" 
d="M551 1167q-13 -39 -39 -45q-20 -5 -22 18q-1 9 2 21l38 142q10 37 34 39q21 1 29 -24q5 -18 -3 -42zM618 1042q25 0 35.5 -16.5t0 -32.5t-35.5 -16h-284v-629q0 -50 4 -88.5t17 -80t36 -68.5t63 -44.5t95 -17.5q67 0 123 31q21 10 38 0t15.5 -29t-27.5 -33
q-64 -34 -149 -34q-285 0 -285 364v629h-190q-26 0 -36.5 16.5t0 32.5t36.5 16h190v263q0 21 17.5 29.5t35 -0.5t17.5 -29v-263h284z" />
    <glyph glyph-name="Tbar" unicode="&#x166;" horiz-adv-x="1206" 
d="M1161 1303q23 0 32.5 -15.5t0 -31t-32.5 -15.5h-530v-493h291q20 0 28.5 -13t0 -26t-28.5 -13h-291l2 -657q0 -19 -11.5 -29t-25.5 -10t-24.5 10t-10.5 29v657h-287q-22 0 -30.5 13t1 26t29.5 13h287v493h-528q-23 0 -32.5 15.5t0 31t32.5 15.5h1128z" />
    <glyph glyph-name="tbar" unicode="&#x167;" horiz-adv-x="788" 
d="M672 80q21 10 38 0t15.5 -29t-27.5 -33q-64 -34 -149 -34q-285 0 -285 364v227h-137q-37 0 -51 16t1.5 32t49.5 16h137v338h-190q-26 0 -36.5 16.5t0 32.5t36.5 16h190v263q0 21 17.5 29.5t35 -0.5t17.5 -29v-263h284q25 0 35.5 -16.5t0 -32.5t-35.5 -16h-284v-338h160
q34 0 48 -16t0 -32t-48 -16h-160v-227q0 -50 4 -88.5t17 -80t36 -68.5t63 -44.5t95 -17.5q67 0 123 31z" />
    <glyph glyph-name="Umacron" unicode="&#x16a;" horiz-adv-x="1554" 
d="M950 1567q34 0 48 -16t0 -32t-48 -16h-366q-37 0 -51 16t1.5 32t49.5 16h366zM1303 567v701q0 16 10 25.5t24 9.5q13 0 23 -9.5t10 -23.5v-703q0 -141 -50.5 -255.5t-134.5 -185.5t-188 -108.5t-217 -37.5q-114 0 -218.5 37.5t-188.5 108.5t-134.5 185.5t-50.5 255.5v703
q0 14 10 23.5t23 9.5t23 -9.5t10 -25.5v-701q0 -125 44.5 -226t119.5 -163.5t167.5 -95.5t192.5 -33t192.5 33t167.5 95.5t120 163.5t45 226z" />
    <glyph glyph-name="umacron" unicode="&#x16b;" horiz-adv-x="1323" 
d="M850 1327q34 0 48 -15.5t0 -31.5t-48 -16h-367q-37 0 -51 16t1.5 31.5t49.5 15.5h367zM236 428q0 -162 115.5 -270.5t273.5 -108.5q78 0 158 33t147.5 92t110 151.5t42.5 200.5v480q0 36 35 36q37 0 37 -36v-971q0 -14 -10 -24.5t-27 -10.5q-35 0 -35 37v287
q-31 -114 -109 -194.5t-165.5 -115t-175.5 -34.5q-89 0 -172 29.5t-149.5 84t-107 141.5t-40.5 193v578q0 36 35 36q37 0 37 -36v-578z" />
    <glyph glyph-name="Uring" unicode="&#x16e;" horiz-adv-x="1554" 
d="M778 1735q62 0 105 -42.5t43 -103.5q0 -63 -43 -105t-105 -42q-63 0 -106 42t-43 105q0 62 43 104t106 42zM778 1675q-37 0 -63.5 -25.5t-26.5 -60.5q0 -37 26.5 -62.5t63.5 -25.5q36 0 62 26t26 62q0 35 -26.5 60.5t-61.5 25.5zM1303 567v701q0 16 10 25.5t24 9.5
q13 0 23 -9.5t10 -23.5v-703q0 -141 -50.5 -255.5t-134.5 -185.5t-188 -108.5t-217 -37.5q-114 0 -218.5 37.5t-188.5 108.5t-134.5 185.5t-50.5 255.5v703q0 14 10 23.5t23 9.5t23 -9.5t10 -25.5v-701q0 -125 44.5 -226t119.5 -163.5t167.5 -95.5t192.5 -33t192.5 33
t167.5 95.5t120 163.5t45 226z" />
    <glyph glyph-name="uring" unicode="&#x16f;" horiz-adv-x="1323" 
d="M678 1495q62 0 104.5 -42t42.5 -103q0 -63 -42.5 -105.5t-104.5 -42.5q-63 0 -106.5 42.5t-43.5 105.5q0 61 43.5 103t106.5 42zM678 1436q-37 0 -63.5 -25.5t-26.5 -60.5q0 -37 26.5 -62.5t63.5 -25.5q36 0 62 26t26 62q0 35 -26.5 60.5t-61.5 25.5zM236 428
q0 -162 115.5 -270.5t273.5 -108.5q78 0 158 33t147.5 92t110 151.5t42.5 200.5v480q0 36 35 36q37 0 37 -36v-971q0 -14 -10 -24.5t-27 -10.5q-35 0 -35 37v287q-31 -114 -109 -194.5t-165.5 -115t-175.5 -34.5q-89 0 -172 29.5t-149.5 84t-107 141.5t-40.5 193v578
q0 36 35 36q37 0 37 -36v-578z" />
    <glyph glyph-name="Uhungarumlaut" unicode="&#x170;" horiz-adv-x="1554" 
d="M745 1708q12 18 33.5 15t30 -19.5t-3.5 -38.5l-135 -190q-15 -16 -29 -14.5t-22.5 16.5t-0.5 28zM967 1708q12 18 33.5 15t30 -19.5t-2.5 -38.5l-137 -190q-15 -16 -29 -14.5t-22 16.5t0 28zM1303 567v701q0 16 10 25.5t24 9.5q13 0 23 -9.5t10 -23.5v-703
q0 -141 -50.5 -255.5t-134.5 -185.5t-188 -108.5t-217 -37.5q-114 0 -218.5 37.5t-188.5 108.5t-134.5 185.5t-50.5 255.5v703q0 14 10 23.5t23 9.5t23 -9.5t10 -25.5v-701q0 -125 44.5 -226t119.5 -163.5t167.5 -95.5t192.5 -33t192.5 33t167.5 95.5t120 163.5t45 226z" />
    <glyph glyph-name="uhungarumlaut" unicode="&#x171;" horiz-adv-x="1323" 
d="M635 1470q10 19 31.5 18t31.5 -16t0 -38l-118 -203q-13 -18 -27.5 -17.5t-24 15t-2.5 28.5zM856 1470q12 17 31.5 18t33 -16t1.5 -38l-121 -203q-17 -28 -40.5 -12.5t-12.5 38.5zM236 428q0 -162 115.5 -270.5t273.5 -108.5q78 0 158 33t147.5 92t110 151.5t42.5 200.5
v480q0 36 35 36q37 0 37 -36v-971q0 -14 -10 -24.5t-27 -10.5q-35 0 -35 37v287q-31 -114 -109 -194.5t-165.5 -115t-175.5 -34.5q-89 0 -172 29.5t-149.5 84t-107 141.5t-40.5 193v578q0 36 35 36q37 0 37 -36v-578z" />
    <glyph glyph-name="Uogonek" unicode="&#x172;" horiz-adv-x="1554" 
d="M1337 1303q13 0 23 -9.5t10 -23.5v-703q0 -216 -109.5 -359.5t-283.5 -197.5q-87 -106 -122.5 -172.5t-33.5 -113.5q1 -45 30.5 -66.5t67 -12t60.5 45.5q24 36 51 32q22 -3 17 -29q-2 -14 -13 -30q-30 -44 -61 -62.5t-82 -17.5q-63 1 -98 39t-35 103q0 108 135 264
q-62 -10 -113 -10q-114 0 -218.5 37.5t-188.5 108.5t-134.5 185.5t-50.5 255.5v703q0 14 10 23.5t23 9.5t23 -9.5t10 -25.5v-701q0 -125 44.5 -226t119.5 -163.5t167.5 -95.5t192.5 -33t192.5 33t167.5 95.5t120 163.5t45 226v701q0 16 10 25.5t24 9.5z" />
    <glyph glyph-name="uogonek" unicode="&#x173;" horiz-adv-x="1323" 
d="M1153 -309q24 36 51 32q22 -3 17 -29q-2 -14 -13 -30q-30 -44 -61 -62.5t-82 -17.5q-63 1 -98 39t-35 103q0 49 28 107t54 91.5t67 81.5l9 8q-7 10 -7 23v287q-31 -114 -109 -194.5t-165.5 -115t-175.5 -34.5q-89 0 -172 29.5t-149.5 84t-107 141.5t-40.5 193v578
q0 36 35 36q37 0 37 -36v-578q0 -162 115.5 -270.5t273.5 -108.5q78 0 158 33t147.5 92t110 151.5t42.5 200.5v480q0 36 35 36q37 0 37 -36v-971q0 -19 -14 -29q-4 -19 -19 -37q-129 -145 -127 -245q1 -45 30.5 -66.5t67 -12t60.5 45.5z" />
    <glyph glyph-name="Wcircumflex" unicode="&#x174;" horiz-adv-x="2396" 
d="M1442 1493q17 -17 0 -35q-17 -20 -41 -4l-8 6l-195 191l-194 -191q-24 -24 -46 -4q-18 15 -8 32q2 3 4 5l220 215q14 14 24 14.5t25 -14.5zM647 104l516 1045q9 21 34.5 22t37.5 -20l516 -1047l514 1176q9 23 33 23q18 0 30 -15.5t3 -34.5l-549 -1245q-9 -21 -32 -21
t-34 21l-518 1057l-518 -1057q-9 -21 -33 -21t-33 21l-546 1245q-9 19 2.5 34.5t29.5 15.5q22 0 31 -23z" />
    <glyph glyph-name="wcircumflex" unicode="&#x175;" horiz-adv-x="1925" 
d="M1210 1253q17 -17 0 -35q-17 -19 -41 -3l-8 6l-194 190l-195 -190q-23 -23 -45 -6q-18 15 -8 33q2 3 4 5l219 215q14 14 24 14.5t25 -14.5zM70 991q-8 23 3.5 37t30.5 14q26 0 35 -22l400 -909l393 804q10 23 34 23t35 -23l400 -806l393 911q10 22 35 22q19 0 30 -13
t1 -36l-428 -983q-9 -19 -33 -19t-33 19l-395 819l-404 -819q-9 -19 -34 -19t-35 19z" />
    <glyph glyph-name="Ycircumflex" unicode="&#x176;" horiz-adv-x="1263" 
d="M874 1493q17 -17 0 -35q-17 -20 -41 -4q-4 2 -8 6l-194 191l-195 -191q-23 -23 -45 -5q-18 15 -8 33q2 3 4 5l219 215q14 14 24 14.5t25 -14.5zM596 530l-537 715q-17 22 -10 40t29 18q19 0 33 -17l520 -698l518 698q14 17 33 17q21 0 27.5 -18t-9.5 -40l-534 -715v-491
q0 -19 -10.5 -29t-24.5 -10q-15 0 -25 10t-10 29v491z" />
    <glyph glyph-name="ycircumflex" unicode="&#x177;" horiz-adv-x="1144" 
d="M827 1233q17 -17 0 -35q-17 -20 -41 -4q-4 2 -8 6l-194 191l-195 -191q-23 -23 -45 -5q-18 15 -8 33q2 3 4 5l219 215q14 14 24 14.5t25 -14.5zM47 995q-8 19 4 33t31 14q21 0 35 -22l461 -914l450 910q12 26 37 26q20 0 31.5 -15t1.5 -36l-690 -1362q-14 -26 -33.5 -30
t-30.5 12.5t-2 40.5l190 385z" />
    <glyph glyph-name="Ydieresis" unicode="&#x178;" horiz-adv-x="1263" 
d="M424 1634q22 0 41.5 -17.5t19.5 -43.5q0 -31 -19 -47.5t-42 -16.5q-27 0 -45.5 17.5t-18.5 46.5q0 27 18.5 44t45.5 17zM817 1634q26 0 45 -17t19 -44q0 -32 -18.5 -48t-45.5 -16q-23 0 -42 18t-19 46q0 26 19 43.5t42 17.5zM596 530l-537 715q-17 22 -10 40t29 18
q19 0 33 -17l520 -698l518 698q14 17 33 17q21 0 27.5 -18t-9.5 -40l-534 -715v-491q0 -19 -10.5 -29t-24.5 -10q-15 0 -25 10t-10 29v491z" />
    <glyph glyph-name="Zacute" unicode="&#x179;" horiz-adv-x="1257" 
d="M801 1696q14 16 35 10.5t28 -23t-8 -38.5l-184 -187q-15 -15 -31 -10.5t-20 19.5t4 28zM174 68h1006q15 0 24.5 -9.5t9.5 -23.5q0 -15 -9.5 -25t-24.5 -10h-1076q-30 0 -38 19.5t10 41.5l1032 1176h-973q-13 0 -23 10.5t-10 24.5q0 12 10 21.5t23 9.5h1036q30 0 38 -20.5
t-11 -43.5z" />
    <glyph glyph-name="zacute" unicode="&#x17a;" horiz-adv-x="1083" 
d="M651 1450q13 17 34.5 13.5t29.5 -20t-4 -38.5l-168 -203q-8 -10 -18 -12.5t-17 1.5t-13 11t-6 16t5 17zM172 66l801 4q22 0 31 -17.5t-0.5 -35t-30.5 -17.5h-864q-31 0 -39.5 23.5t12.5 42.5l805 907l-752 -2q-25 0 -35 17.5t0.5 35.5t34.5 18h821q29 0 40 -24.5
t-9 -46.5z" />
    <glyph glyph-name="Zdotaccent" unicode="&#x17b;" horiz-adv-x="1257" 
d="M684 1647q27 0 50.5 -21.5t23.5 -52.5q0 -37 -23 -56.5t-51 -19.5q-31 0 -53.5 21.5t-22.5 54.5q0 32 22.5 53t53.5 21zM174 68h1006q15 0 24.5 -9.5t9.5 -23.5q0 -15 -9.5 -25t-24.5 -10h-1076q-30 0 -38 19.5t10 41.5l1032 1176h-973q-13 0 -23 10.5t-10 24.5
q0 12 10 21.5t23 9.5h1036q30 0 38 -20.5t-11 -43.5z" />
    <glyph glyph-name="zdotaccent" unicode="&#x17c;" horiz-adv-x="1083" 
d="M545 1386q27 0 50 -21t23 -52q0 -37 -22.5 -56.5t-50.5 -19.5q-31 0 -53.5 21.5t-22.5 54.5q0 32 22.5 52.5t53.5 20.5zM172 66l801 4q22 0 31 -17.5t-0.5 -35t-30.5 -17.5h-864q-31 0 -39.5 23.5t12.5 42.5l805 907l-752 -2q-25 0 -35 17.5t0.5 35.5t34.5 18h821
q29 0 40 -24.5t-9 -46.5z" />
    <glyph glyph-name="Zcaron" unicode="&#x17d;" horiz-adv-x="1257" 
d="M911 1647l-209 -185q-17 -14 -25.5 -14t-23.5 14l-209 185q-15 13 -11.5 30t18 21.5t32.5 -8.5l195 -170l194 170q16 15 32.5 9t18 -22t-11.5 -30zM174 68h1006q15 0 24.5 -9.5t9.5 -23.5q0 -15 -9.5 -25t-24.5 -10h-1076q-30 0 -38 19.5t10 41.5l1032 1176h-973
q-13 0 -23 10.5t-10 24.5q0 12 10 21.5t23 9.5h1036q30 0 38 -20.5t-11 -43.5z" />
    <glyph glyph-name="zcaron" unicode="&#x17e;" horiz-adv-x="1083" 
d="M782 1417l-219 -215q-15 -15 -25 -14.5t-24 14.5l-219 215q-16 16 0 34q19 21 42 5q4 -3 7 -6l195 -190l194 190q23 23 46 6q19 -15 7 -34q-2 -3 -4 -5zM172 66l801 4q22 0 31 -17.5t-0.5 -35t-30.5 -17.5h-864q-31 0 -39.5 23.5t12.5 42.5l805 907l-752 -2
q-25 0 -35 17.5t0.5 35.5t34.5 18h821q29 0 40 -24.5t-9 -46.5z" />
    <glyph glyph-name="florin" unicode="&#x192;" horiz-adv-x="897" 
d="M547 961l-133 -951q-10 -69 -33 -129t-61.5 -111.5t-100 -81.5t-139.5 -30q-91 -2 -139 49q-22 25 -0.5 48.5t47.5 0.5q28 -24 46 -30.5t54 -6.5q63 0 110.5 23.5t75.5 66.5t44 91.5t24 109.5l133 951h-164q-28 0 -29 23t23 33q8 3 17 3h161l2 12q10 69 33 128
t61.5 109.5t100 79.5t139.5 29q115 3 182 -55q17 -13 12 -31.5t-22 -24.5t-35 7q-37 37 -147 37q-64 0 -110 -21.5t-74 -62.5t-43.5 -87t-24.5 -108l-2 -12h256q29 0 31 -23q3 -21 -19 -32q-10 -4 -20 -4h-256z" />
    <glyph glyph-name="uni0218" unicode="&#x218;" horiz-adv-x="1323" 
d="M70 274q-6 19 7 32t30.5 9t23.5 -24q18 -62 68.5 -110t110 -74.5t132 -43t124.5 -21.5t96 -5q54 0 109 6.5t114.5 20.5t111 39.5t92.5 59.5t65 85t24 112q0 75 -37 126t-99.5 76.5t-144 39.5t-171 21t-179 14.5t-171 26.5t-144 52t-99.5 95t-37 150q0 81 40 146t100 104
t136 65.5t142.5 36.5t124.5 10q83 0 161 -11t160.5 -37.5t145 -80t90.5 -129.5q9 -23 -2.5 -36.5t-29.5 -10t-25 23.5q-80 220 -498 220q-115 0 -222 -34t-181 -105.5t-74 -164.5q0 -75 37 -126t99.5 -77t143.5 -40.5t170.5 -21.5t179.5 -15.5t171 -27t143.5 -50.5t99.5 -92
t37 -146q0 -87 -37.5 -155t-96 -110t-137.5 -69t-155.5 -37.5t-156.5 -10.5q-69 0 -136 7.5t-143 28t-136.5 52t-109 85t-67.5 121.5zM633 -475q-13 -38 -39 -45q-20 -5 -23 16q-2 10 2 23l64 215q11 38 35 39q21 1 27 -24q5 -19 -3 -42z" />
    <glyph glyph-name="uni0219" unicode="&#x219;" horiz-adv-x="1089" 
d="M78 225q-8 25 7.5 39t35 7t22.5 -33q13 -61 76 -106t148 -66t178 -21q52 0 113 12.5t124.5 39t105.5 77t42 115.5q0 73 -46.5 116t-120.5 58.5t-163.5 23t-179 18t-163.5 33t-120.5 78.5t-46.5 146q0 93 70 164t167 104t197 33q362 0 443 -211q7 -27 -7.5 -42t-34 -10.5
t-26.5 25.5q-63 170 -375 170q-59 0 -119.5 -13.5t-117 -39.5t-92 -73t-35.5 -107q0 -70 46.5 -111t120.5 -56.5t163.5 -23t179.5 -18.5t164 -35t120.5 -81.5t46.5 -147.5q0 -70 -32 -126t-80.5 -89.5t-112 -55.5t-120 -30t-111.5 -8t-109.5 6t-116 23t-109.5 43.5t-84.5 71
t-47.5 101.5zM541 -475q-13 -38 -39 -45q-20 -5 -23 16q-2 10 2 23l64 215q11 38 35 39q21 1 27 -24q5 -19 -3 -42z" />
    <glyph glyph-name="uni021A" unicode="&#x21a;" horiz-adv-x="1206" 
d="M33 1303h1128q23 0 32.5 -15.5t0 -31t-32.5 -15.5h-530l2 -1202q0 -19 -11.5 -29t-25.5 -10t-24.5 10t-10.5 29v1202h-528q-23 0 -32.5 15.5t0 31t32.5 15.5zM563 -475q-13 -39 -39 -45q-20 -5 -23 16q-1 10 3 23l63 215q11 37 35 39q21 1 28 -24q5 -18 -3 -42z" />
    <glyph glyph-name="uni021B" unicode="&#x21b;" horiz-adv-x="788" 
d="M618 1042q25 0 35.5 -16.5t0 -32.5t-35.5 -16h-284v-629q0 -50 4 -88.5t17 -80t36 -68.5t63 -44.5t95 -17.5q67 0 123 31q21 10 38 0t15.5 -29t-27.5 -33q-64 -34 -149 -34q-285 0 -285 364v629h-190q-26 0 -36.5 16.5t0 32.5t36.5 16h190v263q0 21 17.5 29.5t35 -0.5
t17.5 -29v-263h284zM492 -475q-13 -38 -39 -45q-20 -5 -23 16q-2 10 2 23l64 215q11 38 35 39q21 1 27 -24q5 -19 -3 -42z" />
    <glyph glyph-name="circumflex" unicode="&#x2c6;" horiz-adv-x="681" 
d="M547 1493q17 -17 0 -35q-17 -20 -41 -4q-4 2 -8 6l-195 191l-194 -191q-23 -24 -46 -4q-18 15 -8 32q2 3 4 5l220 215q14 14 24 14.5t25 -14.5z" />
    <glyph glyph-name="caron" unicode="&#x2c7;" horiz-adv-x="671" 
d="M547 1677l-219 -215q-15 -15 -25 -14.5t-24 14.5l-220 215q-15 15 0 34q18 20 41 6q5 -3 9 -7l194 -190l195 190q23 23 46 6q19 -15 7 -34q-2 -3 -4 -5z" />
    <glyph glyph-name="breve" unicode="&#x2d8;" horiz-adv-x="1228" 
d="M764 1642q8 27 26.5 31.5t31.5 -10t7 -35.5q-27 -92 -79 -135t-144 -43t-144 43t-79 135q-6 21 7 35.5t32 10t27 -31.5q26 -73 61.5 -102t95.5 -27q60 -2 96 27t62 102z" />
    <glyph glyph-name="dotaccent" unicode="&#x2d9;" horiz-adv-x="1228" 
d="M543 1647q26 0 49.5 -21.5t23.5 -52.5q0 -37 -22.5 -56.5t-50.5 -19.5q-31 0 -53.5 21.5t-22.5 54.5q0 32 22.5 53t53.5 21z" />
    <glyph glyph-name="ring" unicode="&#x2da;" horiz-adv-x="428" 
d="M184 1735q62 0 105 -42.5t43 -103.5q0 -63 -43 -105t-105 -42q-63 0 -106 42t-43 105q0 62 43 104t106 42zM184 1675q-37 0 -63.5 -25.5t-26.5 -60.5q0 -37 26.5 -62.5t63.5 -25.5q36 0 62 26t26 62q0 35 -26.5 60.5t-61.5 25.5z" />
    <glyph glyph-name="ogonek" unicode="&#x2db;" horiz-adv-x="1228" 
d="M700 -31q-129 -145 -127 -245q1 -45 30.5 -66.5t67 -12t60.5 45.5q24 36 51 32q22 -3 17 -29q-2 -14 -13 -30q-30 -44 -61 -62.5t-82 -17.5q-63 1 -98 39t-35 103q0 49 28 107t54 91.5t67 81.5q13 15 25.5 20.5t20 2t11.5 -11.5t0 -21.5t-16 -26.5z" />
    <glyph glyph-name="tilde" unicode="&#x2dc;" horiz-adv-x="745" 
d="M102 1567q17 57 55.5 86.5t92.5 29.5q33 0 69.5 -23.5t63 -51t60.5 -51t63 -23.5q27 0 48 9.5t34.5 27t21 32t15.5 35.5q9 24 29 21q21 -4 20 -30q-1 -11 -6 -23q-25 -56 -63.5 -90.5t-104.5 -34.5q-28 0 -56.5 15.5t-53 37.5t-47.5 44t-47 37.5t-44 16.5
q-42 1 -64.5 -21t-33.5 -67q-5 -20 -28 -19t-26 23q-1 9 2 19z" />
    <glyph glyph-name="hungarumlaut" unicode="&#x2dd;" horiz-adv-x="1228" 
d="M416 1710q10 19 31.5 18t31.5 -16.5t0 -38.5l-119 -203q-17 -28 -40.5 -12t-12.5 39zM637 1710q12 17 31.5 17.5t32.5 -16.5t1 -38l-120 -203q-17 -28 -41 -12t-13 39z" />
    <glyph glyph-name="gravecomb" unicode="&#x300;" 
d="M-334 1710l158 -215q9 -13 2 -28.5t-21.5 -17.5t-29.5 13l-168 203q-15 20 -4.5 38.5t29.5 20t34 -13.5z" />
    <glyph glyph-name="acutecomb" unicode="&#x301;" 
d="M-59 1450q13 17 34 13.5t29.5 -20t-4.5 -38.5l-168 -203q-8 -10 -18 -12.5t-17 1.5t-13 11t-6 16t5 17z" />
    <glyph glyph-name="uni0302" unicode="&#x302;" 
d="M-135 1233q17 -17 0 -35q-17 -20 -41 -4q-4 2 -8 6l-195 191l-194 -191q-23 -24 -46 -4q-18 15 -8 32q2 3 4 5l220 215q14 14 24 14.5t25 -14.5z" />
    <glyph glyph-name="tildecomb" unicode="&#x303;" 
d="M-643 1307q37 116 147 116q33 0 69.5 -23.5t63 -51t60.5 -51t63 -23.5q27 0 48 9.5t34.5 27t21 32t15.5 35.5q9 24 29 21q21 -4 20 -30q-1 -11 -6 -23q-25 -56 -63.5 -90.5t-104.5 -34.5q-28 0 -56.5 15.5t-53 37.5t-47.5 44t-47 37.5t-44 16.5q-42 1 -64.5 -21
t-33.5 -67q-5 -21 -28 -19q-22 2 -25 24q-1 8 2 18z" />
    <glyph glyph-name="uni0304" unicode="&#x304;" 
d="M-487 1307q34 0 48 -16t0 -32t-48 -16h-367q-37 0 -51 16t1.5 32t49.5 16h367z" />
    <glyph glyph-name="uni0306" unicode="&#x306;" 
d="M-465 1382q8 27 27 31.5t32 -10t7 -35.5q-27 -92 -79.5 -135t-144.5 -43t-144 43t-79 135q-6 21 6.5 35.5t31.5 10t28 -31.5q26 -73 61.5 -102t95.5 -27q61 -2 98 27.5t60 101.5z" />
    <glyph glyph-name="uni0307" unicode="&#x307;" 
d="M-686 1386q27 0 50.5 -21t23.5 -52q0 -37 -23 -56.5t-51 -19.5q-31 0 -53.5 21.5t-22.5 54.5q0 32 22.5 52.5t53.5 20.5z" />
    <glyph glyph-name="uni0308" unicode="&#x308;" 
d="M-569 1374q22 0 41.5 -17.5t19.5 -43.5q0 -31 -19 -47.5t-42 -16.5q-27 0 -45.5 17.5t-18.5 46.5q0 27 18.5 44t45.5 17zM-176 1374q26 0 44.5 -17t18.5 -44q0 -32 -18 -48t-45 -16q-23 0 -42.5 18t-19.5 46q0 26 19.5 43.5t42.5 17.5z" />
    <glyph glyph-name="uni030A" unicode="&#x30a;" 
d="M-244 1475q62 0 105 -42.5t43 -103.5q0 -63 -43 -105t-105 -42q-63 0 -106 42t-43 105q0 62 43 104t106 42zM-244 1415q-37 0 -63.5 -25.5t-26.5 -60.5q0 -37 26.5 -62.5t63.5 -25.5q36 0 62 26t26 62q0 35 -26.5 60.5t-61.5 25.5z" />
    <glyph glyph-name="uni030B" unicode="&#x30b;" 
d="M-813 1450q10 19 31.5 18t31.5 -16.5t0 -38.5l-118 -203q-17 -28 -41 -12t-13 39zM-592 1450q12 17 31.5 17.5t33 -16.5t1.5 -38l-121 -203q-17 -28 -40.5 -12t-12.5 39z" />
    <glyph glyph-name="uni030C" unicode="&#x30c;" 
d="M-125 1417l-219 -215q-15 -15 -25 -14.5t-24 14.5l-219 215q-16 16 0 34q19 21 42 5q4 -3 7 -6l194 -190l195 190q23 23 46 6q19 -15 7 -34q-2 -3 -4 -5z" />
    <glyph glyph-name="uni0326" unicode="&#x326;" 
d="M-940 -473q-13 -39 -39 -45q-20 -5 -23 16q-1 10 3 23l63 215q11 38 35 39q21 1 27 -24q5 -19 -3 -42z" />
    <glyph glyph-name="uni0327" unicode="&#x327;" 
d="M-262 -121q76 12 131 -28t55 -111q0 -77 -61 -120t-143 -35.5t-138 63.5q-20 20 -8 40q13 23 44 5q5 -3 11 -8q37 -29 79.5 -38.5t75 -0.5t54.5 32.5t23 55.5q1 33 -13 55.5t-35 30t-44 10.5t-41 -2q-35 -6 -45 9.5t4 43.5l53 115q20 44 45 43q18 0 18 -23
q-1 -15 -10 -32z" />
    <glyph glyph-name="uni0328" unicode="&#x328;" 
d="M-528 -31q-129 -145 -127 -245q1 -45 30 -66.5t66.5 -12t60.5 45.5t50 33q23 -3 19 -28q-1 -15 -13 -32q-29 -44 -60.5 -62.5t-83.5 -17.5q-63 1 -98 39t-35 103q0 37 13.5 76.5t40.5 79.5t46 64t50 60q13 15 25.5 20.5t20 2t11.5 -11.5t0 -21.5t-16 -26.5z" />
    <glyph glyph-name="uni0401" unicode="&#x401;" horiz-adv-x="1308" 
d="M514 1634q22 0 41.5 -17.5t19.5 -43.5q0 -31 -19 -47.5t-42 -16.5q-27 0 -45 17.5t-18 46.5q0 27 18 44t45 17zM907 1634q26 0 45 -17t19 -44q0 -32 -18.5 -48t-45.5 -16q-23 0 -42 18t-19 46q0 26 19 43.5t42 17.5zM256 66h905q20 0 28.5 -16.5t0 -33t-28.5 -16.5h-917
q-24 0 -40 16t-16 39v1194q0 22 16 38t40 16h919q19 0 27 -15.5t-0.5 -31t-28.5 -15.5h-905v-565h864q20 0 28.5 -15.5t0 -31t-28.5 -15.5h-864v-548z" />
    <glyph glyph-name="uni0410" unicode="&#x410;" horiz-adv-x="1427" 
d="M711 1339q19 0 28 -18l654 -1284q10 -21 -1 -36t-30 -15q-20 0 -29 18l-182 363h-881l-182 -363q-9 -18 -29 -18q-19 0 -29.5 15t-0.5 36l651 1284q9 18 31 18zM711 1239l-410 -811h817z" />
    <glyph glyph-name="uni0411" unicode="&#x411;" horiz-adv-x="1310" 
d="M793 735q180 0 298.5 -111t118.5 -257q0 -67 -31.5 -133t-85.5 -118t-133 -84t-167 -32h-570q-14 0 -24.5 10t-10.5 25v1235q0 14 10 23.5t23 9.5h879q21 0 30.5 -16t0.5 -32t-31 -16h-844v-504h537zM793 63q145 0 247.5 92t102.5 212q0 53 -26.5 107t-72 98t-112 72
t-139.5 28h-537v-609h537z" />
    <glyph glyph-name="uni0412" unicode="&#x412;" horiz-adv-x="1406" 
d="M721 1303q58 0 118 -8t129 -31t121.5 -59t87.5 -97.5t35 -140.5q0 -98 -53 -168t-151 -101q138 -28 220.5 -109.5t82.5 -217.5q0 -84 -30.5 -150t-79.5 -106.5t-118.5 -67t-140.5 -37t-151 -10.5h-566q-15 0 -26 11t-11 26v1229q0 15 11 26t26 11h496zM721 1241h-463
v-524h490q83 0 151 13t124 40.5t87 77.5t31 119q0 63 -31 113t-76.5 79t-105 48t-110 26t-97.5 8zM856 651h-598v-590h533q70 0 130 8t120 29t102.5 54.5t69 89.5t26.5 129q0 97 -52.5 161.5t-136 91.5t-194.5 27z" />
    <glyph glyph-name="uni0413" unicode="&#x413;" horiz-adv-x="1179" 
d="M227 1303h770q21 0 30.5 -16t0.5 -32t-31 -16h-737v-1200q0 -19 -10 -29t-25 -10q-14 0 -24.5 10t-10.5 29v1225q0 39 37 39z" />
    <glyph glyph-name="uni0414" unicode="&#x414;" horiz-adv-x="1345" 
d="M1243 61q37 0 37 -38v-263q0 -39 -27 -39q-30 0 -30 39v240h-1082v-240q0 -39 -30 -39q-27 0 -27 39v263q0 38 37 38h6q49 0 85 15.5t56 38.5t33.5 61.5t20 73t12.5 84.5q1 12 2 18l129 922q2 11 11.5 20t23.5 9h643q37 0 37 -39v-1203h63zM1110 61v1178h-578l-124 -887
q-15 -116 -40.5 -185t-78.5 -106h821z" />
    <glyph glyph-name="uni0415" unicode="&#x415;" horiz-adv-x="1308" 
d="M256 66h905q20 0 28.5 -16.5t0 -33t-28.5 -16.5h-917q-24 0 -40 16t-16 39v1194q0 22 16 38t40 16h919q19 0 27 -15.5t-0.5 -31t-28.5 -15.5h-905v-565h864q20 0 28.5 -15.5t0 -31t-28.5 -15.5h-864v-548z" />
    <glyph glyph-name="uni0416" unicode="&#x416;" horiz-adv-x="1982" 
d="M1921 57q20 -19 9.5 -38t-34.5 -19q-12 0 -24 12l-653 625l-193 -201v-403q0 -14 -10 -23.5t-25 -9.5q-14 0 -24.5 10t-10.5 23v403l-192 201l-653 -625q-12 -12 -25 -12q-24 0 -34.5 19t9.5 38l654 623l-611 565q-19 19 -6.5 38.5t35.5 19.5q14 0 25 -11l686 -643
l112 -131v750q0 14 11 24.5t24 10.5q15 0 25 -10.5t10 -24.5v-750l113 131l686 643q11 11 24 11q23 0 35.5 -19.5t-6.5 -38.5l-610 -565z" />
    <glyph glyph-name="uni0417" unicode="&#x417;" horiz-adv-x="1323" 
d="M823 657q200 0 311 -75.5t111 -219.5q0 -87 -37.5 -155t-96 -110t-137.5 -69t-155.5 -37.5t-156.5 -10.5q-69 0 -136 7.5t-143 28t-136.5 52t-109 85t-67.5 121.5q-6 19 7 32t30.5 9t23.5 -24q18 -62 68.5 -110t110 -74.5t132 -43t124.5 -21.5t96 -5q54 0 109 6.5
t114.5 20.5t111 39.5t92.5 59.5t65 85t24 112q0 131 -111 199t-326 68h-92q-20 0 -28.5 15.5t0 30.5t28.5 15h92q8 0 22.5 0.5t56 5.5t79.5 14.5t84 29.5t79 47.5t56 72t23 100.5q0 93 -74 164.5t-181 105.5t-222 34q-418 0 -498 -220q-7 -20 -25 -23.5t-29.5 10t-2.5 36.5
q28 76 90.5 129.5t145 80t160.5 37.5t161 11q58 0 124.5 -10t142 -36.5t135.5 -65.5t100 -104t40 -146q2 -129 -97.5 -214t-287.5 -85v-5z" />
    <glyph glyph-name="uni0418" unicode="&#x418;" horiz-adv-x="1406" 
d="M260 1264v-1137l889 1153q17 23 39 23q14 0 23.5 -11t9.5 -32v-1223q0 -18 -10 -27.5t-25 -9.5q-13 0 -23 9.5t-10 27.5v1141l-891 -1153q-20 -23 -41 -23q-13 0 -22 10t-9 29v1223q0 19 10 29t25 10q14 0 24.5 -10t10.5 -29z" />
    <glyph glyph-name="uni0419" unicode="&#x419;" horiz-adv-x="1406" 
d="M856 1642q8 27 27 31.5t32 -10t7 -35.5q-27 -92 -79.5 -135t-144.5 -43t-144 43t-79 135q-6 21 7 35.5t32 10t27 -31.5q26 -73 61.5 -102t95.5 -27q60 -2 96 27t62 102zM260 1264v-1137l889 1153q17 23 39 23q14 0 23.5 -11t9.5 -32v-1223q0 -18 -10 -27.5t-25 -9.5
q-13 0 -23 9.5t-10 27.5v1141l-891 -1153q-20 -23 -41 -23q-13 0 -22 10t-9 29v1223q0 19 10 29t25 10q14 0 24.5 -10t10.5 -29z" />
    <glyph glyph-name="uni041A" unicode="&#x41a;" horiz-adv-x="1284" 
d="M1116 1292q15 11 25 11q23 0 35 -20.5t-7 -37.5l-591 -524l634 -664q20 -19 9.5 -38t-33.5 -19q-13 0 -25 12l-635 666l-272 -242v-403q0 -14 -10 -23.5t-25 -9.5q-14 0 -24.5 10t-10.5 23v1235q0 14 11 24.5t24 10.5q15 0 25 -10.5t10 -24.5v-752z" />
    <glyph glyph-name="uni041B" unicode="&#x41b;" horiz-adv-x="1409" 
d="M1184 1303q37 0 37 -39v-1225q0 -19 -10.5 -29t-24.5 -10q-15 0 -25 10t-10 29v1200h-619l-124 -887q-8 -54 -23 -103t-42 -95t-62 -79.5t-86.5 -54t-112.5 -20.5q-22 0 -31 15t0 30.5t31 15.5q64 0 111.5 23.5t75.5 66.5t43.5 91t23.5 110l129 922q2 11 11.5 20t23.5 9
h684z" />
    <glyph glyph-name="uni041C" unicode="&#x41c;" horiz-adv-x="1642" 
d="M1389 1282q15 21 34 21q13 0 23 -9.5t10 -27.5v-1229q0 -17 -11 -27t-24 -10q-15 0 -25 9.5t-10 27.5v1118l-528 -829q-12 -23 -36 -23t-36 23l-528 825v-1114q0 -18 -10 -27.5t-25 -9.5q-13 0 -24 10t-11 27v1229q0 18 10 27.5t23 9.5q21 0 33 -21l569 -887z" />
    <glyph glyph-name="uni041D" unicode="&#x41d;" horiz-adv-x="1398" 
d="M252 655h889v609q0 19 10.5 29t24.5 10q15 0 24.5 -10t9.5 -29v-1229q0 -16 -10 -25.5t-24 -9.5q-13 0 -24 9.5t-11 25.5v559l-889 2v-561q0 -16 -10 -25.5t-23 -9.5q-14 0 -24.5 9.5t-10.5 25.5v1229q0 19 10 29t25 10q13 0 23 -10t10 -29v-609z" />
    <glyph glyph-name="uni041E" unicode="&#x41e;" horiz-adv-x="1525" 
d="M762 -20q-131 0 -252 53.5t-210 145t-141 221t-48 274.5q4 134 45 245t104.5 184.5t146.5 124t169 73t174 22.5q86 0 175 -23.5t175.5 -75t154.5 -125.5t111.5 -184t46.5 -241q4 -145 -47 -274.5t-140 -221t-210.5 -145t-253.5 -53.5zM180 672q-4 -129 42.5 -246.5
t126 -200.5t188 -132.5t225.5 -49.5q118 0 227 49.5t188.5 132.5t126 200.5t42.5 246.5q-3 121 -43 221.5t-101.5 166.5t-140 111.5t-157 65.5t-154.5 20q-80 0 -157.5 -20t-151 -66t-130 -112t-92.5 -166t-39 -221z" />
    <glyph glyph-name="uni041F" unicode="&#x41f;" horiz-adv-x="1398" 
d="M1196 1303q15 0 25 -10t10 -29v-1229q0 -16 -10.5 -25.5t-24.5 -9.5q-13 0 -24 9.5t-11 25.5v1206h-909v-1206q0 -16 -10 -25.5t-23 -9.5q-14 0 -24.5 9.5t-10.5 25.5v1229q0 19 10 29t25 10h977z" />
    <glyph glyph-name="uni0420" unicode="&#x420;" horiz-adv-x="1310" 
d="M256 403v-368q0 -16 -10.5 -25.5t-24.5 -9.5q-13 0 -23 9.5t-10 23.5v1235q0 15 10.5 25t24.5 10h465q125 0 226.5 -40t165 -106.5t97 -148.5t33.5 -170q0 -91 -32.5 -169t-95.5 -137.5t-163.5 -94t-228.5 -34.5h-434zM256 467h434q93 0 169.5 21t128.5 56.5t87.5 83.5
t51 101t14.5 109q-1 76 -32.5 147.5t-88 128t-142.5 91t-188 34.5h-434v-772z" />
    <glyph glyph-name="uni0421" unicode="&#x421;" horiz-adv-x="1366" 
d="M797 1323q140 0 253.5 -46.5t213.5 -154.5q23 -27 -1 -46.5t-46 5.5q-80 86 -166.5 128t-177.5 46.5t-203 -8.5q-219 -35 -351.5 -185.5t-138.5 -391.5q-4 -128 43.5 -244.5t129 -199t191.5 -131t228 -48.5q146 0 272 66q117 55 191 155q14 19 33 16.5t25.5 -19
t-5.5 -36.5q-78 -111 -215 -178q-139 -71 -303 -71q-132 0 -254 53t-212 144t-141.5 221t-47.5 274q6 255 155.5 429.5t388.5 213.5q63 8 138 8z" />
    <glyph glyph-name="uni0422" unicode="&#x422;" horiz-adv-x="1206" 
d="M33 1303h1128q23 0 32.5 -15.5t0 -31t-32.5 -15.5h-530l2 -1202q0 -19 -11.5 -29t-25.5 -10t-24.5 10t-10.5 29v1202h-528q-23 0 -32.5 15.5t0 31t32.5 15.5z" />
    <glyph glyph-name="uni0423" unicode="&#x423;" horiz-adv-x="1370" 
d="M1298 1317q14 -7 18 -21t-3 -26l-580 -1065q-68 -125 -129.5 -175t-165.5 -50q-22 0 -31 15t0 30.5t31 15.5q79 0 132.5 46.5t105.5 143.5l59 109l-579 930q-8 12 -5 26t17 23q10 6 23 3t20 -15l559 -893l481 889q6 12 20.5 16t26.5 -2z" />
    <glyph glyph-name="uni0424" unicode="&#x424;" horiz-adv-x="1755" 
d="M977 1227q315 0 490 -152.5t175 -419.5t-175 -419t-490 -152h-64v-70q0 -16 -10.5 -25t-25.5 -9t-26 9t-11 25v70h-64q-315 0 -490 152t-175 419t175 419.5t490 152.5h64v57q0 19 11 29t26 10t25.5 -10t10.5 -29v-57h64zM776 147h64v1014h-64q-282 0 -439 -135t-157 -371
q0 -238 156.5 -373t439.5 -135zM977 147q283 0 439.5 135t156.5 373q0 236 -157 371t-439 135h-64v-1014h64z" />
    <glyph glyph-name="uni0425" unicode="&#x425;" horiz-adv-x="1314" 
d="M657 711l500 577q12 15 29 15q20 0 29 -18t-7 -40l-510 -579l533 -607q16 -23 8.5 -41t-27.5 -18q-19 0 -32 16l-523 605l-522 -605q-13 -16 -33 -16q-21 0 -28.5 18t10.5 41l528 607l-506 581q-17 20 -8 38t29 18q17 0 29 -15z" />
    <glyph glyph-name="uni0426" unicode="&#x426;" horiz-adv-x="1398" 
d="M1286 61q37 0 37 -38v-263q0 -39 -27 -39q-30 0 -30 39v240h-1047q-15 0 -25 10t-10 29v1229q0 16 10.5 25.5t24.5 9.5q13 0 23 -9.5t10 -25.5v-1207h909v1207q0 16 11 25.5t24 9.5q14 0 24.5 -9.5t10.5 -25.5v-1207h55z" />
    <glyph glyph-name="uni0427" unicode="&#x427;" horiz-adv-x="1320" 
d="M233 858q0 -166 115 -275.5t273 -109.5q303 0 460 186v607q0 37 35 37q37 0 37 -37v-1231q0 -18 -10 -26.5t-25 -8.5t-26 9.5t-11 27.5v528q-162 -162 -463 -162q-119 0 -221.5 51.5t-168.5 157t-66 246.5v408q0 37 35 37q36 0 36 -37v-408z" />
    <glyph glyph-name="uni0428" unicode="&#x428;" horiz-adv-x="1701" 
d="M1585 1303q14 0 24.5 -9.5t10.5 -25.5v-1229q0 -19 -10 -29t-25 -10h-733h-2h-733q-15 0 -25 10t-10 29v1229q0 16 10.5 25.5t24.5 9.5q13 0 23 -9.5t10 -25.5v-1207h665v1207q0 16 11 25.5t24 9.5q14 0 24.5 -9.5t10.5 -25.5v-1207h665v1207q0 16 11 25.5t24 9.5z" />
    <glyph glyph-name="uni0429" unicode="&#x429;" horiz-adv-x="1701" 
d="M1677 61q37 0 37 -38v-263q0 -39 -26 -39q-31 0 -31 39v240h-805h-2h-733q-15 0 -25 10t-10 29v1229q0 16 10.5 25.5t24.5 9.5q13 0 23 -9.5t10 -25.5v-1207h665v1207q0 16 11 25.5t24 9.5q14 0 24.5 -9.5t10.5 -25.5v-1207h665v1207q0 16 11 25.5t24 9.5q14 0 24.5 -9.5
t10.5 -25.5v-1207h57z" />
    <glyph glyph-name="uni042A" unicode="&#x42a;" horiz-adv-x="1316" 
d="M735 844q255 0 387.5 -108.5t132.5 -293.5q0 -88 -33.5 -166.5t-97 -140.5t-164.5 -98.5t-227 -36.5h-465q-14 0 -24.5 10t-10.5 25v1206h-153q-39 0 -39 31q0 13 10 22t29 9h186q14 0 24.5 -9.5t10.5 -25.5v-424h434zM735 63q203 0 326 110.5t125 268.5
q3 148 -110.5 243.5t-340.5 94.5h-434v-717h434z" />
    <glyph glyph-name="uni042B" unicode="&#x42b;" horiz-adv-x="1445" 
d="M129 844h434q255 0 387.5 -108.5t132.5 -293.5q0 -88 -33.5 -166.5t-97 -140.5t-164.5 -98.5t-227 -36.5h-465q-14 0 -24.5 10t-10.5 25v1235q0 14 10 23.5t23 9.5q14 0 24.5 -9.5t10.5 -25.5v-424zM1311 1264q0 19 11 29t26 10t25.5 -10t10.5 -29v-1229
q0 -16 -10.5 -25.5t-25.5 -9.5t-26 9.5t-11 25.5v1229zM129 780v-717h434q203 0 326 110.5t125 268.5q3 148 -110.5 243.5t-340.5 94.5h-434z" />
    <glyph glyph-name="uni042C" unicode="&#x42c;" horiz-adv-x="1310" 
d="M256 844h434q255 0 387.5 -108.5t132.5 -293.5q0 -88 -33.5 -166.5t-97 -140.5t-164.5 -98.5t-227 -36.5h-465q-14 0 -24.5 10t-10.5 25v1235q0 14 10 23.5t23 9.5q14 0 24.5 -9.5t10.5 -25.5v-424zM256 780v-717h434q203 0 326 110.5t125 268.5q3 148 -110.5 243.5
t-340.5 94.5h-434z" />
    <glyph glyph-name="uni042D" unicode="&#x42d;" horiz-adv-x="1366" 
d="M1251 672q4 -144 -47.5 -274t-141.5 -221t-212 -144t-254 -53q-152 0 -293.5 66t-224.5 183q-14 18 -5.5 36.5t25.5 19.5t33 -17q77 -103 202 -162t261 -59q150 0 282 73.5t216 204.5t94 289h-752q-20 0 -28.5 15.5t0 31t28.5 15.5h752q-7 238 -140 387t-350 184
q-112 13 -203 8.5t-177 -46.5t-166 -128q-22 -25 -46.5 -5.5t-1.5 46.5q100 108 213.5 154.5t253.5 46.5q75 0 138 -8q239 -39 388.5 -213.5t155.5 -429.5z" />
    <glyph glyph-name="uni042E" unicode="&#x42e;" horiz-adv-x="1976" 
d="M1802 674q4 -145 -47 -274.5t-140 -221t-210.5 -145t-253.5 -53.5q-167 0 -312.5 81.5t-237 228t-101.5 324.5h-238v-579q0 -16 -11 -25.5t-26 -9.5t-26 9.5t-11 25.5v1229q0 19 11 29t26 10t26 -10t11 -29v-588h238q4 133 45 243.5t104.5 184t146.5 124t169 73t174 22.5
q86 0 175 -23.5t175.5 -75t154.5 -125.5t111.5 -184t46.5 -241zM1151 43q118 0 227 49.5t188.5 132.5t126 200.5t42.5 246.5q-3 121 -43 221.5t-101.5 166.5t-140 111.5t-157 65.5t-154.5 20q-80 0 -157.5 -20t-151 -66t-130 -112t-92.5 -166t-39 -221q-4 -129 42.5 -246.5
t126 -200.5t188 -132.5t225.5 -49.5z" />
    <glyph glyph-name="uni042F" unicode="&#x42f;" horiz-adv-x="1345" 
d="M1194 479h-479l-447 -467q-12 -12 -24 -12q-20 0 -28 19.5t9 39.5l410 418q-219 17 -333 123.5t-114 276.5q0 182 140 304t389 122h510q15 0 25 -10t10 -25v-1235q0 -14 -10 -23.5t-23 -9.5q-14 0 -24.5 9.5t-10.5 25.5v444zM1194 539v700h-479q-206 0 -330.5 -103.5
t-126.5 -258.5q-2 -71 24.5 -131.5t80 -107t142.5 -73t204 -26.5h485z" />
    <glyph glyph-name="uni0430" unicode="&#x430;" horiz-adv-x="1261" 
d="M629 1063q142 0 245.5 -64t149.5 -178v185q0 36 35 36q37 0 37 -36v-969q0 -37 -37 -37q-35 0 -35 37v176q-108 -233 -403 -233q-106 0 -201.5 38.5t-168 108.5t-114 178.5t-37.5 239.5q4 123 50 223.5t120.5 163.5t166.5 97t192 34zM1024 428v178q0 91 -32 165.5
t-87 122t-126 73t-150 24.5q-138 -1 -242 -62t-157.5 -160t-57.5 -222q-7 -212 118 -354t314 -142q80 0 154 24t134 69t96 118.5t36 165.5z" />
    <glyph glyph-name="uni0431" unicode="&#x431;" horiz-adv-x="1222" 
d="M1141 475q0 -229 -136.5 -362t-375.5 -133t-385.5 135.5t-145.5 359.5v234q0 293 133.5 443.5t393.5 150.5q85 0 168.5 27.5t146.5 76.5q29 22 52 0t-5 -51q-62 -57 -156.5 -90t-197.5 -33q-198 0 -309 -92q-150 -126 -150 -412q36 72 92 123t120.5 76t122.5 35t120 10
q234 0 373 -136.5t139 -361.5zM1071 475q0 109 -35.5 192.5t-97.5 133.5t-140 75t-169 25q-93 0 -175 -27t-146 -78.5t-101 -134t-37 -186.5q0 -199 125 -312.5t334 -113.5q210 0 326 112t116 314z" />
    <glyph glyph-name="uni0432" unicode="&#x432;" horiz-adv-x="1165" 
d="M809 561q112 -23 178 -88.5t66 -175.5q0 -67 -24.5 -120t-64 -85.5t-95 -53.5t-112.5 -29.5t-122 -8.5h-447q-15 0 -25.5 9.5t-10.5 27.5v975q0 13 9 21.5t25 8.5h394q47 0 95 -6t104 -24t97.5 -46t70 -77t28.5 -113q0 -78 -43.5 -134t-122.5 -81zM905 776
q0 51 -23.5 89.5t-58 59.5t-81.5 33.5t-85 16.5t-77 4h-357v-397h377q68 0 120 9t95.5 30t66.5 60t23 95zM635 63q57 0 103 5t93.5 20t79 40t52 68t20.5 101q0 115 -79 168t-216 53h-465v-455h412z" />
    <glyph glyph-name="uni0433" unicode="&#x433;" horiz-adv-x="1179" 
d="M227 1042h709q21 0 30.5 -15.5t0.5 -31.5t-31 -16h-676v-940q0 -19 -10 -29t-25 -10q-14 0 -24.5 10t-10.5 29v965q0 38 37 38z" />
    <glyph glyph-name="uni0434" unicode="&#x434;" horiz-adv-x="1228" 
d="M1108 63q15 0 25 -9.5t10 -28.5v-236q0 -35 -31 -35q-13 0 -22 9.5t-9 25.5v211h-966v-211q0 -16 -9 -25.5t-22 -9.5q-31 0 -31 35v236q0 19 10 28.5t25 9.5h37q150 23 184 289l94 662q2 11 11.5 19.5t23.5 8.5h570q34 0 34 -38v-941h66zM973 63v914l-502 2l-90 -627
q-28 -194 -129 -289h721z" />
    <glyph glyph-name="uni0435" unicode="&#x435;" horiz-adv-x="1267" 
d="M1163 524q2 -27 -12 -47t-51 -20h-922q21 -170 146 -287.5t307 -120.5q180 -3 321 105q29 22 52 -0.5t-5 -51.5q-134 -125 -362 -122q-159 2 -285 79t-192 209t-58 291q6 122 54.5 220.5t124.5 159t166.5 92.5t185.5 32q103 0 196 -33.5t167.5 -98t119.5 -170t47 -237.5z
M176 524h918q-2 117 -42.5 209.5t-106 147.5t-144.5 83.5t-164 28.5q-92 0 -175 -32.5t-146.5 -91t-101 -148t-38.5 -197.5z" />
    <glyph glyph-name="uni0436" unicode="&#x436;" horiz-adv-x="1505" 
d="M1456 59q15 -22 5 -40.5t-31 -18.5q-13 0 -25 12l-455 541l-162 -158v-358q0 -18 -10.5 -27.5t-23.5 -9.5q-15 0 -26 9.5t-11 27.5v358l-162 158l-455 -541q-12 -12 -24 -12q-21 0 -31.5 18.5t4.5 40.5l451 539l-410 381q-20 22 -11 42.5t32 20.5q18 0 32 -14l453 -430
l121 -127v535q0 18 10 27t25 9t25.5 -9t10.5 -27v-535l123 127l451 430q14 14 33 14q23 0 31.5 -20.5t-11.5 -42.5l-409 -381z" />
    <glyph glyph-name="uni0437" unicode="&#x437;" horiz-adv-x="1089" 
d="M750 532q115 -11 183 -69.5t68 -173.5q0 -70 -32 -126t-80.5 -89.5t-112 -55.5t-120 -30t-111.5 -8t-109.5 6t-116 23t-109.5 43.5t-84.5 71t-47.5 101.5q-8 25 7.5 39t35 7t22.5 -33q13 -61 76 -106t148 -66t178 -21q52 0 113 12.5t124.5 39t105.5 77t42 115.5
q0 211 -387 211h-92q-20 0 -28.5 15t0 30.5t28.5 15.5h90q7 0 20 0.5t50.5 4.5t71 11t75 22t71 35t50 53.5t20.5 74.5q0 60 -35.5 107t-92 73t-117 39.5t-119.5 13.5q-294 0 -357 -170q-7 -21 -26.5 -25.5t-33.5 10.5t-7 42q81 211 424 211q100 0 197 -33t167 -104t70 -164
q0 -89 -63 -151t-156 -74v-5z" />
    <glyph glyph-name="uni0438" unicode="&#x438;" horiz-adv-x="1398" 
d="M1081 1042q15 0 25 -9t10 -25v-969q0 -19 -10 -29t-25 -10q-13 0 -22.5 10t-9.5 29v887l-787 -906q-17 -20 -43 -20q-14 0 -24.5 9.5t-10.5 25.5v969q0 19 10 28.5t25 9.5q13 0 23 -9.5t10 -28.5v-887l786 905q17 20 43 20z" />
    <glyph glyph-name="uni0439" unicode="&#x439;" horiz-adv-x="1398" 
d="M819 1382q8 27 27 31.5t32 -10t7 -35.5q-27 -92 -79 -135t-144 -43t-144.5 43t-79.5 135q-6 21 7 35.5t32 10t27 -31.5q26 -73 62 -102t96 -27q60 -2 95.5 27t61.5 102zM1081 1042q15 0 25 -9t10 -25v-969q0 -19 -10 -29t-25 -10q-13 0 -22.5 10t-9.5 29v887l-787 -906
q-17 -20 -43 -20q-14 0 -24.5 9.5t-10.5 25.5v969q0 19 10 28.5t25 9.5q13 0 23 -9.5t10 -28.5v-887l786 905q17 20 43 20z" />
    <glyph glyph-name="uni043A" unicode="&#x43a;" horiz-adv-x="1009" 
d="M856 1028q14 14 33 14q23 0 31.5 -20.5t-11.5 -42.5l-432 -381l473 -539q15 -22 5 -40.5t-31 -18.5q-13 0 -25 12l-477 541l-180 -158v-358q0 -17 -11 -27t-24 -10q-15 0 -26 9.5t-11 27.5v969q0 23 18 32.5t36 0t18 -32.5v-525z" />
    <glyph glyph-name="uni043B" unicode="&#x43b;" horiz-adv-x="1103" 
d="M1008 1042q34 0 34 -38v-969q0 -16 -10 -25.5t-24 -9.5q-13 0 -24 9.5t-11 25.5v946l-481 2l-91 -631q-10 -69 -32.5 -128.5t-60 -111.5t-97 -82t-135.5 -30q-22 0 -31 15t0 30.5t31 15.5q64 0 111.5 23.5t75.5 66.5t43.5 91t23.5 110l94 662q2 11 11.5 19.5t23.5 8.5
h549z" />
    <glyph glyph-name="uni043C" unicode="&#x43c;" horiz-adv-x="1292" 
d="M1128 1042q15 0 26 -9t11 -27v-969q0 -18 -11 -27.5t-26 -9.5q-13 0 -23.5 9.5t-10.5 27.5v860l-54 -94l-350 -527q-12 -19 -31.5 -19t-31.5 19l-351 527l-53 94v-860q0 -17 -11 -27t-24 -10q-15 0 -25.5 9.5t-10.5 27.5v969q0 18 10.5 27t25.5 9q21 0 29 -14l442 -682
l441 682q8 14 28 14z" />
    <glyph glyph-name="uni043D" unicode="&#x43d;" horiz-adv-x="1398" 
d="M252 578h747v426q0 19 10.5 28.5t24.5 9.5q15 0 25 -9.5t10 -28.5v-969q0 -16 -10.5 -25.5t-24.5 -9.5q-13 0 -24 9.5t-11 25.5v481l-747 2v-483q0 -16 -10 -25.5t-23 -9.5q-14 0 -24.5 9.5t-10.5 25.5v969q0 19 10 28.5t25 9.5q13 0 23 -9.5t10 -28.5v-426z" />
    <glyph glyph-name="uni043E" unicode="&#x43e;" horiz-adv-x="1261" 
d="M631 -20q-122 0 -228 46.5t-180 135.5q-135 164 -123 397q14 170 114 305.5t261 179.5q74 19 156 19q72 0 153 -19q161 -44 262 -179.5t115 -305.5q12 -233 -123 -397q-75 -89 -180 -135.5t-227 -46.5zM762 975q-66 16 -133 16q-63 0 -129 -16q-115 -30 -196.5 -120.5
t-111.5 -201t-8.5 -233t97.5 -213.5q63 -75 155 -116.5t195 -41.5q104 0 197.5 41.5t156.5 116.5q76 91 97 213.5t-10 233t-113 201t-197 120.5z" />
    <glyph glyph-name="uni043F" unicode="&#x43f;" horiz-adv-x="1398" 
d="M1014 1042q15 0 25 -9.5t10 -28.5v-969q0 -16 -10.5 -25.5t-24.5 -9.5q-13 0 -24 9.5t-11 25.5v948h-727v-948q0 -16 -10 -25.5t-23 -9.5q-14 0 -24.5 9.5t-10.5 25.5v969q0 19 10 28.5t25 9.5h795z" />
    <glyph glyph-name="uni0440" unicode="&#x440;" horiz-adv-x="1269" 
d="M852 16q-84 -36 -217 -36q-132 0 -238.5 63t-156.5 180v-592q0 -37 -35 -37q-37 0 -37 37v1375q0 36 37 36q35 0 35 -36v-197q42 111 149 182q122 72 254 72q104 0 199 -40.5t167.5 -113t114.5 -182t39 -238.5q-5 -160 -86.5 -288.5t-224.5 -184.5zM240 606v-178
q0 -158 111.5 -264.5t283.5 -112.5q206 -3 328.5 122t128.5 314q3 103 -25.5 190t-76.5 143.5t-109 96t-120.5 57t-113.5 17.5q-106 0 -197 -43t-150.5 -132.5t-59.5 -209.5z" />
    <glyph glyph-name="uni0441" unicode="&#x441;" horiz-adv-x="1087" 
d="M946 840q-134 155 -332 155q-90 0 -170.5 -33t-142 -92.5t-97.5 -151.5t-36 -202q0 -202 127.5 -334.5t327.5 -132.5q99 0 189.5 41t152.5 119q10 13 24 16q31 3 41 -32q0 -21 -8 -29q-72 -90 -178 -137t-223 -47q-231 0 -379 153.5t-148 384.5q0 244 146 394.5
t393 150.5q215 0 368 -176q9 -12 9 -21q2 -15 -6.5 -27.5t-24.5 -13.5q-21 -3 -33 15z" />
    <glyph glyph-name="uni0442" unicode="&#x442;" horiz-adv-x="1206" 
d="M203 1042h792q23 0 32.5 -15t0 -30.5t-32.5 -15.5h-364l2 -942q0 -19 -11.5 -29t-25.5 -10t-24.5 10t-10.5 29v942h-358q-23 0 -32.5 15.5t0 30.5t32.5 15z" />
    <glyph glyph-name="uni0443" unicode="&#x443;" horiz-adv-x="1144" 
d="M47 995q-8 19 4 33t31 14q21 0 35 -22l450 -914l461 910q12 26 37 26q20 0 31.5 -15t1.5 -36l-611 -1177q-69 -131 -208 -131q-27 0 -38 17.5t0 35.5t38 18q51 0 90 21.5t59 60.5l96 191z" />
    <glyph glyph-name="uni0444" unicode="&#x444;" horiz-adv-x="1581" 
d="M1024 987q200 0 328.5 -131t128.5 -336q0 -198 -127.5 -331.5t-329.5 -133.5q-112 0 -197 39v-209q0 -14 -10.5 -24.5t-23.5 -10.5q-17 0 -27 10.5t-10 24.5v211q-86 -41 -199 -41q-203 0 -330 133t-127 332q0 205 128 336t329 131q71 0 131 -14q14 -4 36.5 -13t31.5 -12
v168q0 14 10 24.5t27 10.5q13 0 23.5 -10.5t10.5 -24.5v-168l64 25q63 14 133 14zM557 115q124 0 199 35v735q-80 41 -201 41q-167 0 -279 -110.5t-112 -295.5q0 -174 109 -289.5t284 -115.5zM1024 115q175 0 284 115.5t109 289.5q0 185 -112.5 295.5t-278.5 110.5
q-127 0 -199 -41v-738q78 -32 197 -32z" />
    <glyph glyph-name="uni0445" unicode="&#x445;" horiz-adv-x="1064" 
d="M84 977q-18 22 -10.5 43.5t30.5 21.5q20 0 31 -14l381 -457l406 457q11 14 28 14q22 0 33 -18t-6 -41l-408 -457l422 -465q19 -22 9.5 -41.5t-31.5 -19.5q-20 0 -35 18l-418 461l-391 -463q-13 -16 -35 -16q-23 0 -30.5 21.5t14.5 46.5l393 458z" />
    <glyph glyph-name="uni0446" unicode="&#x446;" horiz-adv-x="1398" 
d="M1114 61q15 0 25 -9.5t10 -28.5v-234q0 -35 -31 -35q-13 0 -22 9.5t-9 25.5v211h-868q-15 0 -25 10t-10 29v969q0 16 10 25t25 9q13 0 23 -9t10 -25v-947h727v947q0 16 11 25t24 9q15 0 25 -9t10 -25v-947h65z" />
    <glyph glyph-name="uni0447" unicode="&#x447;" horiz-adv-x="1073" 
d="M133 741q0 -168 105.5 -276.5t261.5 -108.5q84 0 163 20t155.5 71t121.5 128v431q0 36 35 36q37 0 37 -36v-971q0 -18 -10 -26.5t-25 -8.5t-26 9.5t-11 27.5v438q-162 -188 -442 -188q-88 0 -166.5 30.5t-139 86.5t-96 143t-35.5 194v265q0 36 35 36q37 0 37 -36v-265z
" />
    <glyph glyph-name="uni0448" unicode="&#x448;" horiz-adv-x="1488" 
d="M1372 1042q15 0 25 -9t10 -25v-969q0 -19 -10 -29t-25 -10h-627h-2h-626q-15 0 -25 10t-10 29v969q0 16 10 25t25 9q13 0 23 -9t10 -25v-947h559v947q0 16 10.5 25t23.5 9q15 0 25 -9t10 -25v-947h559v947q0 16 11 25t24 9z" />
    <glyph glyph-name="uni0449" unicode="&#x449;" horiz-adv-x="1589" 
d="M1473 61q34 0 34 -38v-234q0 -35 -30 -35q-13 0 -22 9.5t-9 25.5v209l-701 2h-2h-626q-15 0 -25 10t-10 29v969q0 16 10 25t25 9q13 0 23 -9t10 -25v-947h559v947q0 16 10.5 25t23.5 9q15 0 25 -9t10 -25v-947h559v947q0 16 11 25t24 9q15 0 25 -9t10 -25v-947h66z" />
    <glyph glyph-name="uni044A" unicode="&#x44a;" horiz-adv-x="1310" 
d="M692 655q102 0 184.5 -27.5t133 -73.5t77.5 -103t27 -119q0 -63 -27.5 -122t-78.5 -106t-133.5 -75.5t-184.5 -28.5h-368q-13 2 -23 11.5t-10 25.5v944h-234q-16 0 -25.5 9t-9.5 22q0 30 35 30h267h2h2q11 0 20 -6q14 -10 14 -26v-2v-353h332zM692 61q169 0 260.5 80
t91.5 191q0 110 -89.5 187t-262.5 77h-332v-535h332z" />
    <glyph glyph-name="uni044B" unicode="&#x44b;" horiz-adv-x="1712" 
d="M692 655q102 0 184.5 -27.5t133 -73.5t77.5 -103t27 -119q0 -63 -27.5 -122t-78.5 -106t-133.5 -75.5t-184.5 -28.5h-368q-13 2 -23 11.5t-10 25.5v969q0 18 11 27t26 9q13 0 23.5 -9t10.5 -25v-353h332zM1323 1006q0 18 11 27t26 9q13 0 24 -9t11 -25v-971
q0 -17 -11 -27t-24 -10q-15 0 -26 9.5t-11 27.5v969zM692 61q169 0 260.5 80t91.5 191q0 110 -89.5 187t-262.5 77h-332v-535h332z" />
    <glyph glyph-name="uni044C" unicode="&#x44c;" horiz-adv-x="1310" 
d="M692 655q102 0 184.5 -27.5t133 -73.5t77.5 -103t27 -119q0 -63 -27.5 -122t-78.5 -106t-133.5 -75.5t-184.5 -28.5h-368q-13 2 -23 11.5t-10 25.5v969q0 18 11 27t26 9q13 0 23.5 -9t10.5 -25v-353h332zM692 61q169 0 260.5 80t91.5 191q0 110 -89.5 187t-262.5 77h-332
v-535h332z" />
    <glyph glyph-name="uni044D" unicode="&#x44d;" horiz-adv-x="1087" 
d="M455 1063q246 0 392 -150.5t146 -394.5q0 -231 -147.5 -384.5t-378.5 -153.5q-117 0 -222.5 47t-178.5 137q-13 16 -5 35.5t26.5 22.5t39.5 -19q125 -154 338 -154q192 0 318 123t137 315h-484q-20 0 -28.5 15.5t0 31t28.5 15.5h484q-7 137 -71 240t-162 154.5t-214 51.5
q-213 0 -332 -155q-17 -21 -38 -18.5t-26.5 21.5t9.5 44q153 176 369 176z" />
    <glyph glyph-name="uni044E" unicode="&#x44e;" horiz-adv-x="1662" 
d="M1509 559q12 -233 -123 -397q-75 -89 -180 -135.5t-227 -46.5t-228 46.5t-180 135.5q-113 137 -122 325h-209v-450q0 -17 -11 -27t-24 -10q-15 0 -26 9.5t-11 27.5v969q0 18 11 27t26 9q13 0 24 -9t11 -25v-459h209v10q14 170 113.5 305.5t260.5 179.5q74 19 156 19
q73 0 154 -19q161 -44 261.5 -179.5t114.5 -305.5zM1333 207q76 91 97 213.5t-10 233t-113 201t-197 120.5q-66 16 -133 16q-63 0 -129 -16q-115 -30 -196.5 -120.5t-111.5 -201t-8.5 -233t97.5 -213.5q63 -75 155 -116.5t195 -41.5q104 0 197.5 41.5t156.5 116.5z" />
    <glyph glyph-name="uni044F" unicode="&#x44f;" horiz-adv-x="1345" 
d="M1022 1014v-987q0 -10 -10.5 -18.5t-24.5 -8.5q-15 0 -26 9.5t-11 27.5v348h-356l-358 -373q-16 -17 -36 -11t-26 24t8 36l314 324q-165 18 -250.5 103t-85.5 217q0 145 116.5 241t319.5 96h397q24 -8 29 -28zM950 446v535l-356 2q-166 0 -264.5 -77.5t-98.5 -200.5
q0 -119 90 -189t273 -70h356z" />
    <glyph glyph-name="uni0451" unicode="&#x451;" horiz-adv-x="1267" 
d="M428 1374q22 0 41.5 -17.5t19.5 -43.5q0 -31 -19 -47.5t-42 -16.5q-27 0 -45 17.5t-18 46.5q0 27 18 44t45 17zM821 1374q26 0 45 -17t19 -44q0 -32 -18.5 -48t-45.5 -16q-23 0 -42 18t-19 46q0 26 19 43.5t42 17.5zM1163 524q2 -27 -12 -47t-51 -20h-922
q21 -170 146 -287.5t307 -120.5q180 -3 321 105q29 22 52 -0.5t-5 -51.5q-134 -125 -362 -122q-159 2 -285 79t-192 209t-58 291q6 122 54.5 220.5t124.5 159t166.5 92.5t185.5 32q103 0 196 -33.5t167.5 -98t119.5 -170t47 -237.5zM176 524h918q-2 117 -42.5 209.5
t-106 147.5t-144.5 83.5t-164 28.5q-92 0 -175 -32.5t-146.5 -91t-101 -148t-38.5 -197.5z" />
    <glyph glyph-name="Wgrave" unicode="&#x1e80;" horiz-adv-x="2396" 
d="M1102 1710l158 -215q9 -13 1.5 -28.5t-22 -17.5t-29.5 13l-168 203q-15 20 -4.5 38.5t30 20t34.5 -13.5zM647 104l516 1045q9 21 34.5 22t37.5 -20l516 -1047l514 1176q9 23 33 23q18 0 30 -15.5t3 -34.5l-549 -1245q-9 -21 -32 -21t-34 21l-518 1057l-518 -1057
q-9 -21 -33 -21t-33 21l-546 1245q-9 19 2.5 34.5t29.5 15.5q22 0 31 -23z" />
    <glyph glyph-name="wgrave" unicode="&#x1e81;" horiz-adv-x="1925" 
d="M870 1470l158 -215q9 -13 2 -28t-21.5 -17t-29.5 13l-168 202q-15 20 -4.5 38.5t29.5 20t34 -13.5zM70 991q-8 23 3.5 37t30.5 14q26 0 35 -22l400 -909l393 804q10 23 34 23t35 -23l400 -806l393 911q10 22 35 22q19 0 30 -13t1 -36l-428 -983q-9 -19 -33 -19t-33 19
l-395 819l-404 -819q-9 -19 -34 -19t-35 19z" />
    <glyph glyph-name="Wacute" unicode="&#x1e82;" horiz-adv-x="2396" 
d="M1315 1696q14 16 35 10.5t28 -23t-8 -38.5l-184 -187q-15 -15 -31 -10.5t-20 19.5t4 28zM647 104l516 1045q9 21 34.5 22t37.5 -20l516 -1047l514 1176q9 23 33 23q18 0 30 -15.5t3 -34.5l-549 -1245q-9 -21 -32 -21t-34 21l-518 1057l-518 -1057q-9 -21 -33 -21t-33 21
l-546 1245q-9 19 2.5 34.5t29.5 15.5q22 0 31 -23z" />
    <glyph glyph-name="wacute" unicode="&#x1e83;" horiz-adv-x="1925" 
d="M1073 1470q13 17 34.5 13.5t29.5 -20t-4 -38.5l-168 -202q-13 -16 -29.5 -13t-22 17t1.5 28zM70 991q-8 23 3.5 37t30.5 14q26 0 35 -22l400 -909l393 804q10 23 34 23t35 -23l400 -806l393 911q10 22 35 22q19 0 30 -13t1 -36l-428 -983q-9 -19 -33 -19t-33 19l-395 819
l-404 -819q-9 -19 -34 -19t-35 19z" />
    <glyph glyph-name="Wdieresis" unicode="&#x1e84;" horiz-adv-x="2396" 
d="M991 1634q22 0 42 -17.5t20 -43.5q0 -31 -19.5 -47.5t-42.5 -16.5q-27 0 -45 17.5t-18 46.5q0 27 18 44t45 17zM1384 1634q26 0 45 -17t19 -44q0 -32 -18.5 -48t-45.5 -16q-23 0 -42 18t-19 46q0 26 19 43.5t42 17.5zM647 104l516 1045q9 21 34.5 22t37.5 -20l516 -1047
l514 1176q9 23 33 23q18 0 30 -15.5t3 -34.5l-549 -1245q-9 -21 -32 -21t-34 21l-518 1057l-518 -1057q-9 -21 -33 -21t-33 21l-546 1245q-9 19 2.5 34.5t29.5 15.5q22 0 31 -23z" />
    <glyph glyph-name="wdieresis" unicode="&#x1e85;" horiz-adv-x="1925" 
d="M760 1395q22 0 41.5 -18t19.5 -44q0 -31 -19 -47t-42 -16q-27 0 -45.5 17.5t-18.5 45.5q0 27 18.5 44.5t45.5 17.5zM1153 1395q26 0 45 -17.5t19 -44.5q0 -32 -18.5 -47.5t-45.5 -15.5q-23 0 -42 17.5t-19 45.5q0 27 19 44.5t42 17.5zM70 991q-8 23 3.5 37t30.5 14
q26 0 35 -22l400 -909l393 804q10 23 34 23t35 -23l400 -806l393 911q10 22 35 22q19 0 30 -13t1 -36l-428 -983q-9 -19 -33 -19t-33 19l-395 819l-404 -819q-9 -19 -34 -19t-35 19z" />
    <glyph glyph-name="Ygrave" unicode="&#x1ef2;" horiz-adv-x="1263" 
d="M524 1706l176 -201q10 -12 4 -28t-20 -19.5t-31 10.5l-184 187q-16 19 -8 38.5t27 23t36 -10.5zM596 530l-537 715q-17 22 -10 40t29 18q19 0 33 -17l520 -698l518 698q14 17 33 17q21 0 27.5 -18t-9.5 -40l-534 -715v-491q0 -19 -10.5 -29t-24.5 -10q-15 0 -25 10
t-10 29v491z" />
    <glyph glyph-name="ygrave" unicode="&#x1ef3;" horiz-adv-x="1144" 
d="M487 1450l158 -215q9 -13 2 -28.5t-21.5 -17.5t-29.5 13l-168 203q-15 20 -4.5 38.5t29.5 20t34 -13.5zM47 995q-8 19 4 33t31 14q21 0 35 -22l461 -914l450 910q12 26 37 26q20 0 31.5 -15t1.5 -36l-690 -1362q-14 -26 -33.5 -30t-30.5 12.5t-2 40.5l190 385z" />
    <glyph glyph-name="endash" unicode="&#x2013;" horiz-adv-x="831" 
d="M696 582h-565q-25 0 -34.5 18t1 35.5t33.5 17.5h565q23 0 32.5 -17.5t0 -35.5t-32.5 -18z" />
    <glyph glyph-name="emdash" unicode="&#x2014;" horiz-adv-x="1105" 
d="M131 584q-25 0 -34.5 17t1 34.5t33.5 17.5h850q23 0 32.5 -17.5t0 -34.5t-32.5 -17h-850z" />
    <glyph glyph-name="quoteleft" unicode="&#x2018;" horiz-adv-x="296" 
d="M180 1315q9 19 28 19.5t30 -15t2 -33.5l-93 -207q-16 -37 -46 -30q-22 6 -25 30q-1 14 6 27z" />
    <glyph glyph-name="quoteright" unicode="&#x2019;" horiz-adv-x="237" 
d="M104 1057q-9 -19 -28 -19.5t-29.5 14.5t-1.5 33l92 207q16 37 45 30q23 -5 27 -28q2 -14 -6 -28z" />
    <glyph glyph-name="quotesinglbase" unicode="&#x201a;" horiz-adv-x="301" 
d="M96 -195q-9 -19 -28 -19.5t-29.5 15t-1.5 33.5l92 207q16 37 45 30q23 -5 27 -29q2 -14 -6 -28z" />
    <glyph glyph-name="quotedblleft" unicode="&#x201c;" horiz-adv-x="471" 
d="M162 1303q9 19 28 19.5t29.5 -15t1.5 -33.5l-92 -207q-16 -37 -45 -30q-23 5 -27 29q-2 14 6 28zM362 1303q9 19 28 19.5t30 -15t2 -33.5l-92 -207q-16 -37 -45 -30q-23 5 -27 29q-2 14 6 28z" />
    <glyph glyph-name="quotedblright" unicode="&#x201d;" horiz-adv-x="458" 
d="M117 1057q-9 -19 -28 -19.5t-30 14.5t-2 33l93 207q16 37 46 30q22 -5 25 -29q1 -14 -6 -27zM317 1057q-9 -19 -28 -19.5t-29.5 14.5t-1.5 33l92 207q16 37 45 30q23 -5 27 -28q2 -14 -6 -28z" />
    <glyph glyph-name="quotedblbase" unicode="&#x201e;" horiz-adv-x="495" 
d="M96 -195q-9 -19 -28 -19.5t-29.5 15t-1.5 33.5l92 207q16 37 45 30q23 -5 27 -29q2 -14 -6 -28zM344 -195q-9 -19 -28 -19.5t-29.5 15t-1.5 33.5l92 207q16 37 46 30q22 -6 25 -30q2 -14 -6 -27z" />
    <glyph glyph-name="bullet" unicode="&#x2022;" horiz-adv-x="479" 
d="M223 758q61 0 102.5 -41t41.5 -103q0 -58 -41.5 -98.5t-102.5 -40.5q-57 0 -98 41t-41 98q0 61 40.5 102.5t98.5 41.5z" />
    <glyph glyph-name="ellipsis" unicode="&#x2026;" horiz-adv-x="770" 
d="M141 104q23 0 37.5 -14t14.5 -37t-14.5 -38t-37.5 -15t-38 15t-15 38t15 37t38 14zM387 104q23 0 37 -14t14 -37t-14 -38t-37 -15t-38 15t-15 38t15 37t38 14zM633 104q23 0 38 -14t15 -37t-15 -38t-38 -15t-37 15t-14 38t14 37t37 14z" />
    <glyph glyph-name="perthousand" unicode="&#x2030;" horiz-adv-x="1878" 
d="M199 2q-12 -16 -31.5 -13t-27 18t4.5 36l920 1300q13 18 32 15t25.5 -19t-4.5 -36zM367 1323q110 0 187 -81.5t77 -201.5q0 -113 -73.5 -201.5t-190.5 -88.5q-112 0 -188.5 81t-76.5 209q0 113 74 198t191 85zM567 1040q0 86 -56 151.5t-144 65.5q-85 0 -145 -64
t-60 -153q0 -86 57 -155.5t148 -69.5q88 0 142.5 62t57.5 163zM915 573q110 0 187.5 -81t77.5 -201q0 -113 -74 -202t-191 -89q-112 0 -188 81.5t-76 209.5q0 113 73.5 197.5t190.5 84.5zM1534 573q110 0 187 -81t77 -201q0 -113 -73.5 -202t-190.5 -89q-112 0 -188 81.5
t-76 209.5q0 113 73.5 197.5t190.5 84.5zM1116 291q0 86 -56 151.5t-145 65.5q-85 0 -144.5 -64t-59.5 -153q0 -86 56.5 -155.5t147.5 -69.5q89 0 143.5 62t57.5 163zM1735 291q0 86 -56 151.5t-145 65.5q-85 0 -145 -64t-60 -153q0 -86 57 -155.5t148 -69.5q89 0 143.5 62
t57.5 163z" />
    <glyph glyph-name="guilsinglleft" unicode="&#x2039;" horiz-adv-x="647" 
d="M172 530l365 -352q14 -14 14 -28t-10 -24.5t-27 -10.5q-15 0 -27 12l-381 369q-36 34 5 75l381 367q10 10 22 10q37 0 37 -37q0 -11 -12 -26z" />
    <glyph glyph-name="guilsinglright" unicode="&#x203a;" horiz-adv-x="618" 
d="M102 868q-12 15 -12 27q0 37 37 37q13 0 23 -10l380 -367q42 -42 5 -76l-381 -368q-13 -13 -27 -13q-17 0 -27 10.5t-10 24.5q0 15 14 29l365 352z" />
    <glyph glyph-name="Euro" unicode="&#x20ac;" horiz-adv-x="1384" 
d="M20 559h115q-12 118 4 209h-119q-19 0 -27 14t0 28.5t27 14.5h125q25 107 76 193.5t114 142.5t138.5 93.5t147.5 53t145 15.5q138 0 263 -48t212 -142q16 -18 9.5 -37t-24 -21.5t-34.5 12.5q-76 84 -186.5 126t-233.5 42q-87 0 -170.5 -24.5t-161 -74.5t-137.5 -135
t-90 -196h356q22 0 31 -14.5t0 -28.5t-31 -14h-370q-16 -113 -2 -209h372q21 0 30 -14.5t0 -28.5t-30 -14h-358q52 -199 215.5 -326t366.5 -127q138 0 261 58.5t206 164.5q14 19 33 16.5t25.5 -19t-5.5 -36.5q-83 -117 -228.5 -185t-298.5 -68q-231 0 -412.5 145.5
t-232.5 376.5h-121q-18 0 -26 14t0 28.5t26 14.5z" />
    <glyph glyph-name="trademark" unicode="&#x2122;" horiz-adv-x="1298" 
d="M512 1303q18 0 26 -16t0 -32t-26 -16h-190v-461q0 -17 -10.5 -25t-22.5 -8q-13 0 -24 8t-11 25v461h-188q-16 0 -22 16t0 32t22 16h446zM1092 1284q13 19 30 19q14 0 23.5 -9t9.5 -24v-490q0 -17 -17 -24.5t-34 0t-17 24.5v383l-174 -276q-12 -19 -30.5 -19t-30.5 19
l-172 272v-379q0 -20 -17 -28.5t-34 0t-17 28.5v490q0 14 9 23.5t22 9.5q20 0 33 -19l209 -323z" />
    <glyph glyph-name="i.loclTRK" horiz-adv-x="401" 
d="M205 1386q27 0 50.5 -21t23.5 -52q0 -37 -23 -56.5t-51 -19.5q-31 0 -53.5 21.5t-22.5 54.5q0 32 22.5 52.5t53.5 20.5zM168 1006q0 18 11 27t26 9q13 0 24 -9t11 -25v-971q0 -17 -11 -27t-24 -10q-15 0 -26 9.5t-11 27.5v969z" />
    <glyph glyph-name="uni0414.loclBGR" horiz-adv-x="1345" 
d="M1247 63q37 0 37 -38v-232q0 -19 -9 -29t-22 -10q-30 0 -30 39v207h-1123v-207q0 -39 -30 -39q-13 0 -22 10t-9 29v232q0 38 37 38h69l486 1221q9 19 31 19q20 0 30 -19l486 -1221h69zM571 975l-358 -912h897l-358 912l-90 256z" />
    <glyph glyph-name="uni041B.loclBGR" horiz-adv-x="1300" 
d="M1266 47q8 -19 -2 -33t-27 -14q-22 0 -31 20l-461 975l-98 230l-98 -230l-461 -975q-9 -20 -31 -20q-16 0 -26 14t-2 33l587 1237q10 19 31 19t31 -19z" />
    <glyph glyph-name="uni0424.loclBGR" horiz-adv-x="1755" 
d="M977 1268q306 0 485.5 -160.5t179.5 -452.5t-179.5 -452t-485.5 -160h-64v-70q0 -16 -10.5 -25t-25.5 -9t-26 9t-11 25v70h-64q-306 0 -485.5 160t-179.5 452t179.5 452.5t485.5 160.5h64v57q0 19 11 29t26 10t25.5 -10t10.5 -29v-57h64zM776 106h64v1096h-64
q-274 0 -435 -143t-161 -404q0 -262 161 -405.5t435 -143.5zM977 106q274 0 435 143.5t161 405.5q0 261 -161 404t-435 143h-64v-1096h64z" />
    <glyph glyph-name="uni0432.loclBGR" horiz-adv-x="1144" 
d="M766 698q138 -28 220.5 -109.5t82.5 -217.5q0 -167 -113 -267t-309 -104h-82q-205 0 -322.5 99.5t-117.5 271.5v534q0 203 111.5 310.5t312.5 107.5h47q55 0 106.5 -10.5t101 -36t86 -63t59 -96t22.5 -130.5q0 -101 -54.5 -180t-150.5 -109zM547 1262
q-165 0 -258.5 -92.5t-93.5 -264.5v-188h432q47 0 93 16t87 47t66.5 85t25.5 122q0 72 -27.5 127t-73 86t-97 46.5t-105.5 15.5h-49zM647 61q161 0 255.5 84.5t94.5 225.5q0 144 -100 212t-270 68h-432v-280q0 -145 99 -227.5t271 -82.5h82z" />
    <glyph glyph-name="uni0433.loclBGR" horiz-adv-x="1089" 
d="M1012 225q-11 -57 -47.5 -101.5t-84.5 -71t-109.5 -43.5t-116 -23t-109.5 -6q-54 0 -111.5 8t-120.5 28.5t-112 50.5t-81 79.5t-32 111.5q0 72 46.5 125t120.5 83t164 53t180 44t164 46.5t120.5 69t46.5 103.5q0 48 -24 86.5t-61.5 61.5t-87.5 38t-97 21t-95 6
q-299 0 -362 -170q-7 -21 -26.5 -25.5t-34 10.5t-7.5 42q81 211 430 211q75 0 148.5 -17t139 -49.5t106 -88.5t40.5 -126q0 -76 -46.5 -131t-120.5 -85.5t-163 -52.5t-178.5 -41.5t-163.5 -43.5t-120.5 -67t-46.5 -103q0 -55 42 -98.5t105 -67t125 -35.5t113 -12
q93 0 177.5 21t147.5 66t76 106q3 26 23 33t35.5 -7t7.5 -39z" />
    <glyph glyph-name="uni0434.loclBGR" horiz-adv-x="1187" 
d="M1059 1042q37 0 37 -36v-885q0 -233 -130 -354t-382 -121q-91 0 -193 35.5t-182 115.5q-26 29 -2 54t53 -1q66 -66 154 -100.5t182 -34.5q211 0 319.5 103t108.5 303v133q-35 -130 -147 -202t-256 -72q-106 0 -201.5 38.5t-168 108.5t-114 178.5t-37.5 239.5
q4 123 50 223.5t120.5 163.5t166.5 97t192 34q142 0 245.5 -68.5t149.5 -193.5v205q0 36 35 36zM604 51q80 0 154 24t134 69t96 118.5t36 165.5v178q0 91 -32 165.5t-87 122t-126 73t-150 24.5q-138 -1 -242 -62t-157.5 -160t-57.5 -222q-7 -212 118 -354t314 -142z" />
    <glyph glyph-name="uni0436.loclBGR" horiz-adv-x="1505" 
d="M1456 59q15 -22 5 -40.5t-31 -18.5q-13 0 -25 12l-455 541l-162 -158v-358q0 -18 -10.5 -27.5t-23.5 -9.5q-15 0 -26 9.5t-11 27.5v358l-162 158l-455 -541q-12 -12 -24 -12q-21 0 -31.5 18.5t4.5 40.5l451 539l-410 381q-20 22 -11 42.5t32 20.5q18 0 32 -14l453 -430
l121 -127v836q0 24 17.5 33t35.5 -1t18 -32v-836l123 127l451 430q14 14 33 14q23 0 31.5 -20.5t-11.5 -42.5l-409 -381z" />
    <glyph glyph-name="uni0438.loclBGR" horiz-adv-x="1323" 
d="M236 428q0 -162 115.5 -270.5t273.5 -108.5q78 0 158 33t147.5 92t110 151.5t42.5 200.5v480q0 36 35 36q37 0 37 -36v-971q0 -14 -10 -24.5t-27 -10.5q-35 0 -35 37v287q-31 -114 -109 -194.5t-165.5 -115t-175.5 -34.5q-89 0 -172 29.5t-149.5 84t-107 141.5t-40.5 193
v578q0 36 35 36q37 0 37 -36v-578z" />
    <glyph glyph-name="uni0439.loclBGR" horiz-adv-x="1398" 
d="M819 1382q8 27 27 31.5t32 -10t7 -35.5q-27 -92 -79 -135t-144 -43t-144.5 43t-79.5 135q-6 21 7 35.5t32 10t27 -31.5q26 -73 62 -102t96 -27q60 -2 95.5 27t61.5 102zM236 428q0 -162 115.5 -270.5t273.5 -108.5q78 0 158 33t147.5 92t110 151.5t42.5 200.5v480
q0 36 35 36q37 0 37 -36v-971q0 -14 -10 -24.5t-27 -10.5q-35 0 -35 37v287q-31 -114 -109 -194.5t-165.5 -115t-175.5 -34.5q-89 0 -172 29.5t-149.5 84t-107 141.5t-40.5 193v578q0 36 35 36q37 0 37 -36v-578z" />
    <glyph glyph-name="uni043B.loclBGR" horiz-adv-x="1136" 
d="M1090 49q9 -19 -3.5 -34t-31.5 -15q-23 0 -35 25l-459 907l-457 -907q-9 -25 -34 -25q-17 0 -25.5 13t0.5 36l485 981q9 19 28.5 20t31.5 -18z" />
    <glyph glyph-name="uni043F.loclBGR" horiz-adv-x="1320" 
d="M1087 608q0 166 -114.5 275.5t-272.5 109.5q-78 0 -158.5 -33.5t-148 -93t-110.5 -153t-43 -201.5v-475q0 -37 -35 -37q-37 0 -37 37v971q0 14 10 24t27 10q35 0 35 -36v-279q24 87 76 154t117.5 105.5t134 57.5t134.5 19q88 0 169.5 -30.5t146 -86.5t103 -144t38.5 -194
v-585q0 -37 -35 -37q-37 0 -37 37v585z" />
    <glyph glyph-name="uni0442.loclBGR" horiz-adv-x="2240" 
d="M2007 625q0 158 -113.5 263t-273.5 105q-82 0 -163 -33.5t-148 -93t-108.5 -152.5t-41.5 -202v-475q0 -37 -37 -37t-37 37v551q0 186 -110.5 294.5t-276.5 108.5q-64 0 -128.5 -20.5t-123.5 -62t-105 -98t-73.5 -134t-27.5 -164.5v-475q0 -17 -11 -27t-24 -10
q-15 0 -26 9.5t-11 27.5v971q0 13 10.5 23.5t24.5 10.5q17 0 27 -10t10 -24v-283q21 73 60.5 132.5t86.5 97t102.5 62.5t106.5 35.5t100 10.5q78 0 150 -22t133.5 -65.5t104.5 -116t57 -165.5q27 101 80.5 175.5t120 115t134 59.5t136.5 19q88 0 171 -29.5t149 -82.5
t106.5 -136.5t40.5 -183.5v-594q0 -37 -37 -37q-35 0 -35 37v588z" />
    <glyph glyph-name="uni0444.loclBGR" horiz-adv-x="1478" 
d="M846 1042q247 0 399 -149t152 -373q0 -230 -150 -375t-401 -145h-62v-197q0 -13 -10 -23.5t-24 -10.5q-17 0 -27 10t-10 24v197h-62q-251 0 -401 145t-150 375q0 224 152 373t399 149h62v156q0 14 10 24.5t27 10.5q13 0 23.5 -10.5t10.5 -24.5v-156h62zM651 72h62v899
h-64q-100 0 -186 -30.5t-150.5 -87.5t-101.5 -145t-37 -196q0 -193 130.5 -316.5t346.5 -123.5zM846 72q216 0 346.5 123.5t130.5 316.5q0 108 -37 196t-101.5 145t-150.5 87.5t-186 30.5h-64v-899h62z" />
    <glyph glyph-name="uni0446.loclBGR" horiz-adv-x="1384" 
d="M1262 63q61 0 61 -63v-252q0 -35 -31 -35q-13 0 -21.5 9t-8.5 26v252h-25q-75 0 -114.5 56.5t-39.5 166.5v101q-31 -114 -109 -194.5t-165.5 -115t-175.5 -34.5q-89 0 -172 29.5t-149.5 84t-107 141.5t-40.5 193v578q0 36 35 36q37 0 37 -36v-578q0 -162 115.5 -270.5
t273.5 -108.5q78 0 158 33t147.5 92t110 151.5t42.5 200.5v480q0 36 35 36q37 0 37 -36v-783q0 -160 82 -160h25z" />
    <glyph glyph-name="uni0448.loclBGR" horiz-adv-x="2240" 
d="M233 418q0 -158 114 -263.5t274 -105.5q82 0 163 33.5t147.5 93t108 152.5t41.5 202v476q0 36 37 36t37 -36v-551q0 -186 110.5 -295t276.5 -109q80 0 161 33.5t147.5 93t108.5 152t42 200.5v476q0 17 10.5 26.5t24.5 9.5q15 0 26 -9t11 -27v-971q0 -13 -10.5 -24
t-24.5 -11q-17 0 -27 10.5t-10 24.5v282q-21 -73 -60.5 -132t-87 -96.5t-103 -62.5t-106.5 -35.5t-100 -10.5q-166 0 -291 93t-153 275q-27 -101 -80.5 -175.5t-120 -114.5t-134 -59t-136.5 -19q-88 0 -171 29.5t-149 82.5t-106.5 136.5t-40.5 183.5v594q0 36 37 36
q34 0 34 -36v-588z" />
    <glyph glyph-name="uni0449.loclBGR" horiz-adv-x="2322" 
d="M2179 63q62 0 62 -63v-252q0 -35 -31 -35q-13 0 -22 9.5t-9 25.5v252h-25q-153 0 -153 223v94q-21 -73 -60.5 -132t-87 -96.5t-103 -62.5t-106.5 -35.5t-100 -10.5q-166 0 -291 93t-153 275q-27 -101 -80.5 -175.5t-120 -114.5t-134 -59t-136.5 -19q-88 0 -171 29.5
t-149 82.5t-106.5 136.5t-40.5 183.5v594q0 36 37 36q34 0 34 -36v-588q0 -158 114 -263.5t274 -105.5q82 0 163 33.5t147.5 93t108 152.5t41.5 202v476q0 36 37 36t37 -36v-551q0 -186 110.5 -295t276.5 -109q80 0 161 33.5t147.5 93t108.5 152t42 200.5v476
q0 17 10.5 26.5t24.5 9.5q15 0 26 -9t11 -27v-783q0 -160 81 -160h25z" />
    <glyph glyph-name="uni044E.loclBGR" horiz-adv-x="1662" 
d="M1509 559q12 -233 -123 -397q-75 -89 -180 -135.5t-227 -46.5t-228 46.5t-180 135.5q-113 137 -122 325h-209v-450q0 -17 -11 -27t-24 -10q-15 0 -26 9.5t-11 27.5v1270q0 24 18 33t36 -1t18 -32v-758h209v10q14 170 113.5 305.5t260.5 179.5q74 19 156 19q73 0 154 -19
q161 -44 261.5 -179.5t114.5 -305.5zM1333 207q76 91 97 213.5t-10 233t-113 201t-197 120.5q-66 16 -133 16q-63 0 -129 -16q-115 -30 -196.5 -120.5t-111.5 -201t-8.5 -233t97.5 -213.5q63 -75 155 -116.5t195 -41.5q104 0 197.5 41.5t156.5 116.5z" />
    <glyph glyph-name="uni0308.case" 
d="M-559 1634q22 0 41.5 -17.5t19.5 -43.5q0 -31 -19 -47.5t-42 -16.5q-27 0 -45.5 17.5t-18.5 46.5q0 27 18.5 44t45.5 17zM-166 1634q26 0 45 -17t19 -44q0 -32 -18.5 -48t-45.5 -16q-23 0 -42 18t-19 46q0 26 19 43.5t42 17.5z" />
    <glyph glyph-name="uni0307.case" 
d="M-686 1647q27 0 50.5 -21.5t23.5 -52.5q0 -37 -23 -56.5t-51 -19.5q-31 0 -53.5 21.5t-22.5 54.5q0 32 22.5 53t53.5 21z" />
    <glyph glyph-name="gravecomb.case" 
d="M-344 1706l176 -201q10 -12 4 -28t-20 -19.5t-31 10.5l-184 187q-16 19 -8 38.5t27 23t36 -10.5z" />
    <glyph glyph-name="acutecomb.case" 
d="M-49 1696q14 16 35 10.5t28 -23t-8 -38.5l-184 -187q-15 -15 -31 -10.5t-20 19.5t4 28z" />
    <glyph glyph-name="uni030B.case" 
d="M-803 1708q12 18 33.5 15t30 -19.5t-3.5 -38.5l-136 -190q-15 -16 -29 -14.5t-22 16.5t0 28zM-582 1708q12 18 33.5 15t30.5 -19.5t-2 -38.5l-137 -190q-15 -16 -29 -14.5t-22.5 16.5t-0.5 28z" />
    <glyph glyph-name="uni0302.case" 
d="M-145 1501q15 -13 11.5 -30t-18 -21.5t-32.5 8.5l-195 170l-194 -170q-16 -15 -32.5 -9t-18 22t11.5 30l209 185q15 14 23.5 14t25.5 -14z" />
    <glyph glyph-name="uni030C.case" 
d="M-135 1647l-209 -185q-17 -14 -25.5 -14t-23.5 14l-209 185q-15 13 -11.5 30t18 21.5t32.5 -8.5l194 -170l195 170q16 15 32.5 9t18 -22t-11.5 -30z" />
    <glyph glyph-name="uni0306.case" 
d="M-469 1640q8 27 27 31.5t32 -10t7 -35.5q-27 -90 -78.5 -132t-141.5 -42t-141 42t-78 132q-6 21 7 35.5t32 10t27 -31.5q25 -71 59.5 -100t93.5 -27q59 -2 94 27t60 100z" />
    <glyph glyph-name="uni030A.case" 
d="M-244 1735q62 0 105 -42.5t43 -103.5q0 -63 -43 -105t-105 -42q-63 0 -106 42t-43 105q0 62 43 104t106 42zM-244 1675q-37 0 -63.5 -25.5t-26.5 -60.5q0 -37 26.5 -62.5t63.5 -25.5q36 0 62 26t26 62q0 35 -26.5 60.5t-61.5 25.5z" />
    <glyph glyph-name="tildecomb.case" 
d="M-643 1567q34 116 147 116q33 0 69.5 -23.5t63 -51t60.5 -51t63 -23.5q27 0 48 9.5t34.5 27t21 32t15.5 35.5q9 24 29 21q21 -4 20 -30q-1 -11 -6 -23q-25 -56 -63.5 -90.5t-104.5 -34.5q-28 0 -56.5 15.5t-53 37.5t-47.5 44t-47 37.5t-44 16.5q-42 1 -64.5 -21
t-33.5 -67q-5 -21 -28 -19q-22 2 -25 24q-1 8 2 18z" />
    <glyph glyph-name="uni0304.case" 
d="M-487 1567q34 0 48 -16t0 -32t-48 -16h-367q-37 0 -51 16t1.5 32t49.5 16h367z" />
    <glyph glyph-name="uni0326.case" 
d="M-940 -473q-13 -39 -39 -45q-20 -5 -23 16q-1 10 3 23l63 215q11 38 35 39q21 1 27 -24q5 -19 -3 -42z" />
    <glyph glyph-name="uni0327.case" 
d="M-262 -121q76 12 131 -28t55 -111q0 -77 -61 -120t-143 -35.5t-138 63.5q-20 20 -8 40q13 23 44 5q5 -3 11 -8q37 -29 79.5 -38.5t75 -0.5t54.5 32.5t23 55.5q1 33 -13 55.5t-35 30t-44 10.5t-41 -2q-35 -6 -45 9.5t4 43.5l53 115q20 44 45 43q18 0 18 -23
q-1 -15 -10 -32z" />
    <glyph glyph-name="uni0328.case" 
d="M-528 -31q-129 -145 -127 -245q1 -45 30 -66.5t66.5 -12t60.5 45.5t50 33q23 -3 19 -28q-1 -15 -13 -32q-29 -44 -60.5 -62.5t-83.5 -17.5q-63 1 -98 39t-35 103q0 37 13.5 76.5t40.5 79.5t46 64t50 60q13 15 25.5 20.5t20 2t11.5 -11.5t0 -21.5t-16 -26.5z" />
    <glyph glyph-name="newGlyph" horiz-adv-x="1228" 
 />
    <glyph glyph-name="dieresis.case" horiz-adv-x="1228" 
 />
    </font>
</defs>
</svg>
