<?xml version="1.0" encoding="UTF-8" standalone="no"?><!DOCTYPE svg PUBLIC "-//W3C//DTD SVG 1.1//EN" "http://www.w3.org/Graphics/SVG/1.1/DTD/svg11.dtd"><svg width="100%" height="100%" viewBox="0 0 7 7" version="1.1" xmlns="http://www.w3.org/2000/svg" xmlns:xlink="http://www.w3.org/1999/xlink" xml:space="preserve" xmlns:serif="http://www.serif.com/" style="fill-rule:evenodd;clip-rule:evenodd;stroke-linejoin:round;stroke-miterlimit:2;"><path d="M2.74,4.903c-1.193,-0 -2.163,-0.971 -2.163,-2.163c-0,-1.193 0.97,-2.163 2.163,-2.163c1.192,-0 2.162,0.97 2.162,2.163c0,1.192 -0.97,2.163 -2.162,2.163Zm4.097,1.526l-1.969,-1.968c0.382,-0.471 0.611,-1.07 0.611,-1.721c0,-1.511 -1.229,-2.74 -2.739,-2.74c-1.511,0 -2.74,1.229 -2.74,2.74c0,1.51 1.229,2.739 2.74,2.739c0.651,0 1.25,-0.229 1.721,-0.61l1.968,1.968c0.056,0.056 0.13,0.084 0.203,0.084c0.075,0 0.148,-0.028 0.205,-0.084c0.112,-0.113 0.112,-0.295 -0,-0.408" style="fill:#4b58a1;fill-rule:nonzero;"/></svg>