<?xml version="1.0" encoding="UTF-8" standalone="no"?><!DOCTYPE svg PUBLIC "-//W3C//DTD SVG 1.1//EN" "http://www.w3.org/Graphics/SVG/1.1/DTD/svg11.dtd"><svg width="100%" height="100%" viewBox="0 0 7 7" version="1.1" xmlns="http://www.w3.org/2000/svg" xmlns:xlink="http://www.w3.org/1999/xlink" xml:space="preserve" xmlns:serif="http://www.serif.com/" style="fill-rule:evenodd;clip-rule:evenodd;stroke-linejoin:round;stroke-miterlimit:2;"><path d="M3.456,6.912c-1.909,0 -3.456,-1.547 -3.456,-3.456c0,-1.909 1.547,-3.456 3.456,-3.456c1.909,0 3.456,1.547 3.456,3.456c-0,1.909 -1.547,3.456 -3.456,3.456Zm-1.567,-1.916l0.715,0l0,-2.31l-0.715,-0l-0,2.31Zm0.354,-2.613c0.234,0 0.423,-0.191 0.423,-0.426c-0,-0.236 -0.189,-0.427 -0.423,-0.427c-0.234,0 -0.423,0.191 -0.423,0.427c0,0.235 0.189,0.426 0.423,0.426Zm1.504,1.4c0,-0.324 0.15,-0.518 0.436,-0.518c0.263,0 0.39,0.186 0.39,0.518l-0,1.213l0.712,0l-0,-1.463c-0,-0.619 -0.351,-0.918 -0.841,-0.918c-0.491,0 -0.697,0.382 -0.697,0.382l0,-0.311l-0.686,-0l0,2.31l0.686,0l0,-1.213" style="fill:#f4a896;fill-rule:nonzero;"/></svg>