<?xml version="1.0" encoding="UTF-8" standalone="no"?><!DOCTYPE svg PUBLIC "-//W3C//DTD SVG 1.1//EN" "http://www.w3.org/Graphics/SVG/1.1/DTD/svg11.dtd"><svg width="100%" height="100%" viewBox="0 0 512 412" version="1.1" xmlns="http://www.w3.org/2000/svg" xmlns:xlink="http://www.w3.org/1999/xlink" xml:space="preserve" xmlns:serif="http://www.serif.com/" style="fill-rule:evenodd;clip-rule:evenodd;stroke-linejoin:round;stroke-miterlimit:2;"><g><path d="M181.863,145.488c4.2,0 7.604,-3.405 7.604,-7.604l-0,-57.699c5.463,0.301 10.923,0.578 16.358,0.803c0.106,0.004 0.213,0.007 0.319,0.007c4.055,-0 7.423,-3.201 7.592,-7.29c0.174,-4.196 -3.087,-7.738 -7.283,-7.912c-16.028,-0.663 -32.252,-1.664 -48.224,-2.972c-4.186,-0.34 -7.856,2.772 -8.199,6.958c-0.342,4.185 2.772,7.857 6.958,8.199c5.731,0.47 11.497,0.885 17.27,1.275l-0,58.631c0.001,4.199 3.406,7.604 7.605,7.604Z" style="fill:#030404;fill-rule:nonzero;"/><path d="M393.631,139.886c4.2,-0 7.604,-3.404 7.604,-7.604l-0,-58.999c5.877,-0.709 11.746,-1.444 17.576,-2.233c4.161,-0.564 7.078,-4.395 6.515,-8.555c-0.564,-4.162 -4.397,-7.082 -8.556,-6.516c-15.905,2.155 -32.072,4.013 -48.055,5.523c-4.18,0.395 -7.249,4.105 -6.855,8.285c0.372,3.938 3.685,6.889 7.562,6.889c0.239,-0 0.481,-0.011 0.725,-0.034c5.279,-0.499 10.578,-1.048 15.881,-1.621l0,57.26c-0.001,4.201 3.402,7.605 7.603,7.605Z" style="fill:#030404;fill-rule:nonzero;"/><path d="M308.371,80.895c3.969,-0.171 7.955,-0.363 11.911,-0.573c2.43,-0.134 4.702,0.662 6.356,2.232c1.604,1.522 2.488,3.65 2.488,5.992l0,2.251c0,5.279 -4.418,9.972 -9.648,10.247l-0.001,0c-3.676,0.195 -7.39,0.375 -11.106,0.538l0,-20.687Zm35.963,9.9l0,-2.25c0,-6.557 -2.568,-12.604 -7.231,-17.026c-4.712,-4.469 -10.956,-6.747 -17.626,-6.383c-6.317,0.334 -12.708,0.622 -18.992,0.856c-4.087,0.151 -7.322,3.509 -7.322,7.599l-0,65.744c-0,4.199 3.404,7.604 7.604,7.604c4.201,-0 7.604,-3.405 7.604,-7.604l0,-22.499c5.57,0.049 10.703,2.073 14.558,5.771c3.995,3.831 6.196,9.106 6.196,14.853c0,4.199 3.403,7.604 7.604,7.604c4.2,-0 7.604,-3.405 7.604,-7.604c0,-9.929 -3.864,-19.102 -10.878,-25.829c-0.011,-0.011 -0.024,-0.021 -0.036,-0.033c6.566,-4.667 10.915,-12.347 10.915,-20.803Z" style="fill:#030404;fill-rule:nonzero;"/><path d="M239.462,102.02l0,-10.384c0,-2.575 0.996,-4.983 2.804,-6.782c1.861,-1.85 4.348,-2.822 7.048,-2.847c5.48,0.032 9.938,4.437 9.938,9.823l0,10.3c-6.587,0.017 -13.2,-0.019 -19.79,-0.11Zm27.394,45.7c4.201,0 7.604,-3.404 7.604,-7.604l-0,-48.286c-0,-13.723 -11.242,-24.951 -25.063,-25.031c-6.787,-0.008 -13.105,2.548 -17.856,7.274c-4.7,4.674 -7.287,10.911 -7.287,17.563l-0,48.287c-0,4.199 3.405,7.604 7.604,7.604c4.199,0 7.604,-3.405 7.604,-7.604l0,-22.705c5.519,0.075 11.051,0.127 16.576,0.127c1.074,0 2.14,-0.011 3.214,-0.014l0,22.785c0,4.2 3.404,7.604 7.604,7.604Z" style="fill:#030404;fill-rule:nonzero;"/><path d="M103.969,74.729c1.442,-1.278 3.467,-1.833 5.699,-1.561c6.141,0.746 12.382,1.455 18.55,2.109c4.18,0.441 7.921,-2.584 8.363,-6.761c0.442,-4.176 -2.585,-7.92 -6.761,-8.362c-6.091,-0.645 -12.254,-1.346 -18.319,-2.083c-6.618,-0.804 -12.873,1.072 -17.618,5.276c-4.693,4.159 -7.277,10.056 -7.277,16.605c0,13.061 10.131,24.52 23.065,26.088l2.043,0.247c5.259,0.631 9.702,5.549 9.702,10.737c0,2.206 -0.808,4.138 -2.276,5.44c-1.453,1.289 -3.446,1.856 -5.614,1.595c-6.073,-0.728 -12.229,-1.514 -18.295,-2.335c-4.165,-0.563 -7.993,2.354 -8.555,6.515c-0.564,4.162 2.353,7.992 6.515,8.555c6.143,0.831 12.376,1.627 18.524,2.364c0.972,0.117 1.935,0.175 2.888,0.175c5.471,0 10.584,-1.902 14.63,-5.492c4.698,-4.167 7.393,-10.297 7.393,-16.817c0,-12.932 -10.146,-24.28 -23.099,-25.836l-2.024,-0.243c-5.16,-0.627 -9.687,-5.763 -9.687,-10.993c-0.001,-2.168 0.744,-3.974 2.153,-5.223Z" style="fill:#030404;fill-rule:nonzero;"/><path d="M53.737,396.792l-15.228,-0l-0,-215.037c5.074,0.628 10.15,1.236 15.228,1.82l-0,213.217Zm455.642,-394.143c-1.665,-1.444 -3.875,-2.097 -6.055,-1.785c-140.41,19.984 -283.151,22.869 -424.255,8.572c-4.177,-0.427 -7.909,2.621 -8.332,6.799c-0.424,4.178 2.62,7.908 6.799,8.332c139.426,14.127 280.423,11.624 419.256,-7.434l-0,146.232c-159.823,22.136 -321.76,22.136 -481.585,0l-0,-146.232c11.706,1.606 23.505,3.106 35.187,4.473c4.181,0.493 7.948,-2.499 8.435,-6.67c0.488,-4.171 -2.498,-7.947 -6.669,-8.435c-14.449,-1.689 -29.08,-3.585 -43.485,-5.636c-2.186,-0.311 -4.391,0.341 -6.055,1.785c-1.664,1.444 -2.62,3.54 -2.62,5.743l0,161.584c0,3.785 2.785,6.994 6.532,7.528c5.587,0.794 11.177,1.558 16.769,2.299l0,224.592c0,4.199 3.405,7.604 7.604,7.604l30.436,0c4.2,0 7.604,-3.405 7.604,-7.604l-0,-219.136c62.189,6.609 124.621,9.914 187.055,9.914c62.433,-0 124.864,-3.305 187.05,-9.914l-0,67.591c-0,4.199 3.404,7.604 7.604,7.604c4.201,0 7.604,-3.405 7.604,-7.604l-0,-69.275c5.079,-0.584 10.154,-1.192 15.229,-1.82l-0,215.036l-15.229,-0l-0,-118.595c-0,-4.199 -3.403,-7.604 -7.604,-7.604c-4.2,0 -7.604,3.405 -7.604,7.604l-0,126.199c-0,4.199 3.404,7.604 7.604,7.604l30.437,0c4.201,0 7.604,-3.405 7.604,-7.604l0,-224.591c5.594,-0.741 11.184,-1.505 16.773,-2.3c3.747,-0.534 6.532,-3.743 6.532,-7.528l0,-161.584c0,-2.203 -0.956,-4.299 -2.621,-5.744Z" style="fill:#030404;fill-rule:nonzero;"/></g></svg>