<?xml version="1.0" encoding="UTF-8" standalone="no"?><!DOCTYPE svg PUBLIC "-//W3C//DTD SVG 1.1//EN" "http://www.w3.org/Graphics/SVG/1.1/DTD/svg11.dtd"><svg width="100%" height="100%" viewBox="0 0 85 84" version="1.1" xmlns="http://www.w3.org/2000/svg" xmlns:xlink="http://www.w3.org/1999/xlink" xml:space="preserve" xmlns:serif="http://www.serif.com/" style="fill-rule:evenodd;clip-rule:evenodd;stroke-miterlimit:22.9256;"><path d="M3.615,45.351l3.474,-1.113c0.831,-0.266 1.477,-0.922 1.739,-1.755c3.997,-12.71 18.84,-18.548 33.78,-18.548c17.479,0 31.649,7.988 31.649,25.627c-0,10.166 -4.986,17.286 -12.69,21.399c-0.19,0.101 -0.325,0.28 -0.365,0.491l-1.726,8.965c-0.16,0.844 -0.898,1.456 -1.757,1.456l-5.828,-0c-0.86,-0 -1.598,-0.612 -1.757,-1.456l-0.944,-4.984c-0.07,-0.368 -0.412,-0.616 -0.784,-0.572c-1.88,0.218 -3.818,0.327 -5.798,0.327c-2.647,0 -5.291,-0.195 -7.873,-0.585c-0.379,-0.057 -0.737,0.192 -0.808,0.569l-0.993,5.245c-0.16,0.845 -0.898,1.456 -1.757,1.456l-5.828,-0c-0.86,-0 -1.597,-0.611 -1.757,-1.456l-1.793,-9.491c-0.041,-0.215 -0.178,-0.397 -0.372,-0.498c-4.575,-2.378 -8.36,-5.651 -10.773,-9.823c-0.322,-0.556 -0.831,-0.979 -1.443,-1.175l-5.596,-1.793c-1.418,-0.454 -2.381,-1.773 -2.381,-3.263l-0,-5.76c-0,-1.49 0.963,-2.809 2.381,-3.263" style="fill:#f4a896;fill-rule:nonzero;"/><path d="M1.67,46.946c0.152,-0.27 0.337,-0.521 0.555,-0.741c0.004,-0.005 0.009,-0.01 0.014,-0.015c0.377,-0.377 0.844,-0.669 1.376,-0.839l2.575,-0.825l0,3.029c0,3.763 2.398,7.109 5.962,8.317c1.621,0.519 3.022,1.546 4.049,2.904c1.257,1.662 2.751,3.155 4.435,4.48c1.985,1.563 3.324,3.799 3.706,6.296c0.273,1.78 0.484,4.174 0.619,5.52c0.104,1.035 0.974,1.824 2.015,1.824l2.884,-0c0.86,-0 1.598,-0.612 1.758,-1.456l0.993,-5.739c0.071,-0.377 0.428,-0.626 0.808,-0.569c2.581,0.39 6.542,0.585 9.189,0.585c1.98,0 5.564,-0.109 7.443,-0.327c0.372,-0.043 0.715,0.204 0.784,0.572l0.944,5.313c0.16,0.845 0.898,1.456 1.757,1.456l2.866,0c0.86,0 1.598,-0.611 1.758,-1.456l1.396,-8.306c0.041,-0.211 0.176,-0.391 0.365,-0.492c7,-3.737 13.401,-10.945 14.212,-19.678l-0,0c0.019,0.214 0.036,0.43 0.051,0.648c0,0.004 0,0.008 0.001,0.013c0.001,0.021 0.002,0.043 0.004,0.064c0.013,0.195 0.024,0.392 0.033,0.59c0.004,0.082 0.007,0.165 0.01,0.248c0.005,0.15 0.011,0.301 0.015,0.453c0.006,0.248 0.01,0.496 0.01,0.747c-0,1.271 -0.078,2.494 -0.229,3.669c-0.186,1.441 -0.483,2.809 -0.881,4.107c-0.022,0.071 -0.044,0.141 -0.067,0.212c-0.055,0.174 -0.112,0.348 -0.172,0.521c-0.024,0.069 -0.047,0.138 -0.071,0.207c-0.164,0.462 -0.341,0.915 -0.531,1.358c-0.02,0.047 -0.04,0.094 -0.061,0.141c-0.094,0.214 -0.19,0.427 -0.29,0.636c-0.016,0.035 -0.034,0.07 -0.05,0.104c-0.094,0.193 -0.19,0.385 -0.288,0.576c-0.017,0.032 -0.033,0.065 -0.051,0.098c-0.107,0.204 -0.218,0.406 -0.331,0.606c-0.025,0.043 -0.05,0.086 -0.075,0.13c-0.366,0.637 -0.763,1.251 -1.188,1.842c-0.04,0.056 -0.082,0.113 -0.123,0.168c-0.103,0.141 -0.208,0.28 -0.315,0.418c-0.042,0.055 -0.083,0.109 -0.125,0.163c-0.144,0.183 -0.29,0.365 -0.44,0.543c-0.001,0.002 -0.002,0.003 -0.004,0.005c-0.149,0.178 -0.303,0.353 -0.458,0.527c-0.047,0.053 -0.095,0.105 -0.142,0.157c-0.116,0.127 -0.234,0.253 -0.353,0.378c-0.048,0.05 -0.096,0.101 -0.144,0.151c-0.163,0.167 -0.328,0.333 -0.496,0.496c0,0.001 -0,0.001 -0.001,0.002c-0.187,0.181 -0.378,0.36 -0.572,0.535c-0.387,0.351 -0.788,0.691 -1.201,1.018c-0.412,0.328 -0.837,0.644 -1.274,0.948c-0.219,0.152 -0.44,0.301 -0.664,0.447c-0.202,0.131 -0.407,0.26 -0.613,0.387c-0.06,0.036 -0.12,0.072 -0.179,0.108c-0.157,0.094 -0.313,0.187 -0.471,0.278c-0.062,0.036 -0.125,0.073 -0.188,0.108c-0.212,0.12 -0.426,0.239 -0.642,0.355c-0.048,0.025 -0.091,0.055 -0.131,0.09c-0.037,0.031 -0.068,0.066 -0.097,0.103c-0.008,0.011 -0.016,0.023 -0.023,0.034c-0.02,0.029 -0.038,0.059 -0.053,0.091c-0.006,0.012 -0.013,0.024 -0.018,0.037c-0.018,0.044 -0.034,0.089 -0.043,0.137l-1.726,8.965c-0.02,0.105 -0.049,0.207 -0.086,0.304c-0.019,0.049 -0.039,0.097 -0.062,0.143c-0.022,0.047 -0.047,0.092 -0.073,0.136c-0.026,0.044 -0.055,0.087 -0.084,0.128c-0.03,0.042 -0.062,0.082 -0.095,0.121c-0.037,0.043 -0.078,0.085 -0.119,0.125c-0.013,0.012 -0.027,0.024 -0.041,0.036c-0.03,0.027 -0.061,0.054 -0.092,0.079c-0.017,0.012 -0.033,0.024 -0.049,0.036c-0.033,0.024 -0.066,0.047 -0.1,0.068c-0.015,0.01 -0.031,0.02 -0.046,0.03c-0.05,0.029 -0.101,0.057 -0.153,0.081c-0.001,0.001 -0.001,0.001 -0.002,0.001c-0.052,0.025 -0.106,0.046 -0.161,0.065c-0.018,0.006 -0.035,0.011 -0.053,0.017c-0.039,0.012 -0.079,0.024 -0.119,0.033c-0.02,0.005 -0.04,0.01 -0.061,0.014c-0.04,0.008 -0.081,0.015 -0.123,0.021c-0.019,0.002 -0.037,0.005 -0.056,0.007c-0.06,0.006 -0.12,0.01 -0.181,0.01l-5.829,0c-0.269,0 -0.526,-0.06 -0.757,-0.167c-0.092,-0.044 -0.18,-0.095 -0.263,-0.152c-0.084,-0.058 -0.162,-0.123 -0.234,-0.194c-0.109,-0.107 -0.204,-0.227 -0.283,-0.359c-0.104,-0.176 -0.181,-0.373 -0.221,-0.584l-0.943,-4.984l-0,0c-0.008,-0.041 -0.02,-0.081 -0.035,-0.119c-0.004,-0.011 -0.009,-0.022 -0.014,-0.033c-0.012,-0.027 -0.025,-0.054 -0.041,-0.079c-0.006,-0.01 -0.011,-0.02 -0.018,-0.03c-0.022,-0.033 -0.046,-0.064 -0.072,-0.092c-0.074,-0.078 -0.165,-0.135 -0.265,-0.174c-0.009,-0.004 -0.019,-0.007 -0.028,-0.011c-0.025,-0.008 -0.049,-0.015 -0.073,-0.02c-0.019,-0.004 -0.039,-0.007 -0.058,-0.01c-0.019,-0.002 -0.037,-0.006 -0.056,-0.007c-0.041,-0.002 -0.082,-0.002 -0.124,0.003c-0.313,0.037 -0.629,0.069 -0.945,0.099c-0.079,0.008 -0.159,0.015 -0.238,0.022c-0.316,0.029 -0.634,0.056 -0.953,0.078c-0.001,0.001 -0.003,0.001 -0.005,0.001c-0.319,0.023 -0.64,0.041 -0.962,0.058c-0.082,0.004 -0.163,0.008 -0.244,0.012c-0.323,0.015 -0.648,0.028 -0.974,0.037c-0.49,0.014 -0.982,0.021 -1.477,0.021c-0.662,-0 -1.324,-0.012 -1.984,-0.037c-0.338,-0.012 -0.676,-0.028 -1.014,-0.047c-0.034,-0.002 -0.068,-0.005 -0.102,-0.007c-0.307,-0.018 -0.613,-0.037 -0.919,-0.06c-0.007,-0.001 -0.014,-0.002 -0.021,-0.002c-0.671,-0.051 -1.339,-0.115 -2.005,-0.191c-0.002,-0 -0.004,-0 -0.006,-0.001c-0.304,-0.035 -0.607,-0.072 -0.91,-0.112c-0.146,-0.019 -0.293,-0.041 -0.438,-0.062c-0.161,-0.022 -0.322,-0.044 -0.482,-0.068c-0.325,-0.049 -0.631,0.133 -0.755,0.425c-0.001,0.003 -0.004,0.007 -0.005,0.01c-0.018,0.043 -0.031,0.088 -0.04,0.135l-0.496,2.623l-0.497,2.622c-0.16,0.845 -0.897,1.456 -1.757,1.456l-5.829,0c-0.061,0 -0.121,-0.004 -0.181,-0.01c-0.019,-0.002 -0.037,-0.005 -0.056,-0.007c-0.042,-0.006 -0.083,-0.012 -0.123,-0.021c-0.021,-0.004 -0.041,-0.009 -0.061,-0.014c-0.041,-0.009 -0.08,-0.02 -0.119,-0.033c-0.018,-0.006 -0.035,-0.011 -0.053,-0.017c-0.055,-0.019 -0.109,-0.04 -0.162,-0.065c-0,-0 -0,-0.001 -0.001,-0.001c-0.052,-0.024 -0.103,-0.052 -0.153,-0.081c-0.016,-0.01 -0.031,-0.02 -0.046,-0.03c-0.034,-0.021 -0.068,-0.044 -0.101,-0.068c-0.016,-0.012 -0.032,-0.024 -0.048,-0.037c-0.032,-0.024 -0.062,-0.051 -0.092,-0.078c-0.014,-0.012 -0.028,-0.023 -0.041,-0.036c-0.041,-0.04 -0.082,-0.082 -0.119,-0.125c-0.015,-0.017 -0.028,-0.036 -0.042,-0.054c-0.05,-0.062 -0.096,-0.126 -0.137,-0.195c-0.053,-0.088 -0.098,-0.181 -0.135,-0.279c-0.037,-0.097 -0.067,-0.199 -0.086,-0.305l-0.393,-2.079l-0.408,-2.162l-0.256,-1.355l-0.736,-3.895l-0.066,-0.349c-0.121,-0.06 -0.169,-0.084 -0.29,-0.144c-0.005,0.002 -0.008,0.001 -0.01,-0.001c-0.002,-0.001 -0.004,-0.002 -0.006,-0.003c-0.14,-0.073 -0.276,-0.149 -0.415,-0.224c-0.144,-0.077 -0.29,-0.153 -0.434,-0.233c-0.123,-0.069 -0.245,-0.141 -0.367,-0.212c-0.154,-0.088 -0.31,-0.175 -0.462,-0.266c-0.126,-0.075 -0.248,-0.153 -0.372,-0.229c-0.146,-0.089 -0.293,-0.178 -0.438,-0.269c-0.129,-0.083 -0.255,-0.169 -0.382,-0.252c-0.135,-0.09 -0.272,-0.177 -0.406,-0.268c-0.126,-0.086 -0.248,-0.175 -0.373,-0.263c-0.131,-0.093 -0.264,-0.183 -0.393,-0.278c-0.12,-0.088 -0.237,-0.179 -0.356,-0.269c-0.129,-0.097 -0.26,-0.193 -0.388,-0.293c-0.115,-0.09 -0.226,-0.183 -0.339,-0.275c-0.127,-0.102 -0.256,-0.203 -0.38,-0.307c-0.115,-0.097 -0.226,-0.196 -0.338,-0.294c-0.119,-0.103 -0.24,-0.205 -0.357,-0.31c-0.11,-0.099 -0.215,-0.2 -0.322,-0.3c-0.116,-0.108 -0.235,-0.215 -0.349,-0.325c-0.104,-0.101 -0.204,-0.205 -0.306,-0.307c-0.113,-0.113 -0.227,-0.224 -0.338,-0.339c-0.1,-0.105 -0.196,-0.213 -0.294,-0.319c-0.108,-0.116 -0.217,-0.23 -0.322,-0.348c-0.096,-0.108 -0.187,-0.219 -0.281,-0.328c-0.103,-0.12 -0.208,-0.238 -0.308,-0.36c-0.091,-0.111 -0.178,-0.225 -0.267,-0.338c-0.097,-0.124 -0.198,-0.246 -0.293,-0.372c-0.087,-0.115 -0.17,-0.234 -0.255,-0.351c-0.092,-0.126 -0.186,-0.251 -0.275,-0.379c-0.083,-0.119 -0.162,-0.242 -0.243,-0.364c-0.086,-0.129 -0.174,-0.256 -0.257,-0.387c-0.103,-0.163 -0.198,-0.331 -0.301,-0.493c-0.061,-0.097 -0.119,-0.195 -0.176,-0.294c-0.315,-0.542 -0.812,-0.955 -1.408,-1.146l-0.021,-0.006l0,-0l-2.855,-0.915l-2.741,-0.877c-1.419,-0.455 -2.381,-1.774 -2.381,-3.264l-0,-5.761c-0,-0.509 0.114,-0.997 0.319,-1.438c0.036,-0.078 0.076,-0.155 0.117,-0.23" style="fill:#ffece8;fill-rule:nonzero;"/><path d="M29.032,27.047c-0.177,-0.842 -0.76,-1.541 -1.541,-1.9c-3.004,-1.374 -10.658,-4.683 -12.625,-3.652c-2.464,1.29 -1.173,15.223 2.581,17.349c3.627,2.054 14.149,0.373 11.585,-11.797" style="fill:#f4a896;fill-rule:nonzero;"/><path d="M46.594,1.234c-8.621,0 -15.61,6.989 -15.61,15.611c0,8.621 6.989,15.61 15.61,15.61c8.622,0 15.611,-6.989 15.611,-15.61c0,-8.622 -6.989,-15.611 -15.611,-15.611" style="fill:#4b58a1;fill-rule:nonzero;"/><path d="M15.911,23.109c1.713,-0 5.862,1.412 10.827,3.684c0.271,0.125 0.466,0.359 0.523,0.626c0.723,3.434 0.336,6.198 -1.12,7.992c-0.17,0.21 -0.356,0.408 -0.557,0.592c-0.235,0.215 -0.612,0.095 -0.69,-0.213c-1.726,-6.834 -10.1,-12.681 -8.983,-12.681" style="fill:#ffece8;fill-rule:nonzero;"/><path d="M35.365,6.002l22.072,22.072c-6.111,5.904 -15.849,5.84 -21.881,-0.191c-6.032,-6.032 -6.095,-15.771 -0.191,-21.881" style="fill:#b6bce0;fill-rule:nonzero;"/><path d="M13.589,45.208c-0,-0.682 0.553,-1.234 1.234,-1.234c0.682,-0 1.234,0.552 1.234,1.234c0,0.864 0.703,1.567 1.567,1.567c0.864,-0 1.567,-0.703 1.567,-1.567c0,-0.682 0.553,-1.234 1.234,-1.234c0.682,-0 1.235,0.552 1.235,1.234c-0,2.225 -1.811,4.035 -4.036,4.035c-2.225,0 -4.035,-1.81 -4.035,-4.035" style="fill:#171111;fill-rule:nonzero;"/><path d="M81.337,43.21c0.127,-0.263 -0.174,-0.726 -0.365,-0.979c-0.303,-0.4 -0.582,-0.482 -0.793,-0.482c-0.045,0 -0.086,0.004 -0.124,0.009c-0.568,0.076 -1.363,0.7 -1.784,1.747c-0.099,0.246 -0.228,0.655 -0.258,1.164c1.708,-0.354 3.036,-0.865 3.324,-1.459Zm-66.311,-13.702c0.475,4.062 1.749,7.537 3.03,8.262c1.455,0.825 4.815,0.984 7.337,-0.861c2.526,-1.848 3.366,-5.17 2.431,-9.608l0,-0c-0.094,-0.446 -0.41,-0.831 -0.847,-1.031c-6.178,-2.828 -9.741,-3.754 -11.064,-3.754c-0.2,0 -0.349,0.021 -0.447,0.06c-0.398,0.424 -0.919,2.832 -0.44,6.932Zm-11.787,14.668l3.473,-1.113c0.446,-0.143 0.796,-0.498 0.938,-0.95c0.732,-2.328 1.837,-4.513 3.284,-6.495c0.659,-0.904 1.392,-1.766 2.194,-2.588c-0.513,-2.248 -0.792,-4.792 -0.755,-6.99c0.051,-3.145 0.68,-4.989 1.921,-5.639c0.668,-0.35 2.702,-1.415 13.711,3.625c0.26,0.119 0.504,0.266 0.729,0.434c0.743,-0.199 1.501,-0.384 2.264,-0.549c0.092,-0.021 0.187,-0.038 0.28,-0.058c-0.893,-1.949 -1.413,-4.065 -1.511,-6.25c-0.031,-0.681 0.497,-1.258 1.177,-1.288c0.68,-0.034 1.258,0.496 1.288,1.177c0.162,3.593 1.652,6.973 4.197,9.519c1.52,1.52 3.301,2.625 5.199,3.32c3.29,-0.461 6.642,-0.461 9.933,0c1.898,-0.695 3.678,-1.8 5.199,-3.32c2.715,-2.716 4.211,-6.326 4.211,-10.166c-0,-3.84 -1.496,-7.45 -4.211,-10.166c-2.715,-2.715 -6.326,-4.211 -10.166,-4.211c-3.84,0 -7.45,1.496 -10.165,4.211c-1.092,1.091 -1.993,2.337 -2.68,3.701c-0.307,0.609 -1.049,0.854 -1.658,0.547c-0.609,-0.307 -0.853,-1.049 -0.547,-1.657c0.806,-1.6 1.862,-3.059 3.139,-4.336c3.182,-3.182 7.412,-4.934 11.911,-4.934c4.5,-0 8.73,1.752 11.911,4.934c3.182,3.181 4.934,7.411 4.934,11.911c0,4.499 -1.752,8.729 -4.934,11.911c-0.918,0.917 -1.916,1.707 -2.972,2.368l-0.001,-0c0.767,0.199 1.529,0.423 2.282,0.675c0.647,0.216 0.995,0.915 0.779,1.562c-0.216,0.646 -0.915,0.995 -1.561,0.779c-6.731,-2.25 -14.145,-2.25 -20.875,-0c-0.13,0.043 -0.262,0.064 -0.391,0.064c-0.517,-0 -0.998,-0.327 -1.171,-0.843c-0.216,-0.647 0.133,-1.346 0.779,-1.562c0.753,-0.252 1.515,-0.476 2.283,-0.675l-0.002,-0c-1.056,-0.661 -2.054,-1.451 -2.972,-2.368c-0.812,-0.812 -1.528,-1.699 -2.151,-2.641c-0.34,0.066 -0.678,0.135 -1.01,0.207c-0.443,0.097 -0.885,0.2 -1.322,0.309c0.014,0.053 0.028,0.107 0.039,0.161c0.602,2.856 0.563,5.383 -0.116,7.508c-0.61,1.911 -1.711,3.459 -3.273,4.601c-1.84,1.346 -4.062,1.928 -6.074,1.928c-1.515,-0 -2.911,-0.33 -3.937,-0.911c-1.16,-0.657 -2.132,-2.041 -2.901,-4.12c-0.356,0.415 -0.693,0.84 -1.011,1.276c-1.288,1.764 -2.271,3.709 -2.922,5.78c-0.383,1.216 -1.332,2.173 -2.54,2.56l-3.473,1.112c-0.912,0.292 -1.524,1.132 -1.524,2.088l-0,5.76c-0,0.957 0.612,1.796 1.524,2.088l5.596,1.793c0.896,0.287 1.653,0.902 2.134,1.733c2.198,3.799 5.655,6.944 10.275,9.346c0.534,0.277 0.903,0.774 1.015,1.363l1.792,9.491c0.05,0.261 0.279,0.451 0.545,0.451l5.828,-0c0.266,-0 0.495,-0.19 0.544,-0.451l0.993,-5.246c0.196,-1.031 1.164,-1.717 2.205,-1.559c2.511,0.379 5.098,0.572 7.689,0.572c1.927,-0 3.83,-0.108 5.656,-0.32c1.009,-0.116 1.95,0.572 2.138,1.569l0.944,4.984c0.049,0.261 0.278,0.451 0.544,0.451l5.829,-0c0.266,-0 0.495,-0.19 0.545,-0.455l1.726,-8.964c0.111,-0.578 0.474,-1.069 0.995,-1.348c7.875,-4.204 12.037,-11.227 12.037,-20.31c0,-4.589 -1.004,-8.647 -2.984,-12.062c-1.847,-3.186 -4.546,-5.821 -8.021,-7.831c-0.59,-0.342 -0.791,-1.096 -0.45,-1.686c0.341,-0.59 1.096,-0.792 1.686,-0.451c6.738,3.898 10.801,9.911 11.92,17.548c0.119,-0.011 0.238,-0.021 0.356,-0.034c-0.021,-0.824 0.128,-1.655 0.452,-2.462c0.716,-1.78 2.187,-3.065 3.747,-3.273c1.23,-0.164 2.4,0.358 3.212,1.431c1.178,1.555 0.986,2.787 0.618,3.546c-0.622,1.281 -2.22,2.187 -4.871,2.756c0.073,0.109 0.153,0.219 0.241,0.329c1.566,1.965 3.412,2.399 4.61,2.44c0.702,0.024 1.264,0.588 1.264,1.289l-0,0.006c-0,0.693 -0.547,1.258 -1.238,1.289c-0.089,0.005 -0.181,0.007 -0.278,0.007c-1.516,-0 -3.95,-0.559 -6.289,-3.492c-0.369,-0.462 -0.67,-0.951 -0.901,-1.455c-0.233,0.026 -0.457,0.049 -0.671,0.068c0,-0 0,-0.001 -0,-0.001c0.042,0.669 0.065,1.348 0.065,2.038c0,5.139 -1.225,9.721 -3.641,13.62c-2.228,3.594 -5.417,6.537 -9.483,8.75l-1.678,8.715c-0.269,1.425 -1.518,2.46 -2.969,2.46l-5.829,-0c-1.451,-0 -2.7,-1.035 -2.969,-2.46l-0.853,-4.507c-1.772,0.188 -3.606,0.283 -5.46,0.283c-2.545,-0 -5.085,-0.177 -7.562,-0.527l-0.899,4.751c-0.27,1.426 -1.519,2.46 -2.97,2.46l-5.828,0c-1.451,0 -2.7,-1.035 -2.97,-2.461l-1.745,-9.24c-4.931,-2.608 -8.647,-6.032 -11.049,-10.183c-0.173,-0.299 -0.439,-0.518 -0.75,-0.618l-5.596,-1.792c-1.937,-0.621 -3.239,-2.405 -3.239,-4.439l0,-5.76c0,-2.034 1.302,-3.818 3.239,-4.438" style="fill:#171111;fill-rule:nonzero;"/><text x="38.721px" y="24.794px" style="font-family:'Hero-Regular', 'Hero';font-size:24.996px;fill:#fff;stroke:#fff;stroke-width:0.22px;">€</text></svg>