<?xml version="1.0" encoding="UTF-8" standalone="no"?><!DOCTYPE svg PUBLIC "-//W3C//DTD SVG 1.1//EN" "http://www.w3.org/Graphics/SVG/1.1/DTD/svg11.dtd"><svg width="100%" height="100%" viewBox="0 0 374 384" version="1.1" xmlns="http://www.w3.org/2000/svg" xmlns:xlink="http://www.w3.org/1999/xlink" xml:space="preserve" xmlns:serif="http://www.serif.com/" style="fill-rule:evenodd;clip-rule:evenodd;stroke-linejoin:round;stroke-miterlimit:2;"><g><g><path d="M367.914,161.887c-6.285,-5.477 -15.781,-5.496 -22.09,-0.047l-53.949,46.617c-0.859,-1.477 -1.914,-2.855 -3.152,-4.094c-7.278,-7.281 -18.758,-7.836 -26.707,-1.289l-46.715,38.469c-11.473,9.453 -18.059,23.398 -18.059,38.266l0,33.265c-3.012,2.617 -4.926,6.465 -4.926,10.758l-0,54.551c-0,3.101 2.516,5.617 5.618,5.617c3.101,0 5.617,-2.516 5.617,-5.617l-0,-54.551c-0,-1.668 1.359,-3.027 3.027,-3.027l68.598,0c1.672,0 3.027,1.359 3.027,3.027l0,54.551c0,3.101 2.516,5.617 5.621,5.617c3.102,0 5.617,-2.516 5.617,-5.617l0,-54.551c0,-5.453 -3.078,-10.195 -7.586,-12.594l0,-25.117l12.801,-4.766c10.774,-4.011 19.797,-11.218 26.094,-20.835l50.195,-76.696c4.586,-7.008 3.282,-16.437 -3.031,-21.937Zm-6.367,15.785l-50.195,76.691c-4.977,7.602 -12.102,13.293 -20.614,16.461l-22.336,8.317c-2.91,1.086 -4.386,4.32 -3.304,7.226c0.84,2.262 2.984,3.66 5.265,3.66c0.086,0 0.172,-0.007 0.258,-0.011l0,19.554l-62.141,-0l-0,-29.761c-0,-11.497 5.09,-22.281 13.965,-29.594l46.715,-38.469c3.457,-2.848 8.453,-2.605 11.617,0.563c3.375,3.371 3.375,8.859 0,12.234l-18.429,18.43c-2.192,2.195 -2.192,5.75 -0,7.945c2.195,2.191 5.75,2.191 7.945,-0l18.43,-18.43c3.105,-3.105 5.05,-7.054 5.636,-11.328l58.813,-50.816c2.101,-1.817 5.266,-1.813 7.363,0.015c2.106,1.832 2.539,4.977 1.012,7.313Z" style="fill-rule:nonzero;"/><path d="M176.754,313.074l-0,-33.265c-0,-14.668 -6.445,-28.5 -17.688,-37.946c-2.375,-1.996 -5.918,-1.687 -7.914,0.688c-1.996,2.375 -1.687,5.918 0.688,7.914c8.695,7.305 13.68,18 13.68,29.344l0,29.757l-62.141,0l-0,-19.554c0.086,0.004 0.172,0.011 0.258,0.011c2.281,0 4.425,-1.398 5.265,-3.656c1.082,-2.91 -0.394,-6.144 -3.304,-7.226l-22.336,-8.317c-8.512,-3.168 -15.641,-8.863 -20.614,-16.461l-50.195,-76.691c-1.527,-2.336 -1.095,-5.481 1.012,-7.313c2.097,-1.828 5.262,-1.832 7.363,-0.015l58.824,50.824c0.575,4.141 2.446,8.141 5.625,11.316l18.43,18.43c1.098,1.098 2.535,1.648 3.973,1.648c1.437,-0 2.875,-0.55 3.972,-1.648c2.192,-2.191 2.192,-5.75 0,-7.941l-18.429,-18.43c-3.375,-3.375 -3.375,-8.863 -0,-12.238c3.168,-3.164 8.16,-3.407 11.617,-0.559l28.16,23.192c2.395,1.972 5.938,1.628 7.91,-0.766c1.973,-2.395 1.629,-5.938 -0.765,-7.91l-28.165,-23.192c-7.945,-6.543 -19.425,-5.988 -26.703,1.289c-1.254,1.254 -2.3,2.637 -3.148,4.102l-53.953,-46.621c-6.309,-5.449 -15.805,-5.43 -22.09,0.047c-6.313,5.5 -7.617,14.929 -3.031,21.937l50.195,76.692c6.296,9.621 15.316,16.828 26.094,20.839l12.801,4.766l-0,25.117c-4.508,2.399 -7.586,7.141 -7.586,12.594l-0,54.551c-0,3.101 2.515,5.617 5.617,5.617c3.101,-0 5.617,-2.516 5.617,-5.617l-0,-54.551c-0,-1.668 1.359,-3.027 3.027,-3.027l68.598,0c1.672,0 3.027,1.359 3.027,3.027l0,54.551c0,3.101 2.516,5.617 5.621,5.617c3.102,-0 5.618,-2.516 5.618,-5.617l0,-54.551c0,-4.293 -1.918,-8.141 -4.93,-10.758Z" style="fill-rule:nonzero;"/><path d="M92.305,177.961c49.062,-0 88.98,-39.918 88.98,-88.981c0,-49.062 -39.918,-88.98 -88.98,-88.98c-49.063,0 -88.981,39.918 -88.981,88.98c0,49.063 39.914,88.981 88.981,88.981Zm0,-166.727c42.867,0 77.746,34.879 77.746,77.746c-0,42.868 -34.879,77.747 -77.746,77.747c-42.871,0 -77.746,-34.879 -77.746,-77.747c0,-42.867 34.875,-77.746 77.746,-77.746Z" style="fill-rule:nonzero;"/><path d="M72.449,124.266c3.145,2.98 7.262,4.621 11.594,4.621c4.57,-0 8.852,-1.801 12.047,-5.071l11.933,-12.199c2.168,-2.219 2.129,-5.773 -0.089,-7.945c-2.219,-2.168 -5.774,-2.129 -7.942,0.09l-11.933,12.199c-1.067,1.09 -2.493,1.691 -4.016,1.691c-1.445,0 -2.816,-0.547 -3.863,-1.539l-16.856,-15.972l7.731,-8.153l6.543,6.2c3.472,3.289 9.015,3.183 12.359,-0.235l32.828,-33.57l8.035,7.855l-14.09,14.407c-2.168,2.218 -2.128,5.773 0.09,7.945c2.219,2.168 5.774,2.129 7.941,-0.09l15.786,-16.141c1.644,-1.679 2.539,-3.902 2.512,-6.257c-0.028,-2.352 -0.969,-4.555 -2.653,-6.2l-11.496,-11.246c-1.683,-1.644 -3.903,-2.539 -6.262,-2.511c-2.351,0.027 -4.554,0.968 -6.199,2.652l-32.855,33.594l-6.571,-6.227c-1.707,-1.617 -3.945,-2.476 -6.296,-2.41c-2.352,0.062 -4.539,1.039 -6.157,2.746l-11.066,11.676c-3.34,3.523 -3.192,9.109 0.336,12.453l18.609,17.637Z" style="fill-rule:nonzero;"/><path d="M281.695,177.961c20.879,-0 41.18,-7.383 57.157,-20.789c2.378,-1.996 2.687,-5.535 0.695,-7.914c-1.996,-2.375 -5.539,-2.684 -7.914,-0.692c-13.961,11.711 -31.695,18.161 -49.938,18.161c-42.867,0 -77.742,-34.875 -77.742,-77.747c0,-42.867 34.875,-77.746 77.742,-77.746c42.871,0 77.746,34.879 77.746,77.746c0,15.336 -4.461,30.172 -12.906,42.903c-1.715,2.586 -1.008,6.074 1.578,7.789c2.586,1.715 6.071,1.008 7.785,-1.578c9.668,-14.578 14.778,-31.563 14.778,-49.114c-0,-49.062 -39.914,-88.98 -88.981,-88.98c-49.062,-0 -88.98,39.918 -88.98,88.98c-0,49.063 39.918,88.981 88.98,88.981Z" style="fill-rule:nonzero;"/><path d="M327.391,57.254l-12.883,-13.195c-1.641,-1.68 -3.832,-2.618 -6.18,-2.645c-2.344,-0.031 -4.558,0.856 -6.238,2.496l-20.391,19.91l-20.398,-19.922c-1.68,-1.636 -3.891,-2.527 -6.239,-2.496c-2.347,0.028 -4.539,0.969 -6.179,2.645l-12.883,13.195c-1.641,1.68 -2.527,3.895 -2.5,6.238c0.031,2.348 0.969,4.54 2.648,6.18l19.785,19.32l-19.788,19.325c-1.676,1.636 -2.614,3.832 -2.645,6.175c-0.027,2.344 0.859,4.559 2.5,6.239l12.883,13.195c1.64,1.676 3.832,2.617 6.179,2.645l0.106,0c2.305,0 4.48,-0.883 6.133,-2.497l20.398,-19.921l20.395,19.91c1.676,1.64 3.902,2.511 6.238,2.496c2.344,-0.027 4.539,-0.965 6.176,-2.645l12.883,-13.195c3.382,-3.465 3.316,-9.031 -0.145,-12.414l-19.777,-19.313l19.777,-19.316c3.461,-3.379 3.527,-8.949 0.145,-12.41Zm-31.891,27.707c-1.082,1.059 -1.691,2.508 -1.691,4.019c-0,1.512 0.609,2.961 1.691,4.02l22.137,21.613l-9.453,9.684l-22.559,-22.027c-2.184,-2.133 -5.668,-2.133 -7.848,-0l-22.57,22.039l-9.453,-9.684l22.144,-21.625c1.086,-1.059 1.696,-2.508 1.696,-4.02c-0,-1.511 -0.61,-2.96 -1.696,-4.019l-22.144,-21.625l9.453,-9.684l22.57,22.039c2.184,2.133 5.664,2.133 7.848,0l22.559,-22.027l9.453,9.684l-22.137,21.613Z" style="fill-rule:nonzero;"/></g></g></svg>