<svg width="100%" height="100%" viewBox="0 0 7 7" version="1.1" xmlns="http://www.w3.org/2000/svg" xmlns:xlink="http://www.w3.org/1999/xlink" xml:space="preserve" xmlns:serif="http://www.serif.com/" style="fill-rule:evenodd;clip-rule:evenodd;stroke-linejoin:round;stroke-miterlimit:2;"><path d="M3.124,0c1.726,0 3.125,1.399 3.125,3.124c-0,1.726 -1.399,3.125 -3.125,3.125c-1.725,-0 -3.124,-1.399 -3.124,-3.125c0,-1.725 1.399,-3.124 3.124,-3.124Zm1.079,1.367l-2.157,-0c-0.375,-0 -0.679,0.304 -0.679,0.679l-0,2.157c-0,0.375 0.304,0.679 0.679,0.679l2.157,0c0.375,0 0.679,-0.305 0.679,-0.679l0,-2.157c0,-0.375 -0.305,-0.679 -0.679,-0.679Zm0.214,0.393l0.077,-0l-0,0.583l-0.588,0.002l-0.002,-0.584l0.513,-0.001Zm-1.293,0.776c0.488,0 0.589,0.458 0.589,0.589c-0,0.323 -0.265,0.587 -0.589,0.587c-0.324,0 -0.588,-0.264 -0.588,-0.587c0,-0.131 0.101,-0.589 0.588,-0.589Zm1.373,1.624c-0,0.186 -0.151,0.337 -0.337,0.337l-2.078,0c-0.186,0 -0.337,-0.151 -0.337,-0.337l0,-1.427l0.488,-0c-0.045,0.112 -0.071,0.264 -0.071,0.392c0,0.529 0.432,0.961 0.962,0.961c0.53,-0 0.961,-0.432 0.961,-0.961c0,-0.128 -0.026,-0.28 -0.071,-0.392l0.482,-0l0,1.427l0.001,0Z" style="fill:#f4a896;fill-rule:nonzero;"/></svg>