<?xml version="1.0" encoding="UTF-8" standalone="no"?><!DOCTYPE svg PUBLIC "-//W3C//DTD SVG 1.1//EN" "http://www.w3.org/Graphics/SVG/1.1/DTD/svg11.dtd"><svg width="100%" height="100%" viewBox="0 0 13 20" version="1.1" xmlns="http://www.w3.org/2000/svg" xmlns:xlink="http://www.w3.org/1999/xlink" xml:space="preserve" xmlns:serif="http://www.serif.com/" style="fill-rule:evenodd;clip-rule:evenodd;stroke-linejoin:round;stroke-miterlimit:2;"><path d="M0,13.846l0,-7.758c0,-3.349 2.74,-6.088 6.088,-6.088l0,0c3.349,0 6.088,2.74 6.088,6.088l0,7.758c0,3.348 -2.74,6.088 -6.088,6.088l-0,-0c-3.348,-0 -6.088,-2.74 -6.088,-6.088Zm0.897,-0c0,2.853 2.338,5.191 5.191,5.191c2.853,-0 5.191,-2.339 5.191,-5.191l0,-7.758c0,-2.853 -2.338,-5.191 -5.191,-5.191c-2.853,0 -5.191,2.338 -5.191,5.191l0,7.758Zm5.191,-5.174c0.791,0 1.431,0.641 1.431,1.431c0,0.791 -0.64,1.432 -1.431,1.432c-0.791,-0 -1.431,-0.641 -1.431,-1.432c-0,-0.79 0.64,-1.431 1.431,-1.431" style="fill:#fff;"/></svg>