<?xml version="1.0" encoding="UTF-8" standalone="no"?><!DOCTYPE svg PUBLIC "-//W3C//DTD SVG 1.1//EN" "http://www.w3.org/Graphics/SVG/1.1/DTD/svg11.dtd"><svg width="100%" height="100%" viewBox="0 0 5 5" version="1.1" xmlns="http://www.w3.org/2000/svg" xmlns:xlink="http://www.w3.org/1999/xlink" xml:space="preserve" xmlns:serif="http://www.serif.com/" style="fill-rule:evenodd;clip-rule:evenodd;stroke-linejoin:round;stroke-miterlimit:2;"><path d="M1.429,1.989c0.116,0.485 0.738,1.084 1.2,1.199c0.207,0.047 0.438,-0.069 0.507,-0.276c0.092,-0.3 0.484,-0.393 0.715,-0.162l0.646,0.646c0.081,0.081 0.121,0.19 0.121,0.303l0,-0c-0,0.113 -0.04,0.228 -0.121,0.32l-0.438,0.438c-0.115,0.115 -0.278,0.17 -0.475,0.171l-0,-0c-0.589,0 -1.48,-0.488 -2.293,-1.301c-1.084,-1.084 -1.568,-2.307 -1.13,-2.768l0.438,-0.438c0.077,-0.077 0.179,-0.117 0.285,-0.121l0.035,0c0.107,0.004 0.215,0.044 0.303,0.121l0.646,0.646c0.23,0.23 0.138,0.622 -0.162,0.715c-0.208,0.069 -0.346,0.3 -0.277,0.507" style="fill:#f4a896;fill-rule:nonzero;"/></svg>