<?xml version="1.0" encoding="UTF-8" standalone="no"?><!DOCTYPE svg PUBLIC "-//W3C//DTD SVG 1.1//EN" "http://www.w3.org/Graphics/SVG/1.1/DTD/svg11.dtd"><svg width="100%" height="100%" viewBox="0 0 8 10" version="1.1" xmlns="http://www.w3.org/2000/svg" xmlns:xlink="http://www.w3.org/1999/xlink" xml:space="preserve" xmlns:serif="http://www.serif.com/" style="fill-rule:evenodd;clip-rule:evenodd;stroke-linejoin:round;stroke-miterlimit:2;"><path d="M3.512,5.279c-0.974,-0 -1.767,-0.793 -1.767,-1.767c0,-0.974 0.793,-1.767 1.767,-1.767c0.974,-0 1.767,0.793 1.767,1.767c-0,0.974 -0.793,1.767 -1.767,1.767Zm-0,-5.279c-1.936,0 -3.512,1.575 -3.512,3.512c0,2.403 3.143,5.931 3.277,6.08c0.125,0.14 0.345,0.14 0.47,-0c0.134,-0.149 3.277,-3.677 3.277,-6.08c-0,-1.937 -1.576,-3.512 -3.512,-3.512" style="fill:#f4a896;fill-rule:nonzero;"/></svg>