<?xml version="1.0" encoding="UTF-8" standalone="no"?><!DOCTYPE svg PUBLIC "-//W3C//DTD SVG 1.1//EN" "http://www.w3.org/Graphics/SVG/1.1/DTD/svg11.dtd"><svg width="100%" height="100%" viewBox="0 0 9 7" version="1.1" xmlns="http://www.w3.org/2000/svg" xmlns:xlink="http://www.w3.org/1999/xlink" xml:space="preserve" xmlns:serif="http://www.serif.com/" style="fill-rule:evenodd;clip-rule:evenodd;stroke-linejoin:round;stroke-miterlimit:2;"><path d="M8.801,3.139c-0.135,-0.218 -0.374,-0.348 -0.639,-0.348l-0.663,-0l0,-1.215c0,-0.294 -0.247,-0.532 -0.551,-0.532l-3.243,-0c-0.005,-0 -0.008,-0.002 -0.009,-0.002l-0.581,-0.812c-0.103,-0.144 -0.272,-0.23 -0.454,-0.23l-2.109,0c-0.304,0 -0.552,0.239 -0.552,0.532l0,5.829c0,0.3 0.253,0.544 0.565,0.544l6.563,0c0.102,0 0.191,-0.059 0.234,-0.144l1.471,-2.954c0.106,-0.214 0.095,-0.464 -0.032,-0.668Zm-8.249,-2.617l2.109,-0c0.016,-0 0.027,0.007 0.03,0.012l0.581,0.812c0.098,0.137 0.26,0.219 0.433,0.219l3.243,0c0.018,0 0.027,0.009 0.029,0.012l0,1.214l-4.721,-0c-0.293,-0 -0.559,0.165 -0.679,0.42l-1.055,2.259l-0,-4.936c0.002,-0.004 0.011,-0.012 0.03,-0.012Zm7.813,3.052l-1.398,2.809l-6.296,0l1.379,-2.951c0.034,-0.071 0.116,-0.12 0.206,-0.12l5.906,0c0.083,0 0.156,0.038 0.196,0.102c0.022,0.036 0.041,0.093 0.007,0.16" style="fill:#4b58a1;fill-rule:nonzero;"/></svg>