<?xml version="1.0" encoding="UTF-8" standalone="no"?><!DOCTYPE svg PUBLIC "-//W3C//DTD SVG 1.1//EN" "http://www.w3.org/Graphics/SVG/1.1/DTD/svg11.dtd"><svg width="100%" height="100%" viewBox="0 0 384 384" version="1.1" xmlns="http://www.w3.org/2000/svg" xmlns:xlink="http://www.w3.org/1999/xlink" xml:space="preserve" xmlns:serif="http://www.serif.com/" style="fill-rule:evenodd;clip-rule:evenodd;stroke-linejoin:round;stroke-miterlimit:2;"><g><path d="M251.586,33.328c3.105,0 5.625,-2.519 5.625,-5.625l-0,-22.078c-0,-3.105 -2.52,-5.625 -5.625,-5.625c-3.109,-0 -5.625,2.52 -5.625,5.625l-0,22.078c-0,3.106 2.516,5.625 5.625,5.625Z" style="fill-rule:nonzero;"/><path d="M198.789,40.219c1.113,1.285 2.68,1.941 4.258,1.941c1.305,0 2.613,-0.449 3.68,-1.371c2.347,-2.035 2.601,-5.586 0.57,-7.934l-14.328,-16.546c-2.031,-2.352 -5.586,-2.606 -7.934,-0.571c-2.347,2.032 -2.605,5.582 -0.57,7.934l14.324,16.547Z" style="fill-rule:nonzero;"/><path d="M296.445,40.789c1.063,0.922 2.371,1.371 3.68,1.371c1.574,0 3.141,-0.656 4.254,-1.941l14.324,-16.547c2.035,-2.352 1.781,-5.902 -0.57,-7.934c-2.348,-2.035 -5.903,-1.781 -7.934,0.571l-14.328,16.546c-2.031,2.348 -1.777,5.899 0.574,7.934Z" style="fill-rule:nonzero;"/><path d="M239.93,209.457c3.265,3.141 7.461,4.711 11.656,4.711c4.191,-0 8.386,-1.57 11.652,-4.711l86.528,-83.191c6.121,-5.887 6.89,-15.446 1.785,-22.231l-11.617,-15.437c-1.864,-2.485 -5.391,-2.981 -7.875,-1.114c-2.485,1.868 -2.981,5.395 -1.114,7.875l9.973,13.258l-44.648,0l-11.86,-39.152l24.278,-0c1.738,-0 3.398,0.828 4.445,2.219l4.293,5.703c1.867,2.484 5.394,2.98 7.879,1.113c2.48,-1.867 2.98,-5.395 1.109,-7.875l-4.289,-5.707c-3.16,-4.199 -8.184,-6.703 -13.437,-6.703l-114.204,-0c-5.257,-0 -10.281,2.504 -13.437,6.703l-29.426,39.117c-5.105,6.785 -4.34,16.344 1.781,22.231l86.528,83.191Zm-33.336,-89.59l32.211,72.903l-75.825,-72.903l43.614,0Zm133.594,0l-75.821,72.899l32.211,-72.899l43.61,0Zm-88.602,73.988l-32.695,-73.988l65.386,0l-32.691,73.988Zm21.066,-124.39l11.864,39.152l-65.86,0l11.86,-39.152l42.136,-0Zm-82.617,2.219c1.047,-1.391 2.707,-2.219 4.449,-2.219l24.278,-0l-11.86,39.152l-44.652,0l27.785,-36.933Z" style="fill-rule:nonzero;"/><path d="M343.543,279.16l-34.449,20.957c-33.555,20.41 -74.102,24.801 -111.246,12.051c-5.446,-1.867 -9.176,-6.387 -9.985,-12.082c-0.808,-5.699 1.52,-11.078 6.231,-14.387l35.828,-25.179c9.328,-6.555 11.683,-19.125 5.359,-28.614c-4.797,-7.199 -13.355,-10.656 -21.812,-8.801l-92.047,20.196l-0,-1.164c-0,-8.043 -6.543,-14.586 -14.586,-14.586l-46.125,-0c-3.109,-0 -5.625,2.515 -5.625,5.625c-0,3.105 2.516,5.625 5.625,5.625l46.121,-0c1.84,-0 3.34,1.496 3.34,3.336l-0,127.277c-0,1.84 -1.5,3.336 -3.34,3.336l-95.332,0c-0.137,0 -0.25,-0.113 -0.25,-0.25l0,-133.453c0,-0.137 0.113,-0.246 0.25,-0.246l26.719,-0c3.109,-0 5.625,-2.52 5.625,-5.625c0,-3.11 -2.516,-5.625 -5.625,-5.625l-26.719,-0c-6.34,-0 -11.5,5.156 -11.5,11.496l0,133.453c0,6.34 5.16,11.5 11.5,11.5l95.332,0c8.047,0 14.59,-6.543 14.59,-14.586l-0,-2.859l3.293,0.949c24.859,7.172 50.336,10.777 76.051,10.773c9.64,-0 19.32,-0.504 29.004,-1.519c35.828,-3.754 70.035,-14.274 101.671,-31.278c2.735,-1.468 3.762,-4.878 2.289,-7.617c-1.468,-2.734 -4.878,-3.765 -7.617,-2.293c-30.336,16.309 -63.148,26.399 -97.515,30c-34.078,3.567 -67.985,0.582 -100.766,-8.875l-6.41,-1.851l-0,-100.028l94.457,-20.722c3.894,-0.856 7.832,0.734 10.039,4.051c2.914,4.367 1.828,10.152 -2.465,13.171l-35.832,25.176c-8.113,5.707 -12.293,15.352 -10.898,25.172c1.394,9.824 8.089,17.926 17.472,21.145c40.317,13.839 84.325,9.074 120.743,-13.082l34.453,-20.957c9.875,-6.008 23.644,0.539 23.355,10.312c-0.09,3.012 -1.476,5.836 -3.801,7.754c-7.453,6.137 -15.32,11.918 -23.386,17.191c-2.598,1.7 -3.329,5.188 -1.629,7.785c1.703,2.602 5.187,3.333 7.789,1.629c8.402,-5.492 16.605,-11.523 24.375,-17.921c4.832,-3.977 7.711,-9.848 7.898,-16.106c0.57,-19.383 -23.57,-30.523 -40.449,-20.254Z" style="fill-rule:nonzero;"/><path d="M81.617,333.953l-0,-12.199c-0,-3.106 -2.515,-5.625 -5.625,-5.625c-3.105,-0 -5.625,2.519 -5.625,5.625l-0,12.199c-0,3.109 2.52,5.625 5.625,5.625c3.11,-0 5.625,-2.516 5.625,-5.625Z" style="fill-rule:nonzero;"/></g></svg>