<?xml version="1.0" encoding="UTF-8" standalone="no"?><!DOCTYPE svg PUBLIC "-//W3C//DTD SVG 1.1//EN" "http://www.w3.org/Graphics/SVG/1.1/DTD/svg11.dtd"><svg width="100%" height="100%" viewBox="0 0 5 4" version="1.1" xmlns="http://www.w3.org/2000/svg" xmlns:xlink="http://www.w3.org/1999/xlink" xml:space="preserve" xmlns:serif="http://www.serif.com/" style="fill-rule:evenodd;clip-rule:evenodd;stroke-linejoin:round;stroke-miterlimit:2;"><path d="M2.167,2.054c0.044,0.04 0.091,0.06 0.14,0.06c0.048,0 0.095,-0.02 0.139,-0.059c0.327,-0.295 1.438,-1.238 2.071,-1.774c0.039,-0.034 0.045,-0.092 0.013,-0.133c-0.073,-0.094 -0.183,-0.148 -0.301,-0.148l-3.845,0c-0.118,0 -0.228,0.054 -0.301,0.148c-0.032,0.041 -0.026,0.099 0.013,0.133c0.633,0.536 1.745,1.479 2.071,1.773" style="fill:#f4a896;fill-rule:nonzero;"/><path d="M4.558,0.571c-0.035,-0.016 -0.075,-0.01 -0.103,0.014c-0.702,0.595 -1.598,1.358 -1.88,1.612c-0.158,0.143 -0.378,0.143 -0.537,0c-0.3,-0.271 -1.307,-1.126 -1.88,-1.612c-0.028,-0.024 -0.068,-0.029 -0.102,-0.014c-0.034,0.016 -0.056,0.05 -0.056,0.087l0,2.417c0,0.212 0.172,0.385 0.384,0.385l3.845,-0c0.212,-0 0.384,-0.173 0.384,-0.385l0,-2.417c0,-0.037 -0.022,-0.071 -0.055,-0.087" style="fill:#f4a896;fill-rule:nonzero;"/></svg>