<svg id="Camada_1" data-name="Camada 1" xmlns="http://www.w3.org/2000/svg" viewBox="0 0 456.29 173.58"><defs><style>.cls-1{fill:#4654a0;}</style></defs><path class="cls-1" d="M128.34,85.33V50.72h16.23a12.89,12.89,0,0,1,6.69,1.56,9.79,9.79,0,0,1,3.9,4.24,14,14,0,0,1,1.29,6.13A12.56,12.56,0,0,1,155,68.83,10.38,10.38,0,0,1,150.78,73a13.29,13.29,0,0,1-6.42,1.47H135.6V85.33Zm7.26-16.61h7.25a6.21,6.21,0,0,0,4.7-1.64,6.09,6.09,0,0,0,1.59-4.43,6.45,6.45,0,0,0-1.5-4.6,6,6,0,0,0-4.52-1.58H135.6Z"/><path class="cls-1" d="M160.48,85.33V50.72h16.61q6,0,8.76,3.14a12.31,12.31,0,0,1,2.79,8.47A9.71,9.71,0,0,1,181.76,72a6.2,6.2,0,0,1,1.37,1.51,13.09,13.09,0,0,1,1.05,2.15l4.19,9.67h-7.52L176.77,76a4.2,4.2,0,0,0-1.19-1.66,3.61,3.61,0,0,0-2.15-.49h-5.69V85.33Zm7.26-17.47h7.47a7.1,7.1,0,0,0,4.46-1.26c1.07-.84,1.61-2.27,1.61-4.27a5.68,5.68,0,0,0-1.4-4.25,5.94,5.94,0,0,0-4.24-1.34h-7.9Z"/><path class="cls-1" d="M208.64,85.87q-16.83,0-16.83-17.68,0-9.52,4.25-13.76t12.58-4.25q8.33,0,12.57,4.25t4.25,13.76Q225.46,85.86,208.64,85.87Zm0-6.18q4.89,0,7.17-2.83c1.52-1.88,2.29-4.77,2.29-8.67,0-4.34-.77-7.39-2.29-9.17s-3.91-2.66-7.17-2.66-5.66.89-7.18,2.66-2.28,4.83-2.28,9.17q0,5.85,2.28,8.67C203,78.75,205.38,79.69,208.64,79.69Z"/><path class="cls-1" d="M230.51,85.33V50.72h24.35v5.64H237.77v8.87h15.1v5.59h-15.1V85.33Z"/><path class="cls-1" d="M258.83,85.33V50.72h7.26V85.33Z"/><path class="cls-1" d="M283,85.87a36.54,36.54,0,0,1-6.21-.49,21,21,0,0,1-5-1.39v-6.4a29.25,29.25,0,0,0,5.1,1.56,25.76,25.76,0,0,0,5.38.59,16,16,0,0,0,5.53-.7c1.18-.46,1.78-1.52,1.78-3.17a3.78,3.78,0,0,0-.76-2.47,6.29,6.29,0,0,0-2.6-1.64Q284.36,71,281,70.12c-3.62-1-6.17-2.26-7.63-3.76a8.55,8.55,0,0,1-2.21-6.24,8.61,8.61,0,0,1,3.5-7.36q3.48-2.58,10.15-2.58a36.44,36.44,0,0,1,5.81.43,26.09,26.09,0,0,1,4.35,1V58a25.79,25.79,0,0,0-9.19-1.67,15.45,15.45,0,0,0-5.32.73,2.91,2.91,0,0,0-1.94,3,3.18,3.18,0,0,0,.7,2.15,6,6,0,0,0,2.4,1.45,48.93,48.93,0,0,0,4.75,1.46,22,22,0,0,1,6.56,2.68,8.6,8.6,0,0,1,3.2,3.55,10.86,10.86,0,0,1,.88,4.46,8.81,8.81,0,0,1-3.44,7.26Q290.12,85.86,283,85.87Z"/><path class="cls-1" d="M308.92,85.33v-29H298.28V50.72h28.49v5.59H316.18v29Z"/><path class="cls-1" d="M345.42,85.87q-16.83,0-16.83-17.68,0-9.52,4.25-13.76t12.58-4.25q8.32,0,12.57,4.25t4.25,13.76Q362.24,85.86,345.42,85.87Zm0-6.18q4.89,0,7.17-2.83c1.52-1.88,2.29-4.77,2.29-8.67,0-4.34-.77-7.39-2.29-9.17s-3.91-2.66-7.17-2.66-5.66.89-7.18,2.66S336,63.85,336,68.19q0,5.85,2.28,8.67C339.76,78.75,342.16,79.69,345.42,79.69Z"/><path class="cls-1" d="M367.29,85.33V50.72h6.29L390,73.78V50.72h7.26V85.33h-6.29L374.55,62.27V85.33Z"/><path class="cls-1" d="M403.35,85.33V50.72h24.83v5.64H410.61v8.87H426.2v5.59H410.61v8.92h17.57v5.59Z"/><path class="cls-1" d="M134.46,116.36a7,7,0,0,1-5.44-2.2,8.84,8.84,0,0,1-2-6.11,9,9,0,0,1,2-6.28,7.21,7.21,0,0,1,5.6-2.24,11.14,11.14,0,0,1,4,.73l-.4,1.31a12,12,0,0,0-3.65-.7,5.57,5.57,0,0,0-4.52,1.84A8.06,8.06,0,0,0,128.6,108a7.82,7.82,0,0,0,1.54,5.14,5.27,5.27,0,0,0,4.29,1.85,10.56,10.56,0,0,0,4.11-.79v1.37A9.3,9.3,0,0,1,134.46,116.36Z"/><path class="cls-1" d="M155.91,107.93a9.22,9.22,0,0,1-1.92,6.2,6.66,6.66,0,0,1-5.31,2.23,6.93,6.93,0,0,1-3.76-1,6.63,6.63,0,0,1-2.49-3,10.66,10.66,0,0,1-.87-4.44,9.11,9.11,0,0,1,1.93-6.19,6.64,6.64,0,0,1,5.28-2.21,6.51,6.51,0,0,1,5.24,2.24A9.23,9.23,0,0,1,155.91,107.93Zm-12.8,0a8.24,8.24,0,0,0,1.47,5.21,5.55,5.55,0,0,0,8.31,0,8.24,8.24,0,0,0,1.47-5.21,8.12,8.12,0,0,0-1.48-5.21,5.05,5.05,0,0,0-4.17-1.85,5,5,0,0,0-4.14,1.84A8.25,8.25,0,0,0,143.11,107.93Z"/><path class="cls-1" d="M171.71,116.06V105.54a5.12,5.12,0,0,0-1-3.56,4.15,4.15,0,0,0-3.19-1.11,5.53,5.53,0,0,0-4.26,1.47q-1.35,1.47-1.35,4.77v9H160.4V99.84h1.26l.28,2.23H162c1.05-1.7,2.93-2.54,5.62-2.54q5.52,0,5.52,5.92v10.61Z"/><path class="cls-1" d="M188.48,111.84a3.83,3.83,0,0,1-1.66,3.34,8,8,0,0,1-4.7,1.18,11.32,11.32,0,0,1-5.16-1v-1.6a11.32,11.32,0,0,0,5.16,1.22,6.85,6.85,0,0,0,3.65-.79,2.44,2.44,0,0,0,1.25-2.13,2.57,2.57,0,0,0-1-2.06,10.84,10.84,0,0,0-3.25-1.64,19,19,0,0,1-3.42-1.51,4.79,4.79,0,0,1-1.49-1.44,3.61,3.61,0,0,1-.5-1.94,3.31,3.31,0,0,1,1.53-2.88,7.42,7.42,0,0,1,4.28-1.06,12.89,12.89,0,0,1,5,1l-.55,1.35a11.63,11.63,0,0,0-4.43-1,6.41,6.41,0,0,0-3.15.66,2,2,0,0,0-1.16,1.82,2.54,2.54,0,0,0,.9,2,12.89,12.89,0,0,0,3.53,1.7,17.25,17.25,0,0,1,3.19,1.42,4.52,4.52,0,0,1,1.5,1.44A3.57,3.57,0,0,1,188.48,111.84Z"/><path class="cls-1" d="M192.45,95.34c0-1,.31-1.43.94-1.43a.83.83,0,0,1,.72.37,1.86,1.86,0,0,1,.26,1.06,1.93,1.93,0,0,1-.26,1.06.81.81,0,0,1-.72.38C192.76,96.78,192.45,96.3,192.45,95.34Zm1.68,20.72h-1.47V99.84h1.47Z"/><path class="cls-1" d="M212.21,99.84v1l-3.35.21a5.75,5.75,0,0,1,1.34,3.67,5,5,0,0,1-1.56,3.8,5.87,5.87,0,0,1-4.18,1.45,9.15,9.15,0,0,1-1.56-.09,3.92,3.92,0,0,0-1.34,1.09,2.19,2.19,0,0,0-.46,1.33,1.23,1.23,0,0,0,.59,1.13,4,4,0,0,0,2,.36h2.83a6.57,6.57,0,0,1,4,1.07,3.69,3.69,0,0,1,1.4,3.15,4.48,4.48,0,0,1-2.08,4,10.59,10.59,0,0,1-5.93,1.4,8.18,8.18,0,0,1-4.73-1.18,3.79,3.79,0,0,1-1.68-3.28,3.87,3.87,0,0,1,1-2.78,5.31,5.31,0,0,1,2.81-1.5,2.86,2.86,0,0,1-1.17-.89,2.08,2.08,0,0,1-.44-1.32c0-1.09.69-2,2.07-2.87a4.61,4.61,0,0,1-2.21-1.82,5.3,5.3,0,0,1-.79-2.86,5.14,5.14,0,0,1,1.55-3.9,5.76,5.76,0,0,1,4.16-1.47,7.68,7.68,0,0,1,2.48.31Zm-13.12,19q0,3.35,5,3.34c4.26,0,6.39-1.35,6.39-4.07a2.37,2.37,0,0,0-1-2.12,6.19,6.19,0,0,0-3.24-.65h-2.65C200.57,115.3,199.09,116.46,199.09,118.8Zm1.23-13.9a3.77,3.77,0,0,0,1.14,2.92,4.39,4.39,0,0,0,3.06,1,4.34,4.34,0,0,0,3.11-1,3.92,3.92,0,0,0,1.08-3,4.06,4.06,0,0,0-1.11-3.11,4.41,4.41,0,0,0-3.11-1,4.15,4.15,0,0,0-3.06,1.11A4.2,4.2,0,0,0,200.32,104.9Z"/><path class="cls-1" d="M229,107.93a9.17,9.17,0,0,1-1.93,6.2,6.66,6.66,0,0,1-5.31,2.23,6.89,6.89,0,0,1-3.75-1,6.58,6.58,0,0,1-2.5-3,10.82,10.82,0,0,1-.86-4.44,9.16,9.16,0,0,1,1.92-6.19,6.67,6.67,0,0,1,5.28-2.21,6.53,6.53,0,0,1,5.25,2.24A9.23,9.23,0,0,1,229,107.93Zm-12.8,0a8.24,8.24,0,0,0,1.47,5.21,5.55,5.55,0,0,0,8.31,0,8.24,8.24,0,0,0,1.47-5.21,8.12,8.12,0,0,0-1.49-5.21,5,5,0,0,0-4.17-1.85,5,5,0,0,0-4.14,1.84A8.31,8.31,0,0,0,216.15,107.93Z"/><path class="cls-1" d="M247.31,99.53a6.73,6.73,0,0,1,3.05.64,6.08,6.08,0,0,1,2.29,2.19h.09c-.06-1.25-.09-2.48-.09-3.68V92.85h1.46v23.21h-1l-.38-2.48h-.12a6,6,0,0,1-5.31,2.78,6.36,6.36,0,0,1-5.13-2.09,9.2,9.2,0,0,1-1.77-6.09c0-2.8.58-5,1.76-6.43A6.13,6.13,0,0,1,247.31,99.53Zm0,1.34a4.57,4.57,0,0,0-4,1.87,9.21,9.21,0,0,0-1.33,5.41q0,6.9,5.35,6.89a4.87,4.87,0,0,0,4-1.59c.86-1.07,1.28-2.82,1.28-5.27v-.25q0-3.77-1.26-5.41A4.81,4.81,0,0,0,247.31,100.87Z"/><path class="cls-1" d="M266.11,116.36a7.05,7.05,0,0,1-5.51-2.18,8.75,8.75,0,0,1-2-6.1,9.55,9.55,0,0,1,1.91-6.22,6.32,6.32,0,0,1,5.15-2.33,5.57,5.57,0,0,1,4.52,2,8.26,8.26,0,0,1,1.65,5.43v1.19H260.17a7.65,7.65,0,0,0,1.56,5.1,5.47,5.47,0,0,0,4.38,1.76,13.58,13.58,0,0,0,2.44-.19,14.67,14.67,0,0,0,2.66-.84v1.35a11.92,11.92,0,0,1-2.54.81A14.37,14.37,0,0,1,266.11,116.36Zm-.43-15.52a4.84,4.84,0,0,0-3.76,1.55,7.22,7.22,0,0,0-1.66,4.45h10a7,7,0,0,0-1.23-4.41A4,4,0,0,0,265.68,100.84Z"/><path class="cls-1" d="M286.38,111.84a3.84,3.84,0,0,1-1.65,3.34,8,8,0,0,1-4.7,1.18,11.27,11.27,0,0,1-5.16-1v-1.6A11.32,11.32,0,0,0,280,115a6.81,6.81,0,0,0,3.64-.79,2.44,2.44,0,0,0,1.25-2.13,2.59,2.59,0,0,0-1-2.06,10.92,10.92,0,0,0-3.26-1.64,19.38,19.38,0,0,1-3.42-1.51,4.75,4.75,0,0,1-1.48-1.44,3.52,3.52,0,0,1-.5-1.94,3.31,3.31,0,0,1,1.53-2.88,7.39,7.39,0,0,1,4.27-1.06,12.89,12.89,0,0,1,5,1l-.55,1.35a11.63,11.63,0,0,0-4.43-1,6.41,6.41,0,0,0-3.15.66,2,2,0,0,0-1.16,1.82,2.54,2.54,0,0,0,.9,2,12.89,12.89,0,0,0,3.53,1.7,16.94,16.94,0,0,1,3.19,1.42,4.52,4.52,0,0,1,1.5,1.44A3.48,3.48,0,0,1,286.38,111.84Z"/><path class="cls-1" d="M296.5,99.53a6.71,6.71,0,0,1,3,.64,6.17,6.17,0,0,1,2.3,2.19h.09c-.06-1.25-.09-2.48-.09-3.68V92.85h1.46v23.21h-1l-.37-2.48h-.12a6,6,0,0,1-5.31,2.78,6.39,6.39,0,0,1-5.14-2.09,9.2,9.2,0,0,1-1.77-6.09c0-2.8.59-5,1.76-6.43A6.14,6.14,0,0,1,296.5,99.53Zm0,1.34a4.57,4.57,0,0,0-4,1.87,9.21,9.21,0,0,0-1.34,5.41q0,6.9,5.36,6.89a4.85,4.85,0,0,0,4-1.59c.86-1.07,1.29-2.82,1.29-5.27v-.25q0-3.77-1.26-5.41A4.81,4.81,0,0,0,296.5,100.87Z"/><path class="cls-1" d="M315.29,116.36a7.07,7.07,0,0,1-5.51-2.18,8.75,8.75,0,0,1-2-6.1,9.55,9.55,0,0,1,1.91-6.22,6.32,6.32,0,0,1,5.15-2.33,5.57,5.57,0,0,1,4.52,2A8.26,8.26,0,0,1,321,107v1.19H309.35a7.65,7.65,0,0,0,1.56,5.1,5.47,5.47,0,0,0,4.38,1.76,13.51,13.51,0,0,0,2.44-.19,14.67,14.67,0,0,0,2.66-.84v1.35a12,12,0,0,1-2.53.81A14.48,14.48,0,0,1,315.29,116.36Zm-.43-15.52a4.86,4.86,0,0,0-3.76,1.55,7.22,7.22,0,0,0-1.66,4.45h10a7.11,7.11,0,0,0-1.22-4.41A4,4,0,0,0,314.86,100.84Z"/><path class="cls-1" d="M346.86,107.93a9.17,9.17,0,0,1-1.93,6.2,6.66,6.66,0,0,1-5.31,2.23,7,7,0,0,1-3.76-1,6.63,6.63,0,0,1-2.49-3,10.66,10.66,0,0,1-.86-4.44,9.16,9.16,0,0,1,1.92-6.19,6.64,6.64,0,0,1,5.28-2.21,6.5,6.5,0,0,1,5.24,2.24A9.23,9.23,0,0,1,346.86,107.93Zm-12.8,0a8.24,8.24,0,0,0,1.47,5.21,5.55,5.55,0,0,0,8.31,0,8.3,8.3,0,0,0,1.47-5.21,8.12,8.12,0,0,0-1.49-5.21,5.05,5.05,0,0,0-4.17-1.85,5,5,0,0,0-4.14,1.84A8.25,8.25,0,0,0,334.06,107.93Z"/><path class="cls-1" d="M359.07,95.34c0-1,.32-1.43.94-1.43a.85.85,0,0,1,.73.37,1.86,1.86,0,0,1,.26,1.06,1.93,1.93,0,0,1-.26,1.06.83.83,0,0,1-.73.38C359.39,96.78,359.07,96.3,359.07,95.34Zm1.69,20.72h-1.48V99.84h1.48Z"/><path class="cls-1" d="M377.5,116.06V105.54a5.17,5.17,0,0,0-1-3.56,4.16,4.16,0,0,0-3.19-1.11,5.53,5.53,0,0,0-4.26,1.47q-1.35,1.47-1.35,4.77v9h-1.48V99.84h1.25l.29,2.23h.09c1.05-1.7,2.92-2.54,5.62-2.54q5.52,0,5.52,5.92v10.61Z"/><path class="cls-1" d="M383.09,97.31c.73-.79,1.45-1.64,2.16-2.56a17.47,17.47,0,0,0,1.45-2.1h2.11v.26A16.76,16.76,0,0,1,387,95c-.86.86-1.81,1.72-2.84,2.58h-1.05Zm2.6,18.75h-1.48V99.84h1.48Z"/><path class="cls-1" d="M397.59,116.36a6.94,6.94,0,0,1-5.44-2.2,8.79,8.79,0,0,1-2-6.11,9,9,0,0,1,2-6.28,7.2,7.2,0,0,1,5.59-2.24,11.16,11.16,0,0,1,4,.73l-.4,1.31a12,12,0,0,0-3.66-.7,5.56,5.56,0,0,0-4.51,1.84,8.06,8.06,0,0,0-1.54,5.31,7.82,7.82,0,0,0,1.54,5.14,5.27,5.27,0,0,0,4.29,1.85,10.48,10.48,0,0,0,4.1-.79v1.37A9.23,9.23,0,0,1,397.59,116.36Z"/><path class="cls-1" d="M405.42,95.34c0-1,.32-1.43.94-1.43a.85.85,0,0,1,.73.37,1.86,1.86,0,0,1,.26,1.06,1.93,1.93,0,0,1-.26,1.06.83.83,0,0,1-.73.38C405.74,96.78,405.42,96.3,405.42,95.34Zm1.69,20.72h-1.48V99.84h1.48Z"/><path class="cls-1" d="M426,107.93a9.17,9.17,0,0,1-1.93,6.2,6.66,6.66,0,0,1-5.31,2.23,6.89,6.89,0,0,1-3.75-1,6.58,6.58,0,0,1-2.5-3,10.82,10.82,0,0,1-.86-4.44,9.16,9.16,0,0,1,1.92-6.19,6.67,6.67,0,0,1,5.28-2.21,6.53,6.53,0,0,1,5.25,2.24A9.23,9.23,0,0,1,426,107.93Zm-12.8,0a8.24,8.24,0,0,0,1.47,5.21,5.55,5.55,0,0,0,8.31,0,8.24,8.24,0,0,0,1.47-5.21,8.12,8.12,0,0,0-1.49-5.21,5.05,5.05,0,0,0-4.17-1.85,5,5,0,0,0-4.14,1.84A8.31,8.31,0,0,0,413.15,107.93Z"/><path class="cls-1" d="M107.84,83.7a9.17,9.17,0,0,0-2.6-5.28L81.08,54.25A9.29,9.29,0,1,0,67.94,67.39l17.89,17.9-18,18a9.08,9.08,0,0,0,0,12.83l.31.31a9.08,9.08,0,0,0,12.83,0L105.4,92A9,9,0,0,0,107.84,83.7Z"/><circle class="cls-1" cx="37.4" cy="85.71" r="9.29"/></svg>