<?xml version="1.0" encoding="UTF-8" standalone="no"?><!DOCTYPE svg PUBLIC "-//W3C//DTD SVG 1.1//EN" "http://www.w3.org/Graphics/SVG/1.1/DTD/svg11.dtd"><svg width="100%" height="100%" viewBox="0 0 41 56" version="1.1" xmlns="http://www.w3.org/2000/svg" xmlns:xlink="http://www.w3.org/1999/xlink" xml:space="preserve" xmlns:serif="http://www.serif.com/" style="fill-rule:evenodd;clip-rule:evenodd;stroke-linejoin:round;stroke-miterlimit:2;"><path d="M20.033,30.112c-5.558,-0 -10.079,-4.522 -10.079,-10.08c-0,-5.557 4.521,-10.078 10.079,-10.078c5.557,-0 10.079,4.521 10.079,10.078c-0,5.558 -4.522,10.08 -10.079,10.08Zm-0,-30.112c-11.046,0 -20.033,8.986 -20.033,20.032c0,13.709 17.927,33.834 18.691,34.684c0.717,0.798 1.968,0.797 2.684,-0c0.763,-0.85 18.69,-20.975 18.69,-34.684c0,-11.046 -8.986,-20.032 -20.032,-20.032" style="fill:#4b58a1;fill-rule:nonzero;"/></svg>